<svg width="92" height="66" viewBox="0 0 92 66" fill="none" xmlns="http://www.w3.org/2000/svg">
<g filter="url(#filter0_d_2510_24062)">
<rect x="4.5" y="3.5" width="83" height="57" rx="3.5" fill="white" stroke="#F3F3F3"/>
<path fill-rule="evenodd" clip-rule="evenodd" d="M34.7746 47.7913V49.9327V52.0742H33.8371V51.5542C33.5398 51.9398 33.0886 52.1819 32.4753 52.1819C31.2664 52.1819 30.3186 51.2414 30.3186 49.9327C30.3186 48.6251 31.2664 47.6836 32.4753 47.6836C33.0886 47.6836 33.5398 47.9256 33.8371 48.3113V47.7913H34.7746ZM32.592 48.5615C31.7805 48.5615 31.2839 49.1799 31.2839 49.9327C31.2839 50.6855 31.7805 51.304 32.592 51.304C33.3674 51.304 33.8908 50.7122 33.8908 49.9327C33.8908 49.1533 33.3674 48.5615 32.592 48.5615ZM66.454 49.9327C66.454 49.1799 66.9506 48.5615 67.7621 48.5615C68.5385 48.5615 69.0609 49.1533 69.0609 49.9327C69.0609 50.7122 68.5385 51.304 67.7621 51.304C66.9506 51.304 66.454 50.6855 66.454 49.9327ZM69.9457 46.0713V49.9327V52.0742H69.0072V51.5542C68.7099 51.9398 68.2587 52.1819 67.6455 52.1819C66.4365 52.1819 65.4887 51.2414 65.4887 49.9327C65.4887 48.6251 66.4365 47.6836 67.6455 47.6836C68.2587 47.6836 68.7099 47.9256 69.0072 48.3113V46.0713H69.9457ZM46.4112 48.5174C47.0152 48.5174 47.4034 48.8938 47.5025 49.5563H45.2652C45.3654 48.9379 45.7432 48.5174 46.4112 48.5174ZM44.2823 49.9327C44.2823 48.5974 45.1661 47.6836 46.4298 47.6836C47.6377 47.6836 48.4678 48.5974 48.4771 49.9327C48.4771 50.0579 48.4678 50.1748 48.4585 50.2907H45.2569C45.3922 51.0619 45.9425 51.3399 46.5464 51.3399C46.979 51.3399 47.4395 51.1778 47.8009 50.8917L48.2603 51.5819C47.7369 52.0209 47.1422 52.1819 46.4928 52.1819C45.2022 52.1819 44.2823 51.2947 44.2823 49.9327ZM57.7495 49.9327C57.7495 49.1799 58.2461 48.5615 59.0576 48.5615C59.833 48.5615 60.3564 49.1533 60.3564 49.9327C60.3564 50.7122 59.833 51.304 59.0576 51.304C58.2461 51.304 57.7495 50.6855 57.7495 49.9327ZM61.2402 47.7913V49.9327V52.0742H60.3027V51.5542C60.0044 51.9398 59.5542 52.1819 58.9409 52.1819C57.732 52.1819 56.7842 51.2414 56.7842 49.9327C56.7842 48.6251 57.732 47.6836 58.9409 47.6836C59.5542 47.6836 60.0044 47.9256 60.3027 48.3113V47.7913H61.2402ZM52.4551 49.9327C52.4551 51.2322 53.3657 52.1819 54.7554 52.1819C55.4048 52.1819 55.8374 52.0383 56.3061 51.6711L55.8559 50.9183C55.5039 51.1696 55.1343 51.304 54.7275 51.304C53.979 51.2947 53.4287 50.7573 53.4287 49.9327C53.4287 49.1082 53.979 48.5707 54.7275 48.5615C55.1343 48.5615 55.5039 48.6959 55.8559 48.9471L56.3061 48.1943C55.8374 47.8272 55.4048 47.6836 54.7554 47.6836C53.3657 47.6836 52.4551 48.6333 52.4551 49.9327ZM63.405 48.3113C63.6487 47.9349 64.0008 47.6836 64.5418 47.6836C64.7317 47.6836 65.0022 47.7195 65.2098 47.8005L64.9207 48.6784C64.7224 48.5974 64.5242 48.5707 64.3342 48.5707C63.721 48.5707 63.4143 48.9646 63.4143 49.6733V52.0742H62.4758V47.7913H63.405V48.3113ZM39.4112 48.1318C38.96 47.8364 38.3385 47.6836 37.6529 47.6836C36.5606 47.6836 35.8575 48.2036 35.8575 49.0548C35.8575 49.7533 36.381 50.184 37.3453 50.3184L37.7882 50.3809C38.3024 50.4527 38.545 50.5871 38.545 50.8291C38.545 51.1604 38.2022 51.3491 37.5621 51.3491C36.9127 51.3491 36.444 51.1429 36.128 50.9009L35.6861 51.626C36.2003 52.0024 36.8497 52.1819 37.5528 52.1819C38.7979 52.1819 39.5196 51.5993 39.5196 50.784C39.5196 50.0312 38.9518 49.6374 38.0133 49.503L37.5714 49.4394C37.1656 49.3861 36.8404 49.3061 36.8404 49.0189C36.8404 48.7051 37.147 48.5174 37.6612 48.5174C38.2115 48.5174 38.7442 48.7236 39.0054 48.8846L39.4112 48.1318ZM50.3717 48.3113C50.6143 47.9349 50.9663 47.6836 51.5073 47.6836C51.6973 47.6836 51.9678 47.7195 52.1753 47.8005L51.8862 48.6784C51.688 48.5974 51.4898 48.5707 51.2998 48.5707C50.6866 48.5707 50.3799 48.9646 50.3799 49.6733V52.0742H49.4425V47.7913H50.3717V48.3113ZM43.5068 47.7913H41.9736V46.4918H41.0258V47.7913H40.1514V48.6425H41.0258V50.5963C41.0258 51.5901 41.414 52.1819 42.5229 52.1819C42.9297 52.1819 43.3984 52.0568 43.6957 51.8506L43.4252 51.0527C43.1454 51.2137 42.8388 51.2947 42.5952 51.2947C42.1264 51.2947 41.9736 51.0076 41.9736 50.5778V48.6425H43.5068V47.7913ZM29.4895 49.3861V52.0742H28.5417V49.6907C28.5417 48.9646 28.235 48.5615 27.5949 48.5615C26.9724 48.5615 26.5398 48.9564 26.5398 49.6999V52.0742H25.592V49.6907C25.592 48.9646 25.2771 48.5615 24.6545 48.5615C24.0134 48.5615 23.5984 48.9564 23.5984 49.6999V52.0742H22.6516V47.7913H23.5901V48.3195C23.9422 47.8179 24.3923 47.6836 24.8528 47.6836C25.5115 47.6836 25.9802 47.9708 26.2775 48.4456C26.675 47.8446 27.2429 47.6744 27.7932 47.6836C28.8401 47.6928 29.4895 48.3738 29.4895 49.3861Z" fill="#231F20"/>
<path d="M53.3088 40.5137H39.1003V15.1484H53.3088V40.5137Z" fill="#FF5F00"/>
<path d="M40.0018 27.8317C40.0018 22.6862 42.427 18.1028 46.2037 15.1491C43.4419 12.9891 39.9564 11.7 36.1683 11.7C27.2006 11.7 19.9312 18.9223 19.9312 27.8317C19.9312 36.7411 27.2006 43.9634 36.1683 43.9634C39.9564 43.9634 43.4419 42.6742 46.2037 40.5143C42.427 37.5605 40.0018 32.9771 40.0018 27.8317" fill="#EB001B"/>
<path d="M72.4772 27.8317C72.4772 36.7411 65.2077 43.9634 56.24 43.9634C52.4519 43.9634 48.9664 42.6742 46.2036 40.5143C49.9813 37.5605 52.4065 32.9771 52.4065 27.8317C52.4065 22.6862 49.9813 18.1028 46.2036 15.1491C48.9664 12.9891 52.4519 11.7 56.24 11.7C65.2077 11.7 72.4772 18.9223 72.4772 27.8317" fill="#F79E1B"/>
</g>
<defs>
<filter id="filter0_d_2510_24062" x="0" y="0" width="92" height="66" filterUnits="userSpaceOnUse" color-interpolation-filters="sRGB">
<feFlood flood-opacity="0" result="BackgroundImageFix"/>
<feColorMatrix in="SourceAlpha" type="matrix" values="0 0 0 0 0 0 0 0 0 0 0 0 0 0 0 0 0 0 127 0" result="hardAlpha"/>
<feOffset dy="1"/>
<feGaussianBlur stdDeviation="2"/>
<feComposite in2="hardAlpha" operator="out"/>
<feColorMatrix type="matrix" values="0 0 0 0 0.0470588 0 0 0 0 0.0470588 0 0 0 0 0.0509804 0 0 0 0.05 0"/>
<feBlend mode="normal" in2="BackgroundImageFix" result="effect1_dropShadow_2510_24062"/>
<feBlend mode="normal" in="SourceGraphic" in2="effect1_dropShadow_2510_24062" result="shape"/>
</filter>
</defs>
</svg>
