<svg width="79" height="18" viewBox="0 0 79 18" fill="none" xmlns="http://www.w3.org/2000/svg">
<g id="svg 2" clip-path="url(#clip0_2601_10230)">
<g id="Clip path group">
<mask id="mask0_2601_10230" style="mask-type:luminance" maskUnits="userSpaceOnUse" x="0" y="0" width="79" height="18">
<g id="clip0_2585_15943">
<path id="Vector" d="M78.5795 0H0V18H78.5795V0Z" fill="white"/>
</g>
</mask>
<g mask="url(#mask0_2601_10230)">
<g id="Group">
<path id="Vector_2" d="M11.1722 1.71255H0.654182C0.297811 1.71255 0.000500768 2.09823 0.000500768 2.56232V4.08573C0.000500768 4.5614 0.297811 4.93678 0.654685 4.93678H11.1717C11.537 4.93678 11.8258 4.54982 11.8344 4.08637V2.57325C11.8344 2.09887 11.537 1.71255 11.1722 1.71255ZM11.1722 10.1922H0.654182C0.56808 10.1925 0.482865 10.2146 0.403476 10.2574C0.324088 10.3002 0.252105 10.3628 0.1917 10.4416C0.0687259 10.6018 -0.000150054 10.8177 2.45468e-07 11.0426V12.566C2.45468e-07 13.0417 0.297311 13.4164 0.654182 13.4164H11.1712C11.5365 13.4164 11.8253 13.041 11.8339 12.5667V11.0426C11.8339 10.5676 11.537 10.1922 11.1722 10.1922ZM6.57584 14.4218H0.654685C0.481003 14.4218 0.314329 14.5111 0.192201 14.6705C0.0692267 14.8306 0.000350467 15.0466 0.000500768 15.2716V16.7949C0.000500768 17.2706 0.297811 17.6454 0.654685 17.6454H6.56737C6.93274 17.6454 7.22154 17.2597 7.22154 16.7956V15.2716C7.22377 15.1609 7.20867 15.0507 7.1772 14.9477C7.14573 14.8446 7.09852 14.7507 7.03838 14.6714C6.97817 14.5921 6.90624 14.5292 6.82686 14.4862C6.74741 14.4432 6.66204 14.4217 6.57584 14.4218ZM11.8344 5.95175H0.654685C0.481003 5.95175 0.314329 6.04173 0.192201 6.2005C0.0691043 6.36082 0.000218668 6.57701 0.000500768 6.80215V8.32553C0.000500768 8.80057 0.297811 9.17595 0.654685 9.17595H11.8263C12.1917 9.17595 12.48 8.78969 12.48 8.32553V6.80215C12.4815 6.69175 12.4659 6.58205 12.4342 6.47942C12.4025 6.37678 12.3552 6.28324 12.2952 6.20417C12.2352 6.1251 12.1635 6.06209 12.0844 6.01877C12.0053 5.97544 11.9203 5.95267 11.8344 5.95175Z" fill="#00C3F7"/>
<path id="Vector_3" d="M24.0753 5.14658C23.7522 4.71705 23.3651 4.37538 22.9371 4.1419C22.5067 3.90957 22.0446 3.7894 21.5777 3.78837C21.1227 3.77487 20.6717 3.89976 20.2614 4.15283C19.9862 4.32188 19.7379 4.55779 19.5307 4.84832V4.58414C19.529 4.44966 19.49 4.32037 19.4205 4.21968C19.3863 4.16714 19.3434 4.12502 19.2949 4.09634C19.2465 4.06766 19.1937 4.05315 19.1403 4.05384H17.6703C17.6168 4.05202 17.5637 4.06603 17.5151 4.09479C17.4665 4.12354 17.4237 4.16628 17.39 4.21968C17.317 4.31755 17.2772 4.44863 17.2794 4.58414V17.161C17.2794 17.2934 17.3219 17.4257 17.3895 17.5247C17.4264 17.5715 17.4702 17.6084 17.5183 17.6331C17.5665 17.6579 17.6179 17.67 17.6698 17.6687H19.1568C19.2589 17.6687 19.352 17.6134 19.4286 17.5247C19.4686 17.4797 19.5002 17.4235 19.5209 17.3605C19.5415 17.2974 19.5507 17.2292 19.5477 17.161V12.8652C19.7599 13.1634 20.0317 13.3846 20.329 13.517C20.7199 13.7046 21.1278 13.7933 21.5437 13.7933C22.0192 13.7933 22.4867 13.6821 22.9201 13.4399C23.3554 13.2068 23.7487 12.8611 24.0753 12.4243C24.4142 11.969 24.6799 11.4322 24.8571 10.8449C25.0583 10.1876 25.1564 9.48577 25.1459 8.7796C25.1522 8.07058 25.0542 7.36639 24.8571 6.70406C24.6742 6.1268 24.4094 5.59855 24.0753 5.14658ZM22.7334 9.69563C22.6556 9.96228 22.5372 10.2064 22.3851 10.4136C22.2343 10.6217 22.0514 10.7872 21.848 10.8993C21.6446 11.0114 21.4252 11.0677 21.2039 11.0647C20.9746 11.0647 20.7539 11.0095 20.5502 10.888C20.3491 10.7766 20.1671 10.6154 20.0147 10.4136C19.8628 10.2041 19.7419 9.96072 19.6578 9.69563C19.488 9.127 19.488 8.49781 19.6578 7.92921C19.7344 7.66438 19.862 7.42141 20.0147 7.22215C20.1684 7.01942 20.3499 6.85489 20.5502 6.73684C20.7544 6.61318 20.9782 6.55264 21.2039 6.56007C21.4336 6.56007 21.6543 6.61535 21.8665 6.7362C22.0617 6.85833 22.2404 7.01259 22.3935 7.21186C22.5463 7.42141 22.6569 7.65281 22.7419 7.91829C22.9048 8.49299 22.9018 9.12356 22.7334 9.69563ZM33.1479 4.0532H31.6699C31.6188 4.05294 31.5681 4.06656 31.5213 4.09313C31.4745 4.11972 31.4325 4.15867 31.3982 4.20747C31.3601 4.25704 31.33 4.31577 31.3097 4.3803C31.2893 4.44482 31.2791 4.51387 31.2796 4.58349V4.8149C31.0937 4.5373 30.8652 4.31191 30.6084 4.15283C30.2064 3.90205 29.7639 3.77715 29.3171 3.78837C28.3653 3.79046 27.4525 4.27459 26.777 5.13565C26.4288 5.58983 26.1518 6.1258 25.9612 6.71434C25.7491 7.372 25.6452 8.07886 25.6559 8.79056C25.6468 9.50205 25.7507 10.2085 25.9612 10.8668C26.1508 11.4533 26.4247 11.9889 26.7685 12.4455C27.0969 12.8801 27.4906 13.2245 27.9258 13.4578C28.361 13.6911 28.8285 13.8086 29.3001 13.803C29.7505 13.8146 30.192 13.6931 30.5999 13.4386C30.8546 13.2734 31.0924 13.0529 31.2796 12.7765V13.0304C31.2796 13.1628 31.3216 13.2952 31.3982 13.3949C31.4748 13.4829 31.5684 13.5382 31.6699 13.5382H33.1479C33.2518 13.5357 33.3515 13.4847 33.4283 13.3949C33.465 13.347 33.4938 13.29 33.5129 13.2273C33.5318 13.1646 33.5407 13.0976 33.5389 13.0304V4.58349C33.5411 4.44808 33.5016 4.31701 33.4288 4.21903C33.3951 4.16564 33.3522 4.12291 33.3036 4.09415C33.255 4.06539 33.2014 4.05138 33.1479 4.0532ZM31.1519 9.68467C31.0742 9.9514 30.9557 10.1955 30.8036 10.4026C30.6508 10.6016 30.4728 10.7657 30.277 10.888C29.8606 11.131 29.3761 11.131 28.9602 10.888C28.7599 10.7699 28.5784 10.6054 28.4247 10.4026C28.2727 10.1955 28.1544 9.9514 28.0768 9.68467C27.9155 9.11783 27.9155 8.49601 28.0768 7.92921C28.1529 7.66438 28.272 7.43234 28.4252 7.22215C28.5778 7.02352 28.756 6.85833 28.9602 6.73684C29.167 6.61683 29.3914 6.55476 29.6184 6.55476C29.8454 6.55476 30.0697 6.61683 30.2765 6.73684C30.4723 6.85833 30.651 7.01259 30.8036 7.21122C30.9482 7.42141 31.0669 7.65281 31.1519 7.91829C31.3221 8.49233 31.3221 9.1216 31.1519 9.68467ZM47.8874 8.54691C47.6744 8.30611 47.4299 8.11565 47.1651 7.9845C46.8847 7.84077 46.5947 7.72976 46.2988 7.65281L45.1686 7.36613C44.8798 7.29992 44.6761 7.20029 44.5655 7.0788C44.5195 7.03772 44.4818 6.98332 44.4553 6.92C44.4288 6.85667 44.4142 6.78622 44.4128 6.71434C44.4128 6.56007 44.4809 6.42766 44.625 6.3171C44.8202 6.18468 45.033 6.11783 45.2537 6.14033C45.5425 6.14033 45.8313 6.21747 46.0946 6.36081C46.3498 6.50479 46.6046 6.67063 46.8338 6.86861C47.1651 7.13409 47.4454 7.08973 47.6406 6.79147L48.1847 5.99699C48.2862 5.86393 48.3458 5.68781 48.3549 5.50011C48.3503 5.40341 48.3297 5.30907 48.2945 5.22339C48.2592 5.13771 48.2102 5.06265 48.1506 5.00324C47.9209 4.74934 47.556 4.47294 47.0716 4.20811C46.5876 3.94328 45.9754 3.79929 45.2537 3.79929C44.8132 3.79171 44.3745 3.87372 43.9539 4.04227C43.5943 4.18469 43.2576 4.40894 42.9599 4.70434C42.6916 4.97405 42.4739 5.31759 42.3228 5.70966C42.1787 6.09192 42.1033 6.5108 42.102 6.93546C42.102 7.71967 42.2887 8.35987 42.6541 8.83425C43.0194 9.30929 43.5039 9.61848 44.107 9.77271L45.2792 10.1044C45.5345 10.1597 45.7888 10.2587 46.027 10.4026C46.1541 10.4689 46.2392 10.6341 46.2392 10.8218C46.2392 10.9876 46.1711 11.1419 46.027 11.2749C45.8824 11.4074 45.6446 11.4954 45.3388 11.4954C45.0182 11.5024 44.7009 11.4116 44.4128 11.2305C44.1398 11.0614 43.8856 10.8461 43.6571 10.5904C43.5568 10.4821 43.4413 10.3995 43.3168 10.3474C43.1811 10.2921 43.0194 10.3474 42.8412 10.5351L42.1956 11.1644C42.1077 11.2457 42.0396 11.3574 41.9991 11.4863C41.9585 11.6153 41.9471 11.7564 41.9664 11.8933C41.9999 12.1697 42.1786 12.4448 42.5099 12.7655C43.3243 13.4716 44.2883 13.8379 45.2707 13.8146C45.728 13.8222 46.1835 13.7402 46.6216 13.5716C46.9973 13.4257 47.3507 13.1979 47.6662 12.898C47.9464 12.6215 48.1847 12.268 48.3458 11.8599C48.5013 11.4583 48.5826 11.0163 48.5836 10.5679C48.5906 10.1649 48.5269 9.76493 48.3969 9.39798C48.2685 9.07725 48.0959 8.78851 47.8874 8.54691ZM54.3434 10.8443C54.3103 10.7688 54.2638 10.7045 54.2077 10.6565C54.1516 10.6085 54.0875 10.5781 54.0206 10.5679C53.8849 10.5679 53.7488 10.6231 53.6382 10.7221C53.4583 10.8741 53.2501 10.9619 53.0351 10.9767C52.967 10.9767 52.8909 10.9658 52.8229 10.9433C52.7492 10.9242 52.6814 10.8782 52.6277 10.8108C52.5598 10.7297 52.5049 10.6323 52.466 10.5241C52.418 10.3621 52.3949 10.1897 52.3979 10.0164V6.571H54.3179C54.43 6.56758 54.5367 6.50808 54.6152 6.40516C54.655 6.35914 54.687 6.30296 54.7089 6.24021C54.7309 6.17745 54.7425 6.1095 54.7428 6.0407V4.58414C54.7435 4.51351 54.7325 4.4435 54.7105 4.37877C54.6885 4.31404 54.656 4.25607 54.6152 4.20875C54.5381 4.11115 54.4346 4.05582 54.3264 4.05448H52.4065V1.70187C52.4095 1.63193 52.4006 1.56196 52.38 1.49705C52.3595 1.43213 52.328 1.37387 52.2878 1.32648C52.2141 1.23681 52.117 1.18569 52.0156 1.18315H50.5205C50.4134 1.18046 50.3097 1.23194 50.2317 1.32648C50.1526 1.42525 50.1069 1.56013 50.1046 1.70187V4.05448H49.2548C49.2013 4.05259 49.1482 4.0665 49.0996 4.09515C49.051 4.12379 49.0082 4.16639 48.9745 4.21968C48.9051 4.32037 48.866 4.44966 48.8643 4.58414V6.04134C48.8643 6.17375 48.9064 6.30681 48.9745 6.40581C49.0069 6.46108 49.0494 6.50517 49.0984 6.53412C49.1472 6.56307 49.201 6.57595 49.2548 6.57164H50.1046V10.6681C50.0963 11.1545 50.1717 11.6371 50.3253 12.0816C50.4623 12.4449 50.656 12.7681 50.8944 13.031C51.1322 13.2849 51.4124 13.4617 51.7012 13.5723C52.0012 13.6918 52.3137 13.7514 52.6277 13.749C53.0406 13.7479 53.4507 13.662 53.8424 13.4945C54.2058 13.3388 54.5349 13.074 54.8023 12.7218C54.8836 12.6146 54.9331 12.4743 54.9423 12.325C54.9515 12.1759 54.9199 12.0273 54.8529 11.9049L54.3434 10.8443ZM62.4391 4.0532H60.9611C60.9099 4.05294 60.8592 4.06656 60.8124 4.09313C60.7656 4.11972 60.7236 4.15867 60.6893 4.20747C60.6511 4.25697 60.6209 4.31567 60.6005 4.3802C60.5801 4.44474 60.5698 4.51382 60.5702 4.58349V4.8149C60.3845 4.53713 60.1559 4.31171 59.899 4.15283C59.4945 3.90088 59.0492 3.77596 58.5997 3.78837C58.1295 3.78841 57.6639 3.90741 57.2296 4.13858C56.7952 4.36975 56.4006 4.70856 56.0681 5.13565C55.7172 5.58704 55.4399 6.12373 55.2523 6.71434C55.0411 7.36827 54.937 8.07109 54.9465 8.77894C54.9377 9.49051 55.0417 10.1969 55.2523 10.8552C55.4395 11.4402 55.7198 11.9814 56.0597 12.4338C56.3871 12.8678 56.7793 13.2127 57.2128 13.4479C57.6462 13.6831 58.1121 13.8039 58.5827 13.803C59.0311 13.8138 59.4755 13.6929 59.882 13.4495C60.1373 13.2843 60.375 13.0638 60.5617 12.7874V13.0304C60.5627 13.1654 60.6037 13.2939 60.6768 13.3884C60.7497 13.4832 60.8488 13.5371 60.9526 13.5382H62.4391C62.5421 13.5384 62.641 13.4863 62.7143 13.3932C62.7875 13.3001 62.8291 13.1736 62.83 13.0413V4.58414C62.8311 4.51704 62.8219 4.45031 62.8029 4.38778C62.784 4.32524 62.7555 4.26813 62.7194 4.21968C62.6857 4.16624 62.6429 4.12349 62.5943 4.09472C62.5457 4.06596 62.4926 4.05133 62.4391 4.0532ZM60.4431 9.68467C60.3652 9.95131 60.2468 10.1954 60.0947 10.4026C59.9418 10.6017 59.7635 10.7658 59.5677 10.888C59.3608 11.0129 59.134 11.0735 58.9055 11.0647C58.6758 11.0647 58.4551 10.9985 58.2513 10.888C58.0511 10.7699 57.8696 10.6054 57.7159 10.4026C57.5638 10.1954 57.4453 9.95131 57.3675 9.68467C57.2064 9.11783 57.2064 8.4961 57.3675 7.92921C57.4455 7.66592 57.564 7.42547 57.7159 7.22215C57.8689 7.02352 58.0471 6.85833 58.2513 6.73684C58.4567 6.61712 58.68 6.55678 58.9055 6.56007C59.1347 6.56007 59.3555 6.61535 59.5677 6.7362C59.7634 6.85833 59.9415 7.01259 60.0947 7.21186C60.2473 7.42141 60.3665 7.65281 60.4431 7.91829C60.6212 8.48489 60.6212 9.11808 60.4431 9.68467ZM70.552 10.7228L69.7028 9.88332C69.5416 9.71813 69.388 9.67371 69.2523 9.73998C69.1332 9.80584 69.0255 9.90378 68.9382 10.0272C68.7522 10.3163 68.535 10.5692 68.2922 10.7781C68.038 10.9658 67.7571 11.0545 67.4685 11.032C67.1359 11.0367 66.8116 10.9074 66.5396 10.6623C66.2669 10.4159 66.0598 10.0666 65.9477 9.66282C65.8706 9.38636 65.8305 9.09517 65.8292 8.80144C65.8292 8.50321 65.8623 8.20499 65.9477 7.91829C66.0242 7.65281 66.135 7.41048 66.2873 7.21122C66.4408 7.01259 66.6186 6.84676 66.8142 6.7362C67.0219 6.6133 67.248 6.5495 67.4767 6.54914C67.7654 6.5358 68.0514 6.62761 68.3011 6.81397C68.5452 7.01958 68.763 7.27288 68.9465 7.56475C69.0313 7.68624 69.1332 7.78523 69.2523 7.85207C69.388 7.91828 69.5416 7.87393 69.6938 7.70809L70.5437 6.88018C70.6457 6.79147 70.7304 6.65906 70.7648 6.50479C70.7884 6.42222 70.7979 6.3338 70.7922 6.24596C70.7865 6.15812 70.7654 6.07307 70.7304 5.99699C70.4029 5.33985 69.9531 4.79724 69.4224 4.41766C68.8618 4.00949 68.1903 3.79929 67.4423 3.79929C66.9155 3.79948 66.3937 3.93066 65.905 4.18561C65.4387 4.43017 65.0144 4.79059 64.6563 5.24621C64.2976 5.69761 64.0141 6.23858 63.8243 6.83583C63.4246 8.09983 63.4246 9.51408 63.8243 10.7781C64.0192 11.3739 64.2995 11.9151 64.6563 12.3568C65.3998 13.2924 66.4013 13.8124 67.4423 13.803C68.1903 13.803 68.8618 13.5935 69.4224 13.1847C69.9576 12.8046 70.4106 12.258 70.7387 11.595C70.7737 11.521 70.7947 11.4377 70.8005 11.3516C70.8062 11.2656 70.7973 11.1788 70.7731 11.0982C70.7329 10.9459 70.6552 10.8143 70.552 10.7228ZM78.4182 12.6878L76.0826 8.28214L78.0787 4.89268C78.1258 4.81533 78.1577 4.7251 78.1723 4.62913C78.187 4.53317 78.1838 4.43412 78.1634 4.33988C78.1296 4.20811 78.0366 4.06412 77.7901 4.06412H76.2101C76.119 4.06743 76.0291 4.09363 75.9463 4.14126C75.8488 4.20435 75.7686 4.30471 75.717 4.42859L74.1197 7.29992H73.7375V0.508858C73.7388 0.441796 73.7298 0.375089 73.7107 0.312551C73.6916 0.250014 73.6636 0.192873 73.6273 0.144398C73.5903 0.097821 73.5464 0.0611597 73.4986 0.0365503C73.4502 0.0119409 73.3992 -0.000124986 73.347 0.00105553H71.8689C71.765 0.00361299 71.665 0.0545542 71.5886 0.144398C71.5491 0.190143 71.5178 0.246546 71.4975 0.309558C71.4764 0.372571 71.4675 0.440632 71.4694 0.508858V13.0304C71.4694 13.1737 71.5115 13.3068 71.5886 13.3949C71.6255 13.4415 71.6688 13.4782 71.7173 13.5028C71.7657 13.5274 71.8166 13.5395 71.8689 13.5382H73.347C73.4508 13.5356 73.5508 13.4847 73.6273 13.3949C73.6636 13.3464 73.6916 13.2893 73.7107 13.2267C73.7298 13.1642 73.7388 13.0975 73.7375 13.0304V9.71813H74.1624L75.9036 13.1519C76.0056 13.3949 76.2018 13.5491 76.4139 13.5491H78.0704C78.3252 13.5491 78.4265 13.3949 78.4692 13.2624C78.4992 13.1689 78.51 13.0671 78.5011 12.9666C78.4921 12.8662 78.4641 12.7703 78.4182 12.6878ZM41.55 4.0532H39.8933C39.832 4.04859 39.7707 4.06102 39.7135 4.08964C39.6563 4.11827 39.6047 4.1624 39.562 4.21903C39.487 4.31694 39.4343 4.43913 39.4093 4.57257L38.1855 10.4246H37.8888L36.5809 4.57257C36.556 4.44886 36.5126 4.33252 36.4533 4.22997C36.4172 4.17377 36.3718 4.12871 36.3203 4.09812C36.2689 4.06752 36.2127 4.05217 36.156 4.0532H34.4398C34.2195 4.0532 34.0834 4.1419 34.0238 4.3296C33.9813 4.49479 33.9813 4.68313 34.0238 4.84832L36.122 13.0747C36.156 13.1962 36.2071 13.3177 36.2836 13.4058C36.3687 13.5054 36.4788 13.5601 36.5974 13.5491H37.4813L37.4048 13.8146L37.2096 14.5763C37.1495 14.8077 37.0394 15.0179 36.8867 15.1721C36.7455 15.3116 36.5718 15.3856 36.3937 15.3823C36.2411 15.3823 36.0885 15.338 35.9523 15.2603C35.8128 15.1825 35.6815 15.0825 35.5614 14.9626C35.4522 14.8625 35.3216 14.8087 35.1875 14.8084H35.1705C35.0937 14.8133 35.019 14.8431 34.9537 14.8952C34.8883 14.9472 34.8343 15.0198 34.7966 15.1059L34.2701 16.0997C34.0579 16.5304 34.1765 16.8068 34.3126 16.961C34.5935 17.2943 34.9266 17.5465 35.2896 17.7009C35.6916 17.8772 36.1136 17.9666 36.5384 17.9657C37.2942 17.9657 37.9313 17.7009 38.4153 17.1712C38.9207 16.6013 39.2892 15.8581 39.4774 15.0288L41.9073 4.84832C41.9583 4.67155 41.9669 4.48386 41.9158 4.3071C41.8733 4.18561 41.7792 4.0532 41.55 4.0532Z" fill="#011B33"/>
</g>
</g>
</g>
</g>
<defs>
<clipPath id="clip0_2601_10230">
<rect width="79" height="18" fill="white"/>
</clipPath>
</defs>
</svg>
