<svg width="30" height="30" viewBox="0 0 30 30" fill="none" xmlns="http://www.w3.org/2000/svg">
<g clip-path="url(#clip0_5384_9935)">
<path d="M20.625 7.5V21.875C20.625 24.6375 18.3875 26.875 15.625 26.875C12.8625 26.875 10.625 24.6375 10.625 21.875V6.25C10.625 4.525 12.025 3.125 13.75 3.125C15.475 3.125 16.875 4.525 16.875 6.25V19.375C16.875 20.0625 16.3125 20.625 15.625 20.625C14.9375 20.625 14.375 20.0625 14.375 19.375V7.5H12.5V19.375C12.5 21.1 13.9 22.5 15.625 22.5C17.35 22.5 18.75 21.1 18.75 19.375V6.25C18.75 3.4875 16.5125 1.25 13.75 1.25C10.9875 1.25 8.75 3.4875 8.75 6.25V21.875C8.75 25.675 11.825 28.75 15.625 28.75C19.425 28.75 22.5 25.675 22.5 21.875V7.5H20.625Z" fill="#E20000"/>
</g>
<defs>
<clipPath id="clip0_5384_9935">
<rect width="30" height="30" fill="white"/>
</clipPath>
</defs>
</svg>
