<svg width="30" height="30" viewBox="0 0 30 30" fill="none" xmlns="http://www.w3.org/2000/svg">
<g id="discovery">
<g id="Discovery">
<path id="Fill 1" opacity="0.4" d="M27.5 15C27.5 21.9037 21.9037 27.5 15 27.5C8.09625 27.5 2.5 21.9037 2.5 15C2.5 8.0975 8.09625 2.5 15 2.5C21.9037 2.5 27.5 8.0975 27.5 15" fill="#E20000"/>
<path id="Fill 4" d="M19.8244 10.881L17.7994 17.281C17.7244 17.5435 17.5119 17.756 17.2494 17.8323L10.8744 19.831C10.4494 19.9698 10.0369 19.556 10.1744 19.131L12.1744 12.7185C12.2494 12.456 12.4619 12.256 12.7244 12.1685L19.1244 10.1685C19.5619 10.031 19.9619 10.4435 19.8244 10.881" fill="#E20000"/>
</g>
</g>
</svg>
