<svg width="13" height="13" viewBox="0 0 13 13" fill="none" xmlns="http://www.w3.org/2000/svg">
<mask id="mask0_7667_9630" style="mask-type:luminance" maskUnits="userSpaceOnUse" x="1" y="1" width="11" height="12">
<path fill-rule="evenodd" clip-rule="evenodd" d="M1.12109 1.68408H11.5596V12.0185H1.12109V1.68408Z" fill="white"/>
</mask>
<g mask="url(#mask0_7667_9630)">
<path fill-rule="evenodd" clip-rule="evenodd" d="M3.9672 2.43408C2.50254 2.43408 1.87763 3.17208 1.87763 4.90058V8.80008C1.87763 10.3921 2.7643 11.2686 4.37422 11.2686H8.29915C9.90504 11.2686 10.7892 10.3921 10.7892 8.80008V8.79858L10.8033 6.31608C10.8033 4.61658 10.2152 3.95408 8.70466 3.95408H7.27732C6.79868 3.95358 6.34173 3.72708 6.05424 3.34808L5.59376 2.74108C5.44901 2.54858 5.21751 2.43458 4.97542 2.43408H3.9672ZM8.29915 12.0186H4.37422C2.36787 12.0186 1.12109 10.7851 1.12109 8.80008V4.90058C1.12109 2.76608 2.07887 1.68408 3.9672 1.68408H4.97592C5.45557 1.68458 5.91252 1.91158 6.199 2.29108L6.65847 2.89708C6.80423 3.08908 7.03573 3.20358 7.27782 3.20408H8.70466C10.6525 3.20408 11.5598 4.19358 11.5598 6.31808L11.5457 8.80158C11.5452 10.7856 10.3015 12.0186 8.29915 12.0186Z" fill="#E20000"/>
</g>
<path fill-rule="evenodd" clip-rule="evenodd" d="M8.54362 8.54053H4.13804C3.92923 8.54053 3.75977 8.37253 3.75977 8.16553C3.75977 7.95853 3.92923 7.79053 4.13804 7.79053H8.54362C8.75243 7.79053 8.9219 7.95853 8.9219 8.16553C8.9219 8.37253 8.75243 8.54053 8.54362 8.54053Z" fill="#E20000"/>
</svg>
