<svg width="17" height="16" viewBox="0 0 17 16" fill="none" xmlns="http://www.w3.org/2000/svg">
<g id="Folder">
<g id="Group 3">
<mask id="mask0_3905_3700" style="mask-type:luminance" maskUnits="userSpaceOnUse" x="0" y="0" width="17" height="17">
<path id="Clip 2" fill-rule="evenodd" clip-rule="evenodd" d="M0.5 0.5H16.0224V16.0017H0.5V0.5Z" fill="white"/>
</mask>
<g mask="url(#mask0_3905_3700)">
<path id="Fill 1" fill-rule="evenodd" clip-rule="evenodd" d="M4.73225 1.625C2.55425 1.625 1.625 2.732 1.625 5.32475V11.174C1.625 13.562 2.9435 14.8768 5.3375 14.8768H11.174C13.562 14.8768 14.8768 13.562 14.8768 11.174V11.1718L14.8978 7.448C14.8978 4.89875 14.0233 3.905 11.777 3.905H9.6545C8.94275 3.90425 8.26325 3.5645 7.83575 2.996L7.151 2.0855C6.93575 1.79675 6.5915 1.62575 6.2315 1.625H4.73225ZM11.174 16.0018H5.3375C2.354 16.0018 0.5 14.1515 0.5 11.174V5.32475C0.5 2.123 1.92425 0.5 4.73225 0.5H6.23225C6.9455 0.50075 7.625 0.84125 8.051 1.4105L8.73425 2.3195C8.951 2.6075 9.29525 2.77925 9.65525 2.78H11.777C14.6735 2.78 16.0228 4.26425 16.0228 7.451L16.0018 11.1762C16.001 14.1522 14.1515 16.0018 11.174 16.0018Z" fill="white"/>
</g>
</g>
<path id="Fill 4" fill-rule="evenodd" clip-rule="evenodd" d="M11.5366 10.7847H4.98535C4.67485 10.7847 4.42285 10.5327 4.42285 10.2222C4.42285 9.91167 4.67485 9.65967 4.98535 9.65967H11.5366C11.8471 9.65967 12.0991 9.91167 12.0991 10.2222C12.0991 10.5327 11.8471 10.7847 11.5366 10.7847Z" fill="white"/>
</g>
</svg>
