<svg width="24" height="24" viewBox="0 0 24 24" fill="none" xmlns="http://www.w3.org/2000/svg">
<g id="Instagram">
<rect width="24" height="24" rx="12" fill="black"/>
<path id="Vector" d="M12.0017 6.09763C13.9256 6.09763 14.1514 6.10621 14.9119 6.14051C15.6151 6.17196 15.9953 6.28916 16.2497 6.38922C16.587 6.52071 16.8272 6.67508 17.0787 6.92664C17.3303 7.17821 17.4875 7.41833 17.6161 7.75565C17.7133 8.01007 17.8334 8.39028 17.8648 9.0935C17.8991 9.85391 17.9077 10.0797 17.9077 12.0036C17.9077 13.9275 17.8991 14.1533 17.8648 14.9137C17.8334 15.617 17.7162 15.9972 17.6161 16.2516C17.4846 16.5889 17.3303 16.829 17.0787 17.0806C16.8272 17.3321 16.587 17.4894 16.2497 17.618C15.9953 17.7152 15.6151 17.8353 14.9119 17.8667C14.1514 17.901 13.9256 17.9096 12.0017 17.9096C10.0779 17.9096 9.85203 17.901 9.09163 17.8667C8.3884 17.8353 8.00819 17.7181 7.75377 17.618C7.41645 17.4865 7.17633 17.3321 6.92476 17.0806C6.6732 16.829 6.51598 16.5889 6.38734 16.2516C6.29014 15.9972 6.17008 15.617 6.13863 14.9137C6.10433 14.1533 6.09575 13.9275 6.09575 12.0036C6.09575 10.0797 6.10433 9.85391 6.13863 9.0935C6.17008 8.39028 6.28728 8.01007 6.38734 7.75565C6.51883 7.41833 6.6732 7.17821 6.92476 6.92664C7.17633 6.67508 7.41645 6.51786 7.75377 6.38922C8.00819 6.29202 8.3884 6.17196 9.09163 6.14051C9.85203 6.10335 10.0807 6.09763 12.0017 6.09763ZM12.0017 4.7998C10.0464 4.7998 9.80057 4.80838 9.03159 4.84268C8.26547 4.87699 7.74234 4.99991 7.28495 5.17715C6.81042 5.3601 6.41021 5.6088 6.00999 6.00902C5.60978 6.40923 5.36394 6.8123 5.17812 7.28398C5.00089 7.74136 4.87796 8.26449 4.84366 9.03347C4.80936 9.79959 4.80078 10.0454 4.80078 12.0008C4.80078 13.9561 4.80936 14.2019 4.84366 14.9709C4.87796 15.737 5.00089 16.2602 5.17812 16.7204C5.36108 17.1949 5.60978 17.5951 6.00999 17.9954C6.41021 18.3956 6.81328 18.6414 7.28495 18.8272C7.74234 19.0045 8.26547 19.1274 9.03445 19.1617C9.80343 19.196 10.0464 19.2046 12.0046 19.2046C13.9628 19.2046 14.2058 19.196 14.9747 19.1617C15.7409 19.1274 16.264 19.0045 16.7242 18.8272C17.1988 18.6443 17.599 18.3956 17.9992 17.9954C18.3994 17.5951 18.6453 17.1921 18.8311 16.7204C19.0083 16.263 19.1312 15.7399 19.1655 14.9709C19.1998 14.2019 19.2084 13.9589 19.2084 12.0008C19.2084 10.0426 19.1998 9.79959 19.1655 9.03061C19.1312 8.26449 19.0083 7.74136 18.8311 7.28112C18.6481 6.80658 18.3994 6.40637 17.9992 6.00616C17.599 5.60595 17.1959 5.3601 16.7242 5.17429C16.2669 4.99705 15.7437 4.87413 14.9747 4.83983C14.2029 4.80838 13.9571 4.7998 12.0017 4.7998Z" fill="white"/>
<path id="Vector_2" d="M12.0018 8.30469C9.96075 8.30469 8.30273 9.95985 8.30273 12.0038C8.30273 14.0477 9.9579 15.7029 12.0018 15.7029C14.0458 15.7029 15.7009 14.0477 15.7009 12.0038C15.7009 9.95985 14.0458 8.30469 12.0018 8.30469ZM12.0018 14.4022C10.6754 14.4022 9.60056 13.3273 9.60056 12.0009C9.60056 10.6745 10.6754 9.59966 12.0018 9.59966C13.3283 9.59966 14.4031 10.6745 14.4031 12.0009C14.4031 13.3273 13.3283 14.4022 12.0018 14.4022Z" fill="white"/>
<path id="Vector_3" d="M15.8467 9.0196C16.3235 9.0196 16.71 8.63308 16.71 8.15628C16.71 7.67949 16.3235 7.29297 15.8467 7.29297C15.3699 7.29297 14.9834 7.67949 14.9834 8.15628C14.9834 8.63308 15.3699 9.0196 15.8467 9.0196Z" fill="white"/>
</g>
</svg>
