<svg width="15" height="15" viewBox="0 0 15 15" fill="none" xmlns="http://www.w3.org/2000/svg">
<path d="M7.20096 1.29783C9.12483 1.29783 9.35067 1.30641 10.1111 1.34071C10.8143 1.37215 11.1945 1.48936 11.4489 1.58941C11.7862 1.72091 12.0264 1.87528 12.2779 2.12684C12.5295 2.3784 12.6867 2.61853 12.8154 2.95585C12.9126 3.21027 13.0326 3.59047 13.0641 4.2937C13.0984 5.0541 13.1069 5.27994 13.1069 7.20381C13.1069 9.12769 13.0984 9.35352 13.0641 10.1139C13.0326 10.8172 12.9154 11.1974 12.8154 11.4518C12.6839 11.7891 12.5295 12.0292 12.2779 12.2808C12.0264 12.5323 11.7862 12.6896 11.4489 12.8182C11.1945 12.9154 10.8143 13.0355 10.1111 13.0669C9.35067 13.1012 9.12483 13.1098 7.20096 13.1098C5.27708 13.1098 5.05125 13.1012 4.29084 13.0669C3.58761 13.0355 3.20741 12.9183 2.95299 12.8182C2.61567 12.6867 2.37554 12.5323 2.12398 12.2808C1.87242 12.0292 1.71519 11.7891 1.58655 11.4518C1.48936 11.1974 1.3693 10.8172 1.33785 10.1139C1.30355 9.35352 1.29497 9.12769 1.29497 7.20381C1.29497 5.27994 1.30355 5.0541 1.33785 4.2937C1.3693 3.59047 1.4865 3.21027 1.58655 2.95585C1.71805 2.61853 1.87242 2.3784 2.12398 2.12684C2.37554 1.87528 2.61567 1.71805 2.95299 1.58941C3.20741 1.49222 3.58761 1.37215 4.29084 1.34071C5.05125 1.30355 5.27994 1.29783 7.20096 1.29783ZM7.20096 0C5.24564 0 4.99979 0.00857596 4.23081 0.0428798C3.46469 0.0771837 2.94156 0.200106 2.48417 0.377342C2.00964 0.560296 1.60942 0.808999 1.20921 1.20921C0.809 1.60942 0.563155 2.01249 0.377343 2.48417C0.200106 2.94156 0.0771837 3.46469 0.0428799 4.23367C0.00857597 4.99979 0 5.24563 0 7.20095C0 9.15627 0.00857597 9.40212 0.0428799 10.1711C0.0771837 10.9372 0.200106 11.4603 0.377343 11.9206C0.560297 12.3951 0.809 12.7953 1.20921 13.1956C1.60942 13.5958 2.01249 13.8416 2.48417 14.0274C2.94156 14.2047 3.46469 14.3276 4.23367 14.3619C5.00265 14.3962 5.24564 14.4048 7.20382 14.4048C9.162 14.4048 9.40498 14.3962 10.174 14.3619C10.9401 14.3276 11.4632 14.2047 11.9235 14.0274C12.398 13.8445 12.7982 13.5958 13.1984 13.1956C13.5986 12.7953 13.8445 12.3923 14.0303 11.9206C14.2075 11.4632 14.3304 10.9401 14.3648 10.1711C14.3991 9.40212 14.4076 9.15913 14.4076 7.20095C14.4076 5.24277 14.3991 4.99979 14.3648 4.23081C14.3304 3.46469 14.2075 2.94156 14.0303 2.48131C13.8473 2.00678 13.5986 1.60656 13.1984 1.20635C12.7982 0.806141 12.3951 0.560296 11.9235 0.374484C11.4661 0.197247 10.9429 0.074325 10.174 0.0400212C9.40212 0.00857596 9.15628 0 7.20096 0Z" fill="white"/>
<path d="M7.20095 3.50464C5.15987 3.50464 3.50185 5.1598 3.50185 7.20374C3.50185 9.24768 5.15701 10.9028 7.20095 10.9028C9.24488 10.9028 10.9 9.24768 10.9 7.20374C10.9 5.1598 9.24488 3.50464 7.20095 3.50464ZM7.20095 9.60215C5.87453 9.60215 4.79968 8.52729 4.79968 7.20088C4.79968 5.87446 5.87453 4.79961 7.20095 4.79961C8.52736 4.79961 9.60222 5.87446 9.60222 7.20088C9.60222 8.52729 8.52736 9.60215 7.20095 9.60215Z" fill="white"/>
<path d="M11.0458 4.2193C11.5226 4.2193 11.9092 3.83279 11.9092 3.35599C11.9092 2.87919 11.5226 2.49268 11.0458 2.49268C10.5691 2.49268 10.1825 2.87919 10.1825 3.35599C10.1825 3.83279 10.5691 4.2193 11.0458 4.2193Z" fill="white"/>
</svg>
