<svg width="24" height="24" viewBox="0 0 24 24" fill="none" xmlns="http://www.w3.org/2000/svg">
<g clip-path="url(#clip0_5411_10090)">
<rect width="24" height="24" rx="12" fill="black"/>
<path d="M7.98363 21C5.96812 21 4.15106 19.7145 3.37963 17.7429C2.6082 15.7713 3.0343 13.5018 4.45926 11.9926L6.57428 9.75316L7.98363 11.2454L5.86961 13.4838C5.11416 14.2837 4.81913 15.4495 5.09564 16.5422C5.37215 17.6349 6.1782 18.4883 7.21016 18.7811C8.24212 19.0739 9.34321 18.7615 10.0987 17.9616L12.2127 15.7232L13.622 17.2166L11.508 19.4549C10.5752 20.4475 9.30613 21.0038 7.98363 21ZM8.68831 16.4694L7.27896 14.9771L14.3267 7.51478L15.7361 9.00703L8.68931 16.4683L8.68831 16.4694ZM16.4417 14.231L15.0314 12.7387L17.1454 10.5003C17.9111 9.70285 18.2141 8.53178 17.939 7.43244C17.664 6.33311 16.8532 5.47443 15.815 5.18294C14.7768 4.89145 13.6707 5.21193 12.9174 6.02252L10.8023 8.26091L9.39298 6.76865L11.508 4.52921C13.4567 2.48392 16.6002 2.49121 18.5404 4.54552C20.4805 6.59982 20.4874 9.92826 18.5557 11.9915L16.4417 14.231Z" fill="white"/>
</g>
<defs>
<clipPath id="clip0_5411_10090">
<rect width="24" height="24" rx="12" fill="white"/>
</clipPath>
</defs>
</svg>
