<svg width="18" height="18" viewBox="0 0 18 18" fill="none" xmlns="http://www.w3.org/2000/svg">
<g id="Iconly/Light-Outline/Location1">
<g id="Location">
<path id="Fill 1" fill-rule="evenodd" clip-rule="evenodd" d="M9.18799 6.375C8.46424 6.375 7.87549 6.96375 7.87549 7.68825C7.87549 8.412 8.46424 9 9.18799 9C9.91174 9 10.5005 8.412 10.5005 7.68825C10.5005 6.96375 9.91174 6.375 9.18799 6.375M9.18799 10.125C7.84399 10.125 6.75049 9.03225 6.75049 7.68825C6.75049 6.3435 7.84399 5.25 9.18799 5.25C10.532 5.25 11.6255 6.3435 11.6255 7.68825C11.6255 9.03225 10.532 10.125 9.18799 10.125" fill="white"/>
<g id="Group 5">
<mask id="mask0_7843_8701" style="mask-type:luminance" maskUnits="userSpaceOnUse" x="3" y="1" width="13" height="16">
<path id="Clip 4" fill-rule="evenodd" clip-rule="evenodd" d="M3 1.5H15.3746V16.125H3V1.5Z" fill="white"/>
</mask>
<g mask="url(#mask0_7843_8701)">
<path id="Fill 3" fill-rule="evenodd" clip-rule="evenodd" d="M9.18701 2.625C6.39551 2.625 4.12451 4.91775 4.12451 7.73475C4.12451 11.319 8.34251 14.811 9.18701 14.997C10.0315 14.8103 14.2495 11.3183 14.2495 7.73475C14.2495 4.91775 11.9785 2.625 9.18701 2.625V2.625ZM9.18701 16.125C7.84151 16.125 2.99951 11.961 2.99951 7.73475C2.99951 4.29675 5.77526 1.5 9.18701 1.5C12.5988 1.5 15.3745 4.29675 15.3745 7.73475C15.3745 11.961 10.5325 16.125 9.18701 16.125V16.125Z" fill="white"/>
</g>
</g>
</g>
</g>
</svg>
