<svg width="16" height="16" viewBox="0 0 16 16" fill="none" xmlns="http://www.w3.org/2000/svg">
<path d="M13.3332 7.33346C13.1701 6.16028 12.6259 5.07324 11.7843 4.23979C10.9426 3.40635 9.85034 2.87274 8.67562 2.72116C7.50089 2.56959 6.30892 2.80845 5.2833 3.40096C4.25769 3.99347 3.45534 4.90675 2.99984 6.00013M2.6665 3.33346V6.00013H5.33317M2.6665 8.6668C2.82954 9.83998 3.37379 10.927 4.21541 11.7605C5.05703 12.5939 6.14933 13.1275 7.32406 13.2791C8.49878 13.4307 9.69076 13.1918 10.7164 12.5993C11.742 12.0068 12.5443 11.0935 12.9998 10.0001M13.3332 12.6668V10.0001H10.6665" stroke="#E20000" stroke-width="1.33333" stroke-linecap="round" stroke-linejoin="round"/>
</svg>
