<svg width="44" height="44" viewBox="0 0 44 44" fill="none" xmlns="http://www.w3.org/2000/svg">
<path opacity="0.4" d="M22.1559 40C21.933 40 21.7101 39.9488 21.509 39.8447L15.027 36.4893C13.1877 35.5362 11.7488 34.4665 10.6253 33.2204C8.16627 30.4952 6.79812 26.9968 6.77637 23.3678L6.70026 11.4237C6.6912 10.0452 7.58096 8.80785 8.91106 8.34188L20.8131 4.19222C21.5198 3.93982 22.3081 3.93628 23.0275 4.17986L34.9749 8.18832C36.3122 8.63488 37.2165 9.86336 37.2237 11.2401L37.2998 23.1931C37.3234 26.8168 36.0023 30.3292 33.5813 33.0845C32.4705 34.3483 31.0444 35.4338 29.2232 36.4046L22.7992 39.8359C22.5999 39.9435 22.3788 39.9982 22.1559 40Z" fill="#E20000"/>
<path d="M20.7744 26.1774C20.4264 26.1792 20.0785 26.0539 19.8103 25.7962L16.36 22.4779C15.8273 21.9625 15.8218 21.1258 16.3492 20.6069C16.8765 20.0862 17.7372 20.0809 18.2718 20.5946L20.7544 22.9809L26.816 17.0044C27.3451 16.4837 28.2059 16.4784 28.7387 16.9921C29.2732 17.5075 29.2787 18.3459 28.7513 18.863L21.733 25.7838C21.4684 26.0451 21.1223 26.1757 20.7744 26.1774Z" fill="#E20000"/>
</svg>
