<svg width="26" height="26" viewBox="0 0 26 26" fill="none" xmlns="http://www.w3.org/2000/svg">
<g id="Time Circle">
<path id="Fill 1" opacity="0.4" d="M25.5 13C25.5 19.905 19.9037 25.5 13 25.5C6.09625 25.5 0.5 19.905 0.5 13C0.5 6.0975 6.09625 0.5 13 0.5C19.9037 0.5 25.5 6.0975 25.5 13Z" fill="#E20000"/>
<path id="Fill 4" d="M17.4668 17.768C17.303 17.768 17.138 17.7255 16.9868 17.6367L12.0793 14.7092C11.7968 14.5392 11.623 14.233 11.623 13.903V7.59424C11.623 7.07674 12.043 6.65674 12.5605 6.65674C13.078 6.65674 13.498 7.07674 13.498 7.59424V13.3705L17.948 16.0242C18.3918 16.2905 18.538 16.8655 18.273 17.3105C18.0968 17.6042 17.7855 17.768 17.4668 17.768Z" fill="#E20000"/>
</g>
</svg>
