<svg width="37" height="34" viewBox="0 0 37 34" fill="none" xmlns="http://www.w3.org/2000/svg">
<g id="Group">
<path id="Fill 5" opacity="0.4" d="M5.50101 33.1011C5.47761 33.1011 5.45601 33.1011 5.43081 33.0993C4.86381 33.0705 4.30761 32.9481 3.77841 32.7339C1.17381 31.6755 -0.0825863 28.7001 0.974014 26.0973L14.1518 3.01049C14.6054 2.18969 15.293 1.50209 16.1318 1.03769C18.5888 -0.323108 21.6956 0.571492 23.0546 3.02669L36.146 25.9371C36.4376 26.6229 36.5618 27.1809 36.5924 27.7497C36.6626 29.1105 36.1982 30.4155 35.2874 31.4253C34.3766 32.4351 33.1256 33.0309 31.7666 33.0993L5.63061 33.1011H5.50101Z" fill="#E20000"/>
<path id="Combined Shape" fill-rule="evenodd" clip-rule="evenodd" d="M17.0234 13.0374C17.0234 12.1698 17.7308 11.4624 18.5984 11.4624C19.466 11.4624 20.1734 12.1698 20.1734 13.0374V18.1278C20.1734 18.9972 19.466 19.7028 18.5984 19.7028C17.7308 19.7028 17.0234 18.9972 17.0234 18.1278V13.0374ZM17.0234 24.2858C17.0234 23.4128 17.7308 22.7018 18.5984 22.7018C19.466 22.7018 20.1734 23.4038 20.1734 24.266C20.1734 25.1534 19.466 25.8608 18.5984 25.8608C17.7308 25.8608 17.0234 25.1534 17.0234 24.2858Z" fill="#E20000"/>
</g>
</svg>
