<svg width="18" height="12" viewBox="0 0 18 12" fill="none" xmlns="http://www.w3.org/2000/svg">
<g id="Group">
<path id="Vector" d="M17.219 1.87825C17.0213 1.1439 16.4423 0.564889 15.708 0.367178C14.3664 0 8.99992 0 8.99992 0C8.99992 0 3.63348 0 2.29187 0.353055C1.57163 0.550766 0.978501 1.1439 0.78079 1.87825C0.427734 3.21986 0.427734 6.00194 0.427734 6.00194C0.427734 6.00194 0.427734 8.79814 0.78079 10.1256C0.978501 10.86 1.55751 11.439 2.29187 11.6367C3.6476 12.0039 8.99992 12.0039 8.99992 12.0039C8.99992 12.0039 14.3664 12.0039 15.708 11.6508C16.4423 11.4531 17.0213 10.8741 17.219 10.1397C17.5721 8.79814 17.5721 6.01606 17.5721 6.01606C17.5721 6.01606 17.5862 3.21986 17.219 1.87825Z" fill="white"/>
<path id="Vector_2" d="M7.29102 8.57213L11.7536 6.00188L7.29102 3.43164V8.57213Z" fill="black"/>
</g>
</svg>
