<svg width="18" height="12" viewBox="0 0 18 12" fill="none" xmlns="http://www.w3.org/2000/svg">
<g id="Group">
<path id="Vector" d="M16.7913 1.87825C16.5936 1.1439 16.0146 0.564889 15.2802 0.367178C13.9386 0 8.57218 0 8.57218 0C8.57218 0 3.20574 0 1.86413 0.353055C1.1439 0.550766 0.550766 1.1439 0.353055 1.87825C0 3.21986 0 6.00194 0 6.00194C0 6.00194 0 8.79814 0.353055 10.1256C0.550766 10.86 1.12978 11.439 1.86413 11.6367C3.21986 12.0039 8.57218 12.0039 8.57218 12.0039C8.57218 12.0039 13.9386 12.0039 15.2802 11.6508C16.0146 11.4531 16.5936 10.8741 16.7913 10.1397C17.1444 8.79814 17.1444 6.01606 17.1444 6.01606C17.1444 6.01606 17.1585 3.21986 16.7913 1.87825Z" fill="white"/>
<path id="Vector_2" d="M6.9134 3.51814L11.2258 6.00188L6.9134 8.48563V3.51814Z" fill="black" stroke="black" stroke-width="0.1"/>
</g>
</svg>
