<svg width="577" height="580" viewBox="0 0 577 580" fill="none" xmlns="http://www.w3.org/2000/svg">
<ellipse opacity="0.1" cx="288.5" cy="303.629" rx="288.5" ry="276.371" fill="#E20000"/>
<ellipse opacity="0.3" cx="288.5" cy="303.627" rx="218.378" ry="209.197" fill="#E20000"/>
<ellipse opacity="0.9" cx="288.5" cy="303.63" rx="164.552" ry="157.634" fill="white"/>
<path d="M180.211 265.851L181.808 265.231C188.421 262.748 194.2 258.58 198.519 253.178C202.839 247.776 205.535 241.346 206.315 234.583C206.497 232.815 206.543 231.036 206.455 229.261C206.043 222.821 203.976 216.578 200.438 211.087C196.9 205.596 192.001 201.027 186.176 197.787C179.284 194.015 170.946 191.948 165.973 186.069C159.501 178.402 161.13 167.376 163.104 157.777C165.078 148.177 166.685 137.11 160.17 129.495C156.082 124.711 149.523 122.365 143.084 121.683C126.019 119.895 108.966 128.803 98.9882 141.988C89.0105 155.173 85.4509 171.954 86.0442 188.187C86.9071 210.92 96.0542 233.859 113.539 249.535C131.024 265.21 157.279 272.588 180.211 265.851Z" fill="#F5F5F5"/>
<path d="M211.951 60.0089C216.133 42.8066 204.966 25.6137 187.009 21.6074C169.052 17.6012 151.104 28.2987 146.922 45.5009C142.74 62.7032 153.907 79.8962 171.864 83.9024C189.821 87.9087 207.769 77.2112 211.951 60.0089Z" fill="#F5F5F5"/>
<path d="M456.565 75.1724C445.476 56.6658 415.371 39.8021 392.924 40.6804L394.498 40.5048C376.323 38.9341 357.662 56.4075 358.331 73.8808C358.816 86.7869 367.467 97.864 374.673 108.776C381.878 119.688 388.07 133.09 383.324 145.2C378.405 157.724 362.829 165.215 360.672 178.431C359.151 187.649 365.224 197.031 373.723 201.557C382.223 206.083 392.589 206.496 402.146 204.657C434.172 198.571 460.61 174.856 467.707 144.332C474.028 117.301 468.603 95.1567 456.565 75.1724Z" fill="#F5F5F5"/>
<path d="M448.021 118.561C471.987 118.561 491.415 99.9496 491.415 76.9911C491.415 54.0325 471.987 35.4209 448.021 35.4209C424.054 35.4209 404.626 54.0325 404.626 76.9911C404.626 99.9496 424.054 118.561 448.021 118.561Z" fill="#EBEBEB"/>
<path d="M452.725 113.818C444.424 113.821 436.297 111.543 429.308 107.254C422.319 102.965 416.76 96.8459 413.292 89.6218C409.824 82.3977 408.592 74.3723 409.743 66.4977C410.893 58.623 414.378 51.2299 419.782 45.1953C415.233 48.9199 411.538 53.5056 408.927 58.6643C406.317 63.8229 404.849 69.443 404.615 75.1713C404.381 80.8996 405.387 86.6123 407.568 91.9505C409.75 97.2887 413.06 102.137 417.292 106.191C421.524 110.244 426.585 113.416 432.157 115.505C437.729 117.595 443.693 118.558 449.673 118.334C455.652 118.11 461.519 116.704 466.904 114.203C472.289 111.703 477.076 108.163 480.964 103.805C473.108 110.276 463.086 113.83 452.725 113.818Z" fill="#E0E0E0"/>
<path d="M483.034 68.8227C484.444 63.1254 480.766 57.4117 474.819 56.0608C468.872 54.7098 462.907 58.2332 461.497 63.9304C460.087 69.6276 463.765 75.3413 469.712 76.6922C475.659 78.0432 481.624 74.5199 483.034 68.8227Z" fill="#FAFAFA"/>
<path d="M464.504 49.5787C464.504 50.4248 464.242 51.2519 463.751 51.9554C463.26 52.6589 462.563 53.2072 461.747 53.531C460.931 53.8548 460.033 53.9395 459.167 53.7744C458.3 53.6094 457.505 53.2019 456.88 52.6036C456.256 52.0054 455.83 51.2431 455.658 50.4133C455.486 49.5834 455.574 48.7233 455.912 47.9416C456.25 47.1599 456.823 46.4918 457.557 46.0217C458.291 45.5517 459.155 45.3008 460.038 45.3008C461.222 45.3008 462.358 45.7515 463.196 46.5538C464.033 47.356 464.504 48.4441 464.504 49.5787Z" fill="#FAFAFA"/>
<path d="M472.291 105.387C474.126 105.387 475.613 103.962 475.613 102.204C475.613 100.446 474.126 99.0215 472.291 99.0215C470.456 99.0215 468.969 100.446 468.969 102.204C468.969 103.962 470.456 105.387 472.291 105.387Z" fill="#E0E0E0"/>
<path d="M173.555 11.5723L175.885 15.6539L180.135 17.8755L175.885 20.1074L173.555 24.189L171.226 20.1074L166.976 17.8755L171.226 15.6539L173.555 11.5723Z" fill="#FAFAFA"/>
<path d="M425.499 150.357L427.829 154.429L432.079 156.661L427.829 158.893L425.499 162.964L423.169 158.893L418.919 156.661L423.169 154.429L425.499 150.357Z" fill="#E0E0E0"/>
<path d="M147.409 316.389L149.739 320.47L153.989 322.692L149.739 324.924L147.409 328.995L145.079 324.924L140.829 322.692L145.079 320.47L147.409 316.389Z" fill="#E0E0E0"/>
<path d="M131.283 331.352L132.297 333.129L134.142 334.09L132.297 335.061L131.283 336.828L130.28 335.061L128.425 334.09L130.28 333.129L131.283 331.352Z" fill="#E0E0E0"/>
<path d="M128.047 163.553C128.683 159.14 122.168 155.503 117.26 155.121C114.93 154.945 112.503 155.286 110.292 154.542C105.503 152.951 103.594 147.02 98.923 145.129C95.4281 143.723 91.3723 144.974 88.0177 146.606C84.6631 148.239 81.2869 150.295 77.5008 150.533C74.2108 150.729 70.6297 149.562 67.7928 151.101C65.6355 152.248 64.5568 154.615 62.5505 156.02C60.5442 157.425 58.0848 157.673 55.6902 157.797C53.2956 157.921 50.8039 157.942 48.6142 158.903C46.4245 159.864 44.6231 162.075 45.0762 164.338L128.047 163.553Z" fill="#FAFAFA"/>
<path d="M192.001 264.579C192.928 258.121 183.372 252.799 176.252 252.251C172.833 251.983 169.295 252.489 166.059 251.404C159.058 249.069 156.254 240.399 149.426 237.64C144.313 235.574 138.434 237.413 133.483 239.8C128.532 242.187 123.635 245.194 118.102 245.535C113.28 245.824 108.059 244.119 103.842 246.372C100.703 248.046 99.0633 251.538 96.1725 253.553C93.2817 255.568 89.7005 255.982 86.1409 256.157C82.5813 256.333 79.0325 256.374 75.7966 257.831C72.5606 259.288 69.9502 262.471 70.619 265.777L192.001 264.579Z" fill="#EBEBEB"/>
<path d="M527.831 194.738C528.64 189.117 520.355 184.488 514.132 184.013C511.165 183.775 508.08 184.219 505.265 183.279C499.17 181.212 496.743 173.7 490.8 171.303C486.356 169.505 481.232 171.106 476.928 173.183C472.625 175.26 468.364 177.875 463.542 178.164C459.357 178.422 454.816 176.934 451.148 178.898C448.419 180.355 446.985 183.372 444.472 185.098C441.958 186.823 438.798 187.164 435.745 187.36C432.693 187.557 429.532 187.546 426.749 188.766C423.966 189.985 421.669 192.806 422.24 195.689L527.831 194.738Z" fill="#FAFAFA"/>
<path d="M66.4549 83.4922L66.9942 84.3602C67.6071 85.3362 68.4976 86.1248 69.5614 86.6335L70.5106 87.0778L69.6046 87.6048C68.5866 88.1898 67.7664 89.0437 67.2423 90.0641L66.7677 90.9734L66.2284 90.1054C65.6155 89.1293 64.725 88.3408 63.6611 87.8321L62.7119 87.3878L63.618 86.8608C64.6337 86.2731 65.4532 85.4199 65.9803 84.4015L66.4549 83.4922Z" fill="#E0E0E0"/>
<path d="M168.004 83.9552C172.803 72.6841 167.156 59.8201 155.39 55.2228C143.624 50.6254 130.196 56.0356 125.397 67.3067C120.597 78.5778 126.245 91.4417 138.011 96.0391C149.777 100.636 163.205 95.2263 168.004 83.9552Z" fill="#EBEBEB"/>
<path d="M143.752 82.5198C143.752 83.231 143.531 83.9262 143.119 84.5176C142.707 85.1089 142.12 85.5698 141.434 85.842C140.748 86.1141 139.994 86.1854 139.266 86.0466C138.537 85.9079 137.869 85.5654 137.344 85.0625C136.819 84.5596 136.461 83.9188 136.316 83.2213C136.171 82.5238 136.246 81.8007 136.53 81.1437C136.814 80.4866 137.295 79.925 137.912 79.5299C138.53 79.1347 139.255 78.9238 139.998 78.9238C140.491 78.9225 140.98 79.0146 141.436 79.1948C141.892 79.375 142.307 79.6398 142.655 79.974C143.004 80.3082 143.281 80.7052 143.469 81.1421C143.657 81.5789 143.753 82.0472 143.752 82.5198Z" fill="white"/>
<path d="M138.359 72.1448C138.359 72.5535 138.232 72.953 137.995 73.2929C137.758 73.6328 137.421 73.8976 137.027 74.0541C136.633 74.2105 136.199 74.2514 135.78 74.1717C135.362 74.0919 134.978 73.8951 134.676 73.6061C134.374 73.317 134.169 72.9488 134.085 72.5479C134.002 72.147 134.045 71.7315 134.208 71.3539C134.371 70.9763 134.648 70.6535 135.003 70.4264C135.357 70.1993 135.775 70.0781 136.201 70.0781C136.773 70.0781 137.322 70.2959 137.727 70.6834C138.131 71.071 138.359 71.5966 138.359 72.1448Z" fill="white"/>
<path d="M124.391 81.0001C124.488 81.3824 104.695 99.5997 109.797 103.444C114.899 107.288 136.364 97.3781 154.658 83.2217C172.952 69.0653 189.672 51.871 185.098 47.3244C180.525 42.7778 157.657 56.2419 157.657 56.2419L160.397 57.9159C160.397 57.9159 174.214 49.422 178.594 52.7493C182.973 56.0766 170.493 68.931 152.9 81.2274C135.307 93.5238 118.307 102.173 115.675 98.7937C113.043 95.4148 125.48 84.1724 125.48 84.1724L124.391 81.0001Z" fill="#E0E0E0"/>
<path d="M134.044 60.106C134.228 60.323 132.664 61.594 130.906 64.1359C128.561 67.4002 127.267 71.2518 127.184 75.2135C127.102 79.1753 128.234 83.0732 130.442 86.4245C132.092 89.0387 133.602 90.3614 133.408 90.5577C133.214 90.754 131.445 89.6897 129.395 87.0858C128.202 85.5622 127.26 83.8719 126.602 82.0742C124.908 77.6156 125.008 72.7127 126.882 68.3208C127.622 66.5492 128.637 64.8945 129.892 63.4126C132.027 60.9016 133.915 59.951 134.044 60.106Z" fill="white"/>
<path d="M76.4221 31.0405C76.4588 29.5263 76.9635 28.0565 77.8724 26.8171C78.7812 25.5777 80.0534 24.6243 81.5279 24.0777C83.0024 23.531 84.6131 23.4155 86.1561 23.7459C87.6992 24.0762 89.1053 24.8376 90.1966 25.9336C91.2879 27.0296 92.0153 28.4111 92.2869 29.9032C92.5585 31.3953 92.362 32.9311 91.7223 34.3162C91.0826 35.7014 90.0285 36.8736 88.6932 37.6848C87.3579 38.4959 85.8015 38.9094 84.2208 38.873C82.1027 38.8243 80.0914 37.9719 78.629 36.5032C77.1667 35.0345 76.3729 33.0696 76.4221 31.0405Z" fill="#E0E0E0"/>
<path d="M87.0141 28.2912C87.0206 28.044 87.1034 27.8042 87.2521 27.6022C87.4008 27.4001 87.6088 27.2448 87.8496 27.1559C88.0905 27.067 88.3534 27.0485 88.6052 27.1027C88.857 27.157 89.0864 27.2815 89.2643 27.4607C89.4423 27.6398 89.5608 27.8654 89.6049 28.109C89.6489 28.3527 89.6166 28.6033 89.512 28.8294C89.4074 29.0554 89.2352 29.2466 89.0171 29.3789C88.799 29.5112 88.5449 29.5786 88.2869 29.5725C88.1155 29.5685 87.9466 29.5322 87.7898 29.4656C87.6331 29.399 87.4916 29.3035 87.3734 29.1845C87.2552 29.0655 87.1626 28.9254 87.1009 28.7721C87.0393 28.6188 87.0098 28.4554 87.0141 28.2912Z" fill="#F5F5F5"/>
<path d="M89.6143 31.2055C89.6165 31.0599 89.6639 30.9183 89.7503 30.7987C89.8367 30.679 89.9584 30.5866 90.0997 30.5334C90.2411 30.4801 90.3958 30.4683 90.5442 30.4995C90.6926 30.5306 90.8279 30.6034 90.933 30.7085C91.0382 30.8135 91.1083 30.9462 91.1345 31.0895C91.1607 31.2329 91.1418 31.3804 91.0802 31.5135C91.0186 31.6465 90.9172 31.759 90.7887 31.8366C90.6602 31.9143 90.5105 31.9535 90.3586 31.9494C90.1574 31.944 89.9665 31.8629 89.8272 31.7237C89.6879 31.5845 89.6114 31.3983 89.6143 31.2055Z" fill="#F5F5F5"/>
<path d="M88.6 33.4365C88.6363 33.4365 88.6723 33.4435 88.7058 33.4571C88.7392 33.4708 88.7694 33.4907 88.7946 33.5158C88.8198 33.5409 88.8394 33.5706 88.8523 33.6032C88.8652 33.6357 88.8711 33.6704 88.8697 33.7052C88.8697 33.7405 88.8624 33.7754 88.8483 33.808C88.8342 33.8406 88.8136 33.8702 88.7875 33.8952C88.7615 33.9201 88.7306 33.9399 88.6965 33.9534C88.6625 33.9669 88.626 33.9738 88.5892 33.9738C88.5524 33.9725 88.5162 33.9642 88.4827 33.9495C88.4492 33.9347 88.419 33.9138 88.394 33.8879C88.369 33.862 88.3495 33.8316 88.3367 33.7985C88.3239 33.7654 88.3181 33.7301 88.3196 33.6949C88.3223 33.6254 88.3531 33.5597 88.4054 33.5115C88.4577 33.4634 88.5275 33.4365 88.6 33.4365Z" fill="#F5F5F5"/>
<path d="M209.097 465.889C210.322 462.056 210.418 457.973 209.377 454.09C208.336 450.207 206.196 446.675 203.195 443.882C200.193 441.088 196.445 439.142 192.363 438.258C188.282 437.373 184.024 437.584 180.06 438.868C180.142 434.6 179.003 430.393 176.768 426.701C174.532 423.008 171.285 419.973 167.377 417.922C163.47 415.871 159.051 414.883 154.6 415.065C150.148 415.248 145.834 416.593 142.123 418.956C137.981 411.371 127.022 408.117 119.083 412.136C111.144 416.156 107.865 426.716 112.115 434.249C108.857 433.48 105.429 433.719 102.322 434.932C99.2157 436.145 96.5898 438.27 94.8216 441.001C93.0534 443.732 92.2338 446.93 92.4803 450.135C92.7268 453.34 94.0268 456.388 96.1937 458.842C83.2498 453.396 66.3471 464.349 66.7786 477.844L223.4 477.41C222.279 475.406 218.417 466.251 209.097 465.889Z" fill="#E20000"/>
<path d="M491.868 465.889C493.093 462.056 493.19 457.973 492.148 454.09C491.107 450.207 488.968 446.675 485.966 443.882C482.964 441.088 479.216 439.142 475.134 438.258C471.053 437.373 466.795 437.584 462.831 438.868C462.913 434.6 461.774 430.393 459.539 426.701C457.303 423.008 454.056 419.973 450.149 417.922C446.241 415.871 441.822 414.883 437.371 415.065C432.919 415.248 428.605 416.593 424.894 418.956C420.741 411.371 409.739 408.117 401.854 412.136C393.969 416.156 390.636 426.716 394.886 434.249C391.628 433.48 388.2 433.719 385.094 434.932C381.987 436.145 379.361 438.27 377.593 441.001C375.825 443.732 375.005 446.93 375.251 450.135C375.498 453.34 376.798 456.388 378.965 458.842C366.021 453.396 349.118 464.349 349.539 477.844L506.182 477.41C505.104 475.406 501.188 466.251 491.868 465.889Z" fill="#E20000"/>
<path d="M338.245 477.411C341.109 469.314 340.991 460.522 337.911 452.498C335.958 447.476 332.722 442.743 327.976 439.912C323.23 437.081 316.823 436.492 312.066 439.302C312.069 436.024 311.294 432.787 309.799 429.838C308.304 426.888 306.129 424.303 303.438 422.277C300.746 420.252 297.609 418.839 294.264 418.145C290.919 417.452 287.453 417.496 284.128 418.275C284.505 415.543 284.169 412.764 283.15 410.187C282.131 407.611 280.46 405.316 278.289 403.509C276.117 401.702 273.512 400.439 270.706 399.833C267.9 399.227 264.981 399.297 262.21 400.037C264.939 391.491 257.259 382.925 248.112 381.179H245.07C245.07 381.179 225.848 380.724 223.497 381.179C214.35 382.925 206.67 391.512 209.399 400.037C206.628 399.297 203.709 399.227 200.903 399.833C198.097 400.439 195.491 401.702 193.32 403.509C191.148 405.316 189.478 407.611 188.459 410.187C187.44 412.764 187.104 415.543 187.48 418.275C184.156 417.496 180.69 417.452 177.344 418.145C173.999 418.839 170.862 420.252 168.171 422.277C165.48 424.303 163.305 426.888 161.81 429.838C160.315 432.787 159.54 436.024 159.543 439.302C154.786 436.492 148.39 437.081 143.633 439.912C138.876 442.743 135.651 447.476 133.698 452.498C130.618 460.522 130.5 469.314 133.364 477.411H338.245Z" fill="#E20000"/>
<g opacity="0.6">
<path opacity="0.6" d="M338.246 477.411C341.11 469.314 340.992 460.522 337.911 452.498C335.959 447.476 332.723 442.743 327.977 439.912C323.231 437.081 316.824 436.492 312.067 439.302C312.07 436.024 311.295 432.787 309.8 429.838C308.305 426.888 306.13 424.303 303.439 422.277C300.747 420.252 297.61 418.839 294.265 418.145C290.92 417.452 287.454 417.496 284.129 418.275C284.506 415.543 284.17 412.764 283.151 410.187C282.131 407.611 280.461 405.316 278.29 403.509C276.118 401.702 273.513 400.439 270.707 399.833C267.901 399.227 264.982 399.297 262.211 400.037C264.94 391.491 257.26 382.925 248.113 381.179H245.071C245.071 381.179 225.849 380.724 223.498 381.179C214.351 382.925 206.671 391.512 209.4 400.037C206.629 399.297 203.71 399.227 200.904 399.833C198.098 400.439 195.492 401.702 193.321 403.509C191.149 405.316 189.479 407.611 188.46 410.187C187.441 412.764 187.105 415.543 187.481 418.275C184.157 417.496 180.691 417.452 177.345 418.145C174 418.839 170.863 420.252 168.172 422.277C165.481 424.303 163.306 426.888 161.811 429.838C160.316 432.787 159.541 436.024 159.544 439.302C154.787 436.492 148.391 437.081 143.634 439.912C138.877 442.743 135.652 447.476 133.699 452.498C130.619 460.522 130.501 469.314 133.365 477.411H338.246Z" fill="white"/>
</g>
<path d="M437.623 477.411C440.483 469.313 440.361 460.52 437.277 452.498C435.325 447.476 432.089 442.743 427.343 439.912C422.597 437.081 416.19 436.492 411.433 439.302C411.438 436.023 410.664 432.786 409.17 429.835C407.676 426.885 405.5 424.298 402.809 422.272C400.117 420.246 396.979 418.833 393.633 418.141C390.287 417.448 386.82 417.494 383.495 418.275C383.872 415.543 383.536 412.764 382.516 410.187C381.497 407.611 379.827 405.316 377.656 403.509C375.484 401.702 372.879 400.439 370.073 399.833C367.267 399.227 364.348 399.297 361.577 400.037C364.306 391.491 356.626 382.925 347.479 381.179H344.448C344.448 381.179 325.215 380.724 322.874 381.179C313.727 382.925 306.047 391.512 308.776 400.037C306.005 399.297 303.086 399.227 300.28 399.833C297.474 400.439 294.869 401.702 292.697 403.509C290.526 405.316 288.856 407.611 287.837 410.187C286.818 412.764 286.481 415.543 286.858 418.275C283.534 417.494 280.067 417.448 276.722 418.14C273.376 418.833 270.239 420.246 267.548 422.272C264.857 424.299 262.683 426.885 261.19 429.836C259.697 432.786 258.925 436.024 258.931 439.302C254.174 436.492 247.767 437.081 243.021 439.912C238.275 442.743 235.028 447.476 233.087 452.498C229.998 460.52 229.876 469.314 232.741 477.411H437.623Z" fill="#E20000"/>
<g opacity="0.8">
<path opacity="0.8" d="M437.622 477.431C440.482 469.332 440.36 460.54 437.276 452.517C435.324 447.495 432.088 442.763 427.342 439.932C422.596 437.1 416.189 436.511 411.432 439.322C411.437 436.043 410.663 432.805 409.169 429.855C407.675 426.904 405.499 424.318 402.808 422.292C400.116 420.266 396.978 418.853 393.632 418.16C390.286 417.468 386.819 417.513 383.494 418.294C383.871 415.562 383.535 412.784 382.515 410.207C381.496 407.63 379.826 405.336 377.655 403.529C375.483 401.722 372.878 400.459 370.072 399.853C367.266 399.247 364.347 399.317 361.576 400.056C364.305 391.511 356.625 382.944 347.478 381.198H344.447C344.447 381.198 325.214 380.744 322.873 381.198C313.726 382.944 306.046 391.531 308.775 400.056C306.004 399.317 303.085 399.247 300.279 399.853C297.473 400.459 294.868 401.722 292.696 403.529C290.525 405.336 288.855 407.63 287.836 410.207C286.817 412.784 286.48 415.562 286.857 418.294C283.533 417.513 280.066 417.467 276.721 418.16C273.375 418.853 270.238 420.265 267.547 422.292C264.856 424.318 262.682 426.904 261.189 429.855C259.696 432.806 258.924 436.043 258.93 439.322C254.173 436.511 247.766 437.1 243.02 439.932C238.274 442.763 235.027 447.495 233.086 452.517C229.997 460.539 229.875 469.333 232.74 477.431H437.622Z" fill="white"/>
</g>
<path d="M245.685 374.534L224.964 375.071V338.182L245.685 337.645V374.534Z" fill="#455A64"/>
<path d="M246.849 346.717H224.078C223.262 346.717 222.601 347.351 222.601 348.132V348.163C222.601 348.945 223.262 349.579 224.078 349.579H246.849C247.665 349.579 248.327 348.945 248.327 348.163V348.132C248.327 347.351 247.665 346.717 246.849 346.717Z" fill="#455A64"/>
<path d="M246.849 352.473H224.078C223.262 352.473 222.601 353.106 222.601 353.888V353.919C222.601 354.701 223.262 355.335 224.078 355.335H246.849C247.665 355.335 248.327 354.701 248.327 353.919V353.888C248.327 353.106 247.665 352.473 246.849 352.473Z" fill="#455A64"/>
<path d="M246.849 358.229H224.078C223.262 358.229 222.601 358.862 222.601 359.644V359.675C222.601 360.457 223.262 361.091 224.078 361.091H246.849C247.665 361.091 248.327 360.457 248.327 359.675V359.644C248.327 358.862 247.665 358.229 246.849 358.229Z" fill="#455A64"/>
<path d="M246.849 363.984H224.078C223.262 363.984 222.601 364.618 222.601 365.4V365.431C222.601 366.213 223.262 366.847 224.078 366.847H246.849C247.665 366.847 248.327 366.213 248.327 365.431V365.4C248.327 364.618 247.665 363.984 246.849 363.984Z" fill="#455A64"/>
<path d="M246.849 369.74H224.078C223.262 369.74 222.601 370.374 222.601 371.156V371.187C222.601 371.969 223.262 372.603 224.078 372.603H246.849C247.665 372.603 248.327 371.969 248.327 371.187V371.156C248.327 370.374 247.665 369.74 246.849 369.74Z" fill="#455A64"/>
<path d="M221.198 381.394L224.963 374.533H245.684L250.214 381.394H221.198Z" fill="#455A64"/>
<path d="M247.303 346.698C247.303 346.853 242.006 346.967 235.437 346.967C228.868 346.967 223.626 346.853 223.626 346.698C223.626 346.543 228.911 346.43 235.437 346.43C241.963 346.43 247.303 346.574 247.303 346.698Z" fill="#263238"/>
<path d="M246.817 349.591C246.817 349.736 241.575 349.86 235.124 349.86C228.674 349.86 223.432 349.736 223.432 349.591C223.432 349.447 228.663 349.312 235.124 349.312C241.586 349.312 246.817 349.436 246.817 349.591Z" fill="#263238"/>
<path d="M247.454 352.474C247.454 352.618 242.114 352.742 235.524 352.742C228.933 352.742 223.583 352.618 223.583 352.474C223.583 352.329 228.976 352.205 235.524 352.205C242.071 352.205 247.454 352.329 247.454 352.474Z" fill="#263238"/>
<path d="M246.299 355.335C242.528 355.607 238.744 355.697 234.963 355.604C231.185 355.697 227.405 355.607 223.637 355.335C223.637 355.19 228.706 355.066 234.963 355.066C241.219 355.066 246.299 355.19 246.299 355.335Z" fill="#263238"/>
<path d="M247.119 358.28C247.119 358.435 241.931 358.549 235.523 358.549C229.116 358.549 223.917 358.435 223.917 358.28C223.917 358.125 229.105 358.012 235.523 358.012C241.941 358.012 247.119 358.136 247.119 358.28Z" fill="#263238"/>
<path d="M247.421 361.091C247.421 361.246 242.157 361.36 235.664 361.36C229.17 361.36 223.917 361.246 223.917 361.091C223.917 360.936 229.181 360.822 235.664 360.822C242.146 360.822 247.421 360.946 247.421 361.091Z" fill="#263238"/>
<path d="M246.751 363.984C246.751 364.129 241.79 364.253 235.663 364.253C229.536 364.253 224.585 364.129 224.585 363.984C228.27 363.712 231.968 363.622 235.663 363.715C239.361 363.622 243.063 363.712 246.751 363.984Z" fill="#263238"/>
<path d="M246.936 366.847C243.247 367.119 239.546 367.209 235.847 367.115C232.152 367.209 228.455 367.119 224.77 366.847C224.77 366.702 229.731 366.578 235.847 366.578C241.963 366.578 246.936 366.702 246.936 366.847Z" fill="#263238"/>
<path d="M246.224 369.668C242.556 369.934 238.877 370.024 235.2 369.937C231.523 370.024 227.843 369.934 224.176 369.668C227.843 369.402 231.523 369.312 235.2 369.399C238.877 369.312 242.556 369.402 246.224 369.668Z" fill="#263238"/>
<path d="M246.138 372.604C242.592 372.87 239.035 372.96 235.48 372.872C231.926 372.959 228.368 372.87 224.823 372.604C228.368 372.338 231.926 372.248 235.48 372.335C239.035 372.248 242.592 372.337 246.138 372.604Z" fill="#263238"/>
<path d="M344.996 374.534L324.286 375.071V338.182L344.996 337.645V374.534Z" fill="#455A64"/>
<path d="M346.162 346.717H323.392C322.576 346.717 321.914 347.351 321.914 348.132V348.163C321.914 348.945 322.576 349.579 323.392 349.579H346.162C346.979 349.579 347.64 348.945 347.64 348.163V348.132C347.64 347.351 346.979 346.717 346.162 346.717Z" fill="#455A64"/>
<path d="M346.162 352.473H323.392C322.576 352.473 321.914 353.106 321.914 353.888V353.919C321.914 354.701 322.576 355.335 323.392 355.335H346.162C346.979 355.335 347.64 354.701 347.64 353.919V353.888C347.64 353.106 346.979 352.473 346.162 352.473Z" fill="#455A64"/>
<path d="M346.162 358.229H323.392C322.576 358.229 321.914 358.862 321.914 359.644V359.675C321.914 360.457 322.576 361.091 323.392 361.091H346.162C346.979 361.091 347.64 360.457 347.64 359.675V359.644C347.64 358.862 346.979 358.229 346.162 358.229Z" fill="#455A64"/>
<path d="M346.162 363.984H323.392C322.576 363.984 321.914 364.618 321.914 365.4V365.431C321.914 366.213 322.576 366.847 323.392 366.847H346.162C346.979 366.847 347.64 366.213 347.64 365.431V365.4C347.64 364.618 346.979 363.984 346.162 363.984Z" fill="#455A64"/>
<path d="M346.162 369.74H323.392C322.576 369.74 321.914 370.374 321.914 371.156V371.187C321.914 371.969 322.576 372.603 323.392 372.603H346.162C346.979 372.603 347.64 371.969 347.64 371.187V371.156C347.64 370.374 346.979 369.74 346.162 369.74Z" fill="#455A64"/>
<path d="M320.522 381.394L324.287 374.533H344.997L349.538 381.394H320.522Z" fill="#455A64"/>
<path d="M346.615 346.698C346.615 346.853 341.329 346.967 334.804 346.967C328.278 346.967 322.992 346.853 322.992 346.698C322.992 346.543 328.278 346.43 334.804 346.43C341.329 346.43 346.615 346.574 346.615 346.698Z" fill="#263238"/>
<path d="M346.129 349.591C346.129 349.736 340.897 349.86 334.436 349.86C327.975 349.86 322.743 349.736 322.743 349.591C322.743 349.447 327.975 349.312 334.436 349.312C340.897 349.312 346.129 349.436 346.129 349.591Z" fill="#263238"/>
<path d="M346.776 352.474C346.776 352.618 341.383 352.742 334.835 352.742C328.288 352.742 322.895 352.618 322.895 352.474C322.895 352.329 328.288 352.205 334.835 352.205C341.383 352.205 346.776 352.329 346.776 352.474Z" fill="#263238"/>
<path d="M345.612 355.335C341.844 355.607 338.064 355.697 334.286 355.604C330.508 355.697 326.728 355.607 322.96 355.335C322.96 355.19 328.03 355.066 334.286 355.066C340.542 355.066 345.612 355.19 345.612 355.335Z" fill="#263238"/>
<path d="M346.442 358.28C346.442 358.435 341.243 358.549 334.836 358.549C328.429 358.549 323.229 358.435 323.229 358.28C323.229 358.125 328.429 358.012 334.836 358.012C341.243 358.012 346.442 358.136 346.442 358.28Z" fill="#263238"/>
<path d="M346.734 361.091C346.734 361.246 341.48 361.36 334.987 361.36C328.493 361.36 323.229 361.246 323.229 361.091C323.229 360.936 328.493 360.822 334.987 360.822C341.48 360.822 346.734 360.946 346.734 361.091Z" fill="#263238"/>
<path d="M346.064 363.984C346.064 364.129 341.102 364.253 334.986 364.253C328.87 364.253 323.897 364.129 323.897 363.984C327.586 363.712 331.288 363.622 334.986 363.715C338.681 363.622 342.379 363.712 346.064 363.984Z" fill="#263238"/>
<path d="M346.248 366.847C342.562 367.119 338.865 367.209 335.17 367.115C331.471 367.209 327.77 367.119 324.081 366.847C324.081 366.702 329.043 366.578 335.17 366.578C341.297 366.578 346.248 366.702 346.248 366.847Z" fill="#263238"/>
<path d="M345.514 369.668C341.85 369.934 338.174 370.024 334.5 369.937C330.823 370.024 327.144 369.934 323.477 369.668C327.144 369.402 330.823 369.312 334.5 369.399C338.174 369.312 341.85 369.402 345.514 369.668Z" fill="#263238"/>
<path d="M345.46 372.604C341.915 372.87 338.358 372.959 334.803 372.872C331.248 372.96 327.691 372.87 324.146 372.604C327.691 372.337 331.248 372.248 334.803 372.335C338.358 372.248 341.915 372.338 345.46 372.604Z" fill="#263238"/>
<path d="M253.247 114.129L253.581 297.17H229.408V114.946C229.406 111.671 229.863 108.411 230.767 105.253L240.831 70.0069C241.23 68.6223 242.924 68.6533 243.398 71.1332L252.157 105.481C252.875 108.312 253.241 111.215 253.247 114.129Z" fill="#E0E0E0"/>
<path d="M252.631 136.305C252.631 136.449 247.626 136.573 241.435 136.573C235.243 136.573 230.228 136.449 230.228 136.305C233.956 136.032 237.697 135.942 241.435 136.036C245.169 135.942 248.906 136.032 252.631 136.305Z" fill="#E20000"/>
<path d="M252.772 159.234C252.772 159.379 247.605 159.503 241.23 159.503C234.855 159.503 229.678 159.379 229.678 159.234C233.521 158.955 237.377 158.862 241.23 158.955C245.08 158.862 248.932 158.955 252.772 159.234Z" fill="#263238"/>
<path d="M235.243 154.429C235.092 154.429 234.963 153.778 234.963 152.961C234.963 152.145 235.092 151.494 235.243 151.494C235.394 151.494 235.524 152.155 235.524 152.961C235.524 153.767 235.438 154.429 235.243 154.429Z" fill="#263238"/>
<path d="M237.606 154.159C237.761 154.159 237.886 153.622 237.886 152.96C237.886 152.298 237.761 151.762 237.606 151.762C237.451 151.762 237.325 152.298 237.325 152.96C237.325 153.622 237.451 154.159 237.606 154.159Z" fill="#263238"/>
<path d="M253.494 218.298C253.494 218.453 248.176 218.577 241.629 218.577C235.081 218.577 229.764 218.453 229.764 218.298C229.764 218.143 235.081 218.029 241.629 218.029C248.176 218.029 253.494 218.153 253.494 218.298Z" fill="#263238"/>
<path d="M235.351 225.17C235.2 225.17 235.07 224.509 235.07 223.692C235.07 222.876 235.2 222.215 235.351 222.215C235.502 222.215 235.631 222.876 235.631 223.692C235.631 224.509 235.513 225.17 235.351 225.17Z" fill="#263238"/>
<path d="M237.185 225.437C237.023 225.437 236.904 224.745 236.904 223.887C236.904 223.03 237.023 222.348 237.185 222.348C237.347 222.348 237.465 223.04 237.465 223.887C237.465 224.735 237.336 225.437 237.185 225.437Z" fill="#263238"/>
<path d="M245.62 275.398C242.911 275.664 240.187 275.754 237.465 275.667C234.744 275.754 232.019 275.664 229.311 275.398C232.019 275.126 234.744 275.036 237.465 275.129C240.187 275.036 242.912 275.126 245.62 275.398Z" fill="#263238"/>
<path d="M252.899 111.741C252.899 111.886 247.7 112.01 241.282 112.01C234.864 112.01 229.654 111.886 229.654 111.741C229.654 111.597 234.864 111.473 241.282 111.473C247.7 111.473 252.899 111.597 252.899 111.741Z" fill="#263238"/>
<path d="M231.888 113.169C231.888 113.107 232.158 113.086 232.309 113.386C232.358 113.473 232.384 113.571 232.384 113.67C232.384 113.769 232.358 113.867 232.309 113.954C232.226 114.059 232.111 114.138 231.98 114.179C231.85 114.22 231.709 114.223 231.577 114.186C231.445 114.149 231.327 114.074 231.24 113.972C231.153 113.87 231.101 113.745 231.09 113.613C231.089 113.514 231.114 113.417 231.163 113.33C231.212 113.243 231.283 113.17 231.37 113.117C231.662 112.941 231.877 113.117 231.845 113.117C231.813 113.117 231.705 113.231 231.64 113.365C231.575 113.499 231.586 113.582 231.737 113.634C231.888 113.685 231.942 113.634 231.964 113.458C231.985 113.282 231.867 113.169 231.888 113.169Z" fill="#263238"/>
<path d="M241.424 113.169C241.424 113.107 241.694 113.086 241.845 113.386C241.894 113.473 241.92 113.571 241.92 113.67C241.92 113.769 241.894 113.867 241.845 113.954C241.762 114.059 241.647 114.138 241.517 114.179C241.386 114.22 241.245 114.223 241.113 114.186C240.981 114.149 240.863 114.074 240.776 113.972C240.69 113.87 240.637 113.745 240.626 113.613C240.625 113.514 240.65 113.417 240.699 113.33C240.748 113.243 240.819 113.17 240.906 113.117C241.198 112.941 241.413 113.117 241.381 113.117C241.349 113.117 241.241 113.231 241.176 113.365C241.111 113.499 241.122 113.582 241.273 113.634C241.424 113.685 241.478 113.634 241.511 113.458C241.543 113.282 241.403 113.169 241.424 113.169Z" fill="#263238"/>
<path d="M250.958 113.169C250.958 113.107 251.228 113.086 251.379 113.386C251.428 113.473 251.454 113.571 251.454 113.67C251.454 113.769 251.428 113.867 251.379 113.954C251.299 114.06 251.186 114.139 251.056 114.18C250.926 114.221 250.786 114.221 250.656 114.181C250.522 114.149 250.401 114.077 250.312 113.975C250.223 113.872 250.17 113.746 250.16 113.613C250.159 113.514 250.184 113.417 250.233 113.33C250.282 113.243 250.354 113.17 250.441 113.117C250.743 112.941 250.948 113.117 250.915 113.117C250.883 113.117 250.775 113.231 250.71 113.365C250.646 113.499 250.71 113.582 250.807 113.634C250.904 113.685 251.012 113.634 251.045 113.458C251.077 113.282 250.937 113.169 250.958 113.169Z" fill="#263238"/>
<path d="M231.888 161.228C231.888 161.156 232.158 161.135 232.309 161.435C232.358 161.522 232.384 161.62 232.384 161.719C232.384 161.818 232.358 161.916 232.309 162.003C232.226 162.108 232.111 162.186 231.98 162.228C231.85 162.269 231.709 162.272 231.577 162.235C231.445 162.198 231.327 162.123 231.24 162.021C231.153 161.919 231.101 161.793 231.09 161.662C231.09 161.563 231.115 161.466 231.164 161.38C231.213 161.293 231.284 161.22 231.37 161.166C231.662 160.99 231.877 161.166 231.845 161.166C231.813 161.166 231.705 161.29 231.64 161.414C231.575 161.538 231.586 161.641 231.737 161.683C231.888 161.724 231.942 161.683 231.964 161.507C231.985 161.331 231.866 161.3 231.888 161.228Z" fill="#263238"/>
<path d="M241.424 161.228C241.424 161.156 241.694 161.135 241.845 161.435C241.894 161.522 241.92 161.62 241.92 161.719C241.92 161.818 241.894 161.916 241.845 162.003C241.762 162.108 241.647 162.186 241.516 162.228C241.386 162.269 241.245 162.272 241.113 162.235C240.981 162.198 240.863 162.123 240.776 162.021C240.69 161.919 240.637 161.793 240.626 161.662C240.626 161.563 240.651 161.466 240.7 161.38C240.749 161.293 240.82 161.22 240.906 161.166C241.198 160.99 241.413 161.166 241.381 161.166C241.349 161.166 241.241 161.29 241.176 161.414C241.111 161.538 241.122 161.641 241.273 161.683C241.424 161.724 241.478 161.683 241.51 161.507C241.543 161.331 241.403 161.3 241.424 161.228Z" fill="#263238"/>
<path d="M250.958 161.228C250.958 161.156 251.228 161.135 251.379 161.435C251.428 161.522 251.454 161.62 251.454 161.719C251.454 161.818 251.428 161.916 251.379 162.003C251.299 162.109 251.186 162.188 251.056 162.229C250.926 162.27 250.786 162.27 250.656 162.23C250.522 162.198 250.401 162.125 250.312 162.023C250.223 161.921 250.17 161.795 250.16 161.662C250.16 161.563 250.185 161.466 250.234 161.38C250.283 161.293 250.354 161.22 250.441 161.166C250.743 160.99 250.948 161.166 250.915 161.166C250.883 161.166 250.775 161.29 250.71 161.414C250.646 161.538 250.71 161.641 250.807 161.683C250.904 161.724 251.012 161.683 251.045 161.507C251.077 161.331 250.937 161.3 250.958 161.228Z" fill="#263238"/>
<path d="M231.888 213.978C231.888 213.906 232.158 213.885 232.309 214.185C232.358 214.272 232.384 214.37 232.384 214.469C232.384 214.568 232.358 214.666 232.309 214.753C232.227 214.861 232.113 214.941 231.982 214.984C231.85 215.026 231.708 215.029 231.575 214.991C231.442 214.953 231.325 214.877 231.238 214.774C231.151 214.671 231.1 214.544 231.09 214.412C231.09 214.313 231.115 214.216 231.164 214.13C231.213 214.043 231.284 213.97 231.37 213.916C231.662 213.74 231.877 213.916 231.845 213.916C231.813 213.916 231.705 214.03 231.64 214.154C231.575 214.278 231.586 214.381 231.737 214.422C231.888 214.464 231.942 214.422 231.964 214.247C231.985 214.071 231.866 214.05 231.888 213.978Z" fill="#263238"/>
<path d="M241.424 213.978C241.424 213.906 241.694 213.885 241.845 214.185C241.894 214.272 241.92 214.37 241.92 214.469C241.92 214.568 241.894 214.666 241.845 214.753C241.765 214.862 241.65 214.943 241.518 214.986C241.387 215.029 241.244 215.03 241.111 214.991C240.979 214.953 240.861 214.877 240.774 214.774C240.687 214.671 240.636 214.544 240.626 214.412C240.626 214.313 240.651 214.216 240.7 214.13C240.749 214.043 240.82 213.97 240.906 213.916C241.198 213.74 241.413 213.916 241.381 213.916C241.349 213.916 241.241 214.03 241.176 214.154C241.111 214.278 241.122 214.381 241.273 214.422C241.424 214.464 241.478 214.422 241.51 214.247C241.543 214.071 241.403 214.05 241.424 213.978Z" fill="#263238"/>
<path d="M250.958 213.978C250.958 213.906 251.228 213.885 251.379 214.185C251.428 214.272 251.454 214.37 251.454 214.469C251.454 214.568 251.428 214.666 251.379 214.753C251.301 214.861 251.188 214.942 251.058 214.985C250.928 215.028 250.788 215.03 250.656 214.991C250.522 214.955 250.402 214.88 250.313 214.776C250.224 214.673 250.171 214.546 250.16 214.412C250.16 214.313 250.185 214.216 250.234 214.13C250.283 214.043 250.354 213.97 250.441 213.916C250.743 213.74 250.948 213.916 250.915 213.916C250.883 213.916 250.775 214.03 250.71 214.154C250.646 214.278 250.71 214.381 250.807 214.422C250.904 214.464 251.012 214.422 251.045 214.247C251.077 214.071 250.937 214.05 250.958 213.978Z" fill="#263238"/>
<path d="M231.888 271.492C231.888 271.419 232.158 271.399 232.309 271.698C232.358 271.786 232.384 271.883 232.384 271.982C232.384 272.082 232.358 272.179 232.309 272.267C232.226 272.372 232.111 272.45 231.98 272.491C231.85 272.533 231.709 272.535 231.577 272.498C231.445 272.461 231.327 272.387 231.24 272.284C231.153 272.182 231.101 272.057 231.09 271.926C231.09 271.827 231.115 271.73 231.164 271.643C231.213 271.557 231.284 271.483 231.37 271.43C231.662 271.254 231.877 271.43 231.845 271.43C231.813 271.43 231.705 271.554 231.64 271.678C231.575 271.802 231.586 271.905 231.737 271.946C231.888 271.988 231.942 271.946 231.964 271.771C231.985 271.595 231.866 271.564 231.888 271.492Z" fill="#263238"/>
<path d="M241.424 271.492C241.424 271.419 241.694 271.399 241.845 271.698C241.894 271.786 241.92 271.883 241.92 271.982C241.92 272.082 241.894 272.179 241.845 272.267C241.762 272.372 241.647 272.45 241.516 272.491C241.386 272.533 241.245 272.535 241.113 272.498C240.981 272.461 240.863 272.387 240.776 272.284C240.69 272.182 240.637 272.057 240.626 271.926C240.626 271.827 240.651 271.73 240.7 271.643C240.749 271.557 240.82 271.483 240.906 271.43C241.198 271.254 241.413 271.43 241.381 271.43C241.349 271.43 241.241 271.554 241.176 271.678C241.111 271.802 241.122 271.905 241.273 271.946C241.424 271.988 241.478 271.946 241.51 271.771C241.543 271.595 241.403 271.564 241.424 271.492Z" fill="#263238"/>
<path d="M318.494 114.129L318.148 297.17H342.321V114.946C342.318 111.671 341.861 108.412 340.962 105.253L330.898 70.0069C330.499 68.6223 328.806 68.6533 328.331 71.1332L319.572 105.481C318.853 108.312 318.491 111.215 318.494 114.129Z" fill="#E0E0E0"/>
<path d="M319.13 136.304C322.855 136.032 326.592 135.942 330.326 136.036C334.065 135.942 337.805 136.032 341.534 136.304C341.534 136.449 336.518 136.573 330.326 136.573C324.135 136.573 319.13 136.449 319.13 136.304Z" fill="#E20000"/>
<path d="M318.99 159.234C322.834 158.955 326.689 158.862 330.543 158.955C334.392 158.862 338.245 158.955 342.084 159.234C342.084 159.379 336.918 159.503 330.543 159.503C324.168 159.503 318.99 159.379 318.99 159.234Z" fill="#263238"/>
<path d="M336.519 154.429C336.368 154.429 336.238 153.778 336.238 152.961C336.238 152.145 336.368 151.494 336.519 151.494C336.67 151.494 336.799 152.155 336.799 152.961C336.799 153.767 336.681 154.429 336.519 154.429Z" fill="#263238"/>
<path d="M334.156 154.159C334.311 154.159 334.437 153.622 334.437 152.96C334.437 152.298 334.311 151.762 334.156 151.762C334.002 151.762 333.876 152.298 333.876 152.96C333.876 153.622 334.002 154.159 334.156 154.159Z" fill="#263238"/>
<path d="M318.268 218.298C318.268 218.153 323.596 218.029 330.133 218.029C336.67 218.029 341.998 218.153 341.998 218.298C341.998 218.443 336.68 218.577 330.133 218.577C323.585 218.577 318.268 218.453 318.268 218.298Z" fill="#263238"/>
<path d="M336.411 225.17C336.26 225.17 336.131 224.509 336.131 223.692C336.131 222.876 336.26 222.215 336.411 222.215C336.562 222.215 336.692 222.876 336.692 223.692C336.692 224.509 336.562 225.17 336.411 225.17Z" fill="#263238"/>
<path d="M334.588 225.437C334.426 225.437 334.308 224.745 334.308 223.887C334.308 223.03 334.426 222.348 334.588 222.348C334.75 222.348 334.869 223.04 334.869 223.887C334.869 224.735 334.739 225.437 334.588 225.437Z" fill="#263238"/>
<path d="M326.142 275.398C328.85 275.126 331.575 275.036 334.296 275.129C337.021 275.036 339.75 275.126 342.462 275.398C339.749 275.664 337.021 275.754 334.296 275.667C331.575 275.754 328.85 275.664 326.142 275.398Z" fill="#263238"/>
<path d="M318.861 111.741C318.861 111.597 324.071 111.473 330.489 111.473C336.907 111.473 342.107 111.597 342.107 111.741C342.107 111.886 336.907 112.01 330.489 112.01C324.071 112.01 318.861 111.886 318.861 111.741Z" fill="#263238"/>
<path d="M339.874 113.17C339.874 113.242 339.82 113.346 339.874 113.49C339.928 113.635 339.96 113.697 340.101 113.666C340.241 113.635 340.273 113.552 340.208 113.397C340.144 113.242 340.014 113.222 339.993 113.149C339.971 113.077 340.176 112.943 340.467 113.149C340.554 113.202 340.626 113.275 340.675 113.362C340.724 113.449 340.749 113.546 340.748 113.645C340.741 113.777 340.69 113.903 340.602 114.006C340.515 114.108 340.396 114.181 340.262 114.213C340.131 114.254 339.989 114.254 339.857 114.214C339.726 114.173 339.611 114.093 339.529 113.986C339.48 113.899 339.454 113.801 339.454 113.702C339.454 113.603 339.48 113.505 339.529 113.418C339.604 113.056 339.874 113.077 339.874 113.17Z" fill="#263238"/>
<path d="M330.36 113.17C330.36 113.242 330.306 113.346 330.36 113.49C330.414 113.635 330.436 113.697 330.587 113.666C330.738 113.635 330.759 113.552 330.684 113.397C330.608 113.242 330.501 113.222 330.479 113.149C330.457 113.077 330.662 112.943 330.954 113.149C331.041 113.202 331.112 113.275 331.161 113.362C331.21 113.449 331.235 113.546 331.234 113.645C331.227 113.777 331.176 113.903 331.089 114.006C331.001 114.108 330.882 114.181 330.749 114.213C330.617 114.254 330.475 114.254 330.344 114.214C330.212 114.173 330.097 114.093 330.015 113.986C329.966 113.899 329.94 113.801 329.94 113.702C329.94 113.603 329.966 113.505 330.015 113.418C330.069 113.056 330.36 113.077 330.36 113.17Z" fill="#263238"/>
<path d="M320.803 113.17C320.803 113.242 320.749 113.346 320.803 113.49C320.857 113.635 320.878 113.697 321.029 113.666C321.18 113.635 321.202 113.552 321.126 113.397C321.051 113.242 320.943 113.222 320.921 113.149C320.9 113.077 321.105 112.943 321.396 113.149C321.483 113.202 321.555 113.275 321.604 113.362C321.653 113.449 321.678 113.546 321.676 113.645C321.665 113.777 321.613 113.902 321.526 114.004C321.439 114.106 321.322 114.181 321.19 114.218C321.057 114.255 320.917 114.252 320.786 114.211C320.655 114.17 320.541 114.091 320.458 113.986C320.409 113.899 320.383 113.801 320.383 113.702C320.383 113.603 320.409 113.505 320.458 113.418C320.533 113.056 320.803 113.077 320.803 113.17Z" fill="#263238"/>
<path d="M339.874 161.227C339.874 161.299 339.82 161.392 339.874 161.537C339.928 161.682 339.96 161.754 340.101 161.713C340.241 161.671 340.273 161.599 340.208 161.444C340.144 161.289 340.014 161.268 339.993 161.196C339.971 161.124 340.176 160.989 340.467 161.196C340.554 161.25 340.625 161.323 340.674 161.41C340.723 161.496 340.748 161.594 340.748 161.692C340.741 161.824 340.69 161.95 340.602 162.052C340.515 162.155 340.396 162.228 340.262 162.26C340.131 162.301 339.989 162.301 339.857 162.26C339.726 162.22 339.611 162.14 339.529 162.033C339.48 161.946 339.454 161.848 339.454 161.749C339.454 161.65 339.48 161.552 339.529 161.465C339.604 161.134 339.874 161.155 339.874 161.227Z" fill="#263238"/>
<path d="M330.36 161.227C330.36 161.299 330.306 161.392 330.36 161.537C330.414 161.682 330.436 161.754 330.587 161.713C330.738 161.671 330.759 161.599 330.684 161.444C330.608 161.289 330.501 161.268 330.479 161.196C330.457 161.124 330.662 160.989 330.954 161.196C331.04 161.25 331.111 161.323 331.16 161.41C331.209 161.496 331.234 161.594 331.234 161.692C331.227 161.824 331.176 161.95 331.089 162.052C331.001 162.155 330.882 162.228 330.749 162.26C330.617 162.301 330.475 162.301 330.344 162.26C330.212 162.22 330.097 162.14 330.015 162.033C329.966 161.946 329.94 161.848 329.94 161.749C329.94 161.65 329.966 161.552 330.015 161.465C330.069 161.134 330.36 161.155 330.36 161.227Z" fill="#263238"/>
<path d="M320.803 161.227C320.803 161.299 320.749 161.392 320.803 161.537C320.857 161.682 320.878 161.754 321.029 161.713C321.18 161.671 321.202 161.599 321.126 161.444C321.051 161.289 320.943 161.268 320.921 161.196C320.9 161.124 321.105 160.989 321.396 161.196C321.482 161.25 321.553 161.323 321.602 161.41C321.651 161.496 321.677 161.594 321.676 161.692C321.665 161.824 321.613 161.949 321.526 162.051C321.439 162.153 321.322 162.228 321.19 162.265C321.057 162.302 320.917 162.299 320.786 162.258C320.655 162.217 320.541 162.138 320.458 162.033C320.409 161.946 320.383 161.848 320.383 161.749C320.383 161.65 320.409 161.552 320.458 161.465C320.533 161.134 320.803 161.155 320.803 161.227Z" fill="#263238"/>
<path d="M339.874 213.979C339.874 214.051 339.82 214.144 339.874 214.289C339.928 214.434 339.96 214.506 340.101 214.465C340.241 214.423 340.273 214.361 340.208 214.196C340.144 214.031 340.014 214.031 339.993 213.958C339.971 213.886 340.176 213.741 340.467 213.958C340.554 214.012 340.625 214.085 340.674 214.172C340.723 214.259 340.748 214.356 340.748 214.454C340.737 214.586 340.684 214.711 340.597 214.813C340.51 214.915 340.393 214.99 340.261 215.027C340.129 215.064 339.988 215.062 339.857 215.02C339.727 214.979 339.612 214.9 339.529 214.795C339.48 214.708 339.454 214.61 339.454 214.511C339.454 214.412 339.48 214.314 339.529 214.227C339.604 213.886 339.874 213.907 339.874 213.979Z" fill="#263238"/>
<path d="M330.36 213.979C330.36 214.051 330.306 214.144 330.36 214.289C330.414 214.434 330.436 214.506 330.587 214.465C330.738 214.423 330.759 214.361 330.684 214.196C330.608 214.031 330.501 214.031 330.479 213.958C330.457 213.886 330.662 213.741 330.954 213.958C331.04 214.012 331.111 214.085 331.16 214.172C331.209 214.259 331.234 214.356 331.234 214.454C331.223 214.586 331.171 214.711 331.084 214.813C330.997 214.915 330.879 214.99 330.747 215.027C330.615 215.064 330.474 215.062 330.344 215.02C330.213 214.979 330.098 214.9 330.015 214.795C329.966 214.708 329.94 214.61 329.94 214.511C329.94 214.412 329.966 214.314 330.015 214.227C330.069 213.886 330.36 213.907 330.36 213.979Z" fill="#263238"/>
<path d="M320.803 213.979C320.803 214.051 320.749 214.144 320.803 214.289C320.857 214.434 320.878 214.506 321.029 214.465C321.18 214.423 321.202 214.361 321.126 214.196C321.051 214.031 320.943 214.031 320.921 213.958C320.9 213.886 321.105 213.741 321.396 213.958C321.482 214.012 321.553 214.085 321.602 214.172C321.651 214.259 321.677 214.356 321.676 214.454C321.667 214.587 321.615 214.713 321.528 214.816C321.442 214.92 321.324 214.995 321.191 215.033C321.058 215.071 320.916 215.069 320.785 215.026C320.653 214.984 320.539 214.903 320.458 214.795C320.409 214.708 320.383 214.61 320.383 214.511C320.383 214.412 320.409 214.314 320.458 214.227C320.533 213.886 320.803 213.907 320.803 213.979Z" fill="#263238"/>
<path d="M339.874 271.493C339.874 271.565 339.82 271.658 339.874 271.803C339.928 271.947 339.96 272.02 340.101 271.978C340.241 271.937 340.273 271.865 340.208 271.71C340.144 271.555 340.014 271.534 339.993 271.462C339.971 271.389 340.176 271.255 340.467 271.462C340.554 271.515 340.625 271.589 340.674 271.675C340.723 271.762 340.748 271.859 340.748 271.958C340.741 272.09 340.69 272.216 340.602 272.318C340.515 272.42 340.396 272.493 340.262 272.526C340.131 272.567 339.989 272.567 339.857 272.526C339.726 272.485 339.611 272.406 339.529 272.299C339.48 272.211 339.454 272.114 339.454 272.015C339.454 271.915 339.48 271.818 339.529 271.73C339.604 271.4 339.874 271.42 339.874 271.493Z" fill="#263238"/>
<path d="M330.36 271.493C330.36 271.565 330.306 271.658 330.36 271.803C330.414 271.947 330.436 272.02 330.587 271.978C330.738 271.937 330.759 271.865 330.684 271.71C330.608 271.555 330.501 271.534 330.479 271.462C330.457 271.389 330.662 271.255 330.954 271.462C331.04 271.515 331.111 271.589 331.16 271.675C331.209 271.762 331.234 271.859 331.234 271.958C331.227 272.09 331.176 272.216 331.089 272.318C331.001 272.42 330.882 272.493 330.749 272.526C330.617 272.567 330.475 272.567 330.344 272.526C330.212 272.485 330.097 272.406 330.015 272.299C329.966 272.211 329.94 272.114 329.94 272.015C329.94 271.915 329.966 271.818 330.015 271.73C330.069 271.4 330.36 271.42 330.36 271.493Z" fill="#263238"/>
<path d="M363.42 328.582L363.14 336.301L305.464 344.381L305.712 330.297L363.42 328.582Z" fill="#263238"/>
<path d="M285.412 0C285.412 0 256.558 32.322 255.781 62.3914C255.026 91.6238 255.781 172.46 255.781 172.46V270.966H315.107V69.9139C315.107 69.9139 314.557 58.0205 309.175 39.7722C304.17 23.0429 285.412 0 285.412 0Z" fill="#E20000"/>
<path d="M315.032 87.9132C315.032 88.0579 301.7 88.1819 285.251 88.1819C268.801 88.1819 255.469 88.0579 255.469 87.9132C255.469 87.7685 268.801 87.6445 285.251 87.6445C301.7 87.6445 315.032 87.7685 315.032 87.9132Z" fill="#263238"/>
<path d="M259.167 143.651C259.167 143.651 259.167 143.651 259.167 143.765V143.847H259.103V143.796H259.167V143.982H259.081C258.941 141.915 258.844 130.218 258.844 116.175C258.844 108.405 258.898 101.378 258.919 96.1909C258.919 93.6903 258.995 91.6443 259.016 90.1357C259.016 89.4744 259.016 88.9267 259.07 88.4927C259.04 88.3009 259.04 88.1059 259.07 87.9141C259.111 88.1043 259.13 88.2985 259.124 88.4927C259.124 88.9267 259.124 89.4744 259.178 90.1357C259.178 91.6443 259.178 93.6903 259.264 96.1909C259.264 101.357 259.318 108.405 259.351 116.175C259.351 130.218 259.243 141.863 259.113 143.982H259.027V143.796H259.167V143.847H259.103V143.765C259.092 143.692 259.103 143.651 259.167 143.651Z" fill="#263238"/>
<path d="M263.363 143.982C263.212 143.982 263.083 131.427 263.083 115.948C263.083 100.469 263.212 87.9141 263.363 87.9141C263.514 87.9141 263.644 100.469 263.644 115.948C263.644 131.427 263.482 143.982 263.363 143.982Z" fill="#263238"/>
<path d="M267.732 143.982C267.581 143.982 267.43 131.427 267.398 115.948C267.365 100.469 267.463 87.9141 267.624 87.9141C267.786 87.9141 267.926 100.469 267.959 115.948C267.991 131.427 267.894 143.982 267.732 143.982Z" fill="#263238"/>
<path d="M271.874 143.982C271.712 143.982 271.594 131.427 271.594 115.948C271.594 100.469 271.712 87.9141 271.874 87.9141C272.036 87.9141 272.155 100.469 272.155 115.948C272.155 131.427 272.025 143.982 271.874 143.982Z" fill="#263238"/>
<path d="M276.124 145.284C275.973 145.284 275.844 132.44 275.844 116.599C275.844 100.758 275.973 87.9141 276.124 87.9141C276.275 87.9141 276.426 100.768 276.426 116.599C276.426 132.429 276.286 145.284 276.124 145.284Z" fill="#263238"/>
<path d="M280.374 145.284C280.223 145.284 280.094 132.44 280.094 116.599C280.094 100.758 280.223 87.9141 280.374 87.9141C280.525 87.9141 280.665 100.758 280.665 116.599C280.665 132.44 280.536 145.284 280.374 145.284Z" fill="#263238"/>
<path d="M284.635 145.284C284.473 145.284 284.354 132.44 284.354 116.599C284.354 100.758 284.473 87.9141 284.635 87.9141C284.797 87.9141 284.915 100.758 284.915 116.599C284.915 132.44 284.786 145.284 284.635 145.284Z" fill="#263238"/>
<path d="M288.885 145.284C288.734 145.284 288.604 132.44 288.604 116.599C288.604 100.758 288.734 87.9141 288.885 87.9141C289.036 87.9141 289.165 100.758 289.165 116.599C289.165 132.44 289.036 145.284 288.885 145.284Z" fill="#263238"/>
<path d="M293.135 145.284C292.984 145.284 292.854 132.44 292.854 116.599C292.854 100.758 292.984 87.9141 293.135 87.9141C293.286 87.9141 293.415 100.758 293.415 116.599C293.415 132.44 293.297 145.284 293.135 145.284Z" fill="#263238"/>
<path d="M297.601 143.982C297.45 143.982 297.277 131.427 297.223 115.948C297.169 100.469 297.223 87.9141 297.396 87.9141C297.568 87.9141 297.719 100.469 297.784 115.948C297.849 131.427 297.763 143.982 297.601 143.982Z" fill="#263238"/>
<path d="M301.644 143.982C301.604 143.795 301.585 143.604 301.59 143.413C301.59 142.979 301.59 142.442 301.537 141.781C301.537 140.282 301.537 138.247 301.45 135.767C301.45 130.6 301.396 123.656 301.364 115.948C301.332 108.239 301.429 101.264 301.45 96.1289C301.45 93.649 301.515 91.6133 301.537 90.115C301.537 89.4537 301.537 88.9164 301.59 88.4824C301.585 88.2916 301.604 88.1009 301.644 87.9141C301.692 88.0998 301.71 88.2914 301.698 88.4824C301.698 88.9164 301.698 89.4537 301.752 90.115C301.752 91.6133 301.752 93.649 301.839 96.1289C301.839 101.295 301.893 108.239 301.925 115.948C301.957 123.656 301.86 130.631 301.839 135.767C301.839 138.247 301.774 140.282 301.752 141.781C301.752 142.442 301.752 142.979 301.698 143.413C301.71 143.604 301.692 143.796 301.644 143.982Z" fill="#263238"/>
<path d="M305.895 143.982C305.744 143.982 305.614 131.427 305.614 115.948C305.614 100.469 305.744 87.9141 305.895 87.9141C306.046 87.9141 306.175 100.469 306.175 115.948C306.175 131.427 306.057 143.982 305.895 143.982Z" fill="#263238"/>
<path d="M310.156 143.982C309.995 143.982 309.876 131.427 309.876 115.948C309.876 100.469 309.995 87.9141 310.156 87.9141C310.318 87.9141 310.437 100.469 310.437 115.948C310.437 131.427 310.307 143.982 310.156 143.982Z" fill="#263238"/>
<path d="M314.406 143.982C314.255 143.982 314.126 131.427 314.126 115.948C314.126 100.469 314.255 87.9141 314.406 87.9141C314.557 87.9141 314.687 100.469 314.687 115.948C314.687 131.427 314.557 143.982 314.406 143.982Z" fill="#263238"/>
<path d="M315.032 143.982C315.032 144.126 301.742 144.25 285.358 144.25C268.973 144.25 255.694 144.126 255.694 143.982C255.694 143.837 268.973 143.713 285.358 143.713C301.742 143.713 315.032 143.837 315.032 143.982Z" fill="#263238"/>
<path d="M263.666 331.445L206.82 329.76C206.82 329.76 208.978 311.843 210.79 310.128C213.443 307.596 258.413 263.153 258.413 263.153C258.413 263.153 266.309 167.675 266.967 164.926C267.625 162.178 280.191 127.149 280.849 126.312C281.507 125.475 282.165 123.563 285.476 123.356C288.788 123.15 290.762 126.725 290.762 126.725C290.762 126.725 303.544 165.567 304.202 168.729L314.643 265.292C314.816 266.449 360.443 311.791 361.479 313.971C362.514 316.152 363.388 328.593 363.388 328.593L306.629 332.581L263.666 331.445Z" fill="#E0E0E0"/>
<path d="M304.17 167.53C302.303 160.896 290.956 126.425 290.956 126.425C290.956 126.425 288.982 122.839 285.67 123.046C282.359 123.252 281.712 125.164 281.043 126.001C280.374 126.838 267.797 161.878 267.171 164.626C267.107 164.874 266.988 165.887 266.815 167.53H304.17Z" fill="#F5F5F5"/>
<path d="M264.799 346.925L264.324 320.224L267.614 310.211L267.431 229.055L266.816 167.531H304.17L303.48 310.294L307.255 319.749V359.521H287.72L287.408 318.56C287.405 318.063 287.197 317.588 286.829 317.237C286.461 316.887 285.963 316.69 285.444 316.69C284.923 316.693 284.423 316.893 284.056 317.247C283.688 317.602 283.481 318.081 283.481 318.581L283.578 359.521H264.971L264.799 346.925Z" fill="#F5F5F5"/>
<path d="M206.82 329.76L207.101 337.468L264.777 345.549L264.529 331.475L206.82 329.76Z" fill="#263238"/>
<path d="M207.532 324.997C207.532 324.842 220.153 324.729 235.707 324.729C251.261 324.729 263.882 324.842 263.882 324.997C263.882 325.152 251.272 325.266 235.707 325.266C220.142 325.266 207.532 325.09 207.532 324.997Z" fill="#263238"/>
<path d="M211.977 329.916C211.704 329.113 211.608 328.265 211.696 327.425C211.608 326.589 211.703 325.744 211.977 324.945C212.256 325.743 212.352 326.589 212.257 327.425C212.351 328.265 212.256 329.114 211.977 329.916Z" fill="#263238"/>
<path d="M216.581 329.813C216.207 328.263 216.207 326.652 216.581 325.102C216.955 326.652 216.955 328.263 216.581 329.813Z" fill="#263238"/>
<path d="M221.824 330.165C221.45 328.461 221.45 326.702 221.824 324.998C222.198 326.702 222.198 328.461 221.824 330.165Z" fill="#263238"/>
<path d="M226.904 330.36C226.516 328.574 226.516 326.731 226.904 324.945C227.278 326.732 227.278 328.573 226.904 330.36Z" fill="#263238"/>
<path d="M231.662 330.505C231.287 328.669 231.287 326.781 231.662 324.945C232.037 326.781 232.037 328.669 231.662 330.505Z" fill="#263238"/>
<path d="M236.645 330.505C236.269 328.669 236.269 326.781 236.645 324.945C237.02 326.781 237.02 328.669 236.645 330.505Z" fill="#263238"/>
<path d="M241.628 330.505C241.253 328.669 241.253 326.781 241.628 324.945C242.003 326.781 242.003 328.669 241.628 330.505Z" fill="#263238"/>
<path d="M246.612 330.939C246.238 328.957 246.238 326.927 246.612 324.945C246.986 326.927 246.986 328.957 246.612 330.939Z" fill="#263238"/>
<path d="M251.617 331.094C251.243 329.06 251.243 326.979 251.617 324.945C251.991 326.979 251.991 329.06 251.617 331.094Z" fill="#263238"/>
<path d="M256.579 331.61C256.205 329.403 256.205 327.152 256.579 324.945C256.953 327.152 256.953 329.403 256.579 331.61Z" fill="#263238"/>
<path d="M261.562 330.505C261.714 330.976 261.78 331.469 261.756 331.962V332.313V332.665H261.325V331.817C261.325 331.187 261.325 330.557 261.325 329.895C261.228 328.237 261.322 326.574 261.605 324.936C261.882 326.575 261.976 328.237 261.886 329.895C261.886 330.557 261.886 331.187 261.886 331.817V332.665H261.325V331.962C261.312 331.467 261.393 330.973 261.562 330.505Z" fill="#263238"/>
<path d="M247.335 320.129C251.446 320.129 254.778 316.937 254.778 312.999C254.778 309.061 251.446 305.869 247.335 305.869C243.225 305.869 239.893 309.061 239.893 312.999C239.893 316.937 243.225 320.129 247.335 320.129Z" fill="#E20000"/>
<path d="M210.077 322.228C210.077 321.67 211.976 313.001 211.976 313.001L259.739 265.468L260.44 238.768L258.412 263.112L211.34 309.24C210.226 310.342 209.492 311.745 209.236 313.259L207.392 325.101L210.077 322.228Z" fill="#263238"/>
<path d="M284.862 186.027C285.023 186.027 285.142 215.229 285.142 251.229C285.142 287.23 285.023 316.442 284.862 316.442C284.7 316.442 284.581 287.251 284.581 251.229C284.581 215.208 284.711 186.027 284.862 186.027Z" fill="#263238"/>
<path d="M284.312 175.436H281.68V179.879H284.312V175.436Z" fill="#455A64"/>
<path d="M290.223 175.436H287.591V179.879H290.223V175.436Z" fill="#455A64"/>
<path d="M274.809 164.029L278.217 167.47H292.811L296.231 164.184C296.231 164.184 292.66 160.732 285.444 160.732C281.628 160.749 277.912 161.901 274.809 164.029Z" fill="#263238"/>
<path d="M304.083 184.716C304.083 184.871 295.777 184.985 285.54 184.985C275.304 184.985 266.987 184.871 266.987 184.716C266.987 184.561 275.293 184.447 285.54 184.447C295.788 184.447 304.083 184.571 304.083 184.716Z" fill="#263238"/>
<path d="M298.323 148.714C298.323 148.859 292.714 148.983 285.789 148.983C278.864 148.983 273.266 148.859 273.266 148.714C273.266 148.569 278.875 148.445 285.789 148.445C292.703 148.445 298.323 148.569 298.323 148.714Z" fill="#263238"/>
<path d="M270.159 187.732C270.159 187.815 270.019 187.877 269.965 188.053C269.911 188.228 269.965 188.373 270.181 188.394C270.397 188.414 270.461 188.27 270.429 188.073C270.397 187.877 270.267 187.815 270.278 187.743C270.289 187.67 270.548 187.608 270.785 187.898C270.85 187.987 270.892 188.09 270.907 188.198C270.922 188.306 270.91 188.415 270.871 188.518C270.807 188.646 270.704 188.754 270.575 188.826C270.447 188.899 270.299 188.933 270.15 188.926C270.002 188.918 269.859 188.868 269.739 188.783C269.62 188.697 269.53 188.58 269.48 188.445C269.452 188.339 269.452 188.227 269.48 188.121C269.509 188.015 269.564 187.917 269.642 187.836C269.954 187.567 270.181 187.67 270.159 187.732Z" fill="#263238"/>
<path d="M273.892 187.732C273.892 187.815 273.752 187.877 273.698 188.053C273.644 188.228 273.698 188.373 273.914 188.394C274.13 188.414 274.194 188.27 274.162 188.073C274.13 187.877 274 187.815 274.011 187.743C274.022 187.67 274.281 187.608 274.518 187.898C274.583 187.987 274.625 188.09 274.64 188.198C274.655 188.306 274.642 188.415 274.604 188.518C274.543 188.649 274.44 188.76 274.311 188.834C274.182 188.908 274.032 188.942 273.881 188.931C273.731 188.928 273.585 188.88 273.464 188.793C273.344 188.705 273.256 188.584 273.213 188.445C273.183 188.339 273.182 188.227 273.21 188.12C273.238 188.014 273.295 187.916 273.374 187.836C273.633 187.567 273.914 187.67 273.892 187.732Z" fill="#263238"/>
<path d="M277.937 187.732C277.937 187.815 277.797 187.877 277.743 188.053C277.689 188.228 277.743 188.373 277.959 188.394C278.174 188.414 278.239 188.27 278.207 188.073C278.174 187.877 278.045 187.815 278.056 187.743C278.067 187.67 278.325 187.608 278.563 187.898C278.628 187.987 278.669 188.09 278.684 188.198C278.699 188.306 278.687 188.415 278.649 188.518C278.587 188.649 278.485 188.76 278.356 188.834C278.226 188.908 278.077 188.942 277.926 188.931C277.776 188.928 277.63 188.88 277.509 188.793C277.389 188.705 277.301 188.584 277.258 188.445C277.228 188.339 277.227 188.227 277.255 188.12C277.283 188.014 277.34 187.916 277.419 187.836C277.678 187.567 277.959 187.67 277.937 187.732Z" fill="#263238"/>
<path d="M281.982 187.732C281.982 187.815 281.842 187.877 281.788 188.053C281.734 188.228 281.788 188.373 282.004 188.394C282.219 188.414 282.284 188.27 282.252 188.073C282.219 187.877 282.09 187.815 282.101 187.743C282.111 187.67 282.37 187.608 282.608 187.898C282.673 187.987 282.714 188.09 282.729 188.198C282.744 188.306 282.732 188.415 282.694 188.518C282.632 188.649 282.53 188.76 282.401 188.834C282.271 188.908 282.121 188.942 281.971 188.931C281.82 188.928 281.674 188.88 281.554 188.793C281.434 188.705 281.346 188.584 281.303 188.445C281.272 188.339 281.272 188.227 281.3 188.12C281.328 188.014 281.385 187.916 281.464 187.836C281.723 187.567 282.004 187.67 281.982 187.732Z" fill="#263238"/>
<path d="M303.49 279.944C303.49 280.099 295.389 280.213 285.401 280.213C275.412 280.213 267.312 280.099 267.312 279.944C267.312 279.789 275.401 279.676 285.401 279.676C295.4 279.676 303.49 279.8 303.49 279.944Z" fill="#263238"/>
<path d="M303.846 218.452C303.846 218.597 295.67 218.721 285.584 218.721C275.499 218.721 267.322 218.597 267.322 218.452C267.322 218.308 275.499 218.184 285.584 218.184C295.67 218.184 303.846 218.297 303.846 218.452Z" fill="#263238"/>
<path d="M303.846 251.634C303.846 251.779 295.767 251.903 285.8 251.903C275.833 251.903 267.797 251.727 267.797 251.634C267.797 251.541 275.876 251.365 285.832 251.365C295.788 251.365 303.846 251.438 303.846 251.634Z" fill="#263238"/>
<path d="M283.006 320.47C279.879 320.736 276.738 320.826 273.6 320.739C270.459 320.826 267.314 320.736 264.184 320.47C267.314 320.198 270.459 320.108 273.6 320.202C276.738 320.109 279.88 320.198 283.006 320.47Z" fill="#263238"/>
<path d="M283.136 327.809C280.11 328.088 277.069 328.181 274.032 328.088C270.997 328.181 267.96 328.088 264.938 327.809C267.961 327.543 270.998 327.453 274.032 327.54C277.069 327.453 280.109 327.543 283.136 327.809Z" fill="#263238"/>
<path d="M283.514 334.09C280.405 334.362 277.282 334.452 274.162 334.359C271.041 334.452 267.918 334.362 264.81 334.09C267.919 333.824 271.041 333.734 274.162 333.821C277.282 333.734 280.405 333.824 283.514 334.09Z" fill="#263238"/>
<path d="M283.254 340.847C280.21 341.113 277.152 341.203 274.096 341.116C271.041 341.203 267.983 341.113 264.938 340.847C267.982 340.575 271.041 340.485 274.096 340.579C277.152 340.485 280.21 340.575 283.254 340.847Z" fill="#263238"/>
<path d="M283.254 347.018C280.21 347.284 277.152 347.373 274.096 347.286C271.041 347.373 267.983 347.284 264.938 347.018C267.983 346.752 271.041 346.662 274.096 346.749C277.152 346.662 280.21 346.752 283.254 347.018Z" fill="#263238"/>
<path d="M283.254 353.186C280.21 353.458 277.152 353.548 274.096 353.454C271.041 353.548 267.982 353.458 264.938 353.186C267.983 352.92 271.041 352.83 274.096 352.917C277.152 352.83 280.21 352.92 283.254 353.186Z" fill="#263238"/>
<path d="M306.446 320.47C303.315 320.736 300.171 320.826 297.029 320.739C293.891 320.826 290.75 320.737 287.623 320.47C290.75 320.198 293.891 320.108 297.029 320.202C300.171 320.109 303.315 320.198 306.446 320.47Z" fill="#263238"/>
<path d="M306.564 327.809C303.542 328.088 300.505 328.181 297.471 328.088C294.437 328.181 291.4 328.088 288.378 327.809C291.4 327.543 294.437 327.453 297.471 327.54C300.505 327.453 303.542 327.543 306.564 327.809Z" fill="#263238"/>
<path d="M306.941 334.09C303.836 334.362 300.717 334.452 297.6 334.359C294.48 334.452 291.357 334.362 288.248 334.09C291.357 333.824 294.48 333.734 297.6 333.821C300.717 333.734 303.836 333.824 306.941 334.09Z" fill="#263238"/>
<path d="M306.694 340.847C303.649 341.113 300.591 341.203 297.536 341.116C294.48 341.203 291.422 341.113 288.378 340.847C291.422 340.575 294.48 340.485 297.536 340.579C300.591 340.485 303.65 340.575 306.694 340.847Z" fill="#263238"/>
<path d="M306.694 347.018C303.649 347.284 300.591 347.373 297.536 347.286C294.48 347.373 291.422 347.284 288.378 347.018C291.422 346.752 294.48 346.662 297.536 346.749C300.591 346.662 303.649 346.752 306.694 347.018Z" fill="#263238"/>
<path d="M306.694 353.186C303.65 353.458 300.591 353.548 297.536 353.454C294.48 353.548 291.422 353.458 288.378 353.186C291.422 352.92 294.48 352.83 297.536 352.917C300.591 352.83 303.649 352.92 306.694 353.186Z" fill="#263238"/>
<path d="M287.018 162.695C287.104 162.819 286.09 163.553 284.764 164.328C283.997 164.872 283.129 165.272 282.207 165.506C282.121 165.372 283.135 164.648 284.462 163.873C285.226 163.325 286.094 162.925 287.018 162.695Z" fill="white"/>
<path d="M288.778 162.85C288.907 162.994 287.99 163.687 286.804 164.379C286.124 164.882 285.335 165.235 284.496 165.412C284.42 165.278 285.326 164.617 286.513 163.924C287.198 163.444 287.964 163.081 288.778 162.85Z" fill="white"/>
<path d="M266.923 165.352C267.084 165.352 267.322 197.694 267.473 237.58C267.624 277.466 267.602 309.829 267.473 309.829C267.343 309.829 267.074 277.497 266.933 237.59C266.793 197.684 266.772 165.352 266.923 165.352Z" fill="#263238"/>
<path d="M303.489 309.498C303.327 309.498 303.36 279.077 303.543 241.557C303.727 204.038 304.007 173.617 304.169 173.617C304.331 173.617 304.298 204.028 304.104 241.557C303.91 279.087 303.64 309.498 303.489 309.498Z" fill="#263238"/>
<path d="M362.719 325.048C362.719 325.193 350.11 325.317 334.545 325.317C318.98 325.317 306.37 325.193 306.37 325.048C306.37 324.903 318.98 324.779 334.545 324.779C350.11 324.779 362.719 324.893 362.719 325.048Z" fill="#263238"/>
<path d="M358.265 330.019C357.992 329.217 357.896 328.369 357.984 327.529C357.896 326.692 357.991 325.848 358.265 325.049C358.538 325.848 358.634 326.692 358.545 327.529C358.633 328.369 358.537 329.217 358.265 330.019Z" fill="#263238"/>
<path d="M353.659 329.918C353.386 329.161 353.29 328.357 353.378 327.562C353.291 326.763 353.387 325.955 353.659 325.195C353.937 325.954 354.033 326.763 353.939 327.562C354.033 328.357 353.938 329.163 353.659 329.918Z" fill="#263238"/>
<path d="M348.427 330.215C348.053 328.512 348.053 326.752 348.427 325.049C348.801 326.752 348.801 328.512 348.427 330.215Z" fill="#263238"/>
<path d="M343.304 330.463C342.93 328.676 342.93 326.836 343.304 325.049C343.678 326.836 343.678 328.676 343.304 330.463Z" fill="#263238"/>
<path d="M338.578 330.608C338.203 328.772 338.203 326.884 338.578 325.049C338.953 326.884 338.953 328.772 338.578 330.608Z" fill="#263238"/>
<path d="M333.596 330.608C333.221 328.772 333.221 326.884 333.596 325.049C333.971 326.884 333.971 328.772 333.596 330.608Z" fill="#263238"/>
<path d="M328.612 330.608C328.237 328.772 328.237 326.884 328.612 325.049C328.988 326.884 328.988 328.772 328.612 330.608Z" fill="#263238"/>
<path d="M323.628 331.714C323.254 329.507 323.254 327.256 323.628 325.049C324.002 327.256 324.002 329.507 323.628 331.714Z" fill="#263238"/>
<path d="M318.645 332.106C318.271 329.767 318.271 327.388 318.645 325.049C319.019 327.388 319.019 329.767 318.645 332.106Z" fill="#263238"/>
<path d="M312.692 332.582C312.318 330.084 312.318 327.547 312.692 325.049C313.066 327.547 313.066 330.084 312.692 332.582Z" fill="#263238"/>
<path d="M360.271 320.865L359.419 314.468L312.551 266.936L312.022 241.072L314.719 265.427L359.904 311.565C361.026 312.662 361.762 314.067 362.008 315.584L363 323.314L360.271 320.865Z" fill="#263238"/>
<path d="M333.596 313H312.022V318.57H333.596V313Z" fill="#E20000"/>
<path d="M285.412 0C285.563 0 285.725 19.5296 285.757 43.6161C285.789 67.7026 285.703 87.2323 285.552 87.2323C285.401 87.2323 285.239 67.7026 285.196 43.6161C285.153 19.5296 285.261 0 285.412 0Z" fill="#263238"/>
<path d="M287.504 81.9946C287.504 81.9326 287.774 81.7776 288.151 81.9946C288.259 82.0747 288.346 82.1784 288.404 82.2969C288.462 82.4155 288.49 82.5456 288.486 82.6765C288.464 82.8444 288.392 83.0027 288.279 83.1325C288.166 83.2623 288.016 83.3581 287.848 83.4083C287.679 83.4585 287.499 83.461 287.329 83.4155C287.159 83.37 287.006 83.2785 286.889 83.1519C286.807 83.047 286.752 82.9246 286.729 82.7951C286.707 82.6655 286.717 82.5327 286.76 82.4079C286.9 81.9842 287.245 81.9429 287.256 82.0152C287.267 82.0876 287.137 82.2219 287.148 82.4802C287.159 82.7385 287.331 83.0072 287.677 82.8935C287.744 82.8772 287.805 82.8444 287.855 82.7984C287.905 82.7524 287.941 82.6948 287.961 82.6313C287.98 82.5677 287.982 82.5004 287.967 82.4358C287.951 82.3713 287.918 82.3118 287.871 82.2632C287.72 82.0979 287.515 82.0669 287.504 81.9946Z" fill="#263238"/>
<path d="M287.504 67.3715C287.504 67.3095 287.774 67.1545 288.151 67.3715C288.257 67.4538 288.342 67.5579 288.4 67.6759C288.458 67.794 288.487 67.9231 288.486 68.0535C288.466 68.2222 288.395 68.3818 288.283 68.513C288.171 68.6442 288.021 68.7414 287.852 68.7928C287.683 68.8441 287.502 68.8475 287.331 68.8025C287.16 68.7575 287.007 68.666 286.889 68.5392C286.807 68.4343 286.752 68.3119 286.729 68.1823C286.707 68.0528 286.717 67.92 286.76 67.7952C286.9 67.3715 287.245 67.3302 287.256 67.4025C287.267 67.4748 287.137 67.6092 287.148 67.8675C287.159 68.1258 287.331 68.3842 287.677 68.2808C287.744 68.2645 287.805 68.2317 287.855 68.1857C287.905 68.1397 287.941 68.0821 287.961 68.0186C287.98 67.955 287.982 67.8877 287.967 67.8231C287.951 67.7586 287.918 67.6991 287.871 67.6505C287.72 67.4748 287.515 67.4438 287.504 67.3715Z" fill="#263238"/>
<path d="M287.505 52.7407C287.505 52.6787 287.775 52.5237 288.152 52.7407C288.26 52.8208 288.347 52.9245 288.405 53.043C288.464 53.1616 288.491 53.2917 288.487 53.4226C288.47 53.592 288.4 53.7526 288.287 53.8834C288.173 54.0143 288.021 54.1094 287.85 54.1563C287.7 54.2137 287.535 54.2276 287.376 54.1962C287.217 54.1648 287.071 54.0895 286.956 53.9795C286.841 53.8696 286.763 53.73 286.73 53.5777C286.697 53.4255 286.712 53.2674 286.772 53.123C286.912 52.7097 287.257 52.6683 287.268 52.7303C287.279 52.7923 287.149 52.9473 287.16 53.1953C287.171 53.4433 287.343 53.7223 287.689 53.619C288.034 53.5156 288.044 53.2057 287.883 52.9783C287.721 52.751 287.516 52.8233 287.505 52.7407Z" fill="#263238"/>
<path d="M287.504 38.1186C287.504 38.0566 287.774 37.9016 288.151 38.1702C288.259 38.2504 288.346 38.354 288.404 38.4726C288.462 38.5912 288.49 38.7213 288.486 38.8522C288.469 39.0216 288.399 39.1821 288.285 39.313C288.172 39.4438 288.02 39.5389 287.849 39.5859C287.681 39.6418 287.499 39.647 287.327 39.6008C287.155 39.5546 287.003 39.4593 286.889 39.3275C286.807 39.2226 286.752 39.1002 286.729 38.9707C286.707 38.8412 286.717 38.7084 286.76 38.5836C286.9 38.1599 287.245 38.1289 287.256 38.1909C287.267 38.2529 287.137 38.3976 287.148 38.6559C287.159 38.9142 287.331 39.1829 287.677 39.0692C287.744 39.0528 287.805 39.0201 287.855 38.9741C287.905 38.9281 287.941 38.8705 287.961 38.8069C287.98 38.7434 287.982 38.676 287.967 38.6115C287.951 38.547 287.918 38.4875 287.871 38.4389C287.72 38.2219 287.515 38.1909 287.504 38.1186Z" fill="#263238"/>
<path d="M287.504 23.4975C287.504 23.4355 287.774 23.2805 288.151 23.4975C288.258 23.5809 288.344 23.6866 288.402 23.8066C288.46 23.9266 288.489 24.0576 288.486 24.1898C288.464 24.3577 288.392 24.516 288.279 24.6458C288.166 24.7756 288.016 24.8714 287.848 24.9216C287.679 24.9717 287.499 24.9743 287.329 24.9288C287.159 24.8833 287.006 24.7917 286.889 24.6651C286.807 24.5602 286.752 24.4378 286.729 24.3083C286.707 24.1788 286.717 24.046 286.76 23.9212C286.9 23.4975 287.245 23.4562 287.256 23.5285C287.267 23.6008 287.137 23.7352 287.148 23.9935C287.159 24.2518 287.331 24.5101 287.677 24.4068C287.744 24.3904 287.805 24.3576 287.855 24.3117C287.905 24.2657 287.941 24.2081 287.961 24.1445C287.98 24.081 287.982 24.0136 287.967 23.9491C287.951 23.8846 287.918 23.8251 287.871 23.7765C287.72 23.6008 287.515 23.5698 287.504 23.4975Z" fill="#263238"/>
<path d="M287.504 8.86537C287.504 8.86537 287.774 8.65871 288.151 8.91704C288.258 8.9983 288.344 9.10215 288.402 9.22047C288.46 9.33878 288.489 9.46834 288.486 9.59902C288.468 9.76932 288.398 9.93081 288.285 10.0632C288.172 10.1956 288.02 10.2929 287.849 10.343C287.681 10.3974 287.499 10.4019 287.328 10.3558C287.156 10.3097 287.003 10.2152 286.889 10.0847C286.807 9.97978 286.752 9.85738 286.729 9.72787C286.707 9.59835 286.717 9.46554 286.76 9.3407C286.9 8.91704 287.245 8.8757 287.256 8.94804C287.267 9.02037 287.137 9.1547 287.148 9.41303C287.159 9.67136 287.331 9.92968 287.677 9.82635C288.022 9.72302 288.033 9.41303 287.871 9.1857C287.709 8.95837 287.515 8.94804 287.504 8.86537Z" fill="#263238"/>
<path d="M271.087 24.9238C270.838 25.4616 270.546 25.9798 270.213 26.4738C269.609 27.4451 268.789 28.8814 267.829 30.6794C266.869 32.4773 265.801 34.6576 264.733 37.1273C263.666 39.5969 262.673 42.3765 261.778 45.3318C260.883 48.287 260.246 51.17 259.761 53.7946C259.275 56.4192 258.984 58.8165 258.822 60.8314C258.661 62.8464 258.553 64.4894 258.531 65.6157C258.534 66.2031 258.494 66.7901 258.412 67.3723C258.324 66.7908 258.288 66.2031 258.305 65.6157C258.305 64.479 258.305 62.8361 258.423 60.8108C258.575 58.4326 258.853 56.0633 259.254 53.7119C259.752 50.8377 260.415 47.9918 261.239 45.1871C262.084 42.38 263.092 39.6202 264.259 36.9206C265.224 34.7241 266.304 32.5755 267.495 30.4831C268.509 28.6954 269.393 27.2901 270.051 26.3498C270.353 25.8469 270.699 25.3698 271.087 24.9238Z" fill="white"/>
<path d="M276.102 16.4093C276.232 16.4816 275.908 17.3186 275.358 18.2796C274.808 19.2406 274.279 19.9639 274.117 19.8915C273.956 19.8192 274.312 18.9822 274.862 18.0212C275.412 17.0603 275.962 16.337 276.102 16.4093Z" fill="white"/>
<path d="M260.57 141.772C260.419 141.772 260.289 130.291 260.289 116.125C260.289 101.958 260.419 90.4883 260.57 90.4883C260.721 90.4883 260.85 101.968 260.85 116.125C260.85 130.281 260.721 141.772 260.57 141.772Z" fill="white"/>
<path d="M264.561 125.62C264.277 123.046 264.183 120.456 264.281 117.87C264.181 115.266 264.275 112.659 264.561 110.068C264.839 112.646 264.932 115.239 264.841 117.829C264.934 120.429 264.841 123.032 264.561 125.62Z" fill="white"/>
<path d="M269.167 120.247C268.88 119.323 268.781 118.355 268.875 117.395C268.781 116.435 268.88 115.467 269.167 114.543C269.541 116.427 269.541 118.362 269.167 120.247Z" fill="white"/>
<path d="M258.261 210.775C258.099 210.775 257.97 197.238 257.97 180.55C257.97 163.862 258.088 150.367 258.261 150.367C258.434 150.367 258.541 163.904 258.541 180.602C258.541 197.3 258.412 210.775 258.261 210.775Z" fill="white"/>
<path d="M370.002 24.9238L372.332 28.9951L376.582 31.227L372.332 33.4487L370.002 37.5302L367.683 33.4487L363.422 31.227L367.683 28.9951L370.002 24.9238Z" fill="#263238"/>
<path d="M380.614 43.6172L381.671 45.4875L383.623 46.5001L381.671 47.5231L380.614 49.3831L379.546 47.5231L377.604 46.5001L379.546 45.4875L380.614 43.6172Z" fill="#263238"/>
<path d="M160.536 166.9L162.855 170.982L167.116 173.204L162.855 175.436L160.536 179.517L158.206 175.436L153.945 173.204L158.206 170.982L160.536 166.9Z" fill="#263238"/>
<path d="M386.343 223.887L388.672 227.958L392.933 230.19L388.672 232.422L386.343 236.493L384.023 232.422L379.763 230.19L384.023 227.958L386.343 223.887Z" fill="#263238"/>
<path d="M145.078 180.24L146.146 182.111L148.087 183.123L146.146 184.146L145.078 186.006L144.021 184.146L142.068 183.123L144.021 182.111L145.078 180.24Z" fill="#263238"/>
<path d="M176.413 143.424L177.481 145.284L179.422 146.307L177.481 147.319L176.413 149.19L175.345 147.319L173.403 146.307L175.345 145.284L176.413 143.424Z" fill="#263238"/>
<path d="M426.64 214.145H422.196V477.836H426.64V214.145Z" fill="#263238"/>
<path d="M473.843 213.947H469.399V477.525H473.843V213.947Z" fill="#263238"/>
<path d="M472.117 214.145H422.196V217.441H472.117V214.145Z" fill="#263238"/>
<path d="M473.843 272.207H422.196V275.503H473.843V272.207Z" fill="#263238"/>
<path d="M473.357 402.713H422.196V406.009H473.357V402.713Z" fill="#263238"/>
<path d="M471.167 342.058L423.434 404.719L426.213 406.662L473.946 344.001L471.167 342.058Z" fill="#263238"/>
<path d="M470.679 274.993L422.548 342.281L425.386 344.144L473.518 276.856L470.679 274.993Z" fill="#263238"/>
<path d="M470.667 405.614L422.536 472.902L425.375 474.766L473.506 407.477L470.667 405.614Z" fill="#263238"/>
<path d="M471.207 216.148L423.62 270.727L426.261 272.84L473.848 218.261L471.207 216.148Z" fill="#263238"/>
<path d="M473.843 340.818H422.196V344.115H473.843V340.818Z" fill="#263238"/>
<path d="M444.287 477.576C444.136 477.576 444.007 418.987 444.007 346.738C444.007 274.488 444.136 215.879 444.287 215.879C444.438 215.879 444.568 274.457 444.568 346.738C444.568 419.018 444.449 477.576 444.287 477.576Z" fill="#263238"/>
<path d="M446.272 477.525C446.121 477.525 445.991 419.37 445.991 347.658C445.991 275.946 446.121 217.781 446.272 217.781C446.423 217.781 446.552 275.915 446.552 347.658C446.552 419.401 446.433 477.525 446.272 477.525Z" fill="#263238"/>
<path d="M455.754 477.649C455.592 477.649 455.474 419.474 455.474 347.72C455.474 275.967 455.592 217.781 455.754 217.781C455.916 217.781 456.035 275.946 456.035 347.72C456.035 419.494 455.905 477.649 455.754 477.649Z" fill="#263238"/>
<path d="M462.852 477.525C462.701 477.525 462.571 419.37 462.571 347.658C462.571 275.946 462.701 217.781 462.852 217.781C463.003 217.781 463.132 275.915 463.132 347.658C463.132 419.401 463.035 477.525 462.852 477.525Z" fill="#263238"/>
<path d="M462.852 238.075C460.509 238.433 458.12 238.433 455.776 238.075C458.12 237.717 460.509 237.717 462.852 238.075Z" fill="#263238"/>
<path d="M462.852 232.382C460.509 232.74 458.12 232.74 455.776 232.382C458.12 232.024 460.509 232.024 462.852 232.382Z" fill="#263238"/>
<path d="M462.852 226.689C460.509 227.047 458.12 227.047 455.776 226.689C458.12 226.33 460.509 226.33 462.852 226.689Z" fill="#263238"/>
<path d="M462.852 220.995C460.509 221.353 458.12 221.353 455.776 220.995C458.12 220.637 460.509 220.637 462.852 220.995Z" fill="#263238"/>
<path d="M462.852 244.491C460.509 244.85 458.12 244.85 455.776 244.491C458.12 244.133 460.509 244.133 462.852 244.491Z" fill="#263238"/>
<path d="M462.852 250.909C460.509 251.267 458.12 251.267 455.776 250.909C458.12 250.551 460.509 250.551 462.852 250.909Z" fill="#263238"/>
<path d="M462.852 257.325C460.509 257.683 458.12 257.683 455.776 257.325C458.12 256.967 460.509 256.967 462.852 257.325Z" fill="#263238"/>
<path d="M462.852 263.742C460.509 264.1 458.12 264.1 455.776 263.742C458.119 263.37 460.51 263.37 462.852 263.742Z" fill="#263238"/>
<path d="M462.852 270.15C460.51 270.521 458.119 270.521 455.776 270.15C458.12 269.791 460.509 269.791 462.852 270.15Z" fill="#263238"/>
<path d="M462.852 276.566C460.509 276.924 458.12 276.924 455.776 276.566C458.12 276.207 460.509 276.207 462.852 276.566Z" fill="#263238"/>
<path d="M462.852 282.983C460.509 283.342 458.12 283.342 455.776 282.983C458.12 282.625 460.509 282.625 462.852 282.983Z" fill="#263238"/>
<path d="M462.852 289.4C460.509 289.758 458.12 289.758 455.776 289.4C458.12 289.041 460.509 289.041 462.852 289.4Z" fill="#263238"/>
<path d="M462.852 295.816C460.509 296.174 458.12 296.174 455.776 295.816C458.12 295.457 460.509 295.457 462.852 295.816Z" fill="#263238"/>
<path d="M462.852 302.265C460.509 302.623 458.12 302.623 455.776 302.265C458.12 301.907 460.509 301.907 462.852 302.265Z" fill="#263238"/>
<path d="M462.852 308.65C460.509 309.008 458.12 309.008 455.776 308.65C458.12 308.291 460.509 308.291 462.852 308.65Z" fill="#263238"/>
<path d="M462.852 315.067C460.509 315.426 458.12 315.426 455.776 315.067C458.12 314.709 460.509 314.709 462.852 315.067Z" fill="#263238"/>
<path d="M462.852 321.483C460.509 321.842 458.12 321.842 455.776 321.483C458.12 321.125 460.509 321.125 462.852 321.483Z" fill="#263238"/>
<path d="M462.852 327.901C460.509 328.26 458.12 328.26 455.776 327.901C458.12 327.543 460.509 327.543 462.852 327.901Z" fill="#263238"/>
<path d="M462.852 334.298C460.509 334.656 458.12 334.656 455.776 334.298C458.12 333.94 460.509 333.94 462.852 334.298Z" fill="#263238"/>
<path d="M462.852 340.733C460.509 341.092 458.12 341.092 455.776 340.733C458.12 340.375 460.509 340.375 462.852 340.733Z" fill="#263238"/>
<path d="M462.852 347.151C460.509 347.51 458.12 347.51 455.776 347.151C458.12 346.793 460.509 346.793 462.852 347.151Z" fill="#263238"/>
<path d="M462.852 353.567C460.509 353.926 458.12 353.926 455.776 353.567C458.12 353.209 460.509 353.209 462.852 353.567Z" fill="#263238"/>
<path d="M462.852 359.985C460.509 360.344 458.12 360.344 455.776 359.985C458.12 359.627 460.509 359.627 462.852 359.985Z" fill="#263238"/>
<path d="M462.852 366.401C460.509 366.76 458.12 366.76 455.776 366.401C458.12 366.043 460.509 366.043 462.852 366.401Z" fill="#263238"/>
<path d="M462.852 372.819C460.509 373.178 458.12 373.178 455.776 372.819C458.12 372.461 460.509 372.461 462.852 372.819Z" fill="#263238"/>
<path d="M462.852 379.237C460.509 379.596 458.12 379.596 455.776 379.237C458.12 378.879 460.509 378.879 462.852 379.237Z" fill="#263238"/>
<path d="M462.852 385.651C460.509 386.01 458.12 386.01 455.776 385.651C458.12 385.293 460.509 385.293 462.852 385.651Z" fill="#263238"/>
<path d="M462.852 392.069C460.509 392.428 458.12 392.428 455.776 392.069C458.12 391.711 460.509 391.711 462.852 392.069Z" fill="#263238"/>
<path d="M462.852 398.485C460.509 398.844 458.12 398.844 455.776 398.485C458.12 398.127 460.509 398.127 462.852 398.485Z" fill="#263238"/>
<path d="M462.852 404.903C460.509 405.262 458.12 405.262 455.776 404.903C458.12 404.545 460.509 404.545 462.852 404.903Z" fill="#263238"/>
<path d="M462.852 411.321C460.509 411.68 458.12 411.68 455.776 411.321C458.12 410.963 460.509 410.963 462.852 411.321Z" fill="#263238"/>
<path d="M462.852 417.737C460.509 418.096 458.12 418.096 455.776 417.737C458.12 417.379 460.509 417.379 462.852 417.737Z" fill="#263238"/>
<path d="M462.852 424.195C460.509 424.553 458.12 424.553 455.776 424.195C458.119 423.823 460.51 423.823 462.852 424.195Z" fill="#263238"/>
<path d="M462.852 430.562C460.51 430.934 458.119 430.934 455.776 430.562C458.12 430.203 460.509 430.203 462.852 430.562Z" fill="#263238"/>
<path d="M462.852 436.978C460.509 437.336 458.12 437.336 455.776 436.978C458.12 436.619 460.509 436.619 462.852 436.978Z" fill="#263238"/>
<path d="M462.852 443.396C460.509 443.754 458.12 443.754 455.776 443.396C458.12 443.037 460.509 443.037 462.852 443.396Z" fill="#263238"/>
<path d="M462.852 449.81C460.509 450.168 458.12 450.168 455.776 449.81C458.12 449.451 460.509 449.451 462.852 449.81Z" fill="#263238"/>
<path d="M462.852 456.228C460.509 456.586 458.12 456.586 455.776 456.228C458.12 455.869 460.509 455.869 462.852 456.228Z" fill="#263238"/>
<path d="M462.852 462.646C460.509 463.004 458.12 463.004 455.776 462.646C458.12 462.287 460.509 462.287 462.852 462.646Z" fill="#263238"/>
<path d="M462.852 469.062C460.509 469.42 458.12 469.42 455.776 469.062C458.12 468.703 460.509 468.703 462.852 469.062Z" fill="#263238"/>
<path d="M462.852 475.48C460.509 475.838 458.12 475.838 455.776 475.48C458.12 475.121 460.509 475.121 462.852 475.48Z" fill="#263238"/>
<path d="M424.419 347.297C424.308 347.311 424.195 347.311 424.084 347.297H423.114L419.349 347.349L405.445 347.431L359.063 347.514L359.343 347.245V356.483L359.063 356.214L405.445 356.297L419.349 356.39H423.114H424.084H424.419C424.308 356.404 424.195 356.404 424.084 356.39H423.114L419.349 356.442L405.445 356.525L359.063 356.607H358.782V346.832H359.063L405.445 346.915L419.349 346.997H423.114H424.084C424.214 347.077 424.327 347.179 424.419 347.297Z" fill="#263238"/>
<path d="M422.295 355.997L422.122 355.873L421.637 355.449L419.781 353.786L412.867 347.462L413.137 347.338C413.277 349.921 413.439 352.856 413.622 356.1V356.586L413.245 356.245L403.795 347.514L404.195 347.348C404.195 350.159 404.108 353.104 404.065 356.162V356.731L403.634 356.338L394.141 347.534L394.605 347.359C394.551 350.097 394.487 353.011 394.433 355.976V356.586L393.969 356.162L389.471 352.029L384.682 347.586L385.156 347.39V356.689L384.692 356.276L375.081 347.607L375.513 347.431C375.513 350.655 375.513 353.734 375.513 356.658V357.216L375.103 356.824L365.503 347.524L365.837 347.39C365.837 350.81 365.837 353.786 365.837 356.348V356.803L365.568 356.431C363.497 353.579 361.879 351.327 360.746 349.766L359.506 348.01L359.193 347.555L359.096 347.39C359.096 347.39 359.096 347.39 359.225 347.524L359.57 347.968L360.886 349.684L365.805 356.266L365.535 356.348C365.535 353.786 365.535 350.81 365.535 347.39V346.935L365.87 347.255L375.578 356.452L375.168 356.617C375.168 353.693 375.168 350.614 375.168 347.39V346.697L375.599 347.09L385.232 355.718L384.768 355.914C384.768 353.097 384.768 350.214 384.768 347.266V346.697L385.242 347.131L390.042 351.585L394.53 355.718L394.055 355.904C394.12 352.949 394.185 350.035 394.239 347.297V346.697L394.692 347.121L404.173 355.935L403.731 356.111C403.785 353.011 403.849 350.107 403.903 347.307V346.77L404.302 347.142L413.698 355.925L413.363 356.069C413.212 352.835 413.083 349.87 412.964 347.317V346.925L413.255 347.193L420.062 353.62L421.863 355.346L422.316 355.801C422.251 355.894 422.305 355.997 422.295 355.997Z" fill="#263238"/>
<path d="M425.466 275.502H425.131H424.15L420.385 275.554L406.492 275.637L360.109 275.719L360.39 275.451V284.699L360.109 284.43L406.492 284.513L420.396 284.595L424.203 284.699H425.185C425.296 284.684 425.409 284.684 425.519 284.699H425.185H424.203L420.45 284.75L406.546 284.833L360.163 284.916H359.883V275.141H360.163L406.546 275.223L420.439 275.306L424.203 275.358H425.185C425.284 275.395 425.378 275.444 425.466 275.502Z" fill="#263238"/>
<path d="M423.34 284.151C423.34 284.151 423.276 284.15 423.168 284.016L422.682 283.603L420.827 281.939L413.913 275.615L414.182 275.491C414.323 278.075 414.485 281.009 414.668 284.254V284.74L414.301 284.398L404.841 275.667L405.251 275.502C405.251 278.312 405.165 281.257 405.122 284.316V284.884L404.69 284.491C401.692 281.702 398.499 278.757 395.187 275.688L395.662 275.502C395.597 278.25 395.543 281.164 395.478 284.12V284.74L395.015 284.316L390.527 280.183L385.738 275.739L386.213 275.543V284.843L385.76 284.419L376.149 275.76L376.58 275.584C376.58 278.808 376.58 281.884 376.58 284.812V285.359L376.181 284.977L366.581 275.677L366.916 275.543C366.916 278.953 366.916 281.929 366.916 284.502V284.956L366.646 284.585L361.835 277.92C361.306 277.176 360.886 276.587 360.595 276.163L360.282 275.708C360.206 275.605 360.174 275.543 360.185 275.543C360.195 275.543 360.185 275.543 360.314 275.677C360.444 275.812 360.519 275.936 360.659 276.111L361.964 277.837L366.894 284.419L366.624 284.502C366.624 281.929 366.624 278.953 366.57 275.543V275.088L366.905 275.409L376.613 284.605L376.203 284.77C376.203 281.843 376.203 278.767 376.203 275.543V274.975L376.645 275.367L386.267 283.996L385.814 284.192C385.814 281.367 385.814 278.485 385.814 275.543V274.913L386.288 275.347L391.078 279.8L395.565 283.934L395.09 284.12C395.155 281.164 395.22 278.25 395.284 275.502V274.902L395.737 275.326L405.208 284.14L404.777 284.316C404.777 281.216 404.884 278.312 404.938 275.512V274.975L405.337 275.347L414.743 284.13L414.398 284.274C414.258 281.04 414.118 278.075 413.999 275.522V275.13L414.28 275.398L421.097 281.826L422.887 283.551L423.34 283.996C423.344 284.047 423.344 284.099 423.34 284.151Z" fill="#263238"/>
<path d="M537.063 477.534C537.063 477.679 425.681 477.803 288.302 477.803C150.924 477.803 39.5195 477.679 39.5195 477.534C39.5195 477.39 150.881 477.266 288.302 477.266C425.724 477.266 537.063 477.379 537.063 477.534Z" fill="#263238"/>
</svg>
