<svg width="55" height="56" viewBox="0 0 55 56" fill="none" xmlns="http://www.w3.org/2000/svg">
<g id="Iconly/Bulk/Discount">
<path id="Fill 1" opacity="0.4" d="M27.498 50.9127C25.7357 50.9127 23.9757 50.2436 22.6305 48.9075L20.9576 47.2346C20.309 46.5884 19.4405 46.2309 18.5192 46.2286H16.1657C12.3615 46.2286 9.26548 43.1325 9.26548 39.3284V36.9725C9.26319 36.0536 8.90569 35.185 8.25715 34.5319L6.61173 32.8888C3.91673 30.2098 3.90527 25.8304 6.58652 23.1331L8.25944 21.4579C8.90569 20.8094 9.26319 19.9409 9.26548 19.0196V16.6684C9.26548 12.8619 12.3615 9.76585 16.1657 9.76585H18.5215C19.4405 9.76585 20.3067 9.40835 20.9599 8.75523L22.6076 7.1121C25.2865 4.4171 29.6636 4.40335 32.3632 7.08689L34.0361 8.75981C34.6869 9.40835 35.5532 9.76585 36.4721 9.76585H38.828C42.6321 9.76585 45.7282 12.8619 45.7282 16.6684V19.0219C45.7305 19.9409 46.088 20.8094 46.7365 21.4625L48.3819 23.1079C49.6859 24.405 50.4078 26.1329 50.4146 27.9777C50.4192 29.8111 49.7134 31.5367 48.4278 32.8406C48.4049 32.8636 48.3842 32.8888 48.3613 32.9094L46.7342 34.5365C46.088 35.185 45.7305 36.0536 45.7282 36.9748V39.3284C45.7282 43.1325 42.6321 46.2286 38.828 46.2286H36.4721C35.5532 46.2309 34.6846 46.5884 34.0338 47.2369L32.3861 48.8823C31.0432 50.2344 29.2694 50.9127 27.498 50.9127Z" fill="#E20000"/>
<path id="Combined Shape" fill-rule="evenodd" clip-rule="evenodd" d="M23.0145 23.5334C22.6364 23.9115 22.146 24.1154 21.6029 24.1154C21.0941 24.1154 20.5945 23.9069 20.1935 23.5311C19.8131 23.1529 19.5977 22.635 19.5977 22.1102C19.5977 21.6107 19.8085 21.0973 20.1797 20.7009C20.3837 20.4946 20.6266 20.3388 20.8695 20.2563C21.5616 19.94 22.4806 20.1257 23.026 20.6986C23.2208 20.8934 23.3697 21.1065 23.4683 21.3288C23.576 21.5671 23.631 21.8375 23.631 22.1102C23.631 22.6557 23.4133 23.1621 23.0145 23.5334ZM34.8113 20.6892C34.0299 19.91 32.758 19.91 31.9766 20.6892L20.1974 32.4683C19.4159 33.2498 19.4159 34.5217 20.1974 35.3054C20.5778 35.6836 21.0797 35.8921 21.6159 35.8921C22.1522 35.8921 22.6541 35.6836 23.0322 35.3054L34.8113 23.5263C35.5928 22.7425 35.5928 21.4729 34.8113 20.6892ZM34.1589 32.0423C33.4164 31.7307 32.5364 31.9002 31.9497 32.4869C31.8283 32.629 31.6564 32.849 31.5395 33.1079C31.4158 33.3875 31.3997 33.6877 31.3997 33.8894C31.3997 34.0911 31.4158 34.389 31.5395 34.6686C31.6541 34.9252 31.7916 35.1338 31.9727 35.3148C32.3874 35.6998 32.8687 35.8946 33.4049 35.8946C33.9137 35.8946 34.4133 35.6884 34.8235 35.3057C35.1879 34.9413 35.3872 34.4371 35.3872 33.8894C35.3872 33.3394 35.1879 32.8375 34.8212 32.4709C34.6195 32.2715 34.3766 32.1157 34.1589 32.0423Z" fill="#E20000"/>
</g>
</svg>
