<svg width="14" height="13" viewBox="0 0 14 13" fill="none" xmlns="http://www.w3.org/2000/svg">
<path fill-rule="evenodd" clip-rule="evenodd" d="M13.3344 12.6265H8.49902C8.22302 12.6265 7.99902 12.4025 7.99902 12.1265C7.99902 11.8505 8.22302 11.6265 8.49902 11.6265H13.3344C13.6104 11.6265 13.8344 11.8505 13.8344 12.1265C13.8344 12.4025 13.6104 12.6265 13.3344 12.6265Z" fill="white"/>
<mask id="mask0_3470_2161" style="mask-type:luminance" maskUnits="userSpaceOnUse" x="0" y="0" width="13" height="13">
<path fill-rule="evenodd" clip-rule="evenodd" d="M0.833984 0H12.2877V12.6264H0.833984V0Z" fill="white"/>
</mask>
<g mask="url(#mask0_3470_2161)">
<path fill-rule="evenodd" clip-rule="evenodd" d="M8.24083 1.34443L1.96417 9.19443C1.85017 9.3371 1.80817 9.5211 1.85017 9.69776L2.30417 11.6211L4.33017 11.5958C4.52283 11.5938 4.70083 11.5078 4.81883 11.3611C6.9635 8.67776 11.0522 3.56176 11.1682 3.41176C11.2775 3.23443 11.3202 2.98376 11.2628 2.74243C11.2042 2.4951 11.0502 2.2851 10.8282 2.1511C10.7808 2.11843 9.6575 1.24643 9.62283 1.2191C9.20017 0.880428 8.5835 0.939095 8.24083 1.34443ZM1.9095 12.6264C1.67817 12.6264 1.47683 12.4678 1.42283 12.2418L0.876834 9.92776C0.764167 9.44843 0.876167 8.95376 1.1835 8.56976L7.4635 0.715095C7.46617 0.712428 7.46817 0.709095 7.47083 0.706428C8.1595 -0.116905 9.40483 -0.238238 10.2448 0.435762C10.2782 0.461762 11.3935 1.32843 11.3935 1.32843C11.7988 1.56976 12.1155 2.0011 12.2355 2.51176C12.3548 3.0171 12.2682 3.53843 11.9902 3.97909C11.9695 4.01176 11.9515 4.03976 5.5995 11.9864C5.2935 12.3678 4.83483 12.5898 4.34217 12.5958L1.91617 12.6264H1.9095Z" fill="white"/>
</g>
<path fill-rule="evenodd" clip-rule="evenodd" d="M10.3163 5.78983C10.2096 5.78983 10.1029 5.75583 10.0116 5.6865L6.37693 2.8945C6.15826 2.7265 6.11693 2.41316 6.28493 2.19316C6.4536 1.9745 6.76693 1.93383 6.98626 2.10183L10.6216 4.89316C10.8403 5.06116 10.8816 5.37516 10.7129 5.5945C10.6149 5.7225 10.4663 5.78983 10.3163 5.78983Z" fill="white"/>
</svg>
