<svg width="29" height="23" viewBox="0 0 29 23" fill="none" xmlns="http://www.w3.org/2000/svg">
<path d="M8.21582 0.475586C8.7959 0.475586 9.29395 0.548828 9.70996 0.695312C10.1318 0.835938 10.4834 1.00293 10.7646 1.19629C11.0459 1.38379 11.2627 1.57422 11.415 1.76758C11.5674 1.96094 11.6641 2.11035 11.7051 2.21582C11.7285 2.26855 11.7402 2.31543 11.7402 2.35645C11.7461 2.3916 11.749 2.42383 11.749 2.45312C11.749 2.52344 11.7314 2.57324 11.6963 2.60254C11.667 2.63184 11.6289 2.68457 11.582 2.76074C11.5469 2.81934 11.5059 2.86035 11.459 2.88379C11.418 2.90723 11.3711 2.92773 11.3184 2.94531C11.2715 2.96289 11.2246 2.98633 11.1777 3.01562C11.1367 3.03906 11.1016 3.08008 11.0723 3.13867C10.9785 3.31445 10.8467 3.40234 10.6768 3.40234C10.5771 3.40234 10.4805 3.37305 10.3867 3.31445C10.293 3.25 10.1875 3.1709 10.0703 3.07715C9.95312 2.9834 9.81543 2.88086 9.65723 2.76953C9.50488 2.6582 9.31445 2.55566 9.08594 2.46191C8.86328 2.36816 8.59668 2.29199 8.28613 2.2334C7.97559 2.16895 7.60645 2.13672 7.17871 2.13672C6.70996 2.13672 6.29688 2.20996 5.93945 2.35645C5.58789 2.49707 5.25977 2.70801 4.95508 2.98926C4.69141 3.23535 4.49219 3.49609 4.35742 3.77148C4.22852 4.04688 4.16406 4.31348 4.16406 4.57129C4.16406 4.87012 4.26074 5.14258 4.4541 5.38867C4.59473 5.56445 4.80273 5.7373 5.07812 5.90723C5.35938 6.07715 5.6582 6.23828 5.97461 6.39062C6.29688 6.54297 6.61035 6.68359 6.91504 6.8125C7.22559 6.93555 7.47754 7.04102 7.6709 7.12891C7.84082 7.20508 7.95215 7.28125 8.00488 7.35742C8.06348 7.43359 8.09277 7.5127 8.09277 7.59473C8.09277 7.68262 8.0752 7.77637 8.04004 7.87598C8.01074 7.96973 7.99609 8.06641 7.99609 8.16602C7.99609 8.21289 8.00195 8.25684 8.01367 8.29785C8.02539 8.33887 8.03125 8.37988 8.03125 8.4209C8.03125 8.51465 8.00195 8.59668 7.94336 8.66699C7.89062 8.73145 7.81738 8.79004 7.72363 8.84277C7.63574 8.89551 7.5332 8.94238 7.41602 8.9834C7.29883 9.02441 7.18164 9.0625 7.06445 9.09766C6.89453 9.15039 6.67773 9.22656 6.41406 9.32617C6.15039 9.42578 5.89551 9.56055 5.64941 9.73047C5.40332 9.89453 5.19238 10.0996 5.0166 10.3457C4.84082 10.5918 4.75293 10.8906 4.75293 11.2422C4.75293 11.4766 4.80273 11.6963 4.90234 11.9014C5.00195 12.1064 5.14258 12.2881 5.32422 12.4463C5.51172 12.5986 5.73438 12.7188 5.99219 12.8066C6.25 12.8945 6.53418 12.9385 6.84473 12.9385C7.55371 12.9385 8.19531 12.7832 8.76953 12.4727C9.34375 12.1621 9.81543 11.7373 10.1846 11.1982C10.2666 11.0811 10.3633 10.9141 10.4746 10.6973C10.5918 10.4746 10.7148 10.2051 10.8438 9.88867C10.873 9.81836 10.9111 9.76562 10.958 9.73047C11.0049 9.68945 11.0518 9.66895 11.0986 9.66895C11.1338 9.66895 11.1631 9.68359 11.1865 9.71289C11.2158 9.73633 11.2305 9.77148 11.2305 9.81836C11.2305 9.86523 11.2041 9.96484 11.1514 10.1172C11.0986 10.2637 11.0254 10.4395 10.9316 10.6445C10.8379 10.8438 10.7236 11.0605 10.5889 11.2949C10.46 11.5293 10.3193 11.7549 10.167 11.9717C9.95605 12.2705 9.70996 12.5518 9.42871 12.8154C9.15332 13.0732 8.85156 13.2988 8.52344 13.4922C8.20117 13.6855 7.85547 13.835 7.48633 13.9404C7.11719 14.0518 6.73047 14.1074 6.32617 14.1074C5.96289 14.1074 5.59668 14.0547 5.22754 13.9492C4.8584 13.8496 4.52148 13.6973 4.2168 13.4922C3.91797 13.2871 3.67188 13.0264 3.47852 12.71C3.29102 12.3936 3.19727 12.0215 3.19727 11.5938C3.19727 11.166 3.2793 10.7998 3.44336 10.4951C3.60742 10.1846 3.80957 9.92383 4.0498 9.71289C4.2959 9.50195 4.55957 9.3291 4.84082 9.19434C5.12793 9.05957 5.3916 8.95117 5.63184 8.86914C5.87793 8.78125 6.08301 8.71094 6.24707 8.6582C6.41113 8.60547 6.49316 8.55273 6.49316 8.5C6.49316 8.45898 6.44922 8.41797 6.36133 8.37695C6.2793 8.33008 6.16797 8.28027 6.02734 8.22754C5.89258 8.16895 5.7373 8.10449 5.56152 8.03418C5.38574 7.96387 5.20703 7.87891 5.02539 7.7793C4.73242 7.62109 4.46875 7.4541 4.23438 7.27832C4 7.10254 3.79785 6.91211 3.62793 6.70703C3.46387 6.49609 3.33789 6.26758 3.25 6.02148C3.16211 5.76953 3.11816 5.49121 3.11816 5.18652C3.11816 4.78223 3.17969 4.38379 3.30273 3.99121C3.43164 3.59863 3.61035 3.22949 3.83887 2.88379C4.06738 2.53223 4.33691 2.20996 4.64746 1.91699C4.96387 1.62402 5.30957 1.37207 5.68457 1.16113C6.06543 0.944336 6.46973 0.777344 6.89746 0.660156C7.3252 0.537109 7.76465 0.475586 8.21582 0.475586ZM17.374 9.66895C17.4092 9.66895 17.4385 9.68359 17.4619 9.71289C17.4912 9.73633 17.5059 9.77148 17.5059 9.81836C17.5059 9.86523 17.4971 9.90918 17.4795 9.9502C17.2979 10.4717 17.1309 10.9316 16.9785 11.3301C16.8262 11.7227 16.6709 12.0508 16.5127 12.3145C16.3604 12.5781 16.2021 12.7773 16.0381 12.9121C15.874 13.0469 15.6924 13.1143 15.4932 13.1143C15.2471 13.1143 15.0479 13.0586 14.8955 12.9473C14.7432 12.8301 14.623 12.6807 14.5352 12.499C14.4473 12.3174 14.3887 12.1152 14.3594 11.8926C14.3301 11.6641 14.3154 11.4385 14.3154 11.2158C14.3154 11.0576 14.3184 10.9023 14.3242 10.75C14.3301 10.5918 14.3359 10.4424 14.3418 10.3018C14.3535 10.1611 14.3623 10.0352 14.3682 9.92383C14.374 9.8125 14.377 9.72168 14.377 9.65137C14.377 9.54004 14.3564 9.46094 14.3154 9.41406C14.2803 9.36133 14.2393 9.33496 14.1924 9.33496C14.1396 9.33496 14.0957 9.36133 14.0605 9.41406C14.0254 9.46094 13.9961 9.5166 13.9727 9.58105C13.9434 9.65137 13.8994 9.77734 13.8408 9.95898C13.7822 10.1406 13.7148 10.3457 13.6387 10.5742C13.5625 10.8027 13.4805 11.043 13.3926 11.2949C13.3105 11.541 13.2344 11.7637 13.1641 11.9629C13.0703 12.2207 12.9795 12.4316 12.8916 12.5957C12.8096 12.7539 12.7305 12.877 12.6543 12.9648C12.5781 13.0527 12.502 13.1113 12.4258 13.1406C12.3555 13.1758 12.2881 13.1934 12.2236 13.1934C12.165 13.1934 12.1035 13.1816 12.0391 13.1582C11.9805 13.1348 11.9248 13.0967 11.8721 13.0439C11.8252 12.9912 11.7842 12.9209 11.749 12.833C11.7139 12.7393 11.6963 12.6221 11.6963 12.4814C11.6846 12.1826 11.6758 11.8604 11.6699 11.5146C11.6699 11.1631 11.6699 10.8203 11.6699 10.4863C11.6699 10.3281 11.6699 10.1758 11.6699 10.0293C11.6758 9.88281 11.6787 9.74805 11.6787 9.625C11.6787 9.45508 11.6699 9.33496 11.6523 9.26465C11.6348 9.18848 11.6113 9.15039 11.582 9.15039C11.5176 9.15039 11.4619 9.21484 11.415 9.34375C11.374 9.4668 11.3008 9.66016 11.1953 9.92383C11.1602 10.0117 11.1221 10.0732 11.0811 10.1084C11.0459 10.1436 11.0078 10.1611 10.9668 10.1611C10.9316 10.1611 10.9023 10.1494 10.8789 10.126C10.8496 10.0967 10.835 10.0498 10.835 9.98535C10.835 9.9502 10.8496 9.88867 10.8789 9.80078C10.9082 9.70703 10.9434 9.60742 10.9844 9.50195C11.0312 9.39062 11.0752 9.2793 11.1162 9.16797C11.1631 9.05078 11.2041 8.95117 11.2393 8.86914C11.292 8.73438 11.3535 8.59668 11.4238 8.45605C11.5 8.30957 11.582 8.17773 11.6699 8.06055C11.7637 7.9375 11.8633 7.83789 11.9688 7.76172C12.0801 7.67969 12.2002 7.63867 12.3291 7.63867C12.499 7.63867 12.6484 7.73242 12.7773 7.91992C12.9121 8.10742 12.9854 8.3916 12.9971 8.77246C13.0029 9.07715 13.0059 9.36719 13.0059 9.64258C13.0117 9.91211 13.0176 10.1494 13.0234 10.3545C13.0293 10.5537 13.0322 10.7148 13.0322 10.8379C13.0381 10.9551 13.0439 11.0137 13.0498 11.0137C13.0615 11.0137 13.0879 10.9609 13.1289 10.8555C13.1699 10.75 13.2227 10.6123 13.2871 10.4424C13.3516 10.2666 13.4248 10.0703 13.5068 9.85352C13.5889 9.63086 13.6738 9.4082 13.7617 9.18555C13.8555 8.95703 13.9521 8.74023 14.0518 8.53516C14.1514 8.32422 14.251 8.13965 14.3506 7.98145C14.4561 7.81152 14.5674 7.68262 14.6846 7.59473C14.8076 7.50684 14.9453 7.46289 15.0977 7.46289C15.3086 7.46289 15.4609 7.58887 15.5547 7.84082C15.6484 8.08691 15.6953 8.4209 15.6953 8.84277C15.6953 8.94824 15.6924 9.07715 15.6865 9.22949C15.6807 9.38184 15.6719 9.54297 15.6602 9.71289C15.6543 9.88281 15.6484 10.0527 15.6426 10.2227C15.6367 10.3926 15.6338 10.5479 15.6338 10.6885C15.6338 10.9287 15.6426 11.125 15.6602 11.2773C15.6836 11.4238 15.7129 11.5381 15.748 11.6201C15.7832 11.7021 15.8213 11.7578 15.8623 11.7871C15.9033 11.8164 15.9443 11.8311 15.9854 11.8311C16.1025 11.8311 16.208 11.7783 16.3018 11.6729C16.4014 11.5674 16.4951 11.4238 16.583 11.2422C16.6709 11.0605 16.7588 10.8555 16.8467 10.627C16.9346 10.3926 17.0312 10.1465 17.1367 9.88867C17.1895 9.74219 17.2686 9.66895 17.374 9.66895ZM22.8145 9.66895C22.8496 9.66895 22.8789 9.68066 22.9023 9.7041C22.9316 9.72754 22.9463 9.76562 22.9463 9.81836C22.9463 9.8418 22.9375 9.88281 22.9199 9.94141C22.7676 10.3984 22.6211 10.8086 22.4805 11.1719C22.3398 11.5352 22.2021 11.8516 22.0674 12.1211C21.915 12.4258 21.7451 12.6719 21.5576 12.8594C21.3701 13.0469 21.1211 13.1406 20.8105 13.1406C20.6875 13.1406 20.5645 13.1172 20.4414 13.0703C20.3242 13.0293 20.2158 12.9531 20.1162 12.8418C20.0166 12.7246 19.9258 12.5664 19.8438 12.3672C19.7617 12.168 19.7002 11.916 19.6592 11.6113C19.5654 11.7988 19.46 11.9863 19.3428 12.1738C19.2314 12.3613 19.1055 12.5283 18.9648 12.6748C18.8242 12.8213 18.6689 12.9385 18.499 13.0264C18.3291 13.1201 18.1416 13.167 17.9365 13.167C17.7842 13.167 17.6406 13.1172 17.5059 13.0176C17.377 12.9238 17.2656 12.792 17.1719 12.6221C17.0723 12.4463 16.9961 12.2383 16.9434 11.998C16.8848 11.7578 16.8555 11.4912 16.8555 11.1982C16.8555 10.8877 16.8848 10.583 16.9434 10.2842C16.9961 9.98535 17.0723 9.70117 17.1719 9.43164C17.2715 9.15625 17.3916 8.9043 17.5322 8.67578C17.6787 8.44141 17.8369 8.23926 18.0068 8.06934C18.2998 7.77637 18.584 7.5625 18.8594 7.42773C19.1348 7.28711 19.3779 7.2168 19.5889 7.2168C19.6182 7.2168 19.6416 7.2168 19.6592 7.2168C19.6768 7.2168 19.7031 7.21973 19.7383 7.22559C19.7617 6.93848 19.7852 6.63672 19.8086 6.32031C19.832 5.99805 19.8672 5.65527 19.9141 5.29199C19.9727 4.83496 20.0254 4.44824 20.0723 4.13184C20.1191 3.81543 20.1631 3.5459 20.2041 3.32324C20.251 3.09473 20.2979 2.90137 20.3447 2.74316C20.3975 2.5791 20.459 2.42676 20.5293 2.28613C20.5703 2.19824 20.6143 2.125 20.6611 2.06641C20.7139 2.00781 20.7666 1.95508 20.8193 1.9082C20.8779 1.86133 20.9395 1.81152 21.0039 1.75879C21.0742 1.7002 21.1504 1.62988 21.2324 1.54785C21.3789 1.40137 21.502 1.29883 21.6016 1.24023C21.707 1.17578 21.7891 1.14355 21.8477 1.14355C21.9121 1.14355 21.9648 1.16113 22.0059 1.19629C22.0527 1.22559 22.0762 1.28711 22.0762 1.38086C22.0762 1.41016 22.0732 1.44238 22.0674 1.47754C22.0615 1.5127 22.0527 1.55078 22.041 1.5918C22.0176 1.67383 21.9795 1.82617 21.9268 2.04883C21.874 2.27148 21.8154 2.54395 21.751 2.86621C21.6865 3.18262 21.6191 3.54297 21.5488 3.94727C21.4785 4.3457 21.4141 4.75879 21.3555 5.18652C21.291 5.67871 21.2324 6.1709 21.1797 6.66309C21.1328 7.14941 21.0918 7.62109 21.0566 8.07812C21.0273 8.5293 21.0039 8.9541 20.9863 9.35254C20.9688 9.75098 20.96 10.1055 20.96 10.416C20.96 10.6211 20.9658 10.8115 20.9775 10.9873C20.9951 11.1572 21.0215 11.3066 21.0566 11.4355C21.0918 11.5645 21.1387 11.6641 21.1973 11.7344C21.2617 11.8047 21.3379 11.8398 21.4258 11.8398C21.5254 11.8398 21.6162 11.7988 21.6982 11.7168C21.7861 11.6289 21.874 11.5029 21.9619 11.3389C22.0498 11.1689 22.1436 10.9639 22.2432 10.7236C22.3428 10.4775 22.4541 10.1992 22.5771 9.88867C22.6299 9.74219 22.709 9.66895 22.8145 9.66895ZM19.6592 8.29785C19.6592 8.0459 19.5508 7.91992 19.334 7.91992C19.1641 7.91992 19.0029 7.97852 18.8506 8.0957C18.6982 8.21289 18.5635 8.37695 18.4463 8.58789C18.3291 8.79883 18.2354 9.05078 18.165 9.34375C18.0947 9.63672 18.0596 9.95898 18.0596 10.3105C18.0596 10.6914 18.1182 11.0078 18.2354 11.2598C18.3584 11.5059 18.5459 11.6289 18.7979 11.6289C18.9385 11.6289 19.0586 11.5879 19.1582 11.5059C19.2578 11.4238 19.3369 11.3184 19.3955 11.1895C19.46 11.0605 19.5068 10.9229 19.5361 10.7764C19.5713 10.624 19.5947 10.4805 19.6064 10.3457C19.6064 10.1465 19.6064 9.9502 19.6064 9.75684C19.6123 9.55762 19.6182 9.36719 19.624 9.18555C19.6299 9.00391 19.6357 8.83691 19.6416 8.68457C19.6475 8.53223 19.6533 8.40332 19.6592 8.29785ZM25.2314 11.6377L25.3545 11.5322C25.4775 11.4209 25.6328 11.2363 25.8203 10.9785C26.0137 10.7207 26.2041 10.3574 26.3916 9.88867C26.4561 9.74219 26.5381 9.66895 26.6377 9.66895C26.7197 9.66895 26.7607 9.71582 26.7607 9.80957C26.7607 9.84473 26.752 9.88867 26.7344 9.94141C26.5996 10.3223 26.4531 10.6475 26.2949 10.917C26.1426 11.1865 25.9844 11.415 25.8203 11.6025C25.6562 11.79 25.4922 11.9424 25.3281 12.0596C25.1699 12.1709 25.0205 12.2559 24.8799 12.3145C24.7275 12.543 24.5488 12.7422 24.3438 12.9121C24.1445 13.0762 23.9102 13.1582 23.6406 13.1582C23.4648 13.1582 23.3154 13.1201 23.1924 13.0439C23.0693 12.9678 22.9697 12.874 22.8936 12.7627C22.8174 12.6514 22.7617 12.5312 22.7266 12.4023C22.6914 12.2676 22.6738 12.1475 22.6738 12.042C22.6738 11.8428 22.6973 11.6641 22.7441 11.5059C22.7969 11.3477 22.8584 11.2129 22.9287 11.1016C22.999 10.9902 23.0723 10.9082 23.1484 10.8555C23.2305 10.7969 23.2979 10.7676 23.3506 10.7676C23.4209 10.7676 23.4912 10.8262 23.5615 10.9434C23.6318 11.0605 23.708 11.2246 23.79 11.4355C23.9072 11.752 24.0068 11.9805 24.0889 12.1211C24.1768 12.1094 24.2617 12.0977 24.3438 12.0859C24.4258 12.0684 24.5078 12.0449 24.5898 12.0156C24.6309 11.9336 24.6514 11.8604 24.6514 11.7959C24.6514 11.6904 24.6221 11.5674 24.5635 11.4268C24.5049 11.2803 24.4287 11.1279 24.335 10.9697C24.2471 10.8057 24.1475 10.6416 24.0361 10.4775C23.9248 10.3076 23.8135 10.1494 23.7021 10.0029C23.5967 9.85059 23.4971 9.71289 23.4033 9.58984C23.3096 9.46094 23.2363 9.35547 23.1836 9.27344C23.1426 9.4082 23.1074 9.52539 23.0781 9.625C23.0488 9.71875 23.0195 9.80078 22.9902 9.87109C22.9492 9.98828 22.9111 10.0674 22.876 10.1084C22.8467 10.1436 22.8057 10.1611 22.7529 10.1611C22.6592 10.1611 22.6123 10.1055 22.6123 9.99414C22.6123 9.95312 22.6182 9.91504 22.6299 9.87988C22.6768 9.72754 22.7148 9.59277 22.7441 9.47559C22.7793 9.35254 22.8086 9.25 22.832 9.16797C22.8555 9.06836 22.876 8.9834 22.8936 8.91309C22.7939 8.79004 22.7061 8.64941 22.6299 8.49121C22.5479 8.32715 22.5068 8.11914 22.5068 7.86719C22.5068 7.68555 22.542 7.48633 22.6123 7.26953C22.6768 7.04688 22.7617 6.8418 22.8672 6.6543C22.9727 6.46094 23.0869 6.2998 23.21 6.1709C23.3389 6.04199 23.4619 5.97754 23.5791 5.97754C23.6494 5.97754 23.7109 6.00098 23.7637 6.04785C23.8223 6.08887 23.8691 6.14453 23.9043 6.21484C23.9453 6.28516 23.9746 6.36719 23.9922 6.46094C24.0156 6.54883 24.0273 6.63672 24.0273 6.72461C24.0273 6.92383 23.9922 7.14941 23.9219 7.40137C23.916 7.4248 23.9072 7.45996 23.8955 7.50684C23.8896 7.54785 23.8867 7.5918 23.8867 7.63867C23.8867 7.80859 23.998 8.0459 24.2207 8.35059C24.4434 8.65527 24.7217 8.99805 25.0557 9.37891C25.2139 9.56055 25.3281 9.75391 25.3984 9.95898C25.4688 10.1582 25.5039 10.3896 25.5039 10.6533C25.5039 10.7354 25.4951 10.8262 25.4775 10.9258C25.46 11.0195 25.4395 11.0986 25.416 11.1631L25.2314 11.6377Z" fill="url(#paint0_linear_7079_8498)"/>
<path d="M17.4736 12.5254C17.4736 12.5527 17.4714 12.6188 17.4668 12.7236C17.4622 12.8285 17.4554 12.9515 17.4463 13.0928C17.4417 13.234 17.4349 13.3822 17.4258 13.5371C17.4167 13.6921 17.4098 13.8379 17.4053 13.9746C17.4053 14.0065 17.4007 14.1068 17.3916 14.2754C17.3825 14.4395 17.3711 14.6491 17.3574 14.9043C17.3438 15.1595 17.3278 15.4489 17.3096 15.7725C17.2913 16.096 17.2731 16.4287 17.2549 16.7705C17.2367 17.1123 17.2184 17.4541 17.2002 17.7959C17.182 18.1331 17.1637 18.4453 17.1455 18.7324C17.1318 19.015 17.1182 19.2633 17.1045 19.4775C17.0908 19.6872 17.0794 19.8376 17.0703 19.9287C17.0566 20.1064 17.0156 20.3206 16.9473 20.5713C16.8835 20.8174 16.7809 21.0749 16.6396 21.3438C16.4984 21.6081 16.3115 21.8701 16.0791 22.1299C15.8467 22.3896 15.5527 22.6198 15.1973 22.8203C15.1745 22.834 15.1471 22.8454 15.1152 22.8545C15.0879 22.8682 15.0628 22.875 15.04 22.875C14.9808 22.875 14.9512 22.8499 14.9512 22.7998C14.9512 22.7588 14.9762 22.7109 15.0264 22.6562C15.1859 22.4876 15.318 22.3167 15.4229 22.1436C15.5277 21.9704 15.612 21.779 15.6758 21.5693C15.7396 21.3597 15.7874 21.1204 15.8193 20.8516C15.8512 20.5827 15.8786 20.266 15.9014 19.9014C15.9287 19.5778 15.9583 19.1745 15.9902 18.6914C16.0176 18.2812 16.0495 17.7663 16.0859 17.1465C16.1224 16.5267 16.1611 15.7884 16.2021 14.9316C16.2067 14.8223 16.2113 14.7061 16.2158 14.583C16.2249 14.46 16.2318 14.3438 16.2363 14.2344C16.2409 14.1204 16.2454 14.0202 16.25 13.9336C16.2546 13.847 16.2568 13.7855 16.2568 13.749C16.2568 13.6989 16.2318 13.6738 16.1816 13.6738C16.1087 13.6738 16.0107 13.6852 15.8877 13.708C15.7692 13.7262 15.6393 13.7627 15.498 13.8174C15.3613 13.8675 15.2223 13.9336 15.0811 14.0156C14.9443 14.0977 14.819 14.2025 14.7051 14.3301C14.5911 14.4531 14.4977 14.599 14.4248 14.7676C14.3564 14.9316 14.3223 15.123 14.3223 15.3418C14.3223 15.556 14.3473 15.752 14.3975 15.9297C14.4521 16.1074 14.516 16.2692 14.5889 16.415C14.6663 16.5609 14.7507 16.693 14.8418 16.8115C14.9329 16.9255 15.015 17.0257 15.0879 17.1123C15.1654 17.1943 15.2292 17.265 15.2793 17.3242C15.334 17.3789 15.3613 17.4199 15.3613 17.4473C15.3613 17.4883 15.3385 17.5225 15.293 17.5498C15.2474 17.5771 15.1676 17.5908 15.0537 17.5908C14.8167 17.5908 14.5934 17.5384 14.3838 17.4336C14.1742 17.3288 13.9919 17.1875 13.8369 17.0098C13.682 16.8275 13.5589 16.6178 13.4678 16.3809C13.3766 16.1439 13.3311 15.8955 13.3311 15.6357C13.3311 15.2939 13.3926 14.9727 13.5156 14.6719C13.6432 14.3711 13.8096 14.0954 14.0146 13.8447C14.2243 13.5941 14.4635 13.3708 14.7324 13.1748C15.0013 12.9743 15.277 12.8057 15.5596 12.6689C15.8421 12.5277 16.1201 12.4206 16.3936 12.3477C16.6715 12.2747 16.9245 12.2383 17.1523 12.2383C17.2708 12.2383 17.3529 12.2611 17.3984 12.3066C17.4486 12.3477 17.4736 12.4206 17.4736 12.5254ZM22.9971 19.4092C23.0244 19.4092 23.0472 19.4206 23.0654 19.4434C23.0882 19.4616 23.0996 19.4889 23.0996 19.5254C23.0996 19.5618 23.0928 19.596 23.0791 19.6279C22.9378 20.0335 22.8079 20.3913 22.6895 20.7012C22.571 21.0065 22.4502 21.2617 22.3271 21.4668C22.2087 21.6719 22.0856 21.8268 21.958 21.9316C21.8304 22.0365 21.6891 22.0889 21.5342 22.0889C21.3428 22.0889 21.1878 22.0456 21.0693 21.959C20.9508 21.8678 20.8574 21.7516 20.7891 21.6104C20.7207 21.4691 20.6751 21.3118 20.6523 21.1387C20.6296 20.9609 20.6182 20.7855 20.6182 20.6123C20.6182 20.4893 20.6204 20.3685 20.625 20.25C20.6296 20.127 20.6341 20.0107 20.6387 19.9014C20.6478 19.792 20.6546 19.694 20.6592 19.6074C20.6637 19.5208 20.666 19.4502 20.666 19.3955C20.666 19.3089 20.6501 19.2474 20.6182 19.2109C20.5908 19.1699 20.5589 19.1494 20.5225 19.1494C20.4814 19.1494 20.4473 19.1699 20.4199 19.2109C20.3926 19.2474 20.3698 19.2907 20.3516 19.3408C20.3288 19.3955 20.2946 19.4935 20.249 19.6348C20.2035 19.776 20.151 19.9355 20.0918 20.1133C20.0326 20.291 19.9688 20.4779 19.9004 20.6738C19.8366 20.8652 19.7773 21.0384 19.7227 21.1934C19.6497 21.3939 19.5791 21.5579 19.5107 21.6855C19.4469 21.8086 19.3854 21.9043 19.3262 21.9727C19.2669 22.041 19.2077 22.0866 19.1484 22.1094C19.0938 22.1367 19.0413 22.1504 18.9912 22.1504C18.9456 22.1504 18.8978 22.1413 18.8477 22.123C18.8021 22.1048 18.7588 22.0752 18.7178 22.0342C18.6813 21.9932 18.6494 21.9385 18.6221 21.8701C18.5947 21.7972 18.5811 21.7061 18.5811 21.5967C18.5719 21.3643 18.5651 21.1136 18.5605 20.8447C18.5605 20.5713 18.5605 20.3047 18.5605 20.0449C18.5605 19.9219 18.5605 19.8034 18.5605 19.6895C18.5651 19.5755 18.5674 19.4707 18.5674 19.375C18.5674 19.2428 18.5605 19.1494 18.5469 19.0947C18.5332 19.0355 18.515 19.0059 18.4922 19.0059C18.4421 19.0059 18.3988 19.056 18.3623 19.1562C18.3304 19.252 18.2734 19.4023 18.1914 19.6074C18.1641 19.6758 18.1344 19.7236 18.1025 19.751C18.0752 19.7783 18.0456 19.792 18.0137 19.792C17.9863 19.792 17.9635 19.7829 17.9453 19.7646C17.9225 19.7419 17.9111 19.7054 17.9111 19.6553C17.9111 19.6279 17.9225 19.5801 17.9453 19.5117C17.9681 19.4388 17.9954 19.3613 18.0273 19.2793C18.0638 19.1927 18.098 19.1061 18.1299 19.0195C18.1663 18.9284 18.1982 18.8509 18.2256 18.7871C18.2666 18.6823 18.3145 18.5752 18.3691 18.4658C18.4284 18.3519 18.4922 18.2493 18.5605 18.1582C18.6335 18.0625 18.7109 17.985 18.793 17.9258C18.8796 17.862 18.973 17.8301 19.0732 17.8301C19.2054 17.8301 19.3216 17.903 19.4219 18.0488C19.5267 18.1947 19.5837 18.4157 19.5928 18.7119C19.5973 18.9489 19.5996 19.1745 19.5996 19.3887C19.6042 19.5983 19.6087 19.7829 19.6133 19.9424C19.6178 20.0973 19.6201 20.2227 19.6201 20.3184C19.6247 20.4095 19.6292 20.4551 19.6338 20.4551C19.6429 20.4551 19.6634 20.4141 19.6953 20.332C19.7272 20.25 19.7682 20.1429 19.8184 20.0107C19.8685 19.874 19.9255 19.7214 19.9893 19.5527C20.0531 19.3796 20.1191 19.2064 20.1875 19.0332C20.2604 18.8555 20.3356 18.6868 20.4131 18.5273C20.4906 18.3633 20.568 18.2197 20.6455 18.0967C20.7275 17.9645 20.8141 17.8643 20.9053 17.7959C21.001 17.7275 21.1081 17.6934 21.2266 17.6934C21.3906 17.6934 21.5091 17.7913 21.582 17.9873C21.6549 18.1787 21.6914 18.4385 21.6914 18.7666C21.6914 18.8486 21.6891 18.9489 21.6846 19.0674C21.68 19.1859 21.6732 19.3112 21.6641 19.4434C21.6595 19.5755 21.6549 19.7077 21.6504 19.8398C21.6458 19.972 21.6436 20.0928 21.6436 20.2021C21.6436 20.389 21.6504 20.5417 21.6641 20.6602C21.6823 20.7741 21.7051 20.863 21.7324 20.9268C21.7598 20.9906 21.7894 21.0339 21.8213 21.0566C21.8532 21.0794 21.8851 21.0908 21.917 21.0908C22.0081 21.0908 22.0902 21.0498 22.1631 20.9678C22.2406 20.8857 22.3135 20.7741 22.3818 20.6328C22.4502 20.4915 22.5186 20.332 22.5869 20.1543C22.6553 19.972 22.7305 19.7806 22.8125 19.5801C22.8535 19.4661 22.915 19.4092 22.9971 19.4092Z" fill="url(#paint1_linear_7079_8498)"/>
<defs>
<linearGradient id="paint0_linear_7079_8498" x1="1.99378e-09" y1="7.37992" x2="28.9951" y2="7.89644" gradientUnits="userSpaceOnUse">
<stop offset="0.252859" stop-color="#E20000"/>
<stop offset="0.590884"/>
</linearGradient>
<linearGradient id="paint1_linear_7079_8498" x1="12" y1="17.4119" x2="24.0006" y2="17.5326" gradientUnits="userSpaceOnUse">
<stop offset="0.252859" stop-color="#E20000"/>
<stop offset="0.590884"/>
</linearGradient>
</defs>
</svg>
