<svg width="21" height="18" viewBox="0 0 21 18" fill="none" xmlns="http://www.w3.org/2000/svg">
<path d="M15.6895 0C17.0305 0 18.3205 0.53 19.2695 1.481C20.2195 2.43 20.7505 3.71 20.7505 5.05V12.95C20.7505 15.74 18.4805 18 15.6895 18H5.81049C3.01949 18 0.750488 15.74 0.750488 12.95V5.05C0.750488 2.26 3.00949 0 5.81049 0H15.6895ZM16.8205 5.2C16.6105 5.189 16.4105 5.26 16.2595 5.4L11.7505 9C11.1705 9.481 10.3395 9.481 9.75049 9L5.25049 5.4C4.93949 5.17 4.50949 5.2 4.25049 5.47C3.98049 5.74 3.95049 6.17 4.17949 6.47L4.31049 6.6L8.86049 10.15C9.42049 10.59 10.0995 10.83 10.8105 10.83C11.5195 10.83 12.2105 10.59 12.7695 10.15L17.2805 6.54L17.3605 6.46C17.5995 6.17 17.5995 5.75 17.3495 5.46C17.2105 5.311 17.0195 5.22 16.8205 5.2Z" fill="#19235B"/>
</svg>
