<svg width="16" height="17" viewBox="0 0 16 17" fill="none" xmlns="http://www.w3.org/2000/svg">
<mask id="mask0_3474_6663" style="mask-type:luminance" maskUnits="userSpaceOnUse" x="1" y="2" width="14" height="14">
<path fill-rule="evenodd" clip-rule="evenodd" d="M1.3335 2.26465H14.6399V15.5645H1.3335V2.26465Z" fill="white"/>
</mask>
<g mask="url(#mask0_3474_6663)">
<path fill-rule="evenodd" clip-rule="evenodd" d="M5.10016 3.26465C3.4195 3.26465 2.3335 4.41598 2.3335 6.19732V11.632C2.3335 13.414 3.4195 14.5646 5.10016 14.5646H10.8668C12.5515 14.5646 13.6402 13.414 13.6402 11.632V6.19732C13.6402 4.41598 12.5515 3.26465 10.8668 3.26465H5.10016ZM10.8668 15.5646H5.10016C2.84683 15.5646 1.3335 13.984 1.3335 11.632V6.19731C1.3335 3.84532 2.84683 2.26465 5.10016 2.26465H10.8668C13.1235 2.26465 14.6402 3.84532 14.6402 6.19731V11.632C14.6402 13.984 13.1235 15.5646 10.8668 15.5646V15.5646Z" fill="black"/>
</g>
<path fill-rule="evenodd" clip-rule="evenodd" d="M3.521 12.3852C3.397 12.3852 3.27367 12.3399 3.177 12.2479C2.97633 12.0586 2.96833 11.7412 3.15833 11.5419L4.177 10.4666C4.71633 9.89389 5.62633 9.86589 6.20167 10.4059L6.84033 11.0539C7.01833 11.2339 7.30767 11.2372 7.48633 11.0612C7.55367 10.9819 9.00567 9.21856 9.00567 9.21856C9.28167 8.88389 9.671 8.67722 10.1037 8.63456C10.537 8.59656 10.9577 8.72256 11.293 8.99789C11.3217 9.02122 11.3477 9.04389 12.8117 10.5472C13.0043 10.7446 13.001 11.0612 12.803 11.2539C12.6057 11.4479 12.2883 11.4419 12.0957 11.2446C12.0957 11.2446 10.7297 9.84256 10.6323 9.74789C10.529 9.66322 10.363 9.61389 10.1997 9.62989C10.0337 9.64656 9.88433 9.72589 9.77833 9.85456C8.229 11.7339 8.21033 11.7519 8.185 11.7766C7.613 12.3379 6.68967 12.3286 6.12767 11.7552C6.12767 11.7552 5.50767 11.1259 5.497 11.1132C5.343 10.9706 5.06833 10.9799 4.90367 11.1539L3.88367 12.2292C3.785 12.3332 3.653 12.3852 3.521 12.3852V12.3852Z" fill="black"/>
<path fill-rule="evenodd" clip-rule="evenodd" d="M5.7048 6.35059C5.33613 6.35059 5.03613 6.65059 5.03613 7.01992C5.03613 7.38925 5.33613 7.68992 5.70547 7.68992C6.0748 7.68992 6.37547 7.38925 6.37547 7.01992C6.37547 6.65125 6.0748 6.35125 5.7048 6.35059M5.70547 8.68992C4.7848 8.68992 4.03613 7.94059 4.03613 7.01992C4.03613 6.09925 4.7848 5.35059 5.70547 5.35059C6.6268 5.35125 7.37547 6.10059 7.37547 7.01992C7.37547 7.94059 6.62613 8.68992 5.70547 8.68992" fill="black"/>
</svg>
