<svg width="30" height="30" viewBox="0 0 30 30" fill="none" xmlns="http://www.w3.org/2000/svg">
<rect width="30" height="30" rx="15" fill="#19235B"/>
<path d="M15.0022 7.62229C17.407 7.62229 17.6893 7.63301 18.6398 7.67589C19.5189 7.71519 19.9941 7.8617 20.3121 7.98677C20.7338 8.15114 21.0339 8.3441 21.3484 8.65855C21.6628 8.973 21.8594 9.27316 22.0202 9.69481C22.1417 10.0128 22.2917 10.4881 22.3311 11.3671C22.3739 12.3176 22.3847 12.5999 22.3847 15.0048C22.3847 17.4096 22.3739 17.6919 22.3311 18.6424C22.2917 19.5214 22.1452 19.9967 22.0202 20.3147C21.8558 20.7364 21.6628 21.0365 21.3484 21.351C21.0339 21.6654 20.7338 21.862 20.3121 22.0228C19.9941 22.1443 19.5189 22.2943 18.6398 22.3336C17.6893 22.3765 17.407 22.3872 15.0022 22.3872C12.5973 22.3872 12.315 22.3765 11.3645 22.3336C10.4855 22.2943 10.0102 22.1478 9.69222 22.0228C9.27057 21.8584 8.97041 21.6654 8.65595 21.351C8.3415 21.0365 8.14497 20.7364 7.98417 20.3147C7.86268 19.9967 7.7126 19.5214 7.67329 18.6424C7.63041 17.6919 7.61969 17.4096 7.61969 15.0048C7.61969 12.5999 7.63041 12.3176 7.67329 11.3671C7.7126 10.4881 7.8591 10.0128 7.98417 9.69481C8.14854 9.27316 8.3415 8.973 8.65595 8.65855C8.97041 8.3441 9.27057 8.14756 9.69222 7.98677C10.0102 7.86527 10.4855 7.71519 11.3645 7.67589C12.315 7.62943 12.6009 7.62229 15.0022 7.62229ZM15.0022 6C12.558 6 12.2507 6.01072 11.2895 6.0536C10.3318 6.09648 9.67792 6.25013 9.10619 6.47168C8.51302 6.70037 8.01276 7.01125 7.51249 7.51151C7.01223 8.01178 6.70492 8.51562 6.47265 9.10521C6.25111 9.67695 6.09746 10.3309 6.05458 11.2921C6.0117 12.2497 6.00098 12.557 6.00098 15.0012C6.00098 17.4453 6.0117 17.7526 6.05458 18.7139C6.09746 19.6715 6.25111 20.3254 6.47265 20.9007C6.70135 21.4939 7.01223 21.9942 7.51249 22.4944C8.01276 22.9947 8.51659 23.302 9.10619 23.5343C9.67792 23.7558 10.3318 23.9095 11.2931 23.9524C12.2543 23.9952 12.558 24.006 15.0057 24.006C17.4535 24.006 17.7572 23.9952 18.7184 23.9524C19.6761 23.9095 20.33 23.7558 20.9053 23.5343C21.4985 23.3056 21.9987 22.9947 22.499 22.4944C22.9993 21.9942 23.3066 21.4903 23.5388 20.9007C23.7604 20.329 23.914 19.6751 23.9569 18.7139C23.9998 17.7526 24.0105 17.4489 24.0105 15.0012C24.0105 12.5535 23.9998 12.2497 23.9569 11.2885C23.914 10.3309 23.7604 9.67695 23.5388 9.10164C23.3101 8.50847 22.9993 8.00821 22.499 7.50794C21.9987 7.00768 21.4949 6.70037 20.9053 6.4681C20.3336 6.24656 19.6797 6.09291 18.7184 6.05003C17.7536 6.01072 17.4463 6 15.0022 6Z" fill="white"/>
<path d="M15.0023 10.3809C12.4509 10.3809 10.3784 12.4498 10.3784 15.0047C10.3784 17.5597 12.4474 19.6286 15.0023 19.6286C17.5572 19.6286 19.6262 17.5597 19.6262 15.0047C19.6262 12.4498 17.5572 10.3809 15.0023 10.3809ZM15.0023 18.0027C13.3443 18.0027 12.0007 16.6592 12.0007 15.0012C12.0007 13.3431 13.3443 11.9996 15.0023 11.9996C16.6603 11.9996 18.0039 13.3431 18.0039 15.0012C18.0039 16.6592 16.6603 18.0027 15.0023 18.0027Z" fill="white"/>
<path d="M19.8086 11.274C20.4046 11.274 20.8878 10.7909 20.8878 10.1949C20.8878 9.59887 20.4046 9.11572 19.8086 9.11572C19.2126 9.11572 18.7295 9.59887 18.7295 10.1949C18.7295 10.7909 19.2126 11.274 19.8086 11.274Z" fill="white"/>
</svg>
