<svg width="30" height="30" viewBox="0 0 30 30" fill="none" xmlns="http://www.w3.org/2000/svg">
<rect width="30" height="30" rx="15" fill="#19235B"/>
<path fill-rule="evenodd" clip-rule="evenodd" d="M19.5276 6.75C20.7568 6.75 21.9393 7.23583 22.8092 8.10758C23.6801 8.9775 24.1668 10.1508 24.1668 11.3792V18.6208C24.1668 21.1783 22.086 23.25 19.5276 23.25H10.4718C7.91341 23.25 5.8335 21.1783 5.8335 18.6208V11.3792C5.8335 8.82167 7.90425 6.75 10.4718 6.75H19.5276ZM20.986 12.745L21.0593 12.6717C21.2784 12.4058 21.2784 12.0208 21.0492 11.755C20.9218 11.6184 20.7467 11.535 20.5643 11.5167C20.3718 11.5066 20.1885 11.5717 20.0501 11.7L15.9168 15C15.3852 15.4409 14.6234 15.4409 14.0835 15L9.9585 11.7C9.67341 11.4892 9.27925 11.5167 9.04183 11.7642C8.79433 12.0117 8.76683 12.4058 8.97675 12.6808L9.09683 12.8L13.2677 16.0542C13.781 16.4575 14.4034 16.6775 15.0552 16.6775C15.7051 16.6775 16.3385 16.4575 16.8509 16.0542L20.986 12.745Z" fill="white"/>
</svg>
