<svg width="151" height="87" viewBox="0 0 151 87" fill="none" xmlns="http://www.w3.org/2000/svg">
<path fill-rule="evenodd" clip-rule="evenodd" d="M23.6395 4.45052C5.47627 12.3712 -5.23006 51.1023 4.93213 72.1172C14.1599 91.1971 36.7545 90.4845 48.1323 70.7549C69.4932 33.7152 53.8198 -8.71374 23.6395 4.45052ZM43.2491 18.0894C47.1335 21.8321 47.2497 44.4445 43.4422 55.4456C38.0442 71.0405 25.8482 78.3185 18.1045 70.5672C0.639257 53.0849 25.5698 1.05095 43.2491 18.0894Z" fill="#E20000" stroke="#19235B" stroke-width="0.3"/>
<mask id="path-2-inside-1_7178_8582" fill="white">
<path d="M70.08 16.544C71.296 17.024 72.512 17.52 73.728 18.032C75.04 18.672 75.936 19.472 76.416 20.432C76.512 20.56 76.56 20.736 76.56 20.96C76.56 21.856 76.256 22.496 75.648 22.88C75.36 23.04 75.04 23.12 74.688 23.12C74.144 23.12 73.12 22.672 71.616 21.776C70.112 20.88 68.928 20.432 68.064 20.432C67.424 20.432 66.8 20.608 66.192 20.96C65.904 21.152 65.76 21.424 65.76 21.776C65.76 22.224 66.016 22.736 66.528 23.312C67.072 23.888 67.552 24.256 67.968 24.416C71.296 25.6 73.824 26.992 75.552 28.592C76.128 29.136 76.416 29.888 76.416 30.848C76.416 31.968 76.064 33.104 75.36 34.256C74.688 35.408 73.568 36.384 72 37.184C70.464 37.952 68.88 38.336 67.248 38.336C64.368 38.336 62.352 37.136 61.2 34.736C61.104 34.544 61.056 34.32 61.056 34.064C61.056 33.52 61.312 33.024 61.824 32.576C62.336 32.096 62.88 31.84 63.456 31.808C63.904 31.744 64.304 32.032 64.656 32.672C65.072 33.408 65.408 33.84 65.664 33.968C66.24 34.256 66.896 34.4 67.632 34.4C68.752 34.4 69.728 34.112 70.56 33.536C71.424 32.928 71.856 32.144 71.856 31.184C71.856 30.448 71.12 29.744 69.648 29.072C68.016 28.368 66.4 27.68 64.8 27.008C63.072 26.112 61.872 24.976 61.2 23.6C61.008 23.184 60.912 22.768 60.912 22.352C60.912 20.912 61.824 19.52 63.648 18.176C65.376 16.896 67.072 16.256 68.736 16.256C69.248 16.256 69.696 16.352 70.08 16.544ZM84.5629 16.544C84.7229 15.456 84.9629 13.824 85.2829 11.648C85.4109 10.368 86.2429 9.728 87.7789 9.728C88.7069 9.728 89.5709 9.984 90.3709 10.496C90.7549 10.88 90.8349 11.424 90.6109 12.128C89.3629 14.816 88.7389 18.08 88.7389 21.92C91.7789 21.632 93.2349 21.488 93.1069 21.488C94.7709 21.488 95.6029 21.952 95.6029 22.88C95.6029 23.072 95.5709 23.28 95.5069 23.504C95.1869 24.528 94.1629 25.152 92.4349 25.376C91.8269 25.472 90.3229 25.52 87.9229 25.52C87.8589 25.872 87.8269 26.4 87.8269 27.104C87.8269 28.64 88.0349 31.824 88.4509 36.656C88.8029 41.168 88.9469 43.872 88.8829 44.768C88.8189 45.856 88.2589 46.4 87.2029 46.4C86.2109 46.4 85.5389 45.888 85.1869 44.864C84.8989 44.064 84.5949 40.832 84.2749 35.168C83.9869 29.76 83.5869 26.592 83.0749 25.664C81.7629 26.656 80.4669 27.152 79.1869 27.152C78.6109 27.152 78.0989 26.992 77.6509 26.672C77.1069 26.32 76.8349 25.872 76.8349 25.328C76.8349 24.656 77.2509 24.048 78.0829 23.504C78.4989 23.312 79.5069 23.024 81.1069 22.64C82.3549 22.384 83.1869 22 83.6029 21.488C84.0189 20.976 84.2749 20.208 84.3709 19.184C84.4349 18.288 84.4989 17.408 84.5629 16.544ZM97.641 25.856C97.641 23.328 97.929 21.504 98.505 20.384C98.953 19.488 99.737 19.04 100.857 19.04C101.337 19.04 101.801 19.136 102.249 19.328C103.145 19.744 103.593 20.288 103.593 20.96C103.593 21.216 103.497 21.44 103.305 21.632C102.729 22.432 102.425 23.472 102.393 24.752C102.297 26.32 102.169 27.328 102.009 27.776C101.849 28.224 101.769 28.736 101.769 29.312C101.769 29.728 101.833 30.368 101.961 31.232C102.121 32.064 102.201 32.704 102.201 33.152C102.201 33.6 102.169 34.032 102.105 34.448C102.073 34.864 101.913 35.072 101.625 35.072C100.921 35.264 100.297 35.36 99.753 35.36C98.729 35.36 98.089 34.976 97.833 34.208C97.577 33.28 97.449 32.16 97.449 30.848C97.449 30.304 97.481 29.472 97.545 28.352C97.609 27.232 97.641 26.4 97.641 25.856ZM98.841 15.008C98.617 14.752 98.505 14.384 98.505 13.904C98.505 12.688 98.841 11.888 99.513 11.504C100.185 11.12 100.905 10.928 101.673 10.928C102.313 10.928 102.873 11.104 103.353 11.456C103.865 11.808 104.121 12.304 104.121 12.944C104.121 13.488 103.945 14.064 103.593 14.672C103.241 15.248 102.873 15.648 102.489 15.872C102.105 16.096 101.689 16.208 101.241 16.208C100.313 16.208 99.513 15.808 98.841 15.008Z"/>
</mask>
<path d="M70.08 16.544C71.296 17.024 72.512 17.52 73.728 18.032C75.04 18.672 75.936 19.472 76.416 20.432C76.512 20.56 76.56 20.736 76.56 20.96C76.56 21.856 76.256 22.496 75.648 22.88C75.36 23.04 75.04 23.12 74.688 23.12C74.144 23.12 73.12 22.672 71.616 21.776C70.112 20.88 68.928 20.432 68.064 20.432C67.424 20.432 66.8 20.608 66.192 20.96C65.904 21.152 65.76 21.424 65.76 21.776C65.76 22.224 66.016 22.736 66.528 23.312C67.072 23.888 67.552 24.256 67.968 24.416C71.296 25.6 73.824 26.992 75.552 28.592C76.128 29.136 76.416 29.888 76.416 30.848C76.416 31.968 76.064 33.104 75.36 34.256C74.688 35.408 73.568 36.384 72 37.184C70.464 37.952 68.88 38.336 67.248 38.336C64.368 38.336 62.352 37.136 61.2 34.736C61.104 34.544 61.056 34.32 61.056 34.064C61.056 33.52 61.312 33.024 61.824 32.576C62.336 32.096 62.88 31.84 63.456 31.808C63.904 31.744 64.304 32.032 64.656 32.672C65.072 33.408 65.408 33.84 65.664 33.968C66.24 34.256 66.896 34.4 67.632 34.4C68.752 34.4 69.728 34.112 70.56 33.536C71.424 32.928 71.856 32.144 71.856 31.184C71.856 30.448 71.12 29.744 69.648 29.072C68.016 28.368 66.4 27.68 64.8 27.008C63.072 26.112 61.872 24.976 61.2 23.6C61.008 23.184 60.912 22.768 60.912 22.352C60.912 20.912 61.824 19.52 63.648 18.176C65.376 16.896 67.072 16.256 68.736 16.256C69.248 16.256 69.696 16.352 70.08 16.544ZM84.5629 16.544C84.7229 15.456 84.9629 13.824 85.2829 11.648C85.4109 10.368 86.2429 9.728 87.7789 9.728C88.7069 9.728 89.5709 9.984 90.3709 10.496C90.7549 10.88 90.8349 11.424 90.6109 12.128C89.3629 14.816 88.7389 18.08 88.7389 21.92C91.7789 21.632 93.2349 21.488 93.1069 21.488C94.7709 21.488 95.6029 21.952 95.6029 22.88C95.6029 23.072 95.5709 23.28 95.5069 23.504C95.1869 24.528 94.1629 25.152 92.4349 25.376C91.8269 25.472 90.3229 25.52 87.9229 25.52C87.8589 25.872 87.8269 26.4 87.8269 27.104C87.8269 28.64 88.0349 31.824 88.4509 36.656C88.8029 41.168 88.9469 43.872 88.8829 44.768C88.8189 45.856 88.2589 46.4 87.2029 46.4C86.2109 46.4 85.5389 45.888 85.1869 44.864C84.8989 44.064 84.5949 40.832 84.2749 35.168C83.9869 29.76 83.5869 26.592 83.0749 25.664C81.7629 26.656 80.4669 27.152 79.1869 27.152C78.6109 27.152 78.0989 26.992 77.6509 26.672C77.1069 26.32 76.8349 25.872 76.8349 25.328C76.8349 24.656 77.2509 24.048 78.0829 23.504C78.4989 23.312 79.5069 23.024 81.1069 22.64C82.3549 22.384 83.1869 22 83.6029 21.488C84.0189 20.976 84.2749 20.208 84.3709 19.184C84.4349 18.288 84.4989 17.408 84.5629 16.544ZM97.641 25.856C97.641 23.328 97.929 21.504 98.505 20.384C98.953 19.488 99.737 19.04 100.857 19.04C101.337 19.04 101.801 19.136 102.249 19.328C103.145 19.744 103.593 20.288 103.593 20.96C103.593 21.216 103.497 21.44 103.305 21.632C102.729 22.432 102.425 23.472 102.393 24.752C102.297 26.32 102.169 27.328 102.009 27.776C101.849 28.224 101.769 28.736 101.769 29.312C101.769 29.728 101.833 30.368 101.961 31.232C102.121 32.064 102.201 32.704 102.201 33.152C102.201 33.6 102.169 34.032 102.105 34.448C102.073 34.864 101.913 35.072 101.625 35.072C100.921 35.264 100.297 35.36 99.753 35.36C98.729 35.36 98.089 34.976 97.833 34.208C97.577 33.28 97.449 32.16 97.449 30.848C97.449 30.304 97.481 29.472 97.545 28.352C97.609 27.232 97.641 26.4 97.641 25.856ZM98.841 15.008C98.617 14.752 98.505 14.384 98.505 13.904C98.505 12.688 98.841 11.888 99.513 11.504C100.185 11.12 100.905 10.928 101.673 10.928C102.313 10.928 102.873 11.104 103.353 11.456C103.865 11.808 104.121 12.304 104.121 12.944C104.121 13.488 103.945 14.064 103.593 14.672C103.241 15.248 102.873 15.648 102.489 15.872C102.105 16.096 101.689 16.208 101.241 16.208C100.313 16.208 99.513 15.808 98.841 15.008Z" fill="#E20000"/>
<path d="M70.08 16.544L69.9458 16.8123L69.9576 16.8182L69.9699 16.823L70.08 16.544ZM73.728 18.032L73.8595 17.7624L73.8521 17.7587L73.8444 17.7555L73.728 18.032ZM76.416 20.432L76.1477 20.5662L76.1598 20.5904L76.176 20.612L76.416 20.432ZM75.648 22.88L75.7937 23.1422L75.8011 23.1381L75.8082 23.1336L75.648 22.88ZM71.616 21.776L71.7695 21.5183L71.7695 21.5183L71.616 21.776ZM66.192 20.96L66.0417 20.7004L66.0335 20.7051L66.0256 20.7104L66.192 20.96ZM66.528 23.312L66.3037 23.5114L66.3099 23.518L66.528 23.312ZM67.968 24.416L67.8603 24.6961L67.8674 24.6986L67.968 24.416ZM75.552 28.592L75.758 28.3739L75.7558 28.3719L75.552 28.592ZM75.36 34.256L75.104 34.0995L75.1009 34.1048L75.36 34.256ZM72 37.184L72.1342 37.4523L72.1363 37.4512L72 37.184ZM61.2 34.736L61.4705 34.6062L61.4683 34.6018L61.2 34.736ZM61.824 32.576L62.0217 32.8019L62.0292 32.7949L61.824 32.576ZM63.456 31.808L63.4726 32.1075L63.4856 32.1068L63.4984 32.105L63.456 31.808ZM64.656 32.672L64.3931 32.8166L64.3948 32.8196L64.656 32.672ZM65.664 33.968L65.7982 33.6997L65.7982 33.6997L65.664 33.968ZM70.56 33.536L70.7308 33.7827L70.7326 33.7813L70.56 33.536ZM69.648 29.072L69.7726 28.799L69.7668 28.7965L69.648 29.072ZM64.8 27.008L64.6619 27.2743L64.6727 27.2799L64.6838 27.2846L64.8 27.008ZM61.2 23.6L60.9275 23.7257L60.9304 23.7317L61.2 23.6ZM63.648 18.176L63.826 18.4175L63.8266 18.4171L63.648 18.176ZM69.9699 16.823C71.1837 17.3022 72.3976 17.7974 73.6116 18.3085L73.8444 17.7555C72.6264 17.2426 71.4083 16.7458 70.1902 16.265L69.9699 16.823ZM73.5965 18.3016C74.8703 18.923 75.7062 19.6831 76.1477 20.5662L76.6843 20.2978C76.1658 19.2609 75.2097 18.421 73.8595 17.7624L73.5965 18.3016ZM76.176 20.612C76.2202 20.6709 76.26 20.7756 76.26 20.96H76.86C76.86 20.6964 76.8038 20.4491 76.656 20.252L76.176 20.612ZM76.26 20.96C76.26 21.7821 75.9868 22.3112 75.4878 22.6264L75.8082 23.1336C76.5252 22.6808 76.86 21.9299 76.86 20.96H76.26ZM75.5023 22.6178C75.2619 22.7513 74.9926 22.82 74.688 22.82V23.42C75.0874 23.42 75.4581 23.3287 75.7937 23.1422L75.5023 22.6178ZM74.688 22.82C74.4818 22.82 74.1379 22.7304 73.6322 22.5092C73.1362 22.2921 72.5161 21.963 71.7695 21.5183L71.4625 22.0337C72.2199 22.485 72.8638 22.8279 73.3918 23.0588C73.9101 23.2856 74.3503 23.42 74.688 23.42V22.82ZM71.7695 21.5183C70.2578 20.6177 69.0141 20.132 68.064 20.132V20.732C68.8419 20.732 69.9662 21.1423 71.4625 22.0337L71.7695 21.5183ZM68.064 20.132C67.3662 20.132 66.6908 20.3246 66.0417 20.7004L66.3423 21.2196C66.9092 20.8914 67.4818 20.732 68.064 20.732V20.132ZM66.0256 20.7104C65.6524 20.9592 65.46 21.3257 65.46 21.776H66.06C66.06 21.5223 66.1556 21.3448 66.3584 21.2096L66.0256 20.7104ZM65.46 21.776C65.46 22.3347 65.7752 22.9167 66.3038 23.5113L66.7522 23.1127C66.2568 22.5553 66.06 22.1133 66.06 21.776H65.46ZM66.3099 23.518C66.8643 24.105 67.3815 24.5119 67.8603 24.696L68.0757 24.136C67.7225 24.0001 67.2797 23.671 66.7461 23.106L66.3099 23.518ZM67.8674 24.6986C71.1745 25.8752 73.6611 27.25 75.3482 28.8121L75.7558 28.3719C73.9869 26.734 71.4175 25.3248 68.0686 24.1334L67.8674 24.6986ZM75.346 28.8101C75.8496 29.2857 76.116 29.9517 76.116 30.848H76.716C76.716 29.8243 76.4064 28.9863 75.758 28.3739L75.346 28.8101ZM76.116 30.848C76.116 31.9024 75.7852 32.9849 75.104 34.0996L75.616 34.4124C76.3428 33.2231 76.716 32.0336 76.716 30.848H76.116ZM75.1009 34.1048C74.4657 35.1936 73.3965 36.1347 71.8637 36.9168L72.1363 37.4512C73.7395 36.6333 74.9103 35.6224 75.6191 34.4072L75.1009 34.1048ZM71.8658 36.9157C70.3693 37.664 68.831 38.036 67.248 38.036V38.636C68.929 38.636 70.5587 38.24 72.1342 37.4523L71.8658 36.9157ZM67.248 38.036C65.8498 38.036 64.6815 37.7449 63.7294 37.1782C62.7788 36.6124 62.0245 35.7603 61.4705 34.6062L60.9295 34.8658C61.5275 36.1117 62.3572 37.0596 63.4226 37.6938C64.4865 38.3271 65.7662 38.636 67.248 38.636V38.036ZM61.4683 34.6018C61.3968 34.4588 61.356 34.2823 61.356 34.064H60.756C60.756 34.3577 60.8112 34.6292 60.9317 34.8702L61.4683 34.6018ZM61.356 34.064C61.356 33.6274 61.557 33.2082 62.0216 32.8018L61.6264 32.3502C61.067 32.8398 60.756 33.4126 60.756 34.064H61.356ZM62.0292 32.7949C62.5013 32.3522 62.9814 32.1348 63.4726 32.1075L63.4394 31.5085C62.7786 31.5452 62.1707 31.8398 61.6188 32.3571L62.0292 32.7949ZM63.4984 32.105C63.7547 32.0684 64.0593 32.2097 64.3931 32.8166L64.9189 32.5274C64.5487 31.8543 64.0533 31.4196 63.4136 31.511L63.4984 32.105ZM64.3948 32.8196C64.6066 33.1943 64.8027 33.5002 64.9832 33.7322C65.1581 33.957 65.3398 34.1413 65.5298 34.2363L65.7982 33.6997C65.7322 33.6667 65.6179 33.571 65.4568 33.3638C65.3013 33.1638 65.1214 32.8857 64.9172 32.5244L64.3948 32.8196ZM65.5298 34.2363C66.1531 34.548 66.8561 34.7 67.632 34.7V34.1C66.9359 34.1 66.3269 33.964 65.7982 33.6997L65.5298 34.2363ZM67.632 34.7C68.8062 34.7 69.8433 34.3971 70.7308 33.7827L70.3892 33.2893C69.6127 33.8269 68.6978 34.1 67.632 34.1V34.7ZM70.7326 33.7813C71.6671 33.1237 72.156 32.2526 72.156 31.184H71.556C71.556 32.0354 71.1809 32.7323 70.3874 33.2907L70.7326 33.7813ZM72.156 31.184C72.156 30.7067 71.9152 30.2735 71.5114 29.8872C71.1091 29.5025 70.5233 29.1418 69.7726 28.7991L69.5234 29.3449C70.2447 29.6742 70.7629 30.0015 71.0966 30.3208C71.4288 30.6385 71.556 30.9253 71.556 31.184H72.156ZM69.7668 28.7965C68.134 28.0922 66.5171 27.4038 64.9162 26.7314L64.6838 27.2846C66.2829 27.9562 67.898 28.6438 69.5292 29.3475L69.7668 28.7965ZM64.9381 26.7417C63.2516 25.8672 62.1065 24.7725 61.4696 23.4683L60.9304 23.7317C61.6375 25.1795 62.8924 26.3568 64.6619 27.2743L64.9381 26.7417ZM61.4724 23.4743C61.2967 23.0937 61.212 22.7204 61.212 22.352H60.612C60.612 22.8156 60.7193 23.2743 60.9276 23.7257L61.4724 23.4743ZM61.212 22.352C61.212 21.0519 62.0338 19.738 63.826 18.4175L63.47 17.9345C61.6142 19.302 60.612 20.7721 60.612 22.352H61.212ZM63.8266 18.4171C65.518 17.1641 67.1529 16.556 68.736 16.556V15.956C66.9911 15.956 65.234 16.6279 63.4694 17.9349L63.8266 18.4171ZM68.736 16.556C69.2103 16.556 69.6108 16.6448 69.9458 16.8123L70.2142 16.2757C69.7812 16.0592 69.2857 15.956 68.736 15.956V16.556ZM84.5629 16.544L84.2661 16.5004L84.2645 16.5111L84.2637 16.5218L84.5629 16.544ZM85.2829 11.648L85.58 11.6917L85.5814 11.6778L85.2829 11.648ZM90.3709 10.496L90.583 10.2839L90.56 10.2609L90.5326 10.2433L90.3709 10.496ZM90.6109 12.128L90.883 12.2543L90.891 12.2371L90.8968 12.219L90.6109 12.128ZM88.7389 21.92H88.4389V22.2498L88.7672 22.2187L88.7389 21.92ZM95.5069 23.504L95.7933 23.5935L95.7953 23.5864L95.5069 23.504ZM92.4349 25.376L92.3963 25.0784L92.3881 25.0797L92.4349 25.376ZM87.9229 25.52V25.22H87.6725L87.6277 25.4663L87.9229 25.52ZM88.4509 36.656L88.75 36.6327L88.7498 36.6303L88.4509 36.656ZM88.8829 44.768L88.5836 44.7466L88.5834 44.7504L88.8829 44.768ZM85.1869 44.864L85.4706 44.7665L85.4691 44.7624L85.1869 44.864ZM84.2749 35.168L83.9753 35.184L83.9754 35.1849L84.2749 35.168ZM83.0749 25.664L83.3375 25.5191L83.1702 25.2158L82.8939 25.4247L83.0749 25.664ZM77.6509 26.672L77.8254 26.4276L77.8139 26.4201L77.6509 26.672ZM78.0829 23.504L77.9572 23.2316L77.9371 23.2408L77.9187 23.2529L78.0829 23.504ZM81.1069 22.64L81.0466 22.346L81.0369 22.3483L81.1069 22.64ZM83.6029 21.488L83.37 21.2988L83.37 21.2988L83.6029 21.488ZM84.3709 19.184L84.6696 19.212L84.6701 19.2054L84.3709 19.184ZM84.8597 16.5876C85.0197 15.4996 85.2597 13.8676 85.5797 11.6916L84.9861 11.6044C84.6661 13.7804 84.4261 15.4124 84.2661 16.5004L84.8597 16.5876ZM85.5814 11.6778C85.6392 11.1002 85.8497 10.7043 86.1858 10.4458C86.53 10.181 87.0475 10.028 87.7789 10.028V9.428C86.9742 9.428 86.3078 9.59497 85.82 9.97021C85.3241 10.3517 85.0546 10.9158 84.9844 11.6181L85.5814 11.6778ZM87.7789 10.028C88.6481 10.028 89.4562 10.2668 90.2092 10.7487L90.5326 10.2433C89.6855 9.70119 88.7656 9.428 87.7789 9.428V10.028ZM90.1587 10.7081C90.4351 10.9845 90.5291 11.3955 90.325 12.037L90.8968 12.219C91.1406 11.4525 91.0746 10.7755 90.583 10.2839L90.1587 10.7081ZM90.3388 12.0017C89.0678 14.7391 88.4389 18.0488 88.4389 21.92H89.0389C89.0389 18.1112 89.6579 14.8929 90.883 12.2543L90.3388 12.0017ZM88.7672 22.2187C90.2872 22.0747 91.4118 21.9666 92.1404 21.8945C92.5045 21.8585 92.7707 21.8314 92.9382 21.8133C93.0211 21.8043 93.0828 21.7971 93.1206 21.7921C93.1315 21.7906 93.1618 21.7867 93.187 21.7802C93.192 21.7789 93.2012 21.7765 93.2123 21.7726C93.2183 21.7705 93.2473 21.7607 93.2794 21.7395C93.2941 21.7299 93.3329 21.703 93.3654 21.6535C93.4044 21.594 93.4371 21.4935 93.3953 21.3827C93.3609 21.2918 93.295 21.2472 93.2706 21.2323C93.2412 21.2144 93.2153 21.2057 93.2032 21.2019C93.1779 21.1941 93.1573 21.1914 93.1506 21.1906C93.1413 21.1894 93.1335 21.1889 93.1289 21.1886C93.1195 21.1881 93.1115 21.188 93.1069 21.188V21.788C93.1062 21.788 93.1014 21.788 93.0945 21.7876C93.0911 21.7874 93.0844 21.787 93.0759 21.7859C93.0701 21.7852 93.0501 21.7826 93.0253 21.7749C93.0134 21.7713 92.9877 21.7626 92.9585 21.7448C92.9341 21.7299 92.8683 21.6854 92.834 21.5947C92.7922 21.4839 92.8248 21.3835 92.8638 21.3241C92.8963 21.2747 92.935 21.2479 92.9494 21.2384C92.9813 21.2174 93.0097 21.2078 93.015 21.206C93.0254 21.2024 93.0337 21.2001 93.0376 21.1991C93.0541 21.1949 93.0632 21.1944 93.0407 21.1974C93.0114 21.2014 92.9566 21.2077 92.8735 21.2167C92.709 21.2346 92.4452 21.2615 92.0813 21.2975C91.354 21.3694 90.2305 21.4773 88.7106 21.6213L88.7672 22.2187ZM93.1069 21.788C93.9208 21.788 94.4834 21.9032 94.8328 22.098C95.0029 22.1929 95.1168 22.3034 95.1894 22.4249C95.2617 22.546 95.3029 22.6942 95.3029 22.88H95.9029C95.9029 22.6018 95.84 22.344 95.7044 22.1171C95.569 21.8906 95.3709 21.7111 95.125 21.574C94.6423 21.3048 93.9569 21.188 93.1069 21.188V21.788ZM95.3029 22.88C95.3029 23.0389 95.2763 23.2189 95.2184 23.4216L95.7953 23.5864C95.8654 23.3411 95.9029 23.1051 95.9029 22.88H95.3029ZM95.2205 23.4145C94.9543 24.2666 94.0875 24.8593 92.3963 25.0785L92.4734 25.6735C94.2383 25.4447 95.4195 24.7894 95.7932 23.5935L95.2205 23.4145ZM92.3881 25.0797C91.8085 25.1712 90.3313 25.22 87.9229 25.22V25.82C90.3144 25.82 91.8452 25.7728 92.4817 25.6723L92.3881 25.0797ZM87.6277 25.4663C87.5587 25.8458 87.5269 26.3957 87.5269 27.104H88.1269C88.1269 26.4043 88.159 25.8982 88.218 25.5737L87.6277 25.4663ZM87.5269 27.104C87.5269 28.6552 87.7362 31.8524 88.152 36.6817L88.7498 36.6303C88.3335 31.7956 88.1269 28.6248 88.1269 27.104H87.5269ZM88.1518 36.6793C88.5047 41.2031 88.6456 43.8788 88.5836 44.7466L89.1821 44.7894C89.2481 43.8652 89.101 41.1329 88.75 36.6327L88.1518 36.6793ZM88.5834 44.7504C88.554 45.2493 88.414 45.5746 88.2058 45.7768C87.9992 45.9775 87.681 46.1 87.2029 46.1V46.7C87.7808 46.7 88.2705 46.5505 88.6239 46.2072C88.9758 45.8654 89.1477 45.3747 89.1824 44.7856L88.5834 44.7504ZM87.2029 46.1C86.7607 46.1 86.4117 45.9869 86.1367 45.7774C85.8595 45.5662 85.6327 45.2381 85.4706 44.7665L84.9032 44.9615C85.093 45.5139 85.3782 45.9538 85.7731 46.2546C86.17 46.5571 86.6531 46.7 87.2029 46.7V46.1ZM85.4691 44.7624C85.4084 44.5936 85.3387 44.2684 85.2647 43.7644C85.1918 43.2677 85.1173 42.6174 85.0416 41.8119C84.8901 40.2014 84.7343 37.9817 84.5744 35.1511L83.9754 35.1849C84.1354 38.0183 84.2917 40.2466 84.4442 41.8681C84.5204 42.6786 84.596 43.3403 84.6711 43.8516C84.7451 44.3556 84.8214 44.7344 84.9046 44.9656L85.4691 44.7624ZM84.5745 35.152C84.4303 32.445 84.2578 30.2928 84.0565 28.6984C83.9559 27.9014 83.8475 27.2393 83.7307 26.7148C83.6153 26.1966 83.487 25.79 83.3375 25.5191L82.8122 25.8089C82.9187 26.002 83.0324 26.3394 83.145 26.8452C83.2563 27.3447 83.3619 27.9866 83.4612 28.7736C83.6599 30.3472 83.8315 32.483 83.9753 35.184L84.5745 35.152ZM82.8939 25.4247C81.6191 26.3886 80.385 26.852 79.1869 26.852V27.452C80.5487 27.452 81.9067 26.9234 83.2558 25.9033L82.8939 25.4247ZM79.1869 26.852C78.6703 26.852 78.2199 26.7098 77.8252 26.4279L77.4765 26.9161C77.9778 27.2742 78.5514 27.452 79.1869 27.452V26.852ZM77.8139 26.4201C77.3364 26.1112 77.1349 25.7496 77.1349 25.328H76.5349C76.5349 25.9944 76.8774 26.5288 77.4879 26.9239L77.8139 26.4201ZM77.1349 25.328C77.1349 24.8 77.4564 24.2721 78.247 23.7551L77.9187 23.2529C77.0454 23.8239 76.5349 24.512 76.5349 25.328H77.1349ZM78.2086 23.7764C78.5921 23.5994 79.5682 23.3178 81.1769 22.9317L81.0369 22.3483C79.4456 22.7302 78.4056 23.0246 77.9572 23.2316L78.2086 23.7764ZM81.1672 22.9339C82.4287 22.6751 83.3506 22.2742 83.8357 21.6772L83.37 21.2988C83.0232 21.7258 82.2811 22.0929 81.0466 22.3461L81.1672 22.9339ZM83.8357 21.6772C84.3046 21.1 84.5709 20.2645 84.6696 19.212L84.0722 19.156C83.9789 20.1515 83.7331 20.852 83.37 21.2988L83.8357 21.6772ZM84.6701 19.2054C84.7341 18.3096 84.7981 17.4299 84.8621 16.5662L84.2637 16.5218C84.1997 17.3861 84.1357 18.2664 84.0716 19.1626L84.6701 19.2054ZM98.505 20.384L98.7718 20.5212L98.7733 20.5182L98.505 20.384ZM102.249 19.328L102.375 19.0558L102.367 19.0523L102.249 19.328ZM103.305 21.632L103.093 21.4199L103.076 21.437L103.062 21.4567L103.305 21.632ZM102.393 24.752L102.693 24.7703L102.693 24.7595L102.393 24.752ZM102.009 27.776L101.726 27.6751L101.726 27.6751L102.009 27.776ZM101.961 31.232L101.664 31.276L101.666 31.2887L101.961 31.232ZM102.105 34.448L101.808 34.4024L101.807 34.4136L101.806 34.425L102.105 34.448ZM101.625 35.072V34.772H101.585L101.546 34.7826L101.625 35.072ZM97.833 34.208L97.5438 34.2878L97.5459 34.2954L97.5484 34.3029L97.833 34.208ZM97.545 28.352L97.8445 28.3691L97.8445 28.3691L97.545 28.352ZM98.841 15.008L99.0708 14.815L99.0668 14.8104L98.841 15.008ZM99.513 11.504L99.3642 11.2435L99.3642 11.2435L99.513 11.504ZM103.353 11.456L103.176 11.698L103.183 11.7032L103.353 11.456ZM103.593 14.672L103.849 14.8285L103.853 14.8223L103.593 14.672ZM97.941 25.856C97.941 23.3369 98.2303 21.5741 98.7718 20.5212L98.2382 20.2468C97.6277 21.4339 97.341 23.3191 97.341 25.856H97.941ZM98.7733 20.5182C98.9739 20.1171 99.2428 19.8279 99.5778 19.6365C99.9148 19.4439 100.337 19.34 100.857 19.34V18.74C100.257 18.74 99.7272 18.8601 99.2802 19.1155C98.8312 19.3721 98.4841 19.7549 98.2367 20.2498L98.7733 20.5182ZM100.857 19.34C101.296 19.34 101.72 19.4275 102.131 19.6037L102.367 19.0523C101.882 18.8445 101.378 18.74 100.857 18.74V19.34ZM102.123 19.6001C102.97 19.9933 103.293 20.4566 103.293 20.96H103.893C103.893 20.1194 103.32 19.4947 102.375 19.0559L102.123 19.6001ZM103.293 20.96C103.293 21.1312 103.232 21.2803 103.093 21.4199L103.517 21.8441C103.762 21.5997 103.893 21.3008 103.893 20.96H103.293ZM103.062 21.4567C102.441 22.3184 102.126 23.422 102.093 24.7445L102.693 24.7595C102.724 23.522 103.017 22.5456 103.548 21.8073L103.062 21.4567ZM102.094 24.7337C102.046 25.5143 101.99 26.1511 101.927 26.6462C101.864 27.1472 101.795 27.4837 101.726 27.6751L102.292 27.8769C102.383 27.6203 102.458 27.2287 102.523 26.7218C102.588 26.2088 102.644 25.5577 102.692 24.7703L102.094 24.7337ZM101.726 27.6751C101.553 28.1615 101.469 28.7086 101.469 29.312H102.069C102.069 28.7634 102.145 28.2865 102.292 27.8769L101.726 27.6751ZM101.469 29.312C101.469 29.7513 101.536 30.4096 101.664 31.276L102.258 31.188C102.13 30.3264 102.069 29.7047 102.069 29.312H101.469ZM101.666 31.2887C101.825 32.1154 101.901 32.733 101.901 33.152H102.501C102.501 32.675 102.417 32.0126 102.256 31.1753L101.666 31.2887ZM101.901 33.152C101.901 33.5857 101.87 34.0024 101.808 34.4024L102.402 34.4936C102.468 34.0616 102.501 33.6143 102.501 33.152H101.901ZM101.806 34.425C101.792 34.6062 101.752 34.6951 101.723 34.7331C101.706 34.7554 101.686 34.772 101.625 34.772V35.372C101.852 35.372 102.056 35.2846 102.199 35.0989C102.33 34.9289 102.386 34.7058 102.404 34.471L101.806 34.425ZM101.546 34.7826C100.86 34.9698 100.263 35.06 99.753 35.06V35.66C100.331 35.66 100.982 35.5582 101.704 35.3614L101.546 34.7826ZM99.753 35.06C99.2759 35.06 98.9185 34.9702 98.6593 34.8148C98.4061 34.6628 98.225 34.4354 98.1176 34.1131L97.5484 34.3029C97.697 34.7486 97.9639 35.0972 98.3507 35.3292C98.7315 35.5578 99.2061 35.66 99.753 35.66V35.06ZM98.1222 34.1282C97.8754 33.2337 97.749 32.1421 97.749 30.848H97.149C97.149 32.1779 97.2786 33.3263 97.5438 34.2878L98.1222 34.1282ZM97.749 30.848C97.749 30.313 97.7806 29.4881 97.8445 28.3691L97.2455 28.3349C97.1814 29.4559 97.149 30.295 97.149 30.848H97.749ZM97.8445 28.3691C97.9086 27.2481 97.941 26.409 97.941 25.856H97.341C97.341 26.391 97.3094 27.2159 97.2455 28.3349L97.8445 28.3691ZM99.0668 14.8104C98.9071 14.6279 98.805 14.341 98.805 13.904H98.205C98.205 14.427 98.3269 14.8761 98.6152 15.2056L99.0668 14.8104ZM98.805 13.904C98.805 12.73 99.129 12.069 99.6618 11.7645L99.3642 11.2435C98.553 11.707 98.205 12.646 98.205 13.904H98.805ZM99.6618 11.7645C100.289 11.4062 100.958 11.228 101.673 11.228V10.628C100.852 10.628 100.081 10.8338 99.3642 11.2435L99.6618 11.7645ZM101.673 11.228C102.254 11.228 102.751 11.3866 103.176 11.6979L103.53 11.2141C102.995 10.8214 102.372 10.628 101.673 10.628V11.228ZM103.183 11.7032C103.611 11.9973 103.821 12.3992 103.821 12.944H104.421C104.421 12.2088 104.119 11.6187 103.523 11.2088L103.183 11.7032ZM103.821 12.944C103.821 13.422 103.666 13.9464 103.333 14.5217L103.853 14.8223C104.224 14.1816 104.421 13.554 104.421 12.944H103.821ZM103.337 14.5156C102.999 15.0693 102.662 15.4236 102.338 15.6129L102.64 16.1311C103.084 15.8724 103.483 15.4267 103.849 14.8284L103.337 14.5156ZM102.338 15.6129C102 15.8099 101.636 15.908 101.241 15.908V16.508C101.742 16.508 102.21 16.3821 102.64 16.1311L102.338 15.6129ZM101.241 15.908C100.413 15.908 99.6938 15.5568 99.0707 14.815L98.6113 15.201C99.3322 16.0592 100.213 16.508 101.241 16.508V15.908Z" fill="#19235B" mask="url(#path-2-inside-1_7178_8582)"/>
<mask id="path-4-outside-2_7178_8582" maskUnits="userSpaceOnUse" x="60" y="44" width="90" height="41" fill="black">
<rect fill="white" x="60" y="44" width="90" height="41"/>
<path d="M70.272 76C69.152 76 68.528 75.76 68.4 75.28C68.144 74.288 67.536 73.04 66.576 71.536C65.648 70.032 65.072 68.928 64.848 68.224C63.952 65.952 63.056 63.68 62.16 61.408C61.104 58.688 60.576 56.368 60.576 54.448C60.576 54.096 60.608 53.728 60.672 53.344C60.736 52.928 61.104 52.464 61.776 51.952C62.448 51.44 63.088 51.184 63.696 51.184C64.24 51.184 64.624 51.44 64.848 51.952C65.296 52.976 65.984 55.392 66.912 59.2C67.68 62.336 68.656 64.72 69.84 66.352C70.896 64.048 71.84 60.816 72.672 56.656C73.696 51.696 74.48 48.4 75.024 46.768C75.152 46.384 75.52 46.048 76.128 45.76C76.736 45.44 77.344 45.28 77.952 45.28C79.136 45.28 79.648 45.856 79.488 47.008C78.72 51.904 77.312 58.032 75.264 65.392C74.496 68.048 73.856 71.04 73.344 74.368C73.248 74.816 72.896 75.2 72.288 75.52C71.68 75.84 71.008 76 70.272 76ZM81.5629 63.856C81.5629 61.328 81.8509 59.504 82.4269 58.384C82.8749 57.488 83.6589 57.04 84.7789 57.04C85.2589 57.04 85.7229 57.136 86.1709 57.328C87.0669 57.744 87.5149 58.288 87.5149 58.96C87.5149 59.216 87.4189 59.44 87.2269 59.632C86.6509 60.432 86.3469 61.472 86.3149 62.752C86.2189 64.32 86.0909 65.328 85.9309 65.776C85.7709 66.224 85.6909 66.736 85.6909 67.312C85.6909 67.728 85.7549 68.368 85.8829 69.232C86.0429 70.064 86.1229 70.704 86.1229 71.152C86.1229 71.6 86.0909 72.032 86.0269 72.448C85.9949 72.864 85.8349 73.072 85.5469 73.072C84.8429 73.264 84.2189 73.36 83.6749 73.36C82.6509 73.36 82.0109 72.976 81.7549 72.208C81.4989 71.28 81.3709 70.16 81.3709 68.848C81.3709 68.304 81.4029 67.472 81.4669 66.352C81.5309 65.232 81.5629 64.4 81.5629 63.856ZM82.7629 53.008C82.5389 52.752 82.4269 52.384 82.4269 51.904C82.4269 50.688 82.7629 49.888 83.4349 49.504C84.1069 49.12 84.8269 48.928 85.5949 48.928C86.2349 48.928 86.7949 49.104 87.2749 49.456C87.7869 49.808 88.0429 50.304 88.0429 50.944C88.0429 51.488 87.8669 52.064 87.5149 52.672C87.1629 53.248 86.7949 53.648 86.4109 53.872C86.0269 54.096 85.6109 54.208 85.1629 54.208C84.2349 54.208 83.4349 53.808 82.7629 53.008ZM96.4223 54.544C96.5823 53.456 96.8223 51.824 97.1423 49.648C97.2703 48.368 98.1023 47.728 99.6383 47.728C100.566 47.728 101.43 47.984 102.23 48.496C102.614 48.88 102.694 49.424 102.47 50.128C101.222 52.816 100.598 56.08 100.598 59.92C103.638 59.632 105.094 59.488 104.966 59.488C106.63 59.488 107.462 59.952 107.462 60.88C107.462 61.072 107.43 61.28 107.366 61.504C107.046 62.528 106.022 63.152 104.294 63.376C103.686 63.472 102.182 63.52 99.7823 63.52C99.7183 63.872 99.6863 64.4 99.6863 65.104C99.6863 66.64 99.8943 69.824 100.31 74.656C100.662 79.168 100.806 81.872 100.742 82.768C100.678 83.856 100.118 84.4 99.0623 84.4C98.0703 84.4 97.3983 83.888 97.0463 82.864C96.7583 82.064 96.4543 78.832 96.1343 73.168C95.8463 67.76 95.4463 64.592 94.9343 63.664C93.6223 64.656 92.3263 65.152 91.0463 65.152C90.4703 65.152 89.9583 64.992 89.5103 64.672C88.9663 64.32 88.6943 63.872 88.6943 63.328C88.6943 62.656 89.1103 62.048 89.9423 61.504C90.3583 61.312 91.3663 61.024 92.9663 60.64C94.2143 60.384 95.0463 60 95.4622 59.488C95.8783 58.976 96.1343 58.208 96.2303 57.184C96.2943 56.288 96.3583 55.408 96.4223 54.544ZM109.5 63.856C109.5 61.328 109.788 59.504 110.364 58.384C110.812 57.488 111.596 57.04 112.716 57.04C113.196 57.04 113.66 57.136 114.108 57.328C115.004 57.744 115.452 58.288 115.452 58.96C115.452 59.216 115.356 59.44 115.164 59.632C114.588 60.432 114.284 61.472 114.252 62.752C114.156 64.32 114.028 65.328 113.868 65.776C113.708 66.224 113.628 66.736 113.628 67.312C113.628 67.728 113.692 68.368 113.82 69.232C113.98 70.064 114.06 70.704 114.06 71.152C114.06 71.6 114.028 72.032 113.964 72.448C113.932 72.864 113.772 73.072 113.484 73.072C112.78 73.264 112.156 73.36 111.612 73.36C110.588 73.36 109.948 72.976 109.692 72.208C109.436 71.28 109.308 70.16 109.308 68.848C109.308 68.304 109.34 67.472 109.404 66.352C109.468 65.232 109.5 64.4 109.5 63.856ZM110.7 53.008C110.476 52.752 110.364 52.384 110.364 51.904C110.364 50.688 110.7 49.888 111.372 49.504C112.044 49.12 112.764 48.928 113.532 48.928C114.172 48.928 114.732 49.104 115.212 49.456C115.724 49.808 115.98 50.304 115.98 50.944C115.98 51.488 115.804 52.064 115.452 52.672C115.1 53.248 114.732 53.648 114.348 53.872C113.964 54.096 113.548 54.208 113.1 54.208C112.172 54.208 111.372 53.808 110.7 53.008ZM117.4 62.464C117.368 60.288 118.008 58.48 119.32 57.04C120.632 55.568 122.312 54.832 124.36 54.832C126.536 54.832 128.456 55.664 130.12 57.328C131.816 58.96 132.648 60.88 132.616 63.088C132.328 63.984 131.128 65.056 129.016 66.304C126.392 67.872 124.936 68.8 124.648 69.088C124.104 69.344 123.832 69.616 123.832 69.904C123.832 70.416 124.184 70.88 124.888 71.296C125.592 71.68 126.216 71.872 126.76 71.872C127.816 71.872 129.336 71.36 131.32 70.336C131.928 70.784 132.232 71.392 132.232 72.16C132.232 72.768 132.04 73.328 131.656 73.84C131.272 74.352 130.776 74.656 130.168 74.752C128.12 75.072 126.824 75.232 126.28 75.232C125.192 75.232 124.216 75.04 123.352 74.656C119.544 72.96 117.56 68.896 117.4 62.464ZM122.632 64.912C125.48 64.784 127.208 63.776 127.816 61.888C127.944 61.632 128.008 61.376 128.008 61.12C128.008 60.448 127.656 59.904 126.952 59.488C126.248 59.072 125.464 58.864 124.6 58.864C123.96 58.864 123.416 58.992 122.968 59.248C122.04 59.728 121.576 60.736 121.576 62.272C121.576 63.968 121.928 64.848 122.632 64.912ZM142.689 54.544C143.905 55.024 145.121 55.52 146.337 56.032C147.649 56.672 148.545 57.472 149.025 58.432C149.121 58.56 149.169 58.736 149.169 58.96C149.169 59.856 148.865 60.496 148.257 60.88C147.969 61.04 147.649 61.12 147.297 61.12C146.753 61.12 145.729 60.672 144.225 59.776C142.721 58.88 141.537 58.432 140.673 58.432C140.033 58.432 139.409 58.608 138.801 58.96C138.513 59.152 138.369 59.424 138.369 59.776C138.369 60.224 138.625 60.736 139.137 61.312C139.681 61.888 140.161 62.256 140.577 62.416C143.905 63.6 146.433 64.992 148.161 66.592C148.737 67.136 149.025 67.888 149.025 68.848C149.025 69.968 148.673 71.104 147.969 72.256C147.297 73.408 146.177 74.384 144.609 75.184C143.073 75.952 141.489 76.336 139.857 76.336C136.977 76.336 134.961 75.136 133.809 72.736C133.713 72.544 133.665 72.32 133.665 72.064C133.665 71.52 133.921 71.024 134.433 70.576C134.945 70.096 135.489 69.84 136.065 69.808C136.513 69.744 136.913 70.032 137.265 70.672C137.681 71.408 138.017 71.84 138.273 71.968C138.849 72.256 139.505 72.4 140.241 72.4C141.361 72.4 142.337 72.112 143.169 71.536C144.033 70.928 144.465 70.144 144.465 69.184C144.465 68.448 143.729 67.744 142.257 67.072C140.625 66.368 139.009 65.68 137.409 65.008C135.681 64.112 134.481 62.976 133.809 61.6C133.617 61.184 133.521 60.768 133.521 60.352C133.521 58.912 134.433 57.52 136.257 56.176C137.985 54.896 139.681 54.256 141.345 54.256C141.857 54.256 142.305 54.352 142.689 54.544Z"/>
</mask>
<path d="M70.272 76C69.152 76 68.528 75.76 68.4 75.28C68.144 74.288 67.536 73.04 66.576 71.536C65.648 70.032 65.072 68.928 64.848 68.224C63.952 65.952 63.056 63.68 62.16 61.408C61.104 58.688 60.576 56.368 60.576 54.448C60.576 54.096 60.608 53.728 60.672 53.344C60.736 52.928 61.104 52.464 61.776 51.952C62.448 51.44 63.088 51.184 63.696 51.184C64.24 51.184 64.624 51.44 64.848 51.952C65.296 52.976 65.984 55.392 66.912 59.2C67.68 62.336 68.656 64.72 69.84 66.352C70.896 64.048 71.84 60.816 72.672 56.656C73.696 51.696 74.48 48.4 75.024 46.768C75.152 46.384 75.52 46.048 76.128 45.76C76.736 45.44 77.344 45.28 77.952 45.28C79.136 45.28 79.648 45.856 79.488 47.008C78.72 51.904 77.312 58.032 75.264 65.392C74.496 68.048 73.856 71.04 73.344 74.368C73.248 74.816 72.896 75.2 72.288 75.52C71.68 75.84 71.008 76 70.272 76ZM81.5629 63.856C81.5629 61.328 81.8509 59.504 82.4269 58.384C82.8749 57.488 83.6589 57.04 84.7789 57.04C85.2589 57.04 85.7229 57.136 86.1709 57.328C87.0669 57.744 87.5149 58.288 87.5149 58.96C87.5149 59.216 87.4189 59.44 87.2269 59.632C86.6509 60.432 86.3469 61.472 86.3149 62.752C86.2189 64.32 86.0909 65.328 85.9309 65.776C85.7709 66.224 85.6909 66.736 85.6909 67.312C85.6909 67.728 85.7549 68.368 85.8829 69.232C86.0429 70.064 86.1229 70.704 86.1229 71.152C86.1229 71.6 86.0909 72.032 86.0269 72.448C85.9949 72.864 85.8349 73.072 85.5469 73.072C84.8429 73.264 84.2189 73.36 83.6749 73.36C82.6509 73.36 82.0109 72.976 81.7549 72.208C81.4989 71.28 81.3709 70.16 81.3709 68.848C81.3709 68.304 81.4029 67.472 81.4669 66.352C81.5309 65.232 81.5629 64.4 81.5629 63.856ZM82.7629 53.008C82.5389 52.752 82.4269 52.384 82.4269 51.904C82.4269 50.688 82.7629 49.888 83.4349 49.504C84.1069 49.12 84.8269 48.928 85.5949 48.928C86.2349 48.928 86.7949 49.104 87.2749 49.456C87.7869 49.808 88.0429 50.304 88.0429 50.944C88.0429 51.488 87.8669 52.064 87.5149 52.672C87.1629 53.248 86.7949 53.648 86.4109 53.872C86.0269 54.096 85.6109 54.208 85.1629 54.208C84.2349 54.208 83.4349 53.808 82.7629 53.008ZM96.4223 54.544C96.5823 53.456 96.8223 51.824 97.1423 49.648C97.2703 48.368 98.1023 47.728 99.6383 47.728C100.566 47.728 101.43 47.984 102.23 48.496C102.614 48.88 102.694 49.424 102.47 50.128C101.222 52.816 100.598 56.08 100.598 59.92C103.638 59.632 105.094 59.488 104.966 59.488C106.63 59.488 107.462 59.952 107.462 60.88C107.462 61.072 107.43 61.28 107.366 61.504C107.046 62.528 106.022 63.152 104.294 63.376C103.686 63.472 102.182 63.52 99.7823 63.52C99.7183 63.872 99.6863 64.4 99.6863 65.104C99.6863 66.64 99.8943 69.824 100.31 74.656C100.662 79.168 100.806 81.872 100.742 82.768C100.678 83.856 100.118 84.4 99.0623 84.4C98.0703 84.4 97.3983 83.888 97.0463 82.864C96.7583 82.064 96.4543 78.832 96.1343 73.168C95.8463 67.76 95.4463 64.592 94.9343 63.664C93.6223 64.656 92.3263 65.152 91.0463 65.152C90.4703 65.152 89.9583 64.992 89.5103 64.672C88.9663 64.32 88.6943 63.872 88.6943 63.328C88.6943 62.656 89.1103 62.048 89.9423 61.504C90.3583 61.312 91.3663 61.024 92.9663 60.64C94.2143 60.384 95.0463 60 95.4622 59.488C95.8783 58.976 96.1343 58.208 96.2303 57.184C96.2943 56.288 96.3583 55.408 96.4223 54.544ZM109.5 63.856C109.5 61.328 109.788 59.504 110.364 58.384C110.812 57.488 111.596 57.04 112.716 57.04C113.196 57.04 113.66 57.136 114.108 57.328C115.004 57.744 115.452 58.288 115.452 58.96C115.452 59.216 115.356 59.44 115.164 59.632C114.588 60.432 114.284 61.472 114.252 62.752C114.156 64.32 114.028 65.328 113.868 65.776C113.708 66.224 113.628 66.736 113.628 67.312C113.628 67.728 113.692 68.368 113.82 69.232C113.98 70.064 114.06 70.704 114.06 71.152C114.06 71.6 114.028 72.032 113.964 72.448C113.932 72.864 113.772 73.072 113.484 73.072C112.78 73.264 112.156 73.36 111.612 73.36C110.588 73.36 109.948 72.976 109.692 72.208C109.436 71.28 109.308 70.16 109.308 68.848C109.308 68.304 109.34 67.472 109.404 66.352C109.468 65.232 109.5 64.4 109.5 63.856ZM110.7 53.008C110.476 52.752 110.364 52.384 110.364 51.904C110.364 50.688 110.7 49.888 111.372 49.504C112.044 49.12 112.764 48.928 113.532 48.928C114.172 48.928 114.732 49.104 115.212 49.456C115.724 49.808 115.98 50.304 115.98 50.944C115.98 51.488 115.804 52.064 115.452 52.672C115.1 53.248 114.732 53.648 114.348 53.872C113.964 54.096 113.548 54.208 113.1 54.208C112.172 54.208 111.372 53.808 110.7 53.008ZM117.4 62.464C117.368 60.288 118.008 58.48 119.32 57.04C120.632 55.568 122.312 54.832 124.36 54.832C126.536 54.832 128.456 55.664 130.12 57.328C131.816 58.96 132.648 60.88 132.616 63.088C132.328 63.984 131.128 65.056 129.016 66.304C126.392 67.872 124.936 68.8 124.648 69.088C124.104 69.344 123.832 69.616 123.832 69.904C123.832 70.416 124.184 70.88 124.888 71.296C125.592 71.68 126.216 71.872 126.76 71.872C127.816 71.872 129.336 71.36 131.32 70.336C131.928 70.784 132.232 71.392 132.232 72.16C132.232 72.768 132.04 73.328 131.656 73.84C131.272 74.352 130.776 74.656 130.168 74.752C128.12 75.072 126.824 75.232 126.28 75.232C125.192 75.232 124.216 75.04 123.352 74.656C119.544 72.96 117.56 68.896 117.4 62.464ZM122.632 64.912C125.48 64.784 127.208 63.776 127.816 61.888C127.944 61.632 128.008 61.376 128.008 61.12C128.008 60.448 127.656 59.904 126.952 59.488C126.248 59.072 125.464 58.864 124.6 58.864C123.96 58.864 123.416 58.992 122.968 59.248C122.04 59.728 121.576 60.736 121.576 62.272C121.576 63.968 121.928 64.848 122.632 64.912ZM142.689 54.544C143.905 55.024 145.121 55.52 146.337 56.032C147.649 56.672 148.545 57.472 149.025 58.432C149.121 58.56 149.169 58.736 149.169 58.96C149.169 59.856 148.865 60.496 148.257 60.88C147.969 61.04 147.649 61.12 147.297 61.12C146.753 61.12 145.729 60.672 144.225 59.776C142.721 58.88 141.537 58.432 140.673 58.432C140.033 58.432 139.409 58.608 138.801 58.96C138.513 59.152 138.369 59.424 138.369 59.776C138.369 60.224 138.625 60.736 139.137 61.312C139.681 61.888 140.161 62.256 140.577 62.416C143.905 63.6 146.433 64.992 148.161 66.592C148.737 67.136 149.025 67.888 149.025 68.848C149.025 69.968 148.673 71.104 147.969 72.256C147.297 73.408 146.177 74.384 144.609 75.184C143.073 75.952 141.489 76.336 139.857 76.336C136.977 76.336 134.961 75.136 133.809 72.736C133.713 72.544 133.665 72.32 133.665 72.064C133.665 71.52 133.921 71.024 134.433 70.576C134.945 70.096 135.489 69.84 136.065 69.808C136.513 69.744 136.913 70.032 137.265 70.672C137.681 71.408 138.017 71.84 138.273 71.968C138.849 72.256 139.505 72.4 140.241 72.4C141.361 72.4 142.337 72.112 143.169 71.536C144.033 70.928 144.465 70.144 144.465 69.184C144.465 68.448 143.729 67.744 142.257 67.072C140.625 66.368 139.009 65.68 137.409 65.008C135.681 64.112 134.481 62.976 133.809 61.6C133.617 61.184 133.521 60.768 133.521 60.352C133.521 58.912 134.433 57.52 136.257 56.176C137.985 54.896 139.681 54.256 141.345 54.256C141.857 54.256 142.305 54.352 142.689 54.544Z" fill="#E20000"/>
<path d="M68.4 75.28L68.1095 75.355L68.1101 75.3573L68.4 75.28ZM66.576 71.536L66.3207 71.6936L66.3231 71.6974L66.576 71.536ZM64.848 68.224L65.1339 68.133L65.1308 68.1234L65.1271 68.1139L64.848 68.224ZM62.16 61.408L61.8803 61.5166L61.8809 61.5181L62.16 61.408ZM60.672 53.344L60.9679 53.3933L60.9685 53.3896L60.672 53.344ZM61.776 51.952L61.5942 51.7134L61.5942 51.7134L61.776 51.952ZM64.848 51.952L65.1228 51.8318L65.1228 51.8318L64.848 51.952ZM66.912 59.2L66.6205 59.271L66.6206 59.2714L66.912 59.2ZM69.84 66.352L69.5972 66.5282L69.8987 66.9438L70.1127 66.477L69.84 66.352ZM72.672 56.656L72.3782 56.5953L72.3778 56.5972L72.672 56.656ZM75.024 46.768L75.3086 46.8629L75.3086 46.8629L75.024 46.768ZM76.128 45.76L76.2565 46.0314L76.2677 46.0255L76.128 45.76ZM79.488 47.008L79.7844 47.0545L79.7851 47.0493L79.488 47.008ZM75.264 65.392L75.5522 65.4753L75.553 65.4724L75.264 65.392ZM73.344 74.368L73.6373 74.4309L73.6392 74.4223L73.6405 74.4136L73.344 74.368ZM70.272 75.7C69.7274 75.7 69.3338 75.6408 69.0717 75.54C68.8157 75.4415 68.7211 75.3197 68.6899 75.2027L68.1101 75.3573C68.2069 75.7203 68.4883 75.9585 68.8563 76.1C69.2182 76.2392 69.6966 76.3 70.272 76.3V75.7ZM68.6905 75.205C68.4228 74.1678 67.7953 72.8886 66.8289 71.3746L66.3231 71.6974C67.2767 73.1914 67.8652 74.4082 68.1095 75.355L68.6905 75.205ZM66.8313 71.3785C65.9033 69.8745 65.3455 68.7983 65.1339 68.133L64.5621 68.315C64.7985 69.0577 65.3927 70.1895 66.3207 71.6935L66.8313 71.3785ZM65.1271 68.1139C64.2311 65.8419 63.3351 63.5699 62.4391 61.2979L61.8809 61.5181C62.7769 63.7901 63.6729 66.0621 64.5689 68.3341L65.1271 68.1139ZM62.4397 61.2994C61.3908 58.5979 60.876 56.3168 60.876 54.448H60.276C60.276 56.4192 60.8172 58.7781 61.8803 61.5166L62.4397 61.2994ZM60.876 54.448C60.876 54.1142 60.9064 53.7627 60.9679 53.3933L60.3761 53.2947C60.3096 53.6933 60.276 54.0778 60.276 54.448H60.876ZM60.9685 53.3896C61.0134 53.098 61.294 52.6964 61.9578 52.1906L61.5942 51.7134C60.914 52.2316 60.4586 52.758 60.3755 53.2984L60.9685 53.3896ZM61.9578 52.1906C62.5975 51.7032 63.175 51.484 63.696 51.484V50.884C63.001 50.884 62.2985 51.1768 61.5942 51.7134L61.9578 52.1906ZM63.696 51.484C63.9196 51.484 64.0912 51.536 64.2256 51.6256C64.3606 51.7156 64.4793 51.8577 64.5732 52.0722L65.1228 51.8318C64.9927 51.5343 64.8074 51.2924 64.5584 51.1264C64.3088 50.96 64.0164 50.884 63.696 50.884V51.484ZM64.5732 52.0722C65.0086 53.0675 65.6908 55.4558 66.6205 59.271L67.2035 59.129C66.2772 55.3282 65.5834 52.8845 65.1228 51.8318L64.5732 52.0722ZM66.6206 59.2714C67.393 62.4251 68.3808 64.8515 69.5972 66.5282L70.0828 66.1758C68.9312 64.5885 67.967 62.2469 67.2034 59.1286L66.6206 59.2714ZM70.1127 66.477C71.1827 64.1424 72.1322 60.8846 72.9662 56.7148L72.3778 56.5972C71.5478 60.7474 70.6093 63.9536 69.5673 66.227L70.1127 66.477ZM72.9658 56.7167C73.9904 51.754 74.7711 48.4753 75.3086 46.8629L74.7394 46.6731C74.1889 48.3247 73.4016 51.638 72.3782 56.5953L72.9658 56.7167ZM75.3086 46.8629C75.398 46.5946 75.6757 46.3062 76.2564 46.0311L75.9996 45.4889C75.3643 45.7898 74.906 46.1734 74.7394 46.6731L75.3086 46.8629ZM76.2677 46.0255C76.8383 45.7252 77.3987 45.58 77.952 45.58V44.98C77.2893 44.98 76.6337 45.1548 75.9883 45.4945L76.2677 46.0255ZM77.952 45.58C78.5041 45.58 78.8253 45.7151 78.9998 45.9113C79.1729 46.1061 79.265 46.4329 79.1909 46.9667L79.7851 47.0493C79.871 46.4311 79.7871 45.8939 79.4482 45.5127C79.1107 45.1329 78.5839 44.98 77.952 44.98V45.58ZM79.1916 46.9615C78.4261 51.8417 77.0213 57.9575 74.975 65.3116L75.553 65.4724C77.6027 58.1065 79.0139 51.9663 79.7844 47.0545L79.1916 46.9615ZM74.9758 65.3087C74.2036 67.9794 73.561 70.9843 73.0475 74.3224L73.6405 74.4136C74.151 71.0957 74.7884 68.1166 75.5522 65.4753L74.9758 65.3087ZM73.0507 74.3051C72.9811 74.63 72.7176 74.9549 72.1483 75.2545L72.4277 75.7855C73.0744 75.4451 73.5149 75.002 73.6373 74.4309L73.0507 74.3051ZM72.1483 75.2545C71.5864 75.5502 70.9629 75.7 70.272 75.7V76.3C71.0531 76.3 71.7736 76.1298 72.4277 75.7855L72.1483 75.2545ZM82.4269 58.384L82.6937 58.5212L82.6952 58.5182L82.4269 58.384ZM86.1709 57.328L86.2973 57.0558L86.2891 57.0523L86.1709 57.328ZM87.2269 59.632L87.0147 59.4199L86.9976 59.437L86.9834 59.4567L87.2269 59.632ZM86.3149 62.752L86.6145 62.7703L86.6148 62.7595L86.3149 62.752ZM85.9309 65.776L85.6484 65.6751L85.6484 65.6751L85.9309 65.776ZM85.8829 69.232L85.5858 69.276L85.5883 69.2887L85.8829 69.232ZM86.0269 72.448L85.7304 72.4024L85.7286 72.4136L85.7278 72.425L86.0269 72.448ZM85.5469 73.072V72.772H85.5067L85.4679 72.7826L85.5469 73.072ZM81.7549 72.208L81.4657 72.2878L81.4678 72.2954L81.4703 72.3029L81.7549 72.208ZM81.4669 66.352L81.7664 66.3691L81.7664 66.3691L81.4669 66.352ZM82.7629 53.008L82.9926 52.815L82.9886 52.8104L82.7629 53.008ZM83.4349 49.504L83.286 49.2435L83.286 49.2435L83.4349 49.504ZM87.2749 49.456L87.0974 49.698L87.1049 49.7032L87.2749 49.456ZM87.5149 52.672L87.7709 52.8285L87.7745 52.8223L87.5149 52.672ZM81.8629 63.856C81.8629 61.3369 82.1522 59.5741 82.6937 58.5212L82.1601 58.2468C81.5496 59.4339 81.2629 61.3191 81.2629 63.856H81.8629ZM82.6952 58.5182C82.8957 58.1171 83.1647 57.8279 83.4997 57.6365C83.8367 57.4439 84.2587 57.34 84.7789 57.34V56.74C84.1791 56.74 83.649 56.8601 83.202 57.1155C82.7531 57.3721 82.406 57.7549 82.1585 58.2498L82.6952 58.5182ZM84.7789 57.34C85.2176 57.34 85.6415 57.4275 86.0527 57.6037L86.2891 57.0523C85.8043 56.8445 85.3001 56.74 84.7789 56.74V57.34ZM86.0445 57.6001C86.8914 57.9933 87.2149 58.4566 87.2149 58.96H87.8149C87.8149 58.1194 87.2423 57.4947 86.2972 57.0559L86.0445 57.6001ZM87.2149 58.96C87.2149 59.1312 87.1543 59.2803 87.0147 59.4199L87.439 59.8441C87.6835 59.5997 87.8149 59.3008 87.8149 58.96H87.2149ZM86.9834 59.4567C86.363 60.3184 86.048 61.422 86.015 62.7445L86.6148 62.7595C86.6457 61.522 86.9388 60.5456 87.4703 59.8073L86.9834 59.4567ZM86.0154 62.7337C85.9676 63.5143 85.9121 64.1511 85.8493 64.6462C85.7856 65.1472 85.7167 65.4837 85.6484 65.6751L86.2134 65.8769C86.3051 65.6203 86.3801 65.2287 86.4445 64.7218C86.5096 64.2088 86.5661 63.5577 86.6143 62.7703L86.0154 62.7337ZM85.6484 65.6751C85.4746 66.1615 85.3909 66.7086 85.3909 67.312H85.9909C85.9909 66.7634 86.0671 66.2865 86.2134 65.8769L85.6484 65.6751ZM85.3909 67.312C85.3909 67.7513 85.4578 68.4096 85.5861 69.276L86.1796 69.188C86.052 68.3264 85.9909 67.7047 85.9909 67.312H85.3909ZM85.5883 69.2887C85.7473 70.1154 85.8229 70.733 85.8229 71.152H86.4229C86.4229 70.675 86.3385 70.0126 86.1775 69.1753L85.5883 69.2887ZM85.8229 71.152C85.8229 71.5857 85.7919 72.0024 85.7304 72.4024L86.3234 72.4936C86.3899 72.0616 86.4229 71.6143 86.4229 71.152H85.8229ZM85.7278 72.425C85.7138 72.6062 85.6743 72.6951 85.6451 72.7331C85.628 72.7554 85.6082 72.772 85.5469 72.772V73.372C85.7736 73.372 85.9778 73.2846 86.1207 73.0989C86.2515 72.9289 86.3079 72.7058 86.326 72.471L85.7278 72.425ZM85.4679 72.7826C84.7815 72.9698 84.1849 73.06 83.6749 73.06V73.66C84.2528 73.66 84.9042 73.5582 85.6258 73.3614L85.4679 72.7826ZM83.6749 73.06C83.1978 73.06 82.8404 72.9702 82.5812 72.8148C82.328 72.6628 82.1469 72.4354 82.0395 72.1131L81.4703 72.3029C81.6188 72.7486 81.8857 73.0972 82.2725 73.3292C82.6534 73.5578 83.1279 73.66 83.6749 73.66V73.06ZM82.0441 72.1282C81.7973 71.2337 81.6709 70.1421 81.6709 68.848H81.0709C81.0709 70.1779 81.2004 71.3263 81.4657 72.2878L82.0441 72.1282ZM81.6709 68.848C81.6709 68.313 81.7024 67.4881 81.7664 66.3691L81.1674 66.3349C81.1033 67.4559 81.0709 68.295 81.0709 68.848H81.6709ZM81.7664 66.3691C81.8304 65.2481 81.8629 64.409 81.8629 63.856H81.2629C81.2629 64.391 81.2313 65.2159 81.1674 66.3349L81.7664 66.3691ZM82.9886 52.8104C82.829 52.6279 82.7269 52.341 82.7269 51.904H82.1269C82.1269 52.427 82.2488 52.8761 82.5371 53.2056L82.9886 52.8104ZM82.7269 51.904C82.7269 50.73 83.0508 50.069 83.5837 49.7645L83.286 49.2435C82.4749 49.707 82.1269 50.646 82.1269 51.904H82.7269ZM83.5837 49.7645C84.2108 49.4062 84.8795 49.228 85.5949 49.228V48.628C84.7742 48.628 84.003 48.8338 83.286 49.2435L83.5837 49.7645ZM85.5949 49.228C86.1762 49.228 86.6729 49.3866 87.0975 49.6979L87.4523 49.2141C86.9169 48.8214 86.2936 48.628 85.5949 48.628V49.228ZM87.1049 49.7032C87.5326 49.9973 87.7429 50.3992 87.7429 50.944H88.3429C88.3429 50.2088 88.0411 49.6187 87.4448 49.2088L87.1049 49.7032ZM87.7429 50.944C87.7429 51.422 87.5883 51.9464 87.2552 52.5217L87.7745 52.8223C88.1454 52.1816 88.3429 51.554 88.3429 50.944H87.7429ZM87.2589 52.5156C86.9205 53.0693 86.5842 53.4236 86.2597 53.6129L86.562 54.1311C87.0055 53.8724 87.4053 53.4267 87.7709 52.8284L87.2589 52.5156ZM86.2597 53.6129C85.922 53.8099 85.5582 53.908 85.1629 53.908V54.508C85.6636 54.508 86.1318 54.3821 86.562 54.1311L86.2597 53.6129ZM85.1629 53.908C84.3353 53.908 83.6156 53.5568 82.9926 52.815L82.5332 53.201C83.2541 54.0592 84.1344 54.508 85.1629 54.508V53.908ZM96.4223 54.544L96.1254 54.5004L96.1239 54.5111L96.1231 54.5218L96.4223 54.544ZM97.1423 49.648L97.4394 49.6917L97.4408 49.6778L97.1423 49.648ZM102.23 48.496L102.442 48.2839L102.419 48.2609L102.392 48.2433L102.23 48.496ZM102.47 50.128L102.742 50.2543L102.75 50.2371L102.756 50.219L102.47 50.128ZM100.598 59.92H100.298V60.2498L100.627 60.2187L100.598 59.92ZM107.366 61.504L107.653 61.5935L107.655 61.5864L107.366 61.504ZM104.294 63.376L104.256 63.0784L104.247 63.0797L104.294 63.376ZM99.7823 63.52V63.22H99.5319L99.4871 63.4663L99.7823 63.52ZM100.31 74.656L100.609 74.6327L100.609 74.6303L100.31 74.656ZM100.742 82.768L100.443 82.7466L100.443 82.7504L100.742 82.768ZM97.0463 82.864L97.33 82.7665L97.3285 82.7624L97.0463 82.864ZM96.1343 73.168L95.8347 73.184L95.8347 73.1849L96.1343 73.168ZM94.9343 63.664L95.1969 63.5191L95.0296 63.2158L94.7533 63.4247L94.9343 63.664ZM89.5103 64.672L89.6848 64.4276L89.6732 64.4201L89.5103 64.672ZM89.9423 61.504L89.8165 61.2316L89.7965 61.2408L89.7781 61.2529L89.9423 61.504ZM92.9663 60.64L92.9059 60.346L92.8962 60.3483L92.9663 60.64ZM95.4622 59.488L95.2294 59.2988L95.2294 59.2988L95.4622 59.488ZM96.2303 57.184L96.529 57.212L96.5295 57.2054L96.2303 57.184ZM96.7191 54.5876C96.8791 53.4996 97.1191 51.8676 97.4391 49.6916L96.8454 49.6044C96.5254 51.7804 96.2854 53.4124 96.1254 54.5004L96.7191 54.5876ZM97.4408 49.6778C97.4985 49.1002 97.709 48.7043 98.0452 48.4458C98.3894 48.181 98.9069 48.028 99.6383 48.028V47.428C98.8336 47.428 98.1672 47.595 97.6793 47.9702C97.1835 48.3517 96.914 48.9158 96.8437 49.6181L97.4408 49.6778ZM99.6383 48.028C100.508 48.028 101.316 48.2668 102.069 48.7487L102.392 48.2433C101.545 47.7012 100.625 47.428 99.6383 47.428V48.028ZM102.018 48.7081C102.295 48.9845 102.389 49.3955 102.184 50.037L102.756 50.219C103 49.4525 102.934 48.7755 102.442 48.2839L102.018 48.7081ZM102.198 50.0017C100.927 52.7391 100.298 56.0488 100.298 59.92H100.898C100.898 56.1112 101.517 52.8929 102.742 50.2543L102.198 50.0017ZM100.627 60.2187C102.147 60.0747 103.271 59.9666 104 59.8945C104.364 59.8585 104.63 59.8314 104.798 59.8133C104.881 59.8043 104.942 59.7971 104.98 59.7921C104.991 59.7906 105.021 59.7867 105.046 59.7802C105.051 59.7789 105.061 59.7765 105.072 59.7726C105.078 59.7705 105.107 59.7607 105.139 59.7395C105.153 59.7299 105.192 59.703 105.225 59.6535C105.264 59.594 105.297 59.4935 105.255 59.3827C105.22 59.2918 105.154 59.2472 105.13 59.2323C105.101 59.2144 105.075 59.2057 105.063 59.2019C105.037 59.1941 105.017 59.1914 105.01 59.1906C105.001 59.1894 104.993 59.1889 104.988 59.1886C104.979 59.1881 104.971 59.188 104.966 59.188V59.788C104.966 59.788 104.961 59.788 104.954 59.7876C104.95 59.7874 104.944 59.787 104.935 59.7859C104.929 59.7852 104.909 59.7826 104.885 59.7749C104.873 59.7713 104.847 59.7626 104.818 59.7448C104.793 59.7299 104.728 59.6854 104.693 59.5947C104.652 59.4839 104.684 59.3835 104.723 59.3241C104.756 59.2747 104.794 59.2479 104.809 59.2384C104.841 59.2174 104.869 59.2078 104.874 59.206C104.885 59.2024 104.893 59.2001 104.897 59.1991C104.913 59.1949 104.923 59.1944 104.9 59.1974C104.871 59.2014 104.816 59.2077 104.733 59.2167C104.568 59.2346 104.305 59.2615 103.941 59.2975C103.213 59.3694 102.09 59.4773 100.57 59.6213L100.627 60.2187ZM104.966 59.788C105.78 59.788 106.343 59.9032 106.692 60.098C106.862 60.1929 106.976 60.3034 107.049 60.4249C107.121 60.546 107.162 60.6942 107.162 60.88H107.762C107.762 60.6018 107.699 60.344 107.564 60.1171C107.428 59.8906 107.23 59.7111 106.984 59.574C106.502 59.3048 105.816 59.188 104.966 59.188V59.788ZM107.162 60.88C107.162 61.0389 107.136 61.2189 107.078 61.4216L107.655 61.5864C107.725 61.3411 107.762 61.1051 107.762 60.88H107.162ZM107.08 61.4145C106.814 62.2666 105.947 62.8593 104.256 63.0785L104.333 63.6735C106.098 63.4447 107.279 62.7894 107.653 61.5935L107.08 61.4145ZM104.247 63.0797C103.668 63.1712 102.191 63.22 99.7823 63.22V63.82C102.174 63.82 103.705 63.7728 104.341 63.6723L104.247 63.0797ZM99.4871 63.4663C99.4181 63.8458 99.3863 64.3957 99.3863 65.104H99.9863C99.9863 64.4043 100.018 63.8982 100.077 63.5737L99.4871 63.4663ZM99.3863 65.104C99.3863 66.6552 99.5956 69.8524 100.011 74.6817L100.609 74.6303C100.193 69.7956 99.9863 66.6248 99.9863 65.104H99.3863ZM100.011 74.6793C100.364 79.2031 100.505 81.8788 100.443 82.7466L101.041 82.7894C101.108 81.8652 100.96 79.1329 100.609 74.6327L100.011 74.6793ZM100.443 82.7504C100.413 83.2493 100.273 83.5746 100.065 83.7768C99.8586 83.9775 99.5404 84.1 99.0623 84.1V84.7C99.6401 84.7 100.13 84.5505 100.483 84.2072C100.835 83.8654 101.007 83.3747 101.042 82.7856L100.443 82.7504ZM99.0623 84.1C98.6201 84.1 98.2711 83.9869 97.9961 83.7774C97.7189 83.5662 97.4921 83.2381 97.33 82.7665L96.7625 82.9615C96.9524 83.5139 97.2376 83.9538 97.6324 84.2546C98.0294 84.5571 98.5124 84.7 99.0623 84.7V84.1ZM97.3285 82.7624C97.2677 82.5936 97.1981 82.2684 97.1241 81.7644C97.0511 81.2677 96.9767 80.6174 96.9009 79.8119C96.7494 78.2014 96.5937 75.9817 96.4338 73.1511L95.8347 73.1849C95.9948 76.0183 96.1511 78.2466 96.3036 79.8681C96.3798 80.6786 96.4554 81.3403 96.5304 81.8516C96.6044 82.3556 96.6808 82.7344 96.764 82.9656L97.3285 82.7624ZM96.4338 73.152C96.2897 70.445 96.1172 68.2928 95.9159 66.6984C95.8153 65.9014 95.7069 65.2393 95.5901 64.7148C95.4747 64.1966 95.3464 63.79 95.1969 63.5191L94.6716 63.8089C94.7781 64.002 94.8918 64.3394 95.0044 64.8452C95.1156 65.3447 95.2212 65.9866 95.3206 66.7736C95.5193 68.3472 95.6908 70.483 95.8347 73.184L96.4338 73.152ZM94.7533 63.4247C93.4785 64.3886 92.2444 64.852 91.0463 64.852V65.452C92.4081 65.452 93.766 64.9234 95.1152 63.9033L94.7533 63.4247ZM91.0463 64.852C90.5297 64.852 90.0793 64.7098 89.6846 64.4279L89.3359 64.9161C89.8372 65.2742 90.4108 65.452 91.0463 65.452V64.852ZM89.6732 64.4201C89.1958 64.1112 88.9943 63.7496 88.9943 63.328H88.3942C88.3942 63.9944 88.7367 64.5288 89.3473 64.9239L89.6732 64.4201ZM88.9943 63.328C88.9943 62.8 89.3158 62.2721 90.1064 61.7551L89.7781 61.2529C88.9047 61.8239 88.3942 62.512 88.3942 63.328H88.9943ZM90.068 61.7764C90.4515 61.5994 91.4275 61.3178 93.0363 60.9317L92.8962 60.3483C91.305 60.7302 90.265 61.0246 89.8165 61.2316L90.068 61.7764ZM93.0265 60.9339C94.2881 60.6751 95.21 60.2742 95.6951 59.6772L95.2294 59.2988C94.8825 59.7258 94.1404 60.0929 92.906 60.3461L93.0265 60.9339ZM95.6951 59.6772C96.164 59.1 96.4303 58.2645 96.5289 57.212L95.9316 57.156C95.8382 58.1515 95.5925 58.852 95.2294 59.2988L95.6951 59.6772ZM96.5295 57.2054C96.5935 56.3096 96.6575 55.4299 96.7214 54.5662L96.1231 54.5218C96.059 55.3861 95.995 56.2664 95.931 57.1626L96.5295 57.2054ZM110.364 58.384L110.631 58.5212L110.633 58.5182L110.364 58.384ZM114.108 57.328L114.235 57.0558L114.227 57.0523L114.108 57.328ZM115.164 59.632L114.952 59.4199L114.935 59.437L114.921 59.4567L115.164 59.632ZM114.252 62.752L114.552 62.7703L114.552 62.7595L114.252 62.752ZM113.868 65.776L113.586 65.6751L113.586 65.6751L113.868 65.776ZM113.82 69.232L113.523 69.276L113.526 69.2887L113.82 69.232ZM113.964 72.448L113.668 72.4024L113.666 72.4136L113.665 72.425L113.964 72.448ZM113.484 73.072V72.772H113.444L113.405 72.7826L113.484 73.072ZM109.692 72.208L109.403 72.2878L109.405 72.2954L109.408 72.3029L109.692 72.208ZM109.404 66.352L109.704 66.3691L109.704 66.3691L109.404 66.352ZM110.7 53.008L110.93 52.815L110.926 52.8104L110.7 53.008ZM111.372 49.504L111.224 49.2435L111.224 49.2435L111.372 49.504ZM115.212 49.456L115.035 49.698L115.042 49.7032L115.212 49.456ZM115.452 52.672L115.708 52.8285L115.712 52.8223L115.452 52.672ZM109.8 63.856C109.8 61.3369 110.09 59.5741 110.631 58.5212L110.098 58.2468C109.487 59.4339 109.2 61.3191 109.2 63.856H109.8ZM110.633 58.5182C110.833 58.1171 111.102 57.8279 111.437 57.6365C111.774 57.4439 112.196 57.34 112.716 57.34V56.74C112.117 56.74 111.587 56.8601 111.14 57.1155C110.691 57.3721 110.344 57.7549 110.096 58.2498L110.633 58.5182ZM112.716 57.34C113.155 57.34 113.579 57.4275 113.99 57.6037L114.227 57.0523C113.742 56.8445 113.238 56.74 112.716 56.74V57.34ZM113.982 57.6001C114.829 57.9933 115.152 58.4566 115.152 58.96H115.752C115.752 58.1194 115.18 57.4947 114.235 57.0559L113.982 57.6001ZM115.152 58.96C115.152 59.1312 115.092 59.2803 114.952 59.4199L115.377 59.8441C115.621 59.5997 115.752 59.3008 115.752 58.96H115.152ZM114.921 59.4567C114.3 60.3184 113.986 61.422 113.952 62.7445L114.552 62.7595C114.583 61.522 114.876 60.5456 115.408 59.8073L114.921 59.4567ZM113.953 62.7337C113.905 63.5143 113.85 64.1511 113.787 64.6462C113.723 65.1472 113.654 65.4837 113.586 65.6751L114.151 65.8769C114.243 65.6203 114.318 65.2287 114.382 64.7218C114.447 64.2088 114.504 63.5577 114.552 62.7703L113.953 62.7337ZM113.586 65.6751C113.412 66.1615 113.328 66.7086 113.328 67.312H113.928C113.928 66.7634 114.005 66.2865 114.151 65.8769L113.586 65.6751ZM113.328 67.312C113.328 67.7513 113.395 68.4096 113.524 69.276L114.117 69.188C113.989 68.3264 113.928 67.7047 113.928 67.312H113.328ZM113.526 69.2887C113.685 70.1154 113.76 70.733 113.76 71.152H114.36C114.36 70.675 114.276 70.0126 114.115 69.1753L113.526 69.2887ZM113.76 71.152C113.76 71.5857 113.729 72.0024 113.668 72.4024L114.261 72.4936C114.327 72.0616 114.36 71.6143 114.36 71.152H113.76ZM113.665 72.425C113.651 72.6062 113.612 72.6951 113.583 72.7331C113.565 72.7554 113.546 72.772 113.484 72.772V73.372C113.711 73.372 113.915 73.2846 114.058 73.0989C114.189 72.9289 114.245 72.7058 114.263 72.471L113.665 72.425ZM113.405 72.7826C112.719 72.9698 112.122 73.06 111.612 73.06V73.66C112.19 73.66 112.842 73.5582 113.563 73.3614L113.405 72.7826ZM111.612 73.06C111.135 73.06 110.778 72.9702 110.519 72.8148C110.266 72.6628 110.084 72.4354 109.977 72.1131L109.408 72.3029C109.556 72.7486 109.823 73.0972 110.21 73.3292C110.591 73.5578 111.065 73.66 111.612 73.66V73.06ZM109.982 72.1282C109.735 71.2337 109.608 70.1421 109.608 68.848H109.008C109.008 70.1779 109.138 71.3263 109.403 72.2878L109.982 72.1282ZM109.608 68.848C109.608 68.313 109.64 67.4881 109.704 66.3691L109.105 66.3349C109.041 67.4559 109.008 68.295 109.008 68.848H109.608ZM109.704 66.3691C109.768 65.2481 109.8 64.409 109.8 63.856H109.2C109.2 64.391 109.169 65.2159 109.105 66.3349L109.704 66.3691ZM110.926 52.8104C110.766 52.6279 110.664 52.341 110.664 51.904H110.064C110.064 52.427 110.186 52.8761 110.475 53.2056L110.926 52.8104ZM110.664 51.904C110.664 50.73 110.988 50.069 111.521 49.7645L111.224 49.2435C110.412 49.707 110.064 50.646 110.064 51.904H110.664ZM111.521 49.7645C112.148 49.4062 112.817 49.228 113.532 49.228V48.628C112.712 48.628 111.94 48.8338 111.224 49.2435L111.521 49.7645ZM113.532 49.228C114.114 49.228 114.61 49.3866 115.035 49.6979L115.39 49.2141C114.854 48.8214 114.231 48.628 113.532 48.628V49.228ZM115.042 49.7032C115.47 49.9973 115.68 50.3992 115.68 50.944H116.28C116.28 50.2088 115.979 49.6187 115.382 49.2088L115.042 49.7032ZM115.68 50.944C115.68 51.422 115.526 51.9464 115.193 52.5217L115.712 52.8223C116.083 52.1816 116.28 51.554 116.28 50.944H115.68ZM115.196 52.5156C114.858 53.0693 114.522 53.4236 114.197 53.6129L114.5 54.1311C114.943 53.8724 115.343 53.4267 115.708 52.8284L115.196 52.5156ZM114.197 53.6129C113.859 53.8099 113.496 53.908 113.1 53.908V54.508C113.601 54.508 114.069 54.3821 114.5 54.1311L114.197 53.6129ZM113.1 53.908C112.273 53.908 111.553 53.5568 110.93 52.815L110.471 53.201C111.192 54.0592 112.072 54.508 113.1 54.508V53.908ZM117.4 62.464L117.1 62.4684L117.1 62.4715L117.4 62.464ZM119.32 57.04L119.542 57.2421L119.544 57.2396L119.32 57.04ZM130.12 57.328L129.908 57.5402L129.912 57.5442L130.12 57.328ZM132.616 63.088L132.901 63.1798L132.915 63.1371L132.916 63.0923L132.616 63.088ZM129.016 66.304L128.863 66.0457L128.862 66.0465L129.016 66.304ZM124.648 69.088L124.775 69.3594L124.823 69.3372L124.86 69.3001L124.648 69.088ZM124.888 71.296L124.735 71.5544L124.744 71.5594L124.888 71.296ZM131.32 70.336L131.498 70.0945L131.348 69.984L131.182 70.0694L131.32 70.336ZM131.656 73.84L131.416 73.66L131.416 73.66L131.656 73.84ZM130.168 74.752L130.214 75.0484L130.215 75.0483L130.168 74.752ZM123.352 74.656L123.23 74.93L123.23 74.9301L123.352 74.656ZM122.632 64.912L122.605 65.2108L122.625 65.2126L122.645 65.2117L122.632 64.912ZM127.816 61.888L127.547 61.7538L127.537 61.7743L127.53 61.796L127.816 61.888ZM126.952 59.488L126.799 59.7463L126.799 59.7463L126.952 59.488ZM122.968 59.248L123.106 59.5147L123.117 59.5085L122.968 59.248ZM117.7 62.4596C117.669 60.3502 118.287 58.6189 119.542 57.242L119.098 56.838C117.728 58.3411 117.067 60.2258 117.1 62.4684L117.7 62.4596ZM119.544 57.2396C120.796 55.8342 122.394 55.132 124.36 55.132V54.532C122.23 54.532 120.467 55.3018 119.096 56.8404L119.544 57.2396ZM124.36 55.132C126.449 55.132 128.295 55.9273 129.908 57.5401L130.332 57.1159C128.617 55.4007 126.622 54.532 124.36 54.532V55.132ZM129.912 57.5442C131.552 59.1228 132.346 60.9647 132.316 63.0837L132.916 63.0923C132.949 60.7953 132.079 58.7972 130.328 57.1118L129.912 57.5442ZM132.33 62.9962C132.21 63.369 131.885 63.8177 131.3 64.3403C130.72 64.8584 129.91 65.4271 128.863 66.0457L129.168 66.5623C130.233 65.9329 131.08 65.3416 131.7 64.7877C132.315 64.2383 132.733 63.703 132.901 63.1798L132.33 62.9962ZM128.862 66.0465C127.549 66.831 126.526 67.4567 125.795 67.923C125.429 68.1561 125.134 68.3505 124.911 68.5059C124.695 68.6569 124.529 68.7827 124.436 68.8759L124.86 69.3001C124.911 69.2493 125.035 69.1511 125.254 68.9981C125.468 68.8495 125.755 68.6599 126.117 68.429C126.841 67.9673 127.859 67.345 129.17 66.5615L128.862 66.0465ZM124.52 68.8166C124.232 68.952 123.994 69.1016 123.824 69.2719C123.651 69.4446 123.532 69.6566 123.532 69.904H124.132C124.132 69.8634 124.149 69.7954 124.248 69.6961C124.35 69.5944 124.519 69.48 124.775 69.3594L124.52 68.8166ZM123.532 69.904C123.532 70.5751 123.997 71.1183 124.735 71.5543L125.04 71.0377C124.37 70.6417 124.132 70.2569 124.132 69.904H123.532ZM124.744 71.5594C125.473 71.9568 126.147 72.172 126.76 72.172V71.572C126.284 71.572 125.711 71.4032 125.031 71.0326L124.744 71.5594ZM126.76 72.172C127.893 72.172 129.468 71.6293 131.457 70.6026L131.182 70.0694C129.203 71.0907 127.739 71.572 126.76 71.572V72.172ZM131.142 70.5775C131.672 70.9678 131.932 71.4854 131.932 72.16H132.532C132.532 71.2986 132.184 70.6001 131.498 70.0945L131.142 70.5775ZM131.932 72.16C131.932 72.6995 131.763 73.197 131.416 73.66L131.896 74.02C132.317 73.459 132.532 72.8365 132.532 72.16H131.932ZM131.416 73.66C131.077 74.1123 130.649 74.3724 130.121 74.4557L130.215 75.0483C130.903 74.9396 131.467 74.5917 131.896 74.02L131.416 73.66ZM130.121 74.4556C128.066 74.7768 126.795 74.932 126.28 74.932V75.532C126.852 75.532 128.174 75.3672 130.214 75.0484L130.121 74.4556ZM126.28 74.932C125.227 74.932 124.294 74.7464 123.474 74.3819L123.23 74.9301C124.138 75.3336 125.156 75.532 126.28 75.532V74.932ZM123.474 74.382C119.823 72.7561 117.859 68.8428 117.7 62.4565L117.1 62.4715C117.261 68.9492 119.264 73.1639 123.23 74.93L123.474 74.382ZM122.645 65.2117C124.098 65.1464 125.295 64.8558 126.215 64.3191C127.142 63.7782 127.774 62.995 128.101 61.98L127.53 61.796C127.249 62.669 126.713 63.3338 125.913 63.8009C125.105 64.2722 124.013 64.5496 122.618 64.6123L122.645 65.2117ZM128.084 62.0222C128.23 61.7295 128.308 61.4278 128.308 61.12H127.708C127.708 61.3242 127.657 61.5345 127.547 61.7538L128.084 62.0222ZM128.308 61.12C128.308 60.3175 127.877 59.686 127.104 59.2297L126.799 59.7463C127.435 60.122 127.708 60.5785 127.708 61.12H128.308ZM127.104 59.2297C126.351 58.7848 125.514 58.564 124.6 58.564V59.164C125.413 59.164 126.144 59.3592 126.799 59.7463L127.104 59.2297ZM124.6 58.564C123.92 58.564 123.322 58.7001 122.819 58.9875L123.117 59.5085C123.51 59.2839 124 59.164 124.6 59.164V58.564ZM122.83 58.9815C121.759 59.5355 121.276 60.6828 121.276 62.272H121.876C121.876 60.7892 122.321 59.9205 123.106 59.5145L122.83 58.9815ZM121.276 62.272C121.276 63.1329 121.364 63.8223 121.561 64.3154C121.762 64.8186 122.102 65.1651 122.605 65.2108L122.659 64.6132C122.458 64.5949 122.269 64.4694 122.118 64.0926C121.964 63.7057 121.876 63.1071 121.876 62.272H121.276ZM142.689 54.544L142.555 54.8123L142.567 54.8182L142.579 54.823L142.689 54.544ZM146.337 56.032L146.469 55.7624L146.461 55.7587L146.454 55.7555L146.337 56.032ZM149.025 58.432L148.757 58.5662L148.769 58.5904L148.785 58.612L149.025 58.432ZM148.257 60.88L148.403 61.1422L148.41 61.1381L148.418 61.1336L148.257 60.88ZM144.225 59.776L144.379 59.5183L144.379 59.5183L144.225 59.776ZM138.801 58.96L138.651 58.7004L138.643 58.7051L138.635 58.7104L138.801 58.96ZM139.137 61.312L138.913 61.5114L138.919 61.518L139.137 61.312ZM140.577 62.416L140.47 62.6961L140.477 62.6986L140.577 62.416ZM148.161 66.592L148.367 66.3739L148.365 66.3719L148.161 66.592ZM147.969 72.256L147.713 72.0995L147.71 72.1048L147.969 72.256ZM144.609 75.184L144.744 75.4523L144.746 75.4512L144.609 75.184ZM133.809 72.736L134.08 72.6062L134.078 72.6018L133.809 72.736ZM134.433 70.576L134.631 70.8019L134.639 70.7949L134.433 70.576ZM136.065 69.808L136.082 70.1075L136.095 70.1068L136.108 70.105L136.065 69.808ZM137.265 70.672L137.002 70.8166L137.004 70.8196L137.265 70.672ZM138.273 71.968L138.408 71.6997L138.408 71.6997L138.273 71.968ZM143.169 71.536L143.34 71.7827L143.342 71.7813L143.169 71.536ZM142.257 67.072L142.382 66.799L142.376 66.7965L142.257 67.072ZM137.409 65.008L137.271 65.2743L137.282 65.2799L137.293 65.2846L137.409 65.008ZM133.809 61.6L133.537 61.7257L133.54 61.7317L133.809 61.6ZM136.257 56.176L136.435 56.4175L136.436 56.4171L136.257 56.176ZM142.579 54.823C143.793 55.3022 145.007 55.7974 146.221 56.3085L146.454 55.7555C145.236 55.2426 144.018 54.7458 142.8 54.265L142.579 54.823ZM146.206 56.3016C147.48 56.923 148.316 57.6831 148.757 58.5662L149.294 58.2978C148.775 57.2609 147.819 56.421 146.469 55.7624L146.206 56.3016ZM148.785 58.612C148.83 58.6709 148.869 58.7756 148.869 58.96H149.469C149.469 58.6964 149.413 58.4491 149.265 58.252L148.785 58.612ZM148.869 58.96C148.869 59.7821 148.596 60.3112 148.097 60.6264L148.418 61.1336C149.135 60.6808 149.469 59.9299 149.469 58.96H148.869ZM148.112 60.6178C147.871 60.7513 147.602 60.82 147.297 60.82V61.42C147.697 61.42 148.067 61.3287 148.403 61.1422L148.112 60.6178ZM147.297 60.82C147.091 60.82 146.747 60.7304 146.242 60.5092C145.746 60.2921 145.125 59.963 144.379 59.5183L144.072 60.0337C144.829 60.485 145.473 60.8279 146.001 61.0588C146.519 61.2856 146.96 61.42 147.297 61.42V60.82ZM144.379 59.5183C142.867 58.6177 141.623 58.132 140.673 58.132V58.732C141.451 58.732 142.576 59.1423 144.072 60.0337L144.379 59.5183ZM140.673 58.132C139.976 58.132 139.3 58.3246 138.651 58.7004L138.952 59.2196C139.519 58.8914 140.091 58.732 140.673 58.732V58.132ZM138.635 58.7104C138.262 58.9592 138.069 59.3257 138.069 59.776H138.669C138.669 59.5223 138.765 59.3448 138.968 59.2096L138.635 58.7104ZM138.069 59.776C138.069 60.3347 138.385 60.9167 138.913 61.5113L139.362 61.1127C138.866 60.5553 138.669 60.1133 138.669 59.776H138.069ZM138.919 61.518C139.474 62.105 139.991 62.5119 140.47 62.696L140.685 62.136C140.332 62.0001 139.889 61.671 139.355 61.106L138.919 61.518ZM140.477 62.6986C143.784 63.8752 146.27 65.25 147.958 66.8121L148.365 66.3719C146.596 64.734 144.027 63.3248 140.678 62.1334L140.477 62.6986ZM147.955 66.8101C148.459 67.2857 148.725 67.9517 148.725 68.848H149.325C149.325 67.8243 149.016 66.9863 148.367 66.3739L147.955 66.8101ZM148.725 68.848C148.725 69.9024 148.395 70.9849 147.713 72.0996L148.225 72.4124C148.952 71.2231 149.325 70.0336 149.325 68.848H148.725ZM147.71 72.1048C147.075 73.1936 146.006 74.1347 144.473 74.9168L144.746 75.4512C146.349 74.6333 147.52 73.6224 148.229 72.4072L147.71 72.1048ZM144.475 74.9157C142.979 75.664 141.44 76.036 139.857 76.036V76.636C141.538 76.636 143.168 76.24 144.744 75.4523L144.475 74.9157ZM139.857 76.036C138.459 76.036 137.291 75.7449 136.339 75.1782C135.388 74.6124 134.634 73.7603 134.08 72.6062L133.539 72.8658C134.137 74.1117 134.967 75.0596 136.032 75.6938C137.096 76.3271 138.376 76.636 139.857 76.636V76.036ZM134.078 72.6018C134.006 72.4588 133.965 72.2823 133.965 72.064H133.365C133.365 72.3577 133.421 72.6292 133.541 72.8702L134.078 72.6018ZM133.965 72.064C133.965 71.6274 134.166 71.2082 134.631 70.8018L134.236 70.3502C133.676 70.8398 133.365 71.4126 133.365 72.064H133.965ZM134.639 70.7949C135.111 70.3522 135.591 70.1348 136.082 70.1075L136.049 69.5085C135.388 69.5452 134.78 69.8398 134.228 70.3571L134.639 70.7949ZM136.108 70.105C136.364 70.0684 136.669 70.2097 137.003 70.8166L137.528 70.5274C137.158 69.8543 136.663 69.4196 136.023 69.511L136.108 70.105ZM137.004 70.8196C137.216 71.1943 137.412 71.5002 137.593 71.7322C137.767 71.957 137.949 72.1413 138.139 72.2363L138.408 71.6997C138.342 71.6667 138.227 71.571 138.066 71.3638C137.911 71.1638 137.731 70.8857 137.527 70.5244L137.004 70.8196ZM138.139 72.2363C138.762 72.548 139.465 72.7 140.241 72.7V72.1C139.545 72.1 138.936 71.964 138.408 71.6997L138.139 72.2363ZM140.241 72.7C141.416 72.7 142.453 72.3971 143.34 71.7827L142.999 71.2893C142.222 71.8269 141.307 72.1 140.241 72.1V72.7ZM143.342 71.7813C144.276 71.1237 144.765 70.2526 144.765 69.184H144.165C144.165 70.0354 143.79 70.7323 142.997 71.2907L143.342 71.7813ZM144.765 69.184C144.765 68.7067 144.525 68.2735 144.121 67.8872C143.719 67.5025 143.133 67.1418 142.382 66.7991L142.133 67.3449C142.854 67.6742 143.372 68.0015 143.706 68.3208C144.038 68.6385 144.165 68.9253 144.165 69.184H144.765ZM142.376 66.7965C140.743 66.0922 139.126 65.4038 137.526 64.7314L137.293 65.2846C138.892 65.9562 140.507 66.6438 142.139 67.3475L142.376 66.7965ZM137.547 64.7417C135.861 63.8672 134.716 62.7725 134.079 61.4683L133.54 61.7317C134.247 63.1795 135.502 64.3568 137.271 65.2743L137.547 64.7417ZM134.082 61.4743C133.906 61.0937 133.821 60.7204 133.821 60.352H133.221C133.221 60.8156 133.329 61.2743 133.537 61.7257L134.082 61.4743ZM133.821 60.352C133.821 59.0519 134.643 57.738 136.435 56.4175L136.079 55.9345C134.224 57.302 133.221 58.7721 133.221 60.352H133.821ZM136.436 56.4171C138.127 55.1641 139.762 54.556 141.345 54.556V53.956C139.6 53.956 137.843 54.6279 136.079 55.9349L136.436 56.4171ZM141.345 54.556C141.82 54.556 142.22 54.6448 142.555 54.8123L142.824 54.2757C142.391 54.0592 141.895 53.956 141.345 53.956V54.556Z" fill="#19235B" mask="url(#path-4-outside-2_7178_8582)"/>
</svg>
