<svg width="184" height="80" viewBox="0 0 184 80" fill="none" xmlns="http://www.w3.org/2000/svg">
<path fill-rule="evenodd" clip-rule="evenodd" d="M23.6972 0.492515C14.0296 3.16867 6.4121 13.0822 2.36285 28.2577C0.850965 33.9237 0.210812 38.3841 0.0454346 44.4047C-0.11496 50.2489 0.13536 53.7748 1.0199 58.1324C2.84807 67.1375 6.59195 73.5308 12.0793 77.0182C14.8857 78.8016 16.5848 79.2434 20.6127 79.2365C24.7184 79.2294 26.0908 78.8929 29.1089 77.1522C34.0939 74.2774 38.2502 69.3084 41.8521 61.9174C45.0316 55.3931 47.4218 46.7678 48.6359 37.4371C49.1197 33.7197 49.0592 24.3552 48.5315 21.2782C46.683 10.4995 41.8749 3.43373 34.6052 0.812432C32.0204 -0.119449 26.4937 -0.28163 23.6972 0.492515ZM33.9413 10.3664C36.3774 11.7735 38.3918 14.6626 39.375 18.1582C41.1579 24.4964 40.8575 34.2101 38.5543 44.7012C36.6367 53.4356 33.9558 59.9229 30.4003 64.4314C27.592 67.9926 23.9335 69.8665 20.5363 69.4843C12.4471 68.574 7.69454 59.0418 8.54468 45.4321C9.31225 33.1398 15.3935 18.4568 22.0871 12.733C25.0693 10.1831 27.014 9.41342 30.2221 9.51423C32.2031 9.5762 32.8172 9.71703 33.9413 10.3664ZM75.0184 34.4731C74.7385 34.7183 74.4018 35.3519 74.2703 35.8814C74.0509 36.7662 73.5002 41.7422 73.1485 46.0197C72.9409 48.5459 72.1515 49.4724 69.6089 50.1748C67.2554 50.825 66.5137 51.2893 66.0539 52.4003C65.5416 53.6379 65.6012 54.1188 66.3875 55.1013C67.3027 56.2449 68.8169 56.285 70.6579 55.214C71.6022 54.6646 71.9904 54.56 72.119 54.82C72.4488 55.4871 72.8066 59.6786 73.1661 67.0865C73.6318 76.6894 73.8221 78.2688 74.6583 79.4651C75.1803 80.212 76.9365 80.1669 77.5575 79.391C78.1767 78.6172 78.1772 76.8349 77.5598 66.9383C77.3005 62.7799 77.087 58.1437 77.0855 56.6351L77.0829 53.8925H79.4203C82.0343 53.8925 83.0659 53.572 84.0231 52.4626C84.5135 51.8942 84.6756 51.4272 84.6756 50.5834C84.6756 49.6195 84.5678 49.3909 83.9144 48.9687C83.2937 48.5675 82.7579 48.5121 81.0078 48.6689C79.8279 48.7745 78.637 48.9364 78.3616 49.0286C77.8901 49.1863 77.8662 49.1036 77.953 47.6158C78.1468 44.298 78.569 41.495 79.2563 38.962C80.0986 35.858 80.0291 35.0622 78.8617 34.4526C77.7883 33.8923 75.6693 33.9035 75.0184 34.4731ZM132.349 34.8941C131.967 35.3709 131.654 35.9378 131.654 36.1542C131.653 36.3706 131.502 37.8152 131.318 39.3643C131.134 40.9135 130.909 43.2484 130.817 44.553C130.521 48.7576 130.185 49.2245 126.669 50.318C124.629 50.9522 123.722 51.6659 123.326 52.9455C123.076 53.7565 123.583 55.1924 124.287 55.6626C125.136 56.231 126.978 56.0151 128.299 55.1927C128.984 54.7663 129.595 54.4814 129.658 54.5597C129.853 54.8034 130.422 60.9918 130.579 64.5663C131.076 75.9303 131.445 79.0711 132.356 79.6804C133.16 80.2182 134.621 80.0466 135.118 79.3563C135.672 78.5872 135.667 76.1035 135.093 66.9383C134.884 63.5953 134.692 59.3258 134.666 57.4505L134.621 54.0408L137.349 53.8765C140.923 53.6616 141.968 53.0212 142.247 50.8766C142.348 50.0989 142.262 49.755 141.852 49.2933C141.4 48.7845 141.012 48.7084 139.016 48.7353C137.745 48.7528 136.406 48.8605 136.042 48.9749L135.379 49.1824L135.539 46.5926C135.72 43.6419 136.183 40.8605 136.896 38.4357C137.166 37.5172 137.351 36.3831 137.309 35.9155C137.205 34.785 136.002 34.0286 134.306 34.028C133.225 34.0275 132.942 34.1529 132.349 34.8941ZM88.6707 35.9624C87.9112 36.478 87.1605 38.7008 87.3788 39.788C87.8044 41.9074 90.1188 42.9706 91.694 41.7701C92.962 40.8041 93.6598 37.8851 92.9131 36.6701C92.1825 35.4812 89.9328 35.1058 88.6707 35.9624ZM118.368 35.8891C117.652 36.336 116.945 37.9925 116.945 39.2241C116.944 40.9289 118.323 42.3293 120.003 42.3293C121.332 42.3293 122.876 40.0119 122.876 38.0168C122.876 37.5572 122.595 36.8916 122.182 36.3766C121.588 35.6339 121.308 35.5105 120.225 35.5144C119.53 35.5167 118.694 35.6855 118.368 35.8891ZM146.426 35.815C145.183 36.4397 144.524 39.3762 145.312 40.7825C145.818 41.6847 146.887 42.3293 147.878 42.3293C148.935 42.3293 149.982 41.2489 150.503 39.6199C151.285 37.178 150.327 35.4954 148.173 35.5286C147.505 35.539 146.719 35.668 146.426 35.815ZM109.298 36.5651C108.745 36.9405 108.512 37.57 107.683 40.9266C106.115 47.2837 105.333 50.034 104.339 52.6971L103.402 55.2075L102.937 54.3278C102.681 53.8436 102.191 52.5139 101.847 51.3723C101.503 50.2308 100.914 48.2858 100.54 47.0504C100.165 45.8149 99.4767 44.247 99.0105 43.5666C98.1952 42.3764 98.11 42.3293 96.7761 42.3293C95.6177 42.3293 95.2645 42.4603 94.6331 43.1242C93.9429 43.85 93.8861 44.0389 93.9825 45.2907C94.0527 46.2054 94.7636 48.4347 96.1162 51.9822C97.2319 54.9083 98.3632 57.9314 98.6301 58.7008C99.2613 60.5195 100.398 62.6204 101.605 64.1957C102.729 65.6639 103.725 65.8537 105.042 64.8504C106.353 63.8518 109.286 55.7074 111.711 46.332C112.505 43.26 113.138 41.3268 113.505 40.8465C113.817 40.4388 114.143 39.5571 114.228 38.8873L114.384 37.6696L113.126 36.8862C111.712 36.0057 110.298 35.8871 109.298 36.5651ZM55.8473 42.4485C54.2723 43.0726 52.8757 44.0911 51.6822 45.4861C49.6415 47.8716 49.2661 50.0624 50.4866 52.467C51.4037 54.2738 52.8356 55.4524 56.4234 57.3526C60.8259 59.6843 61.5664 61.0357 59.6678 63.273C58.7073 64.4044 56.9812 64.9527 55.6017 64.5643C54.7046 64.3113 54.5093 64.1041 53.5227 62.3566C52.7435 60.9761 50.676 61.7404 50.0458 63.6419C49.6448 64.8518 49.9903 65.9296 51.3332 67.6561C54.8047 72.1195 62.7504 69.8 64.9639 63.6768C65.5409 62.0808 65.6057 59.5597 65.101 58.3403C64.4566 56.7837 61.0786 54.1321 57.9184 52.7027C55.6634 51.6825 54.3136 49.3577 55.3516 48.2811C56.4101 47.1832 58.2397 47.6555 61.1438 49.776C63.3108 51.3587 64.6763 51.3406 65.3468 49.7203C65.954 48.2529 65.7889 47.4601 64.5546 45.9177C63.6233 44.7537 62.9502 44.2695 60.8658 43.2635C58.1775 41.9661 57.3886 41.8377 55.8473 42.4485ZM173.78 42.6602C170.618 44.019 168.195 47.0883 168.195 49.7345C168.195 52.762 170.245 55.0895 175.007 57.4689C179.107 59.5176 179.908 61.0449 178.051 63.273C177.301 64.1732 175.279 65.0167 174.55 64.7338C174.382 64.6689 173.956 64.537 173.602 64.4403C173.197 64.3294 172.69 63.7738 172.227 62.9332C171.391 61.4155 170.71 61.2237 169.481 62.1603C167.819 63.4266 167.916 65.4196 169.752 67.7142C172.046 70.5807 176.833 70.7073 180.274 67.9923C182.995 65.8469 184.585 61.2619 183.573 58.4858C183.014 56.9518 179.72 54.2996 176.507 52.7958C174.812 52.0024 173.798 50.9902 173.45 49.7428C173.196 48.8293 173.312 48.4934 174.051 48.0071C175.098 47.3187 176.189 47.617 178.764 49.2969C181.544 51.1105 182.582 51.3362 183.359 50.2946C184.443 48.8403 184.14 47.01 182.543 45.3642C181.511 44.3016 177.003 42.0289 175.953 42.0426C175.536 42.0482 174.558 42.326 173.78 42.6602ZM156.422 43.3878C155.056 44.0131 153.709 45.5457 152.887 47.4115C152.247 48.864 152.18 49.2933 152.104 52.4101C151.966 58.109 153.016 62.4224 155.278 65.4442C157.368 68.2366 159.645 69.0745 163.354 68.4166C165.22 68.0854 165.548 67.933 166.234 67.0756C166.878 66.2706 167.008 65.8845 167.008 64.7771C167.008 63.9191 166.851 63.203 166.565 62.7622L166.122 62.0782L164.608 62.9332C163.73 63.4287 162.53 63.8411 161.755 63.914C160.484 64.0335 160.369 63.9855 159.501 62.9685L158.585 61.8973L159.416 61.0274C159.872 60.5491 161.44 59.2621 162.899 58.1677C165.767 56.0157 167.168 54.5288 167.396 53.3941C167.972 50.5259 165.482 45.562 162.581 43.796C161.127 42.9113 157.927 42.699 156.422 43.3878ZM88.4728 45.9738C88.1473 46.1796 87.6215 46.9359 87.3043 47.654C86.8108 48.7724 86.7019 49.5373 86.5462 52.9829C86.2854 58.7485 86.3009 63.0604 86.5868 64.3466C86.9436 65.9518 87.6948 66.4671 89.3643 66.2519C91.2916 66.0034 91.35 65.8383 91.2721 60.8622C91.1867 55.4103 91.5766 51.0462 92.291 49.4582C92.7178 48.5091 92.7854 48.0881 92.6099 47.4743C92.1702 45.9385 89.8564 45.0991 88.4728 45.9738ZM117.7 46.3308C116.465 47.6294 116.212 48.982 115.964 55.6101C115.699 62.664 115.874 64.6241 116.866 65.7105C117.412 66.3073 117.692 66.3904 118.779 66.2777C120.668 66.082 120.878 65.6886 120.77 62.5517C120.556 56.3902 120.93 51.839 121.843 49.4902L122.459 47.9043L121.992 47.1183C120.982 45.4167 118.928 45.0401 117.7 46.3308ZM145.863 46.0364C144.519 46.9493 144.081 49.3061 143.878 56.7092C143.653 64.9746 144.132 66.5475 146.793 66.2747C148.647 66.0847 148.877 65.6675 148.765 62.6999C148.539 56.7469 148.934 51.6001 149.778 49.5065C150.452 47.8367 150.307 47.0592 149.162 46.1867C148.253 45.4938 146.762 45.4259 145.863 46.0364ZM161.001 48.7072C162.477 49.4778 162.853 50.6963 162.144 52.4095C161.466 54.0479 159.483 55.3409 157.605 55.3679C156.622 55.3818 156.123 52.097 156.799 50.0586C157.36 48.3656 159.208 47.7711 161.001 48.7072Z" fill="#E20000"/>
</svg>
