<svg width="820" height="334" viewBox="0 0 820 334" fill="none" xmlns="http://www.w3.org/2000/svg">
<path d="M502.797 2.15332C505.893 7.08692 522.401 11.6148 530.597 9.82132" stroke="#EE2200" stroke-width="0.5" stroke-linecap="round" stroke-linejoin="round"/>
<path d="M613.502 61.3508C609.748 64.0978 605.007 66.8608 602.845 94.3698C602.845 94.3698 587.506 94.9808 590.496 114.181C593.487 133.374 597.681 153.762 601.494 163.788C605.307 173.814 608.226 180.947 623.313 183.881C623.313 183.881 628.612 193.46 641.289 195.483L667.115 190.273L686.096 131.169L668.39 79.9218L613.496 61.3508H613.502Z" fill="white"/>
<path d="M623.494 183.792C629.985 192.354 635.079 194.871 640.771 195.136C651.434 195.636 660.786 191.76 677.576 183.128" stroke="#EE2200" stroke-width="0.5" stroke-linecap="round" stroke-linejoin="round"/>
<path d="M611.738 62.4326C607.121 65.7316 604.53 73.9176 603.496 86.5956C602.068 104.137 600.776 138.702 601.217 149.404C601.657 160.106 603.737 166.969 618.588 172.649C628.746 176.53 656.821 178.706 656.821 178.706" stroke="#EE2200" stroke-width="0.5" stroke-linecap="round" stroke-linejoin="round"/>
<path d="M648.374 93.9697C647.199 104.361 644.432 125.23 642.082 137.532" stroke="#EE2200" stroke-width="0.5" stroke-linecap="round" stroke-linejoin="round"/>
<path d="M642.693 134.192C649.272 135.762 668.506 139.208 670.968 140.443" stroke="#EE2200" stroke-width="0.5" stroke-linecap="round" stroke-linejoin="round"/>
<path d="M603.427 93.8398C603.427 93.8398 588.187 96.2038 590.937 111.411C601.693 170.956 606.804 178.571 617.408 182.105C627.419 185.439 637.306 184.216 655.477 180.405" stroke="#EE2200" stroke-width="0.5" stroke-linecap="round" stroke-linejoin="round"/>
<path d="M644.262 125.853C653.985 124.783 666.416 121.049 666.416 121.049" stroke="#EE2200" stroke-width="0.5" stroke-linecap="round" stroke-linejoin="round"/>
<path d="M730.556 332.96C730.556 332.96 658.079 295.691 634.357 283.018C616.692 273.58 571.433 259.667 551.494 253.428C527.66 245.972 515.517 233.582 504.284 223.121C493.052 212.66 476.708 198.017 467.549 188.856C456.622 177.918 476.355 167.163 502.81 175.925C531.32 185.369 542.57 196.236 559.707 202.81C582.389 211.513 597.881 211.201 612.027 208.773C634.557 204.903 647.652 190.996 659.754 174.896C673.665 156.384 676.121 132.575 658.344 107.307C633.317 71.7247 616.145 62.4567 600.06 58.2167C573.407 51.1837 520.663 37.224 503.967 16.3957C495.472 5.79933 500.425 -1.78046 517.103 0.871535C542.335 4.88784 593.157 12.5205 610.94 17.0543C628.729 21.5881 677.066 40.8228 698.75 48.9787C709.336 52.9657 723.6 67.9197 728.259 72.3537C728.259 72.3537 731.913 73.7117 733.211 74.2297C747.557 79.9277 761.61 86.1077 769.453 94.9047C780.192 106.942 819.458 250.047 819.458 250.047L730.544 332.978L730.556 332.96Z" fill="white"/>
<path d="M730.556 332.96C730.556 332.96 658.079 295.691 634.357 283.018C616.692 273.58 571.433 259.667 551.494 253.428C527.66 245.972 515.517 233.582 504.284 223.121C493.052 212.66 476.708 198.017 467.549 188.856C456.622 177.918 476.355 167.163 502.81 175.925C531.32 185.369 542.57 196.236 559.707 202.81C582.389 211.513 597.881 211.201 612.027 208.773C634.557 204.903 647.652 190.996 659.754 174.896C673.665 156.384 676.121 132.575 658.344 107.307C633.317 71.7247 616.145 62.4567 600.06 58.2167C573.407 51.1837 520.663 37.224 503.967 16.3957C495.472 5.79933 500.425 -1.78046 517.103 0.871535C542.335 4.88784 593.157 12.5205 610.94 17.0543C628.729 21.5881 677.066 40.8228 698.75 48.9787C709.336 52.9657 734.745 77.3807 743.228 88.7837" fill="white"/>
<path d="M730.556 332.96C730.556 332.96 658.079 295.691 634.357 283.018C616.692 273.58 571.433 259.667 551.494 253.428C527.66 245.972 515.517 233.582 504.284 223.121C493.052 212.66 476.708 198.017 467.549 188.856C456.622 177.918 476.355 167.163 502.81 175.925C531.32 185.369 542.57 196.236 559.707 202.81C582.389 211.513 597.881 211.201 612.027 208.773C634.557 204.903 647.652 190.996 659.754 174.896C673.665 156.384 676.121 132.575 658.344 107.307C633.317 71.7247 616.145 62.4567 600.06 58.2167C573.407 51.1837 520.663 37.224 503.967 16.3957C495.472 5.79933 500.425 -1.78046 517.103 0.871535C542.335 4.88784 593.157 12.5205 610.94 17.0543C628.729 21.5881 677.066 40.8228 698.75 48.9787C709.336 52.9657 734.745 77.3807 743.228 88.7837" stroke="#EE2200" stroke-width="0.5" stroke-linecap="round" stroke-linejoin="round"/>
<path d="M782.251 299.381C806.745 276.358 822.974 253.829 818.501 249.061C814.028 244.293 790.546 259.092 766.052 282.115C741.559 305.138 725.329 327.667 729.802 332.435C734.275 337.203 757.758 322.405 782.251 299.381Z" fill="#FADEDE" stroke="#EE2200" stroke-width="0.5" stroke-linecap="round" stroke-linejoin="round"/>
<path d="M729.064 73.0527C743.522 78.4627 760.652 85.1257 768.495 93.9167C779.234 105.954 818.93 249.718 818.93 249.718" fill="white"/>
<path d="M729.064 73.0527C743.522 78.4627 760.652 85.1257 768.495 93.9167C779.234 105.954 818.93 249.718 818.93 249.718" stroke="#EE2200" stroke-width="0.5" stroke-linecap="round" stroke-linejoin="round"/>
<path d="M468.277 176.583C477.659 175.09 489.215 185.351 491.107 190.649" stroke="#EE2200" stroke-width="0.5" stroke-linecap="round" stroke-linejoin="round"/>
<path d="M499.914 6.2168C501.794 9.1276 519.101 14.3729 524.047 10.6271" stroke="#EE2200" stroke-width="0.5" stroke-linejoin="round"/>
<rect x="0.25" y="44.25" width="556.5" height="126.5" rx="9.75" fill="#FADEDE" stroke="#E20000" stroke-width="0.5"/>
<path d="M186.879 141V133.8H185.099V132.34L187.719 132.52V132.22C186.459 131.88 185.899 130.94 185.899 129.8C185.899 128.18 187.079 127 188.999 127C189.999 127 190.879 127.32 191.459 127.86L191.239 129.6C190.619 129.02 189.899 128.72 189.179 128.72C188.219 128.72 187.639 129.32 187.639 130.38C187.639 131.42 188.259 132.1 188.979 132.28H191.279L191.259 133.8H188.679V141H186.879ZM197.911 141.26C194.991 141.26 192.911 139.34 192.911 135.8C192.911 132.2 195.091 130.4 197.871 130.4C200.711 130.4 202.851 132.28 202.851 135.88C202.851 139.48 200.711 141.26 197.911 141.26ZM197.971 139.76C199.511 139.76 201.031 138.7 201.031 135.94C201.031 133.1 199.451 131.94 197.831 131.94C196.311 131.94 194.751 133 194.751 135.76C194.751 138.58 196.271 139.76 197.971 139.76ZM205.51 141V135.64L205.49 130.66H207.15L206.95 134.68H207.23C207.55 131.92 208.53 130.42 210.29 130.42C210.61 130.42 210.99 130.46 211.41 130.62L211.31 132.54C210.91 132.38 210.49 132.3 210.13 132.3C208.53 132.3 207.63 134.04 207.33 136.56V141H205.51ZM223.232 141.26C219.972 141.26 218.232 139.16 218.232 135.98C218.232 132.82 219.932 130.4 223.052 130.4C225.852 130.4 227.632 132.32 227.432 135.98L220.012 136.06C220.052 138.46 221.172 139.76 223.252 139.76C225.092 139.76 225.792 138.66 225.972 137.58L227.632 137.86C227.292 139.9 225.812 141.26 223.232 141.26ZM223.052 131.96C221.472 131.96 220.412 133.02 220.112 134.82L225.712 134.74C225.572 132.94 224.572 131.96 223.052 131.96ZM232.515 141L228.795 130.68H230.795L233.635 139.44H233.855L236.715 130.68H238.675L234.935 141H232.515ZM244.911 141.26C241.651 141.26 239.911 139.16 239.911 135.98C239.911 132.82 241.611 130.4 244.731 130.4C247.531 130.4 249.311 132.32 249.111 135.98L241.691 136.06C241.731 138.46 242.851 139.76 244.931 139.76C246.771 139.76 247.471 138.66 247.651 137.58L249.311 137.86C248.971 139.9 247.491 141.26 244.911 141.26ZM244.731 131.96C243.151 131.96 242.091 133.02 241.791 134.82L247.391 134.74C247.251 132.94 246.251 131.96 244.731 131.96ZM251.767 141V135.64L251.747 130.66H253.407L253.207 134.68H253.487C253.807 131.92 254.787 130.42 256.547 130.42C256.867 130.42 257.247 130.46 257.667 130.62L257.567 132.54C257.167 132.38 256.747 132.3 256.387 132.3C254.787 132.3 253.887 134.04 253.587 136.56V141H251.767ZM263.425 144.3C261.825 144.3 260.205 143.8 259.345 142.64L260.245 141.24C260.925 142.18 262.085 142.64 263.365 142.64C265.865 142.64 266.745 140.84 266.765 138.1L266.965 135.96H266.665C266.265 138.98 264.965 140.08 263.145 140.08C259.945 140.08 259.725 136.54 259.725 135.1V130.66H261.545V134.58C261.545 135.78 261.545 138.44 263.725 138.44C265.485 138.44 266.405 136.56 266.485 133.7V130.66H268.325V138.18C268.325 141.04 267.485 144.3 263.425 144.3ZM276.58 144.08L276.6 135.64L276.58 130.66H278.24L278.1 133.58H278.36C278.82 131.52 279.98 130.4 281.84 130.4C284.48 130.4 286.04 132.52 286.04 135.82C286.04 139.12 284.48 141.26 281.94 141.26C279.8 141.26 278.76 139.74 278.34 137.76H278.04C278.26 139.1 278.42 140.34 278.42 141.38V144.08H276.58ZM281.46 139.66C283.18 139.66 284.16 138.1 284.16 135.8C284.16 133.5 283.18 132.02 281.46 132.02C279.5 132.02 278.42 134.02 278.42 135.64V135.86C278.42 137.18 279.3 139.66 281.46 139.66ZM291.179 141.26C289.499 141.26 288.159 140.34 288.159 138.4C288.159 135.76 290.599 135.32 292.799 135C294.599 134.74 295.059 134.64 295.059 133.84C295.059 132.72 294.279 131.94 292.899 131.94C291.699 131.94 290.359 132.5 290.139 134.16L288.479 133.72C288.819 131.5 290.599 130.4 292.879 130.4C295.899 130.4 296.879 132.28 296.879 134.54V136.68C296.879 138.04 296.939 139.66 297.039 141H295.339C295.319 140.02 295.299 139.08 295.319 138.08H295.079C294.599 139.82 293.279 141.26 291.179 141.26ZM291.699 139.78C293.019 139.78 294.499 138.8 295.079 136.72V135.64C293.479 136.38 289.979 135.88 289.979 138.2C289.979 139.2 290.659 139.78 291.699 139.78ZM300.781 129.04C299.961 129.04 299.561 128.68 299.561 128.02C299.561 127.36 299.981 127 300.781 127C301.601 127 302.041 127.36 302.041 128.04C302.041 128.68 301.601 129.04 300.781 129.04ZM299.881 141V130.66H301.701V141H299.881ZM308.512 141.26C305.992 141.26 304.352 139.24 304.352 135.82C304.352 132.56 305.892 130.4 308.452 130.4C310.612 130.4 311.632 131.92 312.052 133.98H312.352C312.132 132.58 311.972 131.2 311.972 130.22V127.14H313.812L313.792 136.1L313.812 141H312.152L312.292 137.94H312.012C311.532 140.02 310.452 141.26 308.512 141.26ZM308.912 139.68C310.932 139.68 311.972 137.48 311.972 135.98V135.78C311.972 134.5 311.112 132.02 308.952 132.02C307.232 132.02 306.232 133.6 306.232 135.88C306.232 138.18 307.212 139.68 308.912 139.68ZM325.396 141.2C323.476 141.2 322.556 140.08 322.556 138.06V132.18H321.096L321.116 130.72H321.916C322.676 130.7 322.976 130.42 323.056 129.72L323.216 128.38H324.336V130.66H327.216V132.22H324.336V138C324.336 139.14 324.936 139.52 325.756 139.52C326.216 139.52 326.776 139.4 327.256 139.04V140.84C326.576 141.1 325.956 141.2 325.396 141.2ZM330.525 129.04C329.705 129.04 329.305 128.68 329.305 128.02C329.305 127.36 329.725 127 330.525 127C331.345 127 331.785 127.36 331.785 128.04C331.785 128.68 331.345 129.04 330.525 129.04ZM329.625 141V130.66H331.445V141H329.625ZM339.056 141.26C335.576 141.26 334.096 138.84 334.096 135.92C334.096 132.84 335.716 130.4 338.956 130.4C341.476 130.4 342.996 131.88 343.176 133.92L341.476 134.3C341.396 133 340.516 131.96 338.936 131.96C337.156 131.96 335.936 133.32 335.936 135.86C335.936 138.4 337.096 139.74 339.076 139.74C340.816 139.74 341.676 138.68 341.796 137.22L343.476 137.52C343.256 139.88 341.636 141.26 339.056 141.26ZM345.718 141V127.14H347.518V134.96C349.698 134 351.598 131.94 352.118 130.66H354.218C353.398 132.6 351.258 134.78 348.918 135.38V135.58C351.838 135.36 352.938 137.28 353.898 139.38L354.498 141H352.478L352.078 139.84C351.258 137.88 350.358 136.46 348.158 136.44H347.518V141H345.718ZM360.814 141.26C357.554 141.26 355.814 139.16 355.814 135.98C355.814 132.82 357.514 130.4 360.634 130.4C363.434 130.4 365.214 132.32 365.014 135.98L357.594 136.06C357.634 138.46 358.754 139.76 360.834 139.76C362.674 139.76 363.374 138.66 363.554 137.58L365.214 137.86C364.874 139.9 363.394 141.26 360.814 141.26ZM360.634 131.96C359.054 131.96 357.994 133.02 357.694 134.82L363.294 134.74C363.154 132.94 362.154 131.96 360.634 131.96ZM370.892 141.2C368.972 141.2 368.052 140.08 368.052 138.06V132.18H366.592L366.612 130.72H367.412C368.172 130.7 368.472 130.42 368.552 129.72L368.712 128.38H369.832V130.66H372.712V132.22H369.832V138C369.832 139.14 370.432 139.52 371.252 139.52C371.712 139.52 372.272 139.4 372.752 139.04V140.84C372.072 141.1 371.452 141.2 370.892 141.2Z" fill="#E20000"/>
<path d="M141.571 100.088V95.192C147.571 89.288 152.515 81.896 155.011 75.272H162.547V96.344H166.531V100.088H162.547V107H158.179V100.088H141.571ZM145.939 96.344H158.179V78.728H157.843C154.963 85.784 150.547 91.448 145.939 96.008V96.344ZM172.879 107.576C170.863 107.576 169.855 106.664 169.855 104.792C169.855 102.92 170.863 102.056 172.879 102.056C174.943 102.056 175.999 102.92 175.999 104.792C175.999 106.664 174.943 107.576 172.879 107.576ZM191.214 107.672C184.494 107.672 180.222 104.552 180.222 98.888L184.398 97.928C184.542 101.816 186.846 103.832 191.166 103.832C195.966 103.832 198.606 101.384 198.606 96.152C198.606 92.36 197.214 88.856 192.51 88.856C188.238 88.856 186.462 91.448 185.934 93.608H180.99L182.142 75.32H201.726V79.16H185.934L185.118 90.728H185.55C186.846 86.936 189.966 85.256 193.71 85.256C200.142 85.256 203.118 89.672 203.118 96.104C203.118 104.312 198.174 107.672 191.214 107.672ZM215.91 92.36C211.014 92.36 207.126 89.24 207.126 83.336C207.126 77.048 211.398 74.312 215.958 74.312C220.854 74.312 224.79 77.384 224.79 83.384C224.79 89.72 220.374 92.36 215.91 92.36ZM215.526 107L235.35 75.32H239.814L220.038 107H215.526ZM216.102 88.76C218.454 88.76 220.95 87.272 220.95 83.48C220.95 79.352 218.118 77.912 215.814 77.912C213.414 77.912 210.966 79.448 210.966 83.192C210.966 87.128 213.654 88.76 216.102 88.76ZM239.862 108.152C234.966 108.152 231.03 105.032 231.03 99.128C231.03 92.888 235.35 90.104 239.91 90.104C244.758 90.104 248.742 93.224 248.742 99.176C248.742 105.512 244.326 108.152 239.862 108.152ZM240.054 104.552C242.406 104.552 244.854 103.112 244.854 99.272C244.854 95.144 242.07 93.704 239.766 93.704C237.318 93.704 234.918 95.288 234.918 98.984C234.918 102.92 237.558 104.552 240.054 104.552ZM273.612 101.576V93.944H266.22V90.296H273.612V82.664H277.452V90.296H284.796V93.944H277.452V101.576H273.612ZM307.462 106.664V95.816H302.566V92.696H307.462V89.24H302.566V86.12H307.462V75.608H313.366L329.35 101.192H329.638L329.447 75.608H333.671V86.12H338.71V89.24H333.671V92.696H338.71V95.816H333.671V106.664H328.151L311.83 80.648H311.542L311.734 106.664H307.462ZM347.031 107V82.472H342.567V78.632C345.255 78.632 347.367 78.104 347.943 75.32H351.447V107H347.031ZM371.085 107.672C363.165 107.672 358.557 101.048 358.557 91.352C358.557 80.888 363.597 74.696 371.181 74.696C379.053 74.696 383.661 81.272 383.661 91.256C383.661 100.952 379.053 107.672 371.085 107.672ZM371.133 103.88C375.933 103.88 379.245 99.56 379.245 91.208C379.245 83.336 376.173 78.44 371.133 78.44C366.525 78.44 362.973 82.568 362.973 91.208C362.973 99.416 366.189 103.88 371.133 103.88ZM402.42 107.672C394.5 107.672 389.892 101.048 389.892 91.352C389.892 80.888 394.932 74.696 402.516 74.696C410.388 74.696 414.996 81.272 414.996 91.256C414.996 100.952 410.388 107.672 402.42 107.672ZM402.468 103.88C407.268 103.88 410.58 99.56 410.58 91.208C410.58 83.336 407.508 78.44 402.468 78.44C397.86 78.44 394.308 82.568 394.308 91.208C394.308 99.416 397.524 103.88 402.468 103.88Z" fill="black"/>
</svg>
