<svg width="819" height="334" viewBox="0 0 819 334" fill="none" xmlns="http://www.w3.org/2000/svg">
<path d="M501.797 2.15344C504.893 7.08704 521.401 11.6149 529.597 9.82145" stroke="#EE2200" stroke-width="0.5" stroke-linecap="round" stroke-linejoin="round"/>
<path d="M612.501 61.3507C608.747 64.0977 604.006 66.8607 601.844 94.3697C601.844 94.3697 586.505 94.9807 589.495 114.181C592.486 133.374 596.68 153.762 600.493 163.788C604.306 173.814 607.225 180.947 622.312 183.881C622.312 183.881 627.611 193.46 640.288 195.483L666.114 190.273L685.095 131.169L667.389 79.9217L612.495 61.3507H612.501Z" fill="white"/>
<path d="M622.494 183.792C628.985 192.354 634.079 194.871 639.771 195.136C650.434 195.636 659.786 191.76 676.576 183.128" stroke="#EE2200" stroke-width="0.5" stroke-linecap="round" stroke-linejoin="round"/>
<path d="M610.738 62.4327C606.121 65.7317 603.53 73.9177 602.496 86.5957C601.068 104.137 599.776 138.702 600.217 149.404C600.657 160.106 602.737 166.969 617.588 172.649C627.746 176.53 655.821 178.706 655.821 178.706" stroke="#EE2200" stroke-width="0.5" stroke-linecap="round" stroke-linejoin="round"/>
<path d="M647.373 93.9697C646.198 104.361 643.431 125.23 641.081 137.532" stroke="#EE2200" stroke-width="0.5" stroke-linecap="round" stroke-linejoin="round"/>
<path d="M641.693 134.192C648.272 135.762 667.506 139.208 669.968 140.443" stroke="#EE2200" stroke-width="0.5" stroke-linecap="round" stroke-linejoin="round"/>
<path d="M602.426 93.8397C602.426 93.8397 587.186 96.2037 589.936 111.411C600.692 170.956 605.803 178.571 616.407 182.105C626.418 185.439 636.305 184.216 654.476 180.405" stroke="#EE2200" stroke-width="0.5" stroke-linecap="round" stroke-linejoin="round"/>
<path d="M643.261 125.853C652.984 124.783 665.415 121.049 665.415 121.049" stroke="#EE2200" stroke-width="0.5" stroke-linecap="round" stroke-linejoin="round"/>
<path d="M729.555 332.96C729.555 332.96 657.078 295.691 633.356 283.018C615.691 273.58 570.432 259.667 550.493 253.428C526.659 245.972 514.516 233.582 503.283 223.121C492.051 212.66 475.707 198.017 466.549 188.856C455.622 177.918 475.355 167.163 501.809 175.925C530.319 185.369 541.569 196.236 558.706 202.81C581.388 211.513 596.88 211.201 611.026 208.773C633.556 204.903 646.651 190.996 658.753 174.896C672.664 156.384 675.12 132.575 657.343 107.307C632.316 71.7247 615.144 62.4567 599.059 58.2167C572.406 51.1837 519.662 37.224 502.966 16.3957C494.471 5.79933 499.424 -1.78046 516.102 0.871535C541.334 4.88784 592.156 12.5205 609.939 17.0543C627.728 21.5881 676.065 40.8228 697.749 48.9787C708.335 52.9657 722.599 67.9197 727.258 72.3537C727.258 72.3537 730.912 73.7117 732.21 74.2297C746.556 79.9277 760.609 86.1077 768.452 94.9047C779.191 106.942 818.457 250.047 818.457 250.047L729.543 332.978L729.555 332.96Z" fill="white"/>
<path d="M729.555 332.96C729.555 332.96 657.078 295.691 633.356 283.018C615.691 273.58 570.432 259.667 550.493 253.428C526.659 245.972 514.516 233.582 503.283 223.121C492.051 212.66 475.707 198.017 466.549 188.856C455.622 177.918 475.355 167.163 501.809 175.925C530.319 185.369 541.569 196.236 558.706 202.81C581.388 211.513 596.88 211.201 611.026 208.773C633.556 204.903 646.651 190.996 658.753 174.896C672.664 156.384 675.12 132.575 657.343 107.307C632.316 71.7247 615.144 62.4567 599.059 58.2167C572.406 51.1837 519.662 37.224 502.966 16.3957C494.471 5.79933 499.424 -1.78046 516.102 0.871535C541.334 4.88784 592.156 12.5205 609.939 17.0543C627.728 21.5881 676.065 40.8228 697.749 48.9787C708.335 52.9657 733.744 77.3807 742.227 88.7837" fill="white"/>
<path d="M729.555 332.96C729.555 332.96 657.078 295.691 633.356 283.018C615.691 273.58 570.432 259.667 550.493 253.428C526.659 245.972 514.516 233.582 503.283 223.121C492.051 212.66 475.707 198.017 466.549 188.856C455.622 177.918 475.355 167.163 501.809 175.925C530.319 185.369 541.569 196.236 558.706 202.81C581.388 211.513 596.88 211.201 611.026 208.773C633.556 204.903 646.651 190.996 658.753 174.896C672.664 156.384 675.12 132.575 657.343 107.307C632.316 71.7247 615.144 62.4567 599.059 58.2167C572.406 51.1837 519.662 37.224 502.966 16.3957C494.471 5.79933 499.424 -1.78046 516.102 0.871535C541.334 4.88784 592.156 12.5205 609.939 17.0543C627.728 21.5881 676.065 40.8228 697.749 48.9787C708.335 52.9657 733.744 77.3807 742.227 88.7837" stroke="#EE2200" stroke-width="0.5" stroke-linecap="round" stroke-linejoin="round"/>
<path d="M781.25 299.381C805.744 276.358 821.973 253.829 817.5 249.061C813.027 244.293 789.545 259.092 765.051 282.115C740.558 305.138 724.328 327.667 728.801 332.435C733.274 337.203 756.757 322.405 781.25 299.381Z" fill="#FADEDE" stroke="#EE2200" stroke-width="0.5" stroke-linecap="round" stroke-linejoin="round"/>
<path d="M728.063 73.0527C742.521 78.4627 759.651 85.1257 767.494 93.9167C778.233 105.954 817.929 249.718 817.929 249.718" fill="white"/>
<path d="M728.063 73.0527C742.521 78.4627 759.651 85.1257 767.494 93.9167C778.233 105.954 817.929 249.718 817.929 249.718" stroke="#EE2200" stroke-width="0.5" stroke-linecap="round" stroke-linejoin="round"/>
<path d="M467.277 176.583C476.659 175.09 488.215 185.351 490.107 190.649" stroke="#EE2200" stroke-width="0.5" stroke-linecap="round" stroke-linejoin="round"/>
<path d="M498.913 6.21674C500.793 9.12754 518.1 14.3728 523.046 10.627" stroke="#EE2200" stroke-width="0.5" stroke-linejoin="round"/>
<rect x="0.249512" y="44.25" width="556.5" height="126.5" rx="9.75" fill="#FADEDE" stroke="#E20000" stroke-width="0.5"/>
<path d="M186.879 141V133.8H185.099V132.34L187.719 132.52V132.22C186.459 131.88 185.899 130.94 185.899 129.8C185.899 128.18 187.079 127 188.999 127C189.999 127 190.879 127.32 191.459 127.86L191.239 129.6C190.619 129.02 189.899 128.72 189.179 128.72C188.219 128.72 187.639 129.32 187.639 130.38C187.639 131.42 188.259 132.1 188.979 132.28H191.279L191.259 133.8H188.679V141H186.879ZM197.91 141.26C194.99 141.26 192.91 139.34 192.91 135.8C192.91 132.2 195.09 130.4 197.87 130.4C200.71 130.4 202.85 132.28 202.85 135.88C202.85 139.48 200.71 141.26 197.91 141.26ZM197.97 139.76C199.51 139.76 201.03 138.7 201.03 135.94C201.03 133.1 199.45 131.94 197.83 131.94C196.31 131.94 194.75 133 194.75 135.76C194.75 138.58 196.27 139.76 197.97 139.76ZM205.509 141V135.64L205.489 130.66H207.149L206.949 134.68H207.229C207.549 131.92 208.529 130.42 210.289 130.42C210.609 130.42 210.989 130.46 211.409 130.62L211.309 132.54C210.909 132.38 210.489 132.3 210.129 132.3C208.529 132.3 207.629 134.04 207.329 136.56V141H205.509ZM223.231 141.26C219.971 141.26 218.231 139.16 218.231 135.98C218.231 132.82 219.931 130.4 223.051 130.4C225.851 130.4 227.631 132.32 227.431 135.98L220.011 136.06C220.051 138.46 221.171 139.76 223.251 139.76C225.091 139.76 225.791 138.66 225.971 137.58L227.631 137.86C227.291 139.9 225.811 141.26 223.231 141.26ZM223.051 131.96C221.471 131.96 220.411 133.02 220.111 134.82L225.711 134.74C225.571 132.94 224.571 131.96 223.051 131.96ZM232.514 141L228.794 130.68H230.794L233.634 139.44H233.854L236.714 130.68H238.674L234.934 141H232.514ZM244.91 141.26C241.65 141.26 239.91 139.16 239.91 135.98C239.91 132.82 241.61 130.4 244.73 130.4C247.53 130.4 249.31 132.32 249.11 135.98L241.69 136.06C241.73 138.46 242.85 139.76 244.93 139.76C246.77 139.76 247.47 138.66 247.65 137.58L249.31 137.86C248.97 139.9 247.49 141.26 244.91 141.26ZM244.73 131.96C243.15 131.96 242.09 133.02 241.79 134.82L247.39 134.74C247.25 132.94 246.25 131.96 244.73 131.96ZM251.767 141V135.64L251.747 130.66H253.407L253.207 134.68H253.487C253.807 131.92 254.787 130.42 256.547 130.42C256.867 130.42 257.247 130.46 257.667 130.62L257.567 132.54C257.167 132.38 256.747 132.3 256.387 132.3C254.787 132.3 253.887 134.04 253.587 136.56V141H251.767ZM263.424 144.3C261.824 144.3 260.204 143.8 259.344 142.64L260.244 141.24C260.924 142.18 262.084 142.64 263.364 142.64C265.864 142.64 266.744 140.84 266.764 138.1L266.964 135.96H266.664C266.264 138.98 264.964 140.08 263.144 140.08C259.944 140.08 259.724 136.54 259.724 135.1V130.66H261.544V134.58C261.544 135.78 261.544 138.44 263.724 138.44C265.484 138.44 266.404 136.56 266.484 133.7V130.66H268.324V138.18C268.324 141.04 267.484 144.3 263.424 144.3ZM276.58 144.08L276.6 135.64L276.58 130.66H278.24L278.1 133.58H278.36C278.82 131.52 279.98 130.4 281.84 130.4C284.48 130.4 286.04 132.52 286.04 135.82C286.04 139.12 284.48 141.26 281.94 141.26C279.8 141.26 278.76 139.74 278.34 137.76H278.04C278.26 139.1 278.42 140.34 278.42 141.38V144.08H276.58ZM281.46 139.66C283.18 139.66 284.16 138.1 284.16 135.8C284.16 133.5 283.18 132.02 281.46 132.02C279.5 132.02 278.42 134.02 278.42 135.64V135.86C278.42 137.18 279.3 139.66 281.46 139.66ZM291.178 141.26C289.498 141.26 288.158 140.34 288.158 138.4C288.158 135.76 290.598 135.32 292.798 135C294.598 134.74 295.058 134.64 295.058 133.84C295.058 132.72 294.278 131.94 292.898 131.94C291.698 131.94 290.358 132.5 290.138 134.16L288.478 133.72C288.818 131.5 290.598 130.4 292.878 130.4C295.898 130.4 296.878 132.28 296.878 134.54V136.68C296.878 138.04 296.938 139.66 297.038 141H295.338C295.318 140.02 295.298 139.08 295.318 138.08H295.078C294.598 139.82 293.278 141.26 291.178 141.26ZM291.698 139.78C293.018 139.78 294.498 138.8 295.078 136.72V135.64C293.478 136.38 289.978 135.88 289.978 138.2C289.978 139.2 290.658 139.78 291.698 139.78ZM300.78 129.04C299.96 129.04 299.56 128.68 299.56 128.02C299.56 127.36 299.98 127 300.78 127C301.6 127 302.04 127.36 302.04 128.04C302.04 128.68 301.6 129.04 300.78 129.04ZM299.88 141V130.66H301.7V141H299.88ZM308.511 141.26C305.991 141.26 304.351 139.24 304.351 135.82C304.351 132.56 305.891 130.4 308.451 130.4C310.611 130.4 311.631 131.92 312.051 133.98H312.351C312.131 132.58 311.971 131.2 311.971 130.22V127.14H313.811L313.791 136.1L313.811 141H312.151L312.291 137.94H312.011C311.531 140.02 310.451 141.26 308.511 141.26ZM308.911 139.68C310.931 139.68 311.971 137.48 311.971 135.98V135.78C311.971 134.5 311.111 132.02 308.951 132.02C307.231 132.02 306.231 133.6 306.231 135.88C306.231 138.18 307.211 139.68 308.911 139.68ZM325.395 141.2C323.475 141.2 322.555 140.08 322.555 138.06V132.18H321.095L321.115 130.72H321.915C322.675 130.7 322.975 130.42 323.055 129.72L323.215 128.38H324.335V130.66H327.215V132.22H324.335V138C324.335 139.14 324.935 139.52 325.755 139.52C326.215 139.52 326.775 139.4 327.255 139.04V140.84C326.575 141.1 325.955 141.2 325.395 141.2ZM330.525 129.04C329.705 129.04 329.305 128.68 329.305 128.02C329.305 127.36 329.725 127 330.525 127C331.345 127 331.785 127.36 331.785 128.04C331.785 128.68 331.345 129.04 330.525 129.04ZM329.625 141V130.66H331.445V141H329.625ZM339.056 141.26C335.576 141.26 334.096 138.84 334.096 135.92C334.096 132.84 335.716 130.4 338.956 130.4C341.476 130.4 342.996 131.88 343.176 133.92L341.476 134.3C341.396 133 340.516 131.96 338.936 131.96C337.156 131.96 335.936 133.32 335.936 135.86C335.936 138.4 337.096 139.74 339.076 139.74C340.816 139.74 341.676 138.68 341.796 137.22L343.476 137.52C343.256 139.88 341.636 141.26 339.056 141.26ZM345.718 141V127.14H347.518V134.96C349.698 134 351.598 131.94 352.118 130.66H354.218C353.398 132.6 351.258 134.78 348.918 135.38V135.58C351.838 135.36 352.938 137.28 353.898 139.38L354.498 141H352.478L352.078 139.84C351.258 137.88 350.358 136.46 348.158 136.44H347.518V141H345.718ZM360.814 141.26C357.554 141.26 355.814 139.16 355.814 135.98C355.814 132.82 357.514 130.4 360.634 130.4C363.434 130.4 365.214 132.32 365.014 135.98L357.594 136.06C357.634 138.46 358.754 139.76 360.834 139.76C362.674 139.76 363.374 138.66 363.554 137.58L365.214 137.86C364.874 139.9 363.394 141.26 360.814 141.26ZM360.634 131.96C359.054 131.96 357.994 133.02 357.694 134.82L363.294 134.74C363.154 132.94 362.154 131.96 360.634 131.96ZM370.891 141.2C368.971 141.2 368.051 140.08 368.051 138.06V132.18H366.591L366.611 130.72H367.411C368.171 130.7 368.471 130.42 368.551 129.72L368.711 128.38H369.831V130.66H372.711V132.22H369.831V138C369.831 139.14 370.431 139.52 371.251 139.52C371.711 139.52 372.271 139.4 372.751 139.04V140.84C372.071 141.1 371.451 141.2 370.891 141.2Z" fill="#E20000"/>
<path d="M158.114 100.616V94.52C164.258 87.8 167.954 81.512 170.162 75.272H180.482V95.624H184.658V100.616H180.482V107H174.482V100.616H158.114ZM164.162 95.624H174.482V79.64H174.098C171.65 85.88 168.098 90.968 164.162 95.24V95.624ZM195.663 92.024C190.479 92.024 186.591 89.048 186.591 82.952C186.591 76.184 191.247 73.736 195.855 73.736C200.991 73.736 204.975 76.76 204.975 82.856C204.975 89.624 200.271 92.024 195.663 92.024ZM195.423 107L214.671 75.32H220.671L201.423 107H195.423ZM195.903 87.416C197.919 87.416 199.935 86.312 199.935 83.048C199.935 79.592 197.775 78.344 195.663 78.344C193.599 78.344 191.631 79.592 191.631 82.76C191.631 86.072 193.743 87.416 195.903 87.416ZM220.623 108.728C215.439 108.728 211.551 105.752 211.551 99.656C211.551 92.84 216.207 90.44 220.767 90.44C225.951 90.44 229.887 93.416 229.887 99.56C229.887 106.328 225.231 108.728 220.623 108.728ZM220.815 104.12C222.831 104.12 224.847 102.968 224.847 99.752C224.847 96.296 222.687 95.048 220.575 95.048C218.559 95.048 216.591 96.248 216.591 99.464C216.591 102.776 218.703 104.12 220.815 104.12ZM253.587 101.432V94.04H246.483V89.24H253.587V81.896H258.627V89.24H265.731V94.04H258.627V101.432H253.587ZM287.395 106.664V96.488H282.547V92.6H287.395V89.432H282.547V85.592H287.395V75.608H295.315L309.571 98.84H309.907L309.667 75.608H315.475V85.592H320.371V89.432H315.475V92.6H320.371V96.488H315.475V106.664H308.179L293.347 82.712H293.011L293.251 106.664H287.395ZM328.515 107V84.296H324.051V79.016C326.835 79.016 328.899 78.344 329.475 75.32H334.659V107H328.515ZM354.025 107.672C345.913 107.672 341.017 101.384 341.017 91.352C341.017 80.648 346.297 74.696 354.217 74.696C362.281 74.696 367.177 80.888 367.177 91.208C367.177 101.384 362.137 107.672 354.025 107.672ZM354.169 102.728C358.105 102.728 361.033 99.224 361.033 91.4C361.033 83.912 358.441 79.592 354.121 79.592C350.329 79.592 347.161 83 347.161 91.208C347.161 98.984 350.041 102.728 354.169 102.728ZM385.595 107.672C377.483 107.672 372.587 101.384 372.587 91.352C372.587 80.648 377.867 74.696 385.787 74.696C393.851 74.696 398.747 80.888 398.747 91.208C398.747 101.384 393.707 107.672 385.595 107.672ZM385.739 102.728C389.675 102.728 392.603 99.224 392.603 91.4C392.603 83.912 390.011 79.592 385.691 79.592C381.899 79.592 378.731 83 378.731 91.208C378.731 98.984 381.611 102.728 385.739 102.728Z" fill="black"/>
</svg>
