<svg width="1081" height="334" viewBox="0 0 1081 334" fill="none" xmlns="http://www.w3.org/2000/svg">
<path d="M763.798 2.15344C766.894 7.08704 783.402 11.6149 791.598 9.82145" stroke="#EE2200" stroke-width="0.5" stroke-linecap="round" stroke-linejoin="round"/>
<path d="M874.502 61.3507C870.748 64.0977 866.007 66.8607 863.845 94.3697C863.845 94.3697 848.506 94.9807 851.496 114.181C854.487 133.374 858.681 153.762 862.494 163.788C866.307 173.814 869.226 180.947 884.313 183.881C884.313 183.881 889.612 193.46 902.289 195.483L928.115 190.273L947.096 131.169L929.39 79.9217L874.496 61.3507H874.502Z" fill="white"/>
<path d="M884.494 183.792C890.985 192.354 896.079 194.871 901.771 195.136C912.434 195.636 921.786 191.76 938.576 183.128" stroke="#EE2200" stroke-width="0.5" stroke-linecap="round" stroke-linejoin="round"/>
<path d="M872.739 62.4327C868.122 65.7317 865.531 73.9177 864.497 86.5957C863.069 104.137 861.777 138.702 862.218 149.404C862.658 160.106 864.738 166.969 879.589 172.649C889.747 176.53 917.822 178.706 917.822 178.706" stroke="#EE2200" stroke-width="0.5" stroke-linecap="round" stroke-linejoin="round"/>
<path d="M909.374 93.9697C908.199 104.361 905.432 125.23 903.082 137.532" stroke="#EE2200" stroke-width="0.5" stroke-linecap="round" stroke-linejoin="round"/>
<path d="M903.693 134.192C910.272 135.762 929.506 139.208 931.968 140.443" stroke="#EE2200" stroke-width="0.5" stroke-linecap="round" stroke-linejoin="round"/>
<path d="M864.426 93.8397C864.426 93.8397 849.186 96.2037 851.936 111.411C862.692 170.956 867.803 178.571 878.407 182.105C888.418 185.439 898.305 184.216 916.476 180.405" stroke="#EE2200" stroke-width="0.5" stroke-linecap="round" stroke-linejoin="round"/>
<path d="M905.262 125.853C914.985 124.783 927.416 121.049 927.416 121.049" stroke="#EE2200" stroke-width="0.5" stroke-linecap="round" stroke-linejoin="round"/>
<path d="M991.556 332.96C991.556 332.96 919.079 295.691 895.357 283.018C877.692 273.58 832.433 259.667 812.494 253.428C788.66 245.972 776.517 233.582 765.284 223.121C754.052 212.66 737.708 198.017 728.549 188.856C717.622 177.918 737.355 167.163 763.81 175.925C792.32 185.369 803.57 196.236 820.707 202.81C843.389 211.513 858.881 211.201 873.027 208.773C895.557 204.903 908.652 190.996 920.754 174.896C934.665 156.384 937.121 132.575 919.344 107.307C894.317 71.7247 877.145 62.4567 861.06 58.2167C834.407 51.1837 781.663 37.224 764.967 16.3957C756.472 5.79933 761.425 -1.78046 778.103 0.871535C803.335 4.88784 854.157 12.5205 871.94 17.0543C889.729 21.5881 938.066 40.8228 959.75 48.9787C970.336 52.9657 984.6 67.9197 989.259 72.3537C989.259 72.3537 992.913 73.7117 994.211 74.2297C1008.56 79.9277 1022.61 86.1077 1030.45 94.9047C1041.19 106.942 1080.46 250.047 1080.46 250.047L991.544 332.978L991.556 332.96Z" fill="white"/>
<path d="M991.556 332.96C991.556 332.96 919.079 295.691 895.357 283.018C877.692 273.58 832.433 259.667 812.494 253.428C788.66 245.972 776.517 233.582 765.284 223.121C754.052 212.66 737.708 198.017 728.549 188.856C717.622 177.918 737.355 167.163 763.81 175.925C792.32 185.369 803.57 196.236 820.707 202.81C843.389 211.513 858.881 211.201 873.027 208.773C895.557 204.903 908.652 190.996 920.754 174.896C934.665 156.384 937.121 132.575 919.344 107.307C894.317 71.7247 877.145 62.4567 861.06 58.2167C834.407 51.1837 781.663 37.224 764.967 16.3957C756.472 5.79933 761.425 -1.78046 778.103 0.871535C803.335 4.88784 854.157 12.5205 871.94 17.0543C889.729 21.5881 938.066 40.8228 959.75 48.9787C970.336 52.9657 995.745 77.3807 1004.23 88.7837" fill="white"/>
<path d="M991.556 332.96C991.556 332.96 919.079 295.691 895.357 283.018C877.692 273.58 832.433 259.667 812.494 253.428C788.66 245.972 776.517 233.582 765.284 223.121C754.052 212.66 737.708 198.017 728.549 188.856C717.622 177.918 737.355 167.163 763.81 175.925C792.32 185.369 803.57 196.236 820.707 202.81C843.389 211.513 858.881 211.201 873.027 208.773C895.557 204.903 908.652 190.996 920.754 174.896C934.665 156.384 937.121 132.575 919.344 107.307C894.317 71.7247 877.145 62.4567 861.06 58.2167C834.407 51.1837 781.663 37.224 764.967 16.3957C756.472 5.79933 761.425 -1.78046 778.103 0.871535C803.335 4.88784 854.157 12.5205 871.94 17.0543C889.729 21.5881 938.066 40.8228 959.75 48.9787C970.336 52.9657 995.745 77.3807 1004.23 88.7837" stroke="#EE2200" stroke-width="0.5" stroke-linecap="round" stroke-linejoin="round"/>
<path d="M1043.25 299.381C1067.74 276.358 1083.97 253.829 1079.5 249.061C1075.03 244.293 1051.55 259.092 1027.05 282.115C1002.56 305.138 986.329 327.667 990.802 332.435C995.275 337.203 1018.76 322.405 1043.25 299.381Z" fill="#FADEDE" stroke="#EE2200" stroke-width="0.5" stroke-linecap="round" stroke-linejoin="round"/>
<path d="M990.063 73.0527C1004.52 78.4627 1021.65 85.1257 1029.49 93.9167C1040.23 105.954 1079.93 249.718 1079.93 249.718" fill="white"/>
<path d="M990.063 73.0527C1004.52 78.4627 1021.65 85.1257 1029.49 93.9167C1040.23 105.954 1079.93 249.718 1079.93 249.718" stroke="#EE2200" stroke-width="0.5" stroke-linecap="round" stroke-linejoin="round"/>
<path d="M729.278 176.583C738.66 175.09 750.216 185.351 752.108 190.649" stroke="#EE2200" stroke-width="0.5" stroke-linecap="round" stroke-linejoin="round"/>
<path d="M760.913 6.21674C762.793 9.12754 780.1 14.3728 785.046 10.627" stroke="#EE2200" stroke-width="0.5" stroke-linejoin="round"/>
<path d="M317.679 2.15344C314.583 7.08704 298.075 11.6149 289.879 9.82145" stroke="#EE2200" stroke-width="0.5" stroke-linecap="round" stroke-linejoin="round"/>
<path d="M206.976 61.3507C210.73 64.0977 215.471 66.8607 217.633 94.3697C217.633 94.3697 232.972 94.9807 229.982 114.181C226.991 133.374 222.797 153.762 218.984 163.788C215.171 173.814 212.252 180.947 197.165 183.881C197.165 183.881 191.866 193.46 179.189 195.483L153.363 190.273L134.382 131.169L152.088 79.9217L206.982 61.3507H206.976Z" fill="white"/>
<path d="M196.983 183.792C190.492 192.354 185.398 194.871 179.706 195.136C169.043 195.636 159.691 191.76 142.902 183.128" stroke="#EE2200" stroke-width="0.5" stroke-linecap="round" stroke-linejoin="round"/>
<path d="M208.739 62.4327C213.356 65.7317 215.947 73.9177 216.981 86.5957C218.409 104.137 219.701 138.702 219.26 149.404C218.82 160.106 216.74 166.969 201.889 172.649C191.731 176.53 163.656 178.706 163.656 178.706" stroke="#EE2200" stroke-width="0.5" stroke-linecap="round" stroke-linejoin="round"/>
<path d="M172.103 93.9697C173.278 104.361 176.045 125.23 178.395 137.532" stroke="#EE2200" stroke-width="0.5" stroke-linecap="round" stroke-linejoin="round"/>
<path d="M177.783 134.192C171.204 135.762 151.97 139.208 149.508 140.443" stroke="#EE2200" stroke-width="0.5" stroke-linecap="round" stroke-linejoin="round"/>
<path d="M217.05 93.8397C217.05 93.8397 232.29 96.2037 229.54 111.411C218.784 170.956 213.673 178.571 203.069 182.105C193.058 185.439 183.171 184.216 165 180.405" stroke="#EE2200" stroke-width="0.5" stroke-linecap="round" stroke-linejoin="round"/>
<path d="M176.215 125.853C166.492 124.783 154.061 121.049 154.061 121.049" stroke="#EE2200" stroke-width="0.5" stroke-linecap="round" stroke-linejoin="round"/>
<path d="M89.9218 332.96C89.9218 332.96 162.399 295.691 186.12 283.018C203.785 273.58 249.044 259.667 268.983 253.428C292.817 245.972 304.96 233.582 316.193 223.121C327.425 212.66 343.769 198.017 352.927 188.856C363.854 177.918 344.121 167.163 317.667 175.925C289.157 185.369 277.907 196.236 260.77 202.81C238.088 211.513 222.596 211.201 208.45 208.773C185.92 204.903 172.825 190.996 160.724 174.896C146.813 156.384 144.357 132.575 162.134 107.307C187.16 71.7247 204.332 62.4567 220.417 58.2167C247.07 51.1837 299.814 37.224 316.51 16.3957C325.005 5.79933 320.052 -1.78046 303.374 0.871535C278.142 4.88784 227.32 12.5205 209.537 17.0543C191.748 21.5881 143.412 40.8228 121.728 48.9787C111.142 52.9657 96.8777 67.9197 92.2187 72.3537C92.2187 72.3537 88.5647 73.7117 87.2667 74.2297C72.9208 79.9277 58.8678 86.1077 51.0249 94.9047C40.2859 106.942 1.01999 250.047 1.01999 250.047L89.9337 332.978L89.9218 332.96Z" fill="white"/>
<path d="M89.9218 332.96C89.9218 332.96 162.399 295.691 186.12 283.018C203.785 273.58 249.044 259.667 268.983 253.428C292.817 245.972 304.96 233.582 316.193 223.121C327.425 212.66 343.769 198.017 352.927 188.856C363.854 177.918 344.121 167.163 317.667 175.925C289.157 185.369 277.907 196.236 260.77 202.81C238.088 211.513 222.596 211.201 208.45 208.773C185.92 204.903 172.825 190.996 160.724 174.896C146.813 156.384 144.357 132.575 162.134 107.307C187.16 71.7247 204.332 62.4567 220.417 58.2167C247.07 51.1837 299.814 37.224 316.51 16.3957C325.005 5.79933 320.052 -1.78046 303.374 0.871535C278.142 4.88784 227.32 12.5205 209.537 17.0543C191.748 21.5881 143.412 40.8228 121.728 48.9787C111.142 52.9657 85.7327 77.3807 77.2498 88.7837" fill="white"/>
<path d="M89.9218 332.96C89.9218 332.96 162.399 295.691 186.12 283.018C203.785 273.58 249.044 259.667 268.983 253.428C292.817 245.972 304.96 233.582 316.193 223.121C327.425 212.66 343.769 198.017 352.927 188.856C363.854 177.918 344.121 167.163 317.667 175.925C289.157 185.369 277.907 196.236 260.77 202.81C238.088 211.513 222.596 211.201 208.45 208.773C185.92 204.903 172.825 190.996 160.724 174.896C146.813 156.384 144.357 132.575 162.134 107.307C187.16 71.7247 204.332 62.4567 220.417 58.2167C247.07 51.1837 299.814 37.224 316.51 16.3957C325.005 5.79933 320.052 -1.78046 303.374 0.871535C278.142 4.88784 227.32 12.5205 209.537 17.0543C191.748 21.5881 143.412 40.8228 121.728 48.9787C111.142 52.9657 85.7327 77.3807 77.2498 88.7837" stroke="#EE2200" stroke-width="0.5" stroke-linecap="round" stroke-linejoin="round"/>
<path d="M38.2268 299.381C13.7329 276.358 -2.49607 253.829 1.97692 249.061C6.4499 244.293 29.9318 259.092 54.4258 282.115C78.9187 305.138 95.1487 327.667 90.6757 332.435C86.2027 337.203 62.7198 322.405 38.2268 299.381Z" fill="#FADEDE" stroke="#EE2200" stroke-width="0.5" stroke-linecap="round" stroke-linejoin="round"/>
<path d="M91.4141 73.0527C76.9561 78.4627 59.8262 85.1257 51.9832 93.9167C41.2442 105.954 1.54832 249.718 1.54832 249.718" fill="white"/>
<path d="M91.4141 73.0527C76.9561 78.4627 59.8262 85.1257 51.9832 93.9167C41.2442 105.954 1.54832 249.718 1.54832 249.718" stroke="#EE2200" stroke-width="0.5" stroke-linecap="round" stroke-linejoin="round"/>
<path d="M352.198 176.583C342.816 175.09 331.261 185.351 329.369 190.649" stroke="#EE2200" stroke-width="0.5" stroke-linecap="round" stroke-linejoin="round"/>
<path d="M320.563 6.21674C318.683 9.12754 301.377 14.3728 296.431 10.627" stroke="#EE2200" stroke-width="0.5" stroke-linejoin="round"/>
<rect x="262.25" y="44.25" width="556.5" height="126.5" rx="9.75" fill="#FADEDE" stroke="#E20000" stroke-width="0.5"/>
<path d="M448.879 141V133.8H447.099V132.34L449.719 132.52V132.22C448.459 131.88 447.899 130.94 447.899 129.8C447.899 128.18 449.079 127 450.999 127C451.999 127 452.879 127.32 453.459 127.86L453.239 129.6C452.619 129.02 451.899 128.72 451.179 128.72C450.219 128.72 449.639 129.32 449.639 130.38C449.639 131.42 450.259 132.1 450.979 132.28H453.279L453.259 133.8H450.679V141H448.879ZM459.911 141.26C456.991 141.26 454.911 139.34 454.911 135.8C454.911 132.2 457.091 130.4 459.871 130.4C462.711 130.4 464.851 132.28 464.851 135.88C464.851 139.48 462.711 141.26 459.911 141.26ZM459.971 139.76C461.511 139.76 463.031 138.7 463.031 135.94C463.031 133.1 461.451 131.94 459.831 131.94C458.311 131.94 456.751 133 456.751 135.76C456.751 138.58 458.271 139.76 459.971 139.76ZM467.51 141V135.64L467.49 130.66H469.15L468.95 134.68H469.23C469.55 131.92 470.53 130.42 472.29 130.42C472.61 130.42 472.99 130.46 473.41 130.62L473.31 132.54C472.91 132.38 472.49 132.3 472.13 132.3C470.53 132.3 469.63 134.04 469.33 136.56V141H467.51ZM485.232 141.26C481.972 141.26 480.232 139.16 480.232 135.98C480.232 132.82 481.932 130.4 485.052 130.4C487.852 130.4 489.632 132.32 489.432 135.98L482.012 136.06C482.052 138.46 483.172 139.76 485.252 139.76C487.092 139.76 487.792 138.66 487.972 137.58L489.632 137.86C489.292 139.9 487.812 141.26 485.232 141.26ZM485.052 131.96C483.472 131.96 482.412 133.02 482.112 134.82L487.712 134.74C487.572 132.94 486.572 131.96 485.052 131.96ZM494.515 141L490.795 130.68H492.795L495.635 139.44H495.855L498.715 130.68H500.675L496.935 141H494.515ZM506.911 141.26C503.651 141.26 501.911 139.16 501.911 135.98C501.911 132.82 503.611 130.4 506.731 130.4C509.531 130.4 511.311 132.32 511.111 135.98L503.691 136.06C503.731 138.46 504.851 139.76 506.931 139.76C508.771 139.76 509.471 138.66 509.651 137.58L511.311 137.86C510.971 139.9 509.491 141.26 506.911 141.26ZM506.731 131.96C505.151 131.96 504.091 133.02 503.791 134.82L509.391 134.74C509.251 132.94 508.251 131.96 506.731 131.96ZM513.767 141V135.64L513.747 130.66H515.407L515.207 134.68H515.487C515.807 131.92 516.787 130.42 518.547 130.42C518.867 130.42 519.247 130.46 519.667 130.62L519.567 132.54C519.167 132.38 518.747 132.3 518.387 132.3C516.787 132.3 515.887 134.04 515.587 136.56V141H513.767ZM525.425 144.3C523.825 144.3 522.205 143.8 521.345 142.64L522.245 141.24C522.925 142.18 524.085 142.64 525.365 142.64C527.865 142.64 528.745 140.84 528.765 138.1L528.965 135.96H528.665C528.265 138.98 526.965 140.08 525.145 140.08C521.945 140.08 521.725 136.54 521.725 135.1V130.66H523.545V134.58C523.545 135.78 523.545 138.44 525.725 138.44C527.485 138.44 528.405 136.56 528.485 133.7V130.66H530.325V138.18C530.325 141.04 529.485 144.3 525.425 144.3ZM538.58 144.08L538.6 135.64L538.58 130.66H540.24L540.1 133.58H540.36C540.82 131.52 541.98 130.4 543.84 130.4C546.48 130.4 548.04 132.52 548.04 135.82C548.04 139.12 546.48 141.26 543.94 141.26C541.8 141.26 540.76 139.74 540.34 137.76H540.04C540.26 139.1 540.42 140.34 540.42 141.38V144.08H538.58ZM543.46 139.66C545.18 139.66 546.16 138.1 546.16 135.8C546.16 133.5 545.18 132.02 543.46 132.02C541.5 132.02 540.42 134.02 540.42 135.64V135.86C540.42 137.18 541.3 139.66 543.46 139.66ZM553.179 141.26C551.499 141.26 550.159 140.34 550.159 138.4C550.159 135.76 552.599 135.32 554.799 135C556.599 134.74 557.059 134.64 557.059 133.84C557.059 132.72 556.279 131.94 554.899 131.94C553.699 131.94 552.359 132.5 552.139 134.16L550.479 133.72C550.819 131.5 552.599 130.4 554.879 130.4C557.899 130.4 558.879 132.28 558.879 134.54V136.68C558.879 138.04 558.939 139.66 559.039 141H557.339C557.319 140.02 557.299 139.08 557.319 138.08H557.079C556.599 139.82 555.279 141.26 553.179 141.26ZM553.699 139.78C555.019 139.78 556.499 138.8 557.079 136.72V135.64C555.479 136.38 551.979 135.88 551.979 138.2C551.979 139.2 552.659 139.78 553.699 139.78ZM562.781 129.04C561.961 129.04 561.561 128.68 561.561 128.02C561.561 127.36 561.981 127 562.781 127C563.601 127 564.041 127.36 564.041 128.04C564.041 128.68 563.601 129.04 562.781 129.04ZM561.881 141V130.66H563.701V141H561.881ZM570.512 141.26C567.992 141.26 566.352 139.24 566.352 135.82C566.352 132.56 567.892 130.4 570.452 130.4C572.612 130.4 573.632 131.92 574.052 133.98H574.352C574.132 132.58 573.972 131.2 573.972 130.22V127.14H575.812L575.792 136.1L575.812 141H574.152L574.292 137.94H574.012C573.532 140.02 572.452 141.26 570.512 141.26ZM570.912 139.68C572.932 139.68 573.972 137.48 573.972 135.98V135.78C573.972 134.5 573.112 132.02 570.952 132.02C569.232 132.02 568.232 133.6 568.232 135.88C568.232 138.18 569.212 139.68 570.912 139.68ZM587.396 141.2C585.476 141.2 584.556 140.08 584.556 138.06V132.18H583.096L583.116 130.72H583.916C584.676 130.7 584.976 130.42 585.056 129.72L585.216 128.38H586.336V130.66H589.216V132.22H586.336V138C586.336 139.14 586.936 139.52 587.756 139.52C588.216 139.52 588.776 139.4 589.256 139.04V140.84C588.576 141.1 587.956 141.2 587.396 141.2ZM592.525 129.04C591.705 129.04 591.305 128.68 591.305 128.02C591.305 127.36 591.725 127 592.525 127C593.345 127 593.785 127.36 593.785 128.04C593.785 128.68 593.345 129.04 592.525 129.04ZM591.625 141V130.66H593.445V141H591.625ZM601.056 141.26C597.576 141.26 596.096 138.84 596.096 135.92C596.096 132.84 597.716 130.4 600.956 130.4C603.476 130.4 604.996 131.88 605.176 133.92L603.476 134.3C603.396 133 602.516 131.96 600.936 131.96C599.156 131.96 597.936 133.32 597.936 135.86C597.936 138.4 599.096 139.74 601.076 139.74C602.816 139.74 603.676 138.68 603.796 137.22L605.476 137.52C605.256 139.88 603.636 141.26 601.056 141.26ZM607.718 141V127.14H609.518V134.96C611.698 134 613.598 131.94 614.118 130.66H616.218C615.398 132.6 613.258 134.78 610.918 135.38V135.58C613.838 135.36 614.938 137.28 615.898 139.38L616.498 141H614.478L614.078 139.84C613.258 137.88 612.358 136.46 610.158 136.44H609.518V141H607.718ZM622.814 141.26C619.554 141.26 617.814 139.16 617.814 135.98C617.814 132.82 619.514 130.4 622.634 130.4C625.434 130.4 627.214 132.32 627.014 135.98L619.594 136.06C619.634 138.46 620.754 139.76 622.834 139.76C624.674 139.76 625.374 138.66 625.554 137.58L627.214 137.86C626.874 139.9 625.394 141.26 622.814 141.26ZM622.634 131.96C621.054 131.96 619.994 133.02 619.694 134.82L625.294 134.74C625.154 132.94 624.154 131.96 622.634 131.96ZM632.892 141.2C630.972 141.2 630.052 140.08 630.052 138.06V132.18H628.592L628.612 130.72H629.412C630.172 130.7 630.472 130.42 630.552 129.72L630.712 128.38H631.832V130.66H634.712V132.22H631.832V138C631.832 139.14 632.432 139.52 633.252 139.52C633.712 139.52 634.272 139.4 634.752 139.04V140.84C634.072 141.1 633.452 141.2 632.892 141.2Z" fill="#E20000"/>
<path d="M403.571 100.088V95.192C409.571 89.288 414.515 81.896 417.011 75.272H424.547V96.344H428.531V100.088H424.547V107H420.179V100.088H403.571ZM407.939 96.344H420.179V78.728H419.843C416.963 85.784 412.547 91.448 407.939 96.008V96.344ZM434.879 107.576C432.863 107.576 431.855 106.664 431.855 104.792C431.855 102.92 432.863 102.056 434.879 102.056C436.943 102.056 437.999 102.92 437.999 104.792C437.999 106.664 436.943 107.576 434.879 107.576ZM453.214 107.672C446.494 107.672 442.222 104.552 442.222 98.888L446.398 97.928C446.542 101.816 448.846 103.832 453.166 103.832C457.966 103.832 460.606 101.384 460.606 96.152C460.606 92.36 459.214 88.856 454.51 88.856C450.238 88.856 448.462 91.448 447.934 93.608H442.99L444.142 75.32H463.726V79.16H447.934L447.118 90.728H447.55C448.846 86.936 451.966 85.256 455.71 85.256C462.142 85.256 465.118 89.672 465.118 96.104C465.118 104.312 460.174 107.672 453.214 107.672ZM477.91 92.36C473.014 92.36 469.126 89.24 469.126 83.336C469.126 77.048 473.398 74.312 477.958 74.312C482.854 74.312 486.79 77.384 486.79 83.384C486.79 89.72 482.374 92.36 477.91 92.36ZM477.526 107L497.35 75.32H501.814L482.038 107H477.526ZM478.102 88.76C480.454 88.76 482.95 87.272 482.95 83.48C482.95 79.352 480.118 77.912 477.814 77.912C475.414 77.912 472.966 79.448 472.966 83.192C472.966 87.128 475.654 88.76 478.102 88.76ZM501.862 108.152C496.966 108.152 493.03 105.032 493.03 99.128C493.03 92.888 497.35 90.104 501.91 90.104C506.758 90.104 510.742 93.224 510.742 99.176C510.742 105.512 506.326 108.152 501.862 108.152ZM502.054 104.552C504.406 104.552 506.854 103.112 506.854 99.272C506.854 95.144 504.07 93.704 501.766 93.704C499.318 93.704 496.918 95.288 496.918 98.984C496.918 102.92 499.558 104.552 502.054 104.552ZM535.612 101.576V93.944H528.22V90.296H535.612V82.664H539.452V90.296H546.796V93.944H539.452V101.576H535.612ZM569.462 106.664V95.816H564.566V92.696H569.462V89.24H564.566V86.12H569.462V75.608H575.366L591.35 101.192H591.638L591.447 75.608H595.671V86.12H600.71V89.24H595.671V92.696H600.71V95.816H595.671V106.664H590.151L573.83 80.648H573.542L573.734 106.664H569.462ZM609.031 107V82.472H604.567V78.632C607.255 78.632 609.367 78.104 609.943 75.32H613.447V107H609.031ZM633.085 107.672C625.165 107.672 620.557 101.048 620.557 91.352C620.557 80.888 625.597 74.696 633.181 74.696C641.053 74.696 645.661 81.272 645.661 91.256C645.661 100.952 641.053 107.672 633.085 107.672ZM633.133 103.88C637.933 103.88 641.245 99.56 641.245 91.208C641.245 83.336 638.173 78.44 633.133 78.44C628.525 78.44 624.973 82.568 624.973 91.208C624.973 99.416 628.189 103.88 633.133 103.88ZM664.42 107.672C656.5 107.672 651.892 101.048 651.892 91.352C651.892 80.888 656.932 74.696 664.516 74.696C672.388 74.696 676.996 81.272 676.996 91.256C676.996 100.952 672.388 107.672 664.42 107.672ZM664.468 103.88C669.268 103.88 672.58 99.56 672.58 91.208C672.58 83.336 669.508 78.44 664.468 78.44C659.86 78.44 656.308 82.568 656.308 91.208C656.308 99.416 659.524 103.88 664.468 103.88Z" fill="black"/>
</svg>
