<svg width="415" height="74" viewBox="0 0 415 74" fill="none" xmlns="http://www.w3.org/2000/svg">
<path d="M58.9824 7.04113H3.45135C1.56983 7.04113 0.00014143 8.62667 0.00014143 10.5346V16.7975C0.00014143 18.753 1.56983 20.2963 3.45399 20.2963H58.9798C60.9089 20.2963 62.4336 18.7055 62.4786 16.8002V10.5795C62.4786 8.62931 60.9089 7.03848 58.9824 7.03848V7.04113ZM58.9824 41.902H3.45135C2.99675 41.9028 2.54684 41.9939 2.1277 42.1699C1.70856 42.3459 1.32852 42.6033 1.00961 42.9273C0.360345 43.5857 -0.00329468 44.4734 -0.00250115 45.3981V51.661C-0.00250115 53.6165 1.56719 55.1571 3.45135 55.1571H58.9771C60.9062 55.1571 62.431 53.6139 62.4759 51.6637V45.3981C62.4759 43.4452 60.9089 41.902 58.9824 41.902ZM34.7157 59.2901H3.45399C2.53701 59.2901 1.65704 59.6575 1.01225 60.3128C0.362988 60.9712 -0.000652106 61.8589 0.00014143 62.7836V69.0465C0.00014143 71.002 1.56983 72.5426 3.45399 72.5426H34.6707C36.5998 72.5426 38.1246 70.9571 38.1246 69.0492V62.7836C38.1362 62.3287 38.0566 61.876 37.8906 61.4523C37.7245 61.0286 37.4752 60.6424 37.1575 60.3166C36.8398 59.9907 36.46 59.7318 36.0407 59.5551C35.6213 59.3783 35.1708 59.29 34.7157 59.2901ZM62.4786 24.4689H3.45399C2.53701 24.4689 1.65704 24.8389 1.01225 25.4916C0.362344 26.1506 -0.00134796 27.0395 0.00014143 27.965V34.2279C0.00014143 36.1808 1.56983 37.7241 3.45399 37.7241H62.4363C64.3654 37.7241 65.8875 36.1359 65.8875 34.2279V27.965C65.8952 27.5111 65.8129 27.0602 65.6454 26.6382C65.4779 26.2163 65.2284 25.8317 64.9115 25.5067C64.5946 25.1816 64.2164 24.9226 63.7988 24.7444C63.3812 24.5663 62.9325 24.4727 62.4786 24.4689Z" fill="#00C3F7"/>
<path d="M127.106 21.1578C125.401 19.392 123.357 17.9873 121.097 17.0275C118.825 16.0723 116.385 15.5783 113.92 15.574C111.518 15.5186 109.137 16.032 106.971 17.0724C105.517 17.7674 104.207 18.7372 103.113 19.9316V18.8456C103.104 18.2927 102.898 17.7612 102.531 17.3472C102.35 17.1312 102.124 16.958 101.868 16.8402C101.612 16.7223 101.333 16.6626 101.052 16.6654H93.2905C93.0081 16.658 92.7277 16.7156 92.4711 16.8338C92.2145 16.952 91.9886 17.1277 91.8107 17.3472C91.4253 17.7496 91.2153 18.2885 91.2267 18.8456V70.5502C91.2267 71.0946 91.4513 71.6389 91.8081 72.0459C92.0027 72.2383 92.234 72.3898 92.4881 72.4915C92.7423 72.5932 93.0142 72.6429 93.2879 72.6378H101.139C101.678 72.6378 102.169 72.4106 102.574 72.0459C102.785 71.8608 102.952 71.6298 103.061 71.3707C103.17 71.1115 103.218 70.8309 103.203 70.5502V52.8899C104.323 54.116 105.758 55.0251 107.327 55.5694C109.391 56.3411 111.545 56.7057 113.741 56.7057C116.251 56.7057 118.719 56.2486 121.008 55.2523C123.306 54.2942 125.382 52.8729 127.106 51.077C128.896 49.2053 130.299 46.9989 131.234 44.5842C132.297 41.8821 132.815 38.9966 132.759 36.0936C132.792 33.1787 132.275 30.2837 131.234 27.5608C130.269 25.1876 128.868 23.0159 127.104 21.1578H127.106ZM120.022 39.8593C119.611 40.9558 118.986 41.9593 118.183 42.8111C117.387 43.6667 116.421 44.3468 115.347 44.8078C114.273 45.2688 113.115 45.5004 111.946 45.488C110.736 45.488 109.571 45.2607 108.495 44.7613C107.434 44.3036 106.473 43.6409 105.668 42.8111C104.866 41.9495 104.228 40.9493 103.784 39.8593C102.887 37.5217 102.887 34.9351 103.784 32.5975C104.188 31.5088 104.862 30.5099 105.668 29.6907C106.48 28.8573 107.438 28.1809 108.495 27.6955C109.573 27.1872 110.755 26.9383 111.946 26.9688C113.159 26.9688 114.325 27.1961 115.445 27.6929C116.476 28.195 117.419 28.8292 118.228 29.6484C119.034 30.5099 119.618 31.4612 120.067 32.5526C120.927 34.9151 120.911 37.5075 120.022 39.8593ZM175.007 16.6628H167.204C166.933 16.6618 166.666 16.7177 166.419 16.827C166.171 16.9363 165.95 17.0964 165.769 17.297C165.568 17.5008 165.409 17.7422 165.302 18.0075C165.194 18.2728 165.14 18.5567 165.142 18.8429V19.7942C164.161 18.653 162.955 17.7264 161.599 17.0724C159.477 16.0414 157.14 15.5279 154.781 15.574C149.756 15.5827 144.937 17.573 141.371 21.1129C139.532 22.9801 138.07 25.1835 137.063 27.603C135.944 30.3068 135.395 33.2127 135.451 36.1386C135.403 39.0637 135.952 41.9679 137.063 44.6741C138.065 47.0856 139.511 49.2872 141.326 51.1642C143.06 52.9509 145.138 54.3668 147.436 55.3262C149.733 56.2856 152.202 56.7684 154.691 56.7454C157.07 56.7929 159.4 56.2935 161.554 55.247C162.899 54.5679 164.154 53.6615 165.142 52.5252V53.569C165.142 54.1134 165.364 54.6577 165.769 55.0673C166.173 55.4294 166.667 55.6566 167.204 55.6566H175.007C175.555 55.6464 176.081 55.4369 176.487 55.0673C176.681 54.8705 176.833 54.6361 176.933 54.3785C177.034 54.1208 177.081 53.8454 177.071 53.569V18.8429C177.083 18.2862 176.874 17.7474 176.489 17.3446C176.311 17.125 176.085 16.9494 175.829 16.8311C175.572 16.7129 175.289 16.6553 175.007 16.6628ZM164.469 39.8144C164.058 40.9109 163.433 41.9144 162.629 42.7661C161.823 43.5842 160.883 44.2588 159.85 44.7613C157.651 45.7602 155.093 45.7602 152.897 44.7613C151.84 44.276 150.881 43.5996 150.07 42.7661C149.267 41.9143 148.643 40.9108 148.233 39.8144C147.381 37.4842 147.381 34.9277 148.233 32.5975C148.635 31.5088 149.264 30.5548 150.072 29.6907C150.878 28.8741 151.819 28.195 152.897 27.6955C153.989 27.2022 155.174 26.947 156.372 26.947C157.57 26.947 158.755 27.2022 159.847 27.6955C160.88 28.195 161.823 28.8292 162.629 29.6458C163.393 30.5099 164.019 31.4612 164.469 32.5526C165.367 34.9124 165.367 37.4995 164.469 39.8144ZM252.826 35.137C251.701 34.1469 250.41 33.364 249.012 32.8248C247.532 32.2339 246.001 31.7776 244.438 31.4612L238.472 30.2826C236.947 30.0104 235.871 29.6008 235.287 29.1014C235.045 28.9325 234.845 28.7088 234.705 28.4485C234.565 28.1882 234.489 27.8986 234.481 27.603C234.481 26.9688 234.841 26.4245 235.602 25.9699C236.632 25.4256 237.755 25.1507 238.921 25.2432C240.445 25.2432 241.97 25.5603 243.36 26.1496C244.708 26.7416 246.053 27.4234 247.263 28.2373C249.012 29.3286 250.492 29.1463 251.523 27.9202L254.395 24.6539C254.932 24.1069 255.246 23.3829 255.294 22.6112C255.27 22.2137 255.161 21.8258 254.975 21.4736C254.789 21.1213 254.53 20.8128 254.216 20.5685C253.003 19.5247 251.076 18.3884 248.518 17.2996C245.963 16.2109 242.731 15.619 238.921 15.619C236.595 15.5878 234.279 15.9249 232.058 16.6179C230.16 17.2033 228.382 18.1253 226.81 19.3397C225.394 20.4485 224.245 21.8609 223.446 23.4727C222.686 25.0442 222.288 26.7663 222.281 28.5121C222.281 31.736 223.267 34.368 225.196 36.3183C227.125 38.2711 229.683 39.5422 232.867 40.1764L239.056 41.54C240.403 41.7673 241.746 42.1742 243.003 42.7661C243.675 43.0383 244.124 43.7175 244.124 44.4891C244.124 45.1709 243.764 45.8051 243.003 46.3521C242.24 46.8965 240.985 47.2585 239.37 47.2585C237.677 47.2873 236.002 46.9142 234.481 46.1698C233.04 45.4743 231.698 44.5891 230.491 43.5378C229.962 43.0925 229.352 42.7533 228.694 42.5389C227.978 42.3116 227.125 42.5389 226.184 43.3105L222.775 45.8976C222.311 46.232 221.951 46.6909 221.737 47.2212C221.523 47.7514 221.463 48.3315 221.565 48.8943C221.742 50.0306 222.685 51.1616 224.435 52.4802C228.734 55.3829 233.824 56.8889 239.011 56.7929C241.425 56.8242 243.83 56.4874 246.143 55.794C248.126 55.1944 249.992 54.2575 251.658 53.0246C253.137 51.8883 254.395 50.4349 255.246 48.7569C256.067 47.1062 256.496 45.2887 256.501 43.4453C256.539 41.7884 256.202 40.1444 255.516 38.6358C254.838 37.3173 253.926 36.1301 252.826 35.137ZM286.911 44.5816C286.736 44.2716 286.491 44.0071 286.195 43.8097C285.899 43.6123 285.56 43.4874 285.207 43.4453C284.491 43.4453 283.772 43.6725 283.188 44.0795C282.238 44.7041 281.139 45.0652 280.004 45.126C279.644 45.126 279.243 45.081 278.883 44.9885C278.494 44.9105 278.136 44.7214 277.853 44.4442C277.494 44.1103 277.205 43.71 276.999 43.2656C276.746 42.5994 276.624 41.8905 276.64 41.178V27.0138H286.776C287.368 26.9997 287.932 26.7551 288.346 26.332C288.556 26.1428 288.725 25.9118 288.841 25.6538C288.957 25.3958 289.018 25.1165 289.02 24.8336V18.8456C289.024 18.5552 288.965 18.2674 288.849 18.0012C288.733 17.7351 288.561 17.4968 288.346 17.3023C287.939 16.901 287.392 16.6736 286.821 16.6681H276.685V6.99624C276.701 6.70868 276.653 6.42107 276.545 6.15418C276.437 5.88729 276.27 5.64779 276.058 5.45298C275.669 5.08431 275.157 4.87416 274.621 4.86368H266.728C266.162 4.85267 265.614 5.06429 265.203 5.45298C264.785 5.85903 264.544 6.41354 264.532 6.99624V16.6681H260.045C259.763 16.6603 259.482 16.7175 259.226 16.8352C258.969 16.953 258.743 17.1282 258.565 17.3472C258.199 17.7612 257.992 18.2927 257.984 18.8456V24.8363C257.984 25.3806 258.206 25.9277 258.565 26.3346C258.736 26.5619 258.961 26.7431 259.219 26.8621C259.477 26.9811 259.761 27.0341 260.045 27.0164H264.532V43.8575C264.488 45.8567 264.886 47.8409 265.697 49.6685C266.42 51.162 267.443 52.4906 268.702 53.5716C269.957 54.6154 271.437 55.3422 272.961 55.7967C274.545 56.288 276.195 56.5331 277.853 56.5234C280.033 56.519 282.198 56.1657 284.266 55.4769C286.184 54.8371 287.922 53.7481 289.334 52.3006C289.763 51.8595 290.024 51.2825 290.073 50.6693C290.122 50.0561 289.955 49.4451 289.601 48.9418L286.911 44.5816ZM329.653 16.6628H321.85C321.58 16.6618 321.312 16.7177 321.065 16.827C320.818 16.9363 320.596 17.0964 320.415 17.297C320.214 17.5005 320.054 17.7418 319.946 18.0071C319.838 18.2725 319.784 18.5565 319.786 18.8429V19.7942C318.805 18.6523 317.599 17.7256 316.243 17.0724C314.107 16.0366 311.756 15.5231 309.383 15.574C306.9 15.5742 304.442 16.0634 302.149 17.0138C299.856 17.9642 297.772 19.3571 296.017 21.1129C294.164 22.9686 292.7 25.175 291.71 27.603C290.594 30.2914 290.045 33.1808 290.095 36.091C290.049 39.0163 290.598 41.9204 291.71 44.6265C292.698 47.0313 294.178 49.2563 295.972 51.1167C297.701 52.9007 299.772 54.3185 302.06 55.2855C304.349 56.2525 306.809 56.749 309.293 56.7454C311.66 56.7896 314.007 56.2925 316.153 55.292C317.501 54.6128 318.756 53.7064 319.741 52.5701V53.569C319.747 54.1239 319.963 54.6524 320.349 55.0409C320.734 55.4308 321.257 55.6522 321.805 55.6566H329.653C330.197 55.6573 330.719 55.443 331.106 55.0604C331.493 54.6778 331.712 54.1578 331.717 53.6139V18.8456C331.723 18.5697 331.674 18.2954 331.574 18.0383C331.474 17.7812 331.324 17.5464 331.133 17.3472C330.955 17.1275 330.729 16.9517 330.473 16.8335C330.216 16.7153 329.936 16.6551 329.653 16.6628ZM319.115 39.8144C318.704 40.9105 318.079 41.9139 317.276 42.7661C316.468 43.5844 315.527 44.2591 314.493 44.7613C313.401 45.2748 312.204 45.5237 310.997 45.488C309.784 45.488 308.619 45.2158 307.544 44.7613C306.486 44.276 305.528 43.5996 304.716 42.7661C303.913 41.9139 303.288 40.9105 302.877 39.8144C302.026 37.484 302.026 34.9279 302.877 32.5975C303.289 31.5151 303.914 30.5266 304.716 29.6907C305.525 28.8741 306.465 28.195 307.544 27.6955C308.628 27.2033 309.807 26.9553 310.997 26.9688C312.208 26.9688 313.373 27.1961 314.493 27.6929C315.527 28.195 316.467 28.8292 317.276 29.6484C318.082 30.5099 318.711 31.4612 319.115 32.5526C320.055 34.8818 320.055 37.4851 319.115 39.8144ZM372.488 44.0821L368.001 40.6309C367.15 39.9518 366.342 39.7695 365.626 40.0416C364.994 40.3124 364.429 40.7152 363.966 41.2229C362.985 42.4111 361.837 43.4508 360.557 44.3094C359.212 45.081 357.73 45.4457 356.205 45.3532C354.452 45.3729 352.738 44.8414 351.303 43.8337C349.861 42.8203 348.769 41.3847 348.177 39.7245C347.77 38.588 347.558 37.3907 347.551 36.1835C347.551 34.9573 347.728 33.7312 348.177 32.5526C348.581 31.4612 349.165 30.465 349.971 29.6458C350.78 28.8292 351.721 28.1474 352.751 27.6929C353.849 27.1877 355.042 26.9254 356.25 26.9239C357.774 26.869 359.283 27.2465 360.602 28.0126C361.892 28.8579 363.042 29.8993 364.011 31.0992C364.458 31.5986 364.997 32.0056 365.626 32.2804C366.342 32.5526 367.15 32.3703 367.956 31.6885L372.443 28.2848C372.98 27.9202 373.429 27.3758 373.608 26.7416C373.736 26.4021 373.785 26.0386 373.754 25.6775C373.723 25.3163 373.612 24.9667 373.429 24.6539C371.698 21.9523 369.325 19.7216 366.521 18.1611C363.562 16.4831 360.018 15.619 356.07 15.619C353.287 15.6197 350.531 16.159 347.953 17.2072C345.489 18.2126 343.249 19.6943 341.36 21.5674C339.464 23.4232 337.969 25.6471 336.965 28.1025C334.856 33.299 334.856 39.1129 336.965 44.3094C337.996 46.7591 339.475 48.9841 341.36 50.7996C345.286 54.6463 350.574 56.7838 356.07 56.7454C360.018 56.7454 363.562 55.8839 366.521 54.2032C369.349 52.6408 371.739 50.3938 373.474 47.6681C373.657 47.3636 373.768 47.0214 373.799 46.6675C373.83 46.3136 373.78 45.9572 373.653 45.6254C373.44 44.9993 373.032 44.4583 372.488 44.0821ZM414.017 52.1605L401.685 34.0483L412.226 20.114C412.472 19.796 412.64 19.425 412.718 19.0305C412.795 18.636 412.78 18.2288 412.672 17.8414C412.493 17.2996 412.001 16.7077 410.701 16.7077H402.359C401.878 16.7213 401.405 16.829 400.966 17.0248C400.451 17.2842 400.028 17.6968 399.756 18.206L391.324 30.0104H389.305V2.09162C389.311 1.81592 389.263 1.54168 389.163 1.28458C389.064 1.02748 388.914 0.792571 388.724 0.593281C388.528 0.401799 388.297 0.251082 388.043 0.14991C387.789 0.0487377 387.517 -0.000866474 387.244 0.00398675H379.438C378.889 0.0145007 378.364 0.223926 377.958 0.593281C377.75 0.781348 377.585 1.01322 377.477 1.27228C377.369 1.53133 377.319 1.81113 377.332 2.09162V53.569C377.332 54.1583 377.554 54.7053 377.958 55.0673C378.153 55.2591 378.384 55.4099 378.639 55.5111C378.893 55.6123 379.164 55.6618 379.438 55.6566H387.244C387.792 55.6461 388.318 55.4367 388.724 55.0673C388.914 54.868 389.064 54.6331 389.163 54.376C389.263 54.1189 389.311 53.8447 389.305 53.569V39.9518H391.548L400.742 54.0684C401.281 55.0673 402.314 55.7015 403.434 55.7015H412.181C413.526 55.7015 414.062 55.0673 414.287 54.523C414.445 54.1384 414.503 53.7201 414.456 53.3071C414.409 52.894 414.258 52.4996 414.017 52.1605ZM219.366 16.6628H210.62C210.296 16.6438 209.973 16.695 209.671 16.8126C209.369 16.9303 209.096 17.1117 208.87 17.3446C208.475 17.747 208.196 18.2494 208.064 18.798L201.604 42.856H200.037L193.132 18.798C193 18.2894 192.771 17.8111 192.458 17.3895C192.267 17.1585 192.027 16.9732 191.756 16.8474C191.484 16.7217 191.188 16.6585 190.888 16.6628H181.827C180.664 16.6628 179.946 17.0275 179.631 17.7991C179.407 18.4782 179.407 19.2525 179.631 19.9316L190.709 53.7513C190.888 54.2508 191.158 54.7502 191.562 55.1123C192.011 55.5219 192.593 55.7465 193.219 55.7015H197.886L197.481 56.7929L196.451 59.9244C196.134 60.8757 195.552 61.7398 194.746 62.3741C194.001 62.947 193.084 63.2514 192.143 63.2382C191.337 63.2382 190.532 63.0558 189.813 62.7361C189.076 62.4165 188.383 62.0055 187.749 61.5126C187.173 61.1013 186.483 60.8797 185.775 60.8784H185.685C185.279 60.8985 184.886 61.0214 184.54 61.2354C184.195 61.4494 183.91 61.7475 183.711 62.1019L180.931 66.1873C179.811 67.9578 180.437 69.0941 181.156 69.7283C182.639 71.0982 184.398 72.1353 186.314 72.7699C188.437 73.4947 190.664 73.8626 192.907 73.8587C196.897 73.8587 200.261 72.7699 202.816 70.5925C205.485 68.2494 207.43 65.1941 208.424 61.7848L221.253 19.9316C221.523 19.2049 221.568 18.4333 221.298 17.7066C221.073 17.2072 220.577 16.6628 219.366 16.6628Z" fill="#011B33"/>
</svg>
