<svg width="72" height="72" viewBox="0 0 72 72" fill="none" xmlns="http://www.w3.org/2000/svg">
<circle cx="36" cy="36" r="36" fill="#FADEDE"/>
<path opacity="0.4" d="M35.7556 53.6001C35.5327 53.6001 35.3116 53.5489 35.1104 53.4448L28.6281 50.0894C26.7868 49.1363 25.3479 48.0666 24.2261 46.8205C21.7651 44.0952 20.3987 40.5969 20.3752 36.9679L20.3008 25.0238C20.2918 23.6453 21.1798 22.4079 22.51 21.942L34.4127 17.7923C35.1213 17.5399 35.9096 17.5364 36.6273 17.78L48.5753 21.7884C49.9127 22.235 50.817 23.4635 50.8243 24.8402L50.9004 36.7932C50.924 40.4169 49.6047 43.9293 47.1835 46.6846C46.0708 47.9484 44.6464 49.0339 42.8251 50.0047L36.4007 53.436C36.2014 53.5436 35.9785 53.5983 35.7556 53.6001Z" fill="#E20000"/>
<path d="M37.5226 35.105L39.9673 32.7239C40.4983 32.2068 40.4983 31.3701 39.9673 30.853C39.4363 30.3358 38.5755 30.3358 38.0445 30.853L35.5998 33.2323L33.157 30.853C32.626 30.3358 31.7652 30.3358 31.2342 30.853C30.7032 31.3701 30.7032 32.2068 31.2342 32.7239L33.6789 35.105L31.2342 37.4861C30.7032 38.0032 30.7032 38.8399 31.2342 39.357C31.5006 39.6165 31.8485 39.7453 32.1965 39.7453C32.5426 39.7453 32.8906 39.6165 33.157 39.357L35.5998 36.9777L38.0445 39.357C38.3109 39.6165 38.6571 39.7453 39.005 39.7453C39.353 39.7453 39.7009 39.6165 39.9673 39.357C40.4983 38.8399 40.4983 38.0032 39.9673 37.4861L37.5226 35.105Z" fill="#E20000"/>
</svg>
