<svg width="59" height="32" viewBox="0 0 59 32" fill="none" xmlns="http://www.w3.org/2000/svg">
<path d="M16.918 3.26953C16.9727 3.42578 17 3.53906 17 3.60938C17 3.69531 16.9766 3.75781 16.9297 3.79688C16.8906 3.83594 16.8477 3.90625 16.8008 4.00781C16.7617 4.09375 16.7109 4.15625 16.6484 4.19531C16.5938 4.22656 16.5352 4.25781 16.4727 4.28906C16.418 4.32031 16.3633 4.35547 16.3086 4.39453C16.2539 4.42578 16.2109 4.48047 16.1797 4.55859C16.125 4.69141 16.043 4.78906 15.9336 4.85156C15.832 4.91406 15.7188 4.94531 15.5938 4.94531C15.4688 4.94531 15.3438 4.91406 15.2188 4.85156C15.1016 4.78125 14.9688 4.69531 14.8203 4.59375C14.6797 4.49219 14.5156 4.38281 14.3281 4.26562C14.1484 4.14062 13.9258 4.02734 13.6602 3.92578C13.3945 3.82422 13.082 3.74219 12.7227 3.67969C12.3633 3.60938 11.9414 3.57422 11.457 3.57422C10.7539 3.57422 10.1211 3.67578 9.55859 3.87891C9.00391 4.07422 8.49219 4.42187 8.02344 4.92188C7.71094 5.25781 7.48047 5.60547 7.33203 5.96484C7.18359 6.31641 7.10938 6.65625 7.10938 6.98438C7.10938 7.28125 7.17578 7.54688 7.30859 7.78125C7.44922 8.01562 7.63672 8.23047 7.87109 8.42578C8.10547 8.61328 8.37891 8.78906 8.69141 8.95312C9.01172 9.10938 9.35156 9.26562 9.71094 9.42188C10.0781 9.57031 10.457 9.71875 10.8477 9.86719C11.2461 10.0156 11.6406 10.1758 12.0312 10.3477C12.6094 10.6055 13.1289 10.8906 13.5898 11.2031C14.0508 11.5078 14.4414 11.8477 14.7617 12.2227C15.082 12.5977 15.3281 13.0039 15.5 13.4414C15.6719 13.8789 15.7578 14.3516 15.7578 14.8594C15.7578 15.5078 15.6445 16.1211 15.418 16.6992C15.1914 17.2695 14.8438 17.7695 14.375 18.1992C13.9062 18.6289 13.3164 18.9688 12.6055 19.2188C11.9023 19.4766 11.0703 19.6055 10.1094 19.6055C9.4375 19.6055 8.84766 19.5234 8.33984 19.3594C7.83203 19.1953 7.40234 19 7.05078 18.7734C6.70703 18.5547 6.43359 18.332 6.23047 18.1055C6.03516 17.8867 5.91016 17.7148 5.85547 17.5898C5.81641 17.5039 5.78906 17.4336 5.77344 17.3789C5.76562 17.3164 5.76172 17.2656 5.76172 17.2266C5.76172 17.1406 5.77734 17.0781 5.80859 17.0391C5.84766 17 5.91016 16.9141 5.99609 16.7812C6.02734 16.7266 6.07031 16.6875 6.125 16.6641C6.17969 16.6328 6.23438 16.6055 6.28906 16.582C6.35156 16.5508 6.41016 16.5156 6.46484 16.4766C6.51953 16.4375 6.56641 16.3789 6.60547 16.3008C6.73047 16.043 6.91406 15.9141 7.15625 15.9141C7.28906 15.9141 7.41797 15.9609 7.54297 16.0547C7.67578 16.1406 7.82031 16.25 7.97656 16.3828C8.13281 16.5156 8.30859 16.6641 8.50391 16.8281C8.70703 16.9844 8.94531 17.1289 9.21875 17.2617C9.49219 17.3945 9.80469 17.5078 10.1562 17.6016C10.5156 17.6875 10.9336 17.7305 11.4102 17.7305C12.0039 17.7305 12.5039 17.6719 12.9102 17.5547C13.3164 17.4375 13.6406 17.2773 13.8828 17.0742C14.1328 16.8633 14.3125 16.6172 14.4219 16.3359C14.5312 16.0547 14.5859 15.75 14.5859 15.4219C14.5859 15.0156 14.5078 14.6641 14.3516 14.3672C14.2031 14.0703 13.9922 13.8086 13.7188 13.582C13.4531 13.3555 13.1328 13.1562 12.7578 12.9844C12.3828 12.8047 11.9688 12.6289 11.5156 12.457C11.0703 12.2852 10.5938 12.1094 10.0859 11.9297C9.58594 11.7422 9.07422 11.5273 8.55078 11.2852C8.13672 11.0977 7.75781 10.8906 7.41406 10.6641C7.07031 10.4297 6.77344 10.168 6.52344 9.87891C6.28125 9.58984 6.09375 9.26562 5.96094 8.90625C5.82812 8.53906 5.76172 8.125 5.76172 7.66406C5.76172 7.10938 5.84375 6.56641 6.00781 6.03516C6.17969 5.49609 6.41797 4.99219 6.72266 4.52344C7.02734 4.04687 7.39062 3.60938 7.8125 3.21094C8.24219 2.8125 8.71094 2.46875 9.21875 2.17969C9.72656 1.88281 10.2695 1.65625 10.8477 1.5C11.4258 1.33594 12.0234 1.25391 12.6406 1.25391C13.3203 1.25391 13.918 1.33984 14.4336 1.51172C14.9492 1.67578 15.3828 1.87109 15.7344 2.09766C16.0859 2.31641 16.3594 2.53906 16.5547 2.76562C16.75 2.98438 16.8711 3.15234 16.918 3.26953ZM19.707 17.168C19.8945 17.168 20.0586 17.1055 20.1992 16.9805C20.3398 16.8555 20.457 16.6914 20.5508 16.4883C20.6523 16.2852 20.7344 16.0508 20.7969 15.7852C20.8594 15.5117 20.9062 15.2305 20.9375 14.9414C20.7109 14.7852 20.4883 14.582 20.2695 14.332C20.0586 14.082 19.8672 13.7773 19.6953 13.418C19.5938 13.207 19.5195 12.9922 19.4727 12.7734C19.4258 12.5469 19.4023 12.332 19.4023 12.1289C19.4023 11.8711 19.4375 11.6289 19.5078 11.4023C19.5781 11.1758 19.6797 10.9805 19.8125 10.8164C19.9531 10.6523 20.125 10.5234 20.3281 10.4297C20.5312 10.3281 20.7656 10.2773 21.0312 10.2773C21.3672 10.2773 21.6406 10.3594 21.8516 10.5234C22.0703 10.6797 22.2422 10.8828 22.3672 11.1328C22.4922 11.375 22.5781 11.6406 22.625 11.9297C22.6797 12.2188 22.707 12.4883 22.707 12.7383C22.707 13.0664 22.6836 13.4023 22.6367 13.7461C22.5977 14.0898 22.5312 14.4375 22.4375 14.7891C22.7266 14.7656 22.9844 14.6875 23.2109 14.5547C23.4375 14.4141 23.6289 14.1797 23.7852 13.8516C23.8789 13.6562 23.9766 13.5586 24.0781 13.5586C24.1328 13.5586 24.1797 13.5742 24.2188 13.6055C24.2656 13.6367 24.2891 13.6875 24.2891 13.7578C24.2891 13.8125 24.2773 13.8672 24.2539 13.9219C24.0977 14.3672 23.8359 14.7188 23.4688 14.9766C23.1094 15.2344 22.707 15.3633 22.2617 15.3633C22.1289 15.7461 21.9648 16.1094 21.7695 16.4531C21.582 16.7891 21.3594 17.0859 21.1016 17.3438C20.8438 17.6016 20.5508 17.8047 20.2227 17.9531C19.8945 18.1016 19.5312 18.1758 19.1328 18.1758C18.9219 18.1758 18.6836 18.1445 18.418 18.082C18.1523 18.0195 17.9023 17.8906 17.668 17.6953C17.4336 17.4922 17.2383 17.2109 17.082 16.8516C16.918 16.4844 16.8359 16 16.8359 15.3984C16.8359 14.9062 16.9297 14.3867 17.1172 13.8398C17.2969 13.293 17.6016 12.75 18.0312 12.2109C18.1953 12.0078 18.3438 11.8633 18.4766 11.7773C18.6172 11.6914 18.7305 11.6484 18.8164 11.6484C18.9883 11.6484 19.0742 11.7539 19.0742 11.9648C19.0742 12.0586 19.043 12.1758 18.9805 12.3164C18.918 12.457 18.8516 12.6367 18.7812 12.8555C18.7109 13.0742 18.6445 13.3359 18.582 13.6406C18.5195 13.9375 18.4883 14.2891 18.4883 14.6953C18.4883 15.4766 18.5977 16.0859 18.8164 16.5234C19.043 16.9531 19.3398 17.168 19.707 17.168ZM21.0078 13.7227C21.0078 12.9258 20.9336 12.3555 20.7852 12.0117C20.6367 11.6602 20.4727 11.5195 20.293 11.5898C20.2148 11.6211 20.168 11.6914 20.1523 11.8008C20.1445 11.9102 20.1406 12.0156 20.1406 12.1172C20.1406 12.2891 20.1641 12.4688 20.2109 12.6562C20.2578 12.8438 20.3164 13.0312 20.3867 13.2188C20.4648 13.4062 20.5547 13.5859 20.6562 13.7578C20.7656 13.9219 20.8789 14.0742 20.9961 14.2148C21.0039 14.1289 21.0078 14.0469 21.0078 13.9688C21.0078 13.8906 21.0078 13.8086 21.0078 13.7227ZM28.2266 13.5586C28.2734 13.5586 28.3125 13.5781 28.3438 13.6172C28.3828 13.6484 28.4023 13.6953 28.4023 13.7578C28.4023 13.8125 28.3906 13.8672 28.3672 13.9219C28.2109 14.375 28.0586 14.793 27.9102 15.1758C27.7695 15.5508 27.6289 15.8984 27.4883 16.2188C27.3555 16.5234 27.2266 16.7852 27.1016 17.0039C26.9844 17.2227 26.8672 17.4062 26.75 17.5547C26.6406 17.7031 26.5273 17.8242 26.4102 17.918C26.3008 18.0039 26.1875 18.0664 26.0703 18.1055C25.9531 18.1445 25.8164 18.1641 25.6602 18.1641C25.4883 18.1641 25.3008 18.125 25.0977 18.0469C24.8945 17.9766 24.7031 17.8359 24.5234 17.625C24.3516 17.4141 24.207 17.1211 24.0898 16.7461C23.9727 16.3633 23.9141 15.8672 23.9141 15.2578C23.9141 15.0938 23.9219 14.8164 23.9375 14.4258C23.9609 14.0352 23.9883 13.5664 24.0195 13.0195C24.0586 12.4648 24.1016 11.8398 24.1484 11.1445C24.2031 10.4492 24.2617 9.71484 24.3242 8.94141C24.3633 8.46484 24.4102 7.94531 24.4648 7.38281C24.5273 6.8125 24.5898 6.25781 24.6523 5.71875C24.7148 5.17969 24.7773 4.68359 24.8398 4.23047C24.9023 3.77734 24.957 3.42188 25.0039 3.16406C25.0586 2.89063 25.1641 2.67578 25.3203 2.51953C25.4766 2.36328 25.6523 2.19531 25.8477 2.01562C25.918 1.94531 25.9922 1.87109 26.0703 1.79297C26.1484 1.70703 26.2266 1.62891 26.3047 1.55859C26.3828 1.48828 26.457 1.42969 26.5273 1.38281C26.6055 1.32812 26.6797 1.30078 26.75 1.30078C26.8594 1.30078 26.9141 1.35547 26.9141 1.46484C26.9141 1.55078 26.8945 1.70703 26.8555 1.93359C26.8164 2.16016 26.7617 2.52344 26.6914 3.02344C26.6211 3.52344 26.5352 4.19922 26.4336 5.05078C26.3398 5.89453 26.2383 6.98047 26.1289 8.30859C26.1055 8.57422 26.0781 8.89062 26.0469 9.25781C26.0156 9.625 25.9844 10.0156 25.9531 10.4297C25.9219 10.8359 25.8906 11.2539 25.8594 11.6836C25.8359 12.1055 25.8125 12.5078 25.7891 12.8906C25.7656 13.2656 25.7461 13.6094 25.7305 13.9219C25.7148 14.2344 25.707 14.4844 25.707 14.6719C25.707 15.2109 25.7617 15.6367 25.8711 15.9492C25.9883 16.2539 26.1797 16.4062 26.4453 16.4062C26.5938 16.4062 26.7266 16.3398 26.8438 16.207C26.9609 16.0742 27.0742 15.8945 27.1836 15.668C27.293 15.4336 27.4062 15.1641 27.5234 14.8594C27.6406 14.5469 27.7695 14.2109 27.9102 13.8516C27.9492 13.7578 27.9961 13.6875 28.0508 13.6406C28.1055 13.5859 28.1641 13.5586 28.2266 13.5586ZM35.457 13.5586C35.5039 13.5586 35.543 13.5742 35.5742 13.6055C35.6133 13.6367 35.6328 13.6875 35.6328 13.7578C35.6328 13.7891 35.6211 13.8438 35.5977 13.9219C35.3945 14.5312 35.1992 15.0781 35.0117 15.5625C34.8242 16.0469 34.6406 16.4688 34.4609 16.8281C34.2578 17.2344 34.0312 17.5625 33.7812 17.8125C33.5312 18.0625 33.1992 18.1875 32.7852 18.1875C32.6211 18.1875 32.457 18.1562 32.293 18.0938C32.1367 18.0391 31.9922 17.9375 31.8594 17.7891C31.7266 17.6328 31.6055 17.4219 31.4961 17.1562C31.3867 16.8906 31.3047 16.5547 31.25 16.1484C31.125 16.3984 30.9844 16.6484 30.8281 16.8984C30.6797 17.1484 30.5117 17.3711 30.3242 17.5664C30.1367 17.7617 29.9297 17.918 29.7031 18.0352C29.4766 18.1602 29.2266 18.2227 28.9531 18.2227C28.75 18.2227 28.5586 18.1562 28.3789 18.0234C28.207 17.8984 28.0586 17.7227 27.9336 17.4961C27.8008 17.2617 27.6992 16.9844 27.6289 16.6641C27.5508 16.3438 27.5117 15.9883 27.5117 15.5977C27.5117 15.1836 27.5508 14.7773 27.6289 14.3789C27.6992 13.9805 27.8008 13.6016 27.9336 13.2422C28.0664 12.875 28.2266 12.5391 28.4141 12.2344C28.6094 11.9219 28.8203 11.6523 29.0469 11.4258C29.4375 11.0352 29.8164 10.75 30.1836 10.5703C30.5508 10.3828 30.875 10.2891 31.1562 10.2891C31.1953 10.2891 31.2266 10.2891 31.25 10.2891C31.2734 10.2891 31.3086 10.293 31.3555 10.3008C31.3867 9.91797 31.418 9.51562 31.4492 9.09375C31.4805 8.66406 31.5273 8.20703 31.5898 7.72266C31.668 7.11328 31.7383 6.59766 31.8008 6.17578C31.8633 5.75391 31.9219 5.39453 31.9766 5.09766C32.0391 4.79297 32.1016 4.53516 32.1641 4.32422C32.2344 4.10547 32.3164 3.90234 32.4102 3.71484C32.4648 3.59766 32.5234 3.5 32.5859 3.42188C32.6562 3.34375 32.7266 3.27344 32.7969 3.21094C32.875 3.14844 32.957 3.08203 33.043 3.01172C33.1367 2.93359 33.2383 2.83984 33.3477 2.73047C33.543 2.53516 33.707 2.39844 33.8398 2.32031C33.9805 2.23438 34.0898 2.19141 34.168 2.19141C34.2539 2.19141 34.3242 2.21484 34.3789 2.26172C34.4414 2.30078 34.4727 2.38281 34.4727 2.50781C34.4727 2.54687 34.4688 2.58984 34.4609 2.63672C34.4531 2.68359 34.4414 2.73437 34.4258 2.78906C34.3945 2.89844 34.3438 3.10156 34.2734 3.39844C34.2031 3.69531 34.125 4.05859 34.0391 4.48828C33.9531 4.91016 33.8633 5.39062 33.7695 5.92969C33.6758 6.46094 33.5898 7.01172 33.5117 7.58203C33.4258 8.23828 33.3477 8.89453 33.2773 9.55078C33.2148 10.1992 33.1602 10.8281 33.1133 11.4375C33.0742 12.0391 33.043 12.6055 33.0195 13.1367C32.9961 13.668 32.9844 14.1406 32.9844 14.5547C32.9844 14.8281 32.9922 15.082 33.0078 15.3164C33.0312 15.543 33.0664 15.7422 33.1133 15.9141C33.1602 16.0859 33.2227 16.2188 33.3008 16.3125C33.3867 16.4062 33.4883 16.4531 33.6055 16.4531C33.7383 16.4531 33.8594 16.3984 33.9688 16.2891C34.0859 16.1719 34.2031 16.0039 34.3203 15.7852C34.4375 15.5586 34.5625 15.2852 34.6953 14.9648C34.8281 14.6367 34.9766 14.2656 35.1406 13.8516C35.2109 13.6562 35.3164 13.5586 35.457 13.5586ZM31.25 11.7305C31.25 11.3945 31.1055 11.2266 30.8164 11.2266C30.5898 11.2266 30.375 11.3047 30.1719 11.4609C29.9688 11.6172 29.7891 11.8359 29.6328 12.1172C29.4766 12.3984 29.3516 12.7344 29.2578 13.125C29.1641 13.5156 29.1172 13.9453 29.1172 14.4141C29.1172 14.9219 29.1953 15.3438 29.3516 15.6797C29.5156 16.0078 29.7656 16.1719 30.1016 16.1719C30.2891 16.1719 30.4492 16.1172 30.582 16.0078C30.7148 15.8984 30.8203 15.7578 30.8984 15.5859C30.9844 15.4141 31.0469 15.2305 31.0859 15.0352C31.1328 14.832 31.1641 14.6406 31.1797 14.4609C31.1797 14.1953 31.1797 13.9336 31.1797 13.6758C31.1875 13.4102 31.1953 13.1562 31.2031 12.9141C31.2109 12.6719 31.2188 12.4492 31.2266 12.2461C31.2344 12.043 31.2422 11.8711 31.25 11.7305Z" fill="url(#paint0_linear_7871_8684)"/>
<path d="M40.0625 22.3242C40.0625 23.2695 39.9688 24.1523 39.7812 24.9727C39.6016 25.7852 39.3516 26.5312 39.0312 27.2109C38.7188 27.8906 38.3438 28.4961 37.9062 29.0273C37.4688 29.5508 36.9961 29.9922 36.4883 30.3516C35.9883 30.7188 35.457 30.9961 34.8945 31.1836C34.3398 31.3789 33.7812 31.4766 33.2188 31.4766C32.8047 31.4766 32.3633 31.4102 31.8945 31.2773C31.4336 31.1445 30.9727 30.9375 30.5117 30.6562C30.0586 30.3828 29.625 30.0312 29.2109 29.6016C28.7969 29.1641 28.4297 28.6445 28.1094 28.043C27.7891 27.4414 27.5352 26.75 27.3477 25.9688C27.1602 25.1875 27.0664 24.3086 27.0664 23.332C27.0664 22.3633 27.1523 21.3984 27.3242 20.4375C27.5039 19.4766 27.7812 18.5586 28.1562 17.6836C28.5312 16.8086 29.0117 16 29.5977 15.2578C30.1914 14.5078 30.9023 13.8633 31.7305 13.3242C31.8086 13.2773 31.8867 13.2539 31.9648 13.2539C32.0898 13.2539 32.1523 13.3086 32.1523 13.418C32.1523 13.4883 32.125 13.5508 32.0703 13.6055C32.0234 13.6523 31.9219 13.7578 31.7656 13.9219C31.6172 14.0781 31.4414 14.3086 31.2383 14.6133C31.0352 14.9102 30.8203 15.2852 30.5938 15.7383C30.3672 16.1836 30.1562 16.7266 29.9609 17.3672C29.7734 18 29.6172 18.7305 29.4922 19.5586C29.3672 20.3867 29.3047 21.3242 29.3047 22.3711C29.3047 23.6602 29.4102 24.7734 29.6211 25.7109C29.8398 26.6406 30.1367 27.4102 30.5117 28.0195C30.8867 28.6289 31.3242 29.082 31.8242 29.3789C32.332 29.668 32.875 29.8125 33.4531 29.8125C33.7109 29.8125 33.9922 29.7578 34.2969 29.6484C34.6094 29.5391 34.918 29.3594 35.2227 29.1094C35.5352 28.8594 35.8359 28.5312 36.125 28.125C36.4141 27.7109 36.668 27.2031 36.8867 26.6016C37.1133 25.9922 37.293 25.2812 37.4258 24.4688C37.5664 23.6562 37.6367 22.7188 37.6367 21.6562C37.6367 20.7734 37.5859 19.9922 37.4844 19.3125C37.3906 18.625 37.2656 18.0312 37.1094 17.5312C36.9531 17.0234 36.7734 16.5977 36.5703 16.2539C36.375 15.9102 36.1719 15.6328 35.9609 15.4219C35.7578 15.2109 35.5547 15.0625 35.3516 14.9766C35.1562 14.8828 34.9844 14.8359 34.8359 14.8359C34.4375 14.8359 34.1172 15.043 33.875 15.457C33.6406 15.8633 33.5234 16.4922 33.5234 17.3438C33.5234 17.9453 33.5781 18.6133 33.6875 19.3477C33.8047 20.082 33.9688 20.8203 34.1797 21.5625C34.3906 22.2969 34.6484 23 34.9531 23.6719C35.2656 24.3359 35.6172 24.8945 36.0078 25.3477C36.0703 25.4258 36.1016 25.4883 36.1016 25.5352C36.1016 25.6602 35.9727 25.7227 35.7148 25.7227C35.5039 25.7227 35.2461 25.6523 34.9414 25.5117C34.6445 25.3633 34.332 25.1523 34.0039 24.8789C33.6836 24.6055 33.3633 24.2695 33.043 23.8711C32.7305 23.4648 32.4453 23.0039 32.1875 22.4883C31.9375 21.9727 31.7344 21.4023 31.5781 20.7773C31.4219 20.1523 31.3438 19.4766 31.3438 18.75C31.3438 17.9453 31.4531 17.2266 31.6719 16.5938C31.8984 15.9531 32.1914 15.4141 32.5508 14.9766C32.9102 14.5312 33.3164 14.1953 33.7695 13.9688C34.2305 13.7344 34.6914 13.6172 35.1523 13.6172C35.4805 13.6172 35.832 13.6875 36.207 13.8281C36.582 13.9609 36.9492 14.1719 37.3086 14.4609C37.6758 14.75 38.0234 15.125 38.3516 15.5859C38.6875 16.0391 38.9805 16.5898 39.2305 17.2383C39.4883 17.8789 39.6914 18.6211 39.8398 19.4648C39.9883 20.3086 40.0625 21.2617 40.0625 22.3242ZM48.7461 25.9219C48.4961 26.6172 48.2695 27.2305 48.0664 27.7617C47.8711 28.2852 47.6719 28.7266 47.4688 29.0859C47.2656 29.4375 47.043 29.7031 46.8008 29.8828C46.5664 30.0625 46.2891 30.1523 45.9688 30.1523C45.6953 30.1523 45.4648 30.0742 45.2773 29.918C45.0898 29.7539 44.9414 29.5508 44.832 29.3086C44.7227 29.0586 44.6445 28.7852 44.5977 28.4883C44.5508 28.1914 44.5273 27.9062 44.5273 27.6328C44.5273 27.4297 44.5273 27.2344 44.5273 27.0469C44.5273 26.8594 44.5352 26.6836 44.5508 26.5195C44.3789 27.2148 44.2031 27.7969 44.0234 28.2656C43.8516 28.7344 43.6758 29.1094 43.4961 29.3906C43.3164 29.6719 43.125 29.875 42.9219 30C42.7266 30.1172 42.5195 30.1758 42.3008 30.1758C42.1367 30.1758 41.9688 30.1328 41.7969 30.0469C41.6328 29.9688 41.4805 29.8125 41.3398 29.5781C41.1992 29.3438 41.082 29.0156 40.9883 28.5938C40.9023 28.1641 40.8594 27.6016 40.8594 26.9062C40.8594 26.7344 40.8633 26.5273 40.8711 26.2852C40.8789 26.0352 40.8945 25.7773 40.918 25.5117C40.9414 25.2383 40.9688 24.9727 41 24.7148C41.0391 24.4492 41.0859 24.2109 41.1406 24C41.1641 23.9062 41.1953 23.793 41.2344 23.6602C41.2734 23.5273 41.3125 23.4414 41.3516 23.4023C41.4375 23.3242 41.5078 23.2539 41.5625 23.1914C41.625 23.1289 41.6758 23.0977 41.7148 23.0977C41.7695 23.0977 41.8125 23.1211 41.8438 23.168C41.8828 23.207 41.9219 23.2266 41.9609 23.2266C41.9844 23.2266 42.0273 23.207 42.0898 23.168C42.1602 23.1289 42.2344 23.0859 42.3125 23.0391C42.3906 22.9922 42.4648 22.9492 42.5352 22.9102C42.6133 22.8711 42.668 22.8516 42.6992 22.8516C42.793 22.8516 42.8398 22.9375 42.8398 23.1094C42.8398 23.1562 42.8359 23.2109 42.8281 23.2734C42.8203 23.3359 42.8086 23.4102 42.793 23.4961C42.7227 23.9961 42.6719 24.4805 42.6406 24.9492C42.6172 25.4102 42.6055 25.9062 42.6055 26.4375C42.6055 26.7344 42.6094 27.0039 42.6172 27.2461C42.625 27.4883 42.6406 27.6992 42.6641 27.8789C42.6953 28.0508 42.7422 28.1875 42.8047 28.2891C42.8672 28.3828 42.9531 28.4297 43.0625 28.4297C43.2188 28.4297 43.3633 28.3281 43.4961 28.125C43.6289 27.9141 43.75 27.6445 43.8594 27.3164C43.9766 26.9883 44.0859 26.625 44.1875 26.2266C44.2891 25.8281 44.3867 25.4414 44.4805 25.0664C44.5742 24.6836 44.668 24.332 44.7617 24.0117C44.8633 23.6914 44.9648 23.4492 45.0664 23.2852C45.168 23.1289 45.3008 23 45.4648 22.8984C45.6367 22.7969 45.7969 22.7461 45.9453 22.7461C46.1172 22.7461 46.2383 22.8125 46.3086 22.9453C46.3867 23.0703 46.4258 23.3164 46.4258 23.6836C46.4258 23.9492 46.418 24.1992 46.4023 24.4336C46.3867 24.668 46.3711 24.9102 46.3555 25.1602C46.3398 25.4102 46.3242 25.6797 46.3086 25.9688C46.293 26.25 46.2852 26.5664 46.2852 26.918C46.2852 27.2383 46.2969 27.5 46.3203 27.7031C46.3516 27.8984 46.3906 28.0508 46.4375 28.1602C46.4844 28.2695 46.5352 28.3438 46.5898 28.3828C46.6445 28.4219 46.6992 28.4414 46.7539 28.4414C46.8867 28.4414 47.0117 28.3828 47.1289 28.2656C47.2461 28.1484 47.3633 27.9805 47.4805 27.7617C47.6055 27.5352 47.7305 27.2617 47.8555 26.9414C47.9883 26.6211 48.1328 26.2578 48.2891 25.8516C48.3281 25.7578 48.375 25.6875 48.4297 25.6406C48.4844 25.5859 48.543 25.5586 48.6055 25.5586C48.6523 25.5586 48.6914 25.5781 48.7227 25.6172C48.7617 25.6484 48.7812 25.6953 48.7812 25.7578C48.7812 25.8125 48.7695 25.8672 48.7461 25.9219ZM53.0586 25.9219C52.8086 26.6406 52.582 27.2656 52.3789 27.7969C52.1836 28.3281 51.9844 28.7734 51.7812 29.1328C51.5781 29.4844 51.3594 29.75 51.125 29.9297C50.8906 30.1016 50.6094 30.1875 50.2812 30.1875C50.0938 30.1875 49.8945 30.1328 49.6836 30.0234C49.4727 29.9219 49.2773 29.7227 49.0977 29.4258C48.918 29.1289 48.7695 28.7148 48.6523 28.1836C48.5352 27.6445 48.4766 26.9453 48.4766 26.0859C48.4766 25.8594 48.4844 25.5625 48.5 25.1953C48.5234 24.8203 48.5469 24.4062 48.5703 23.9531C48.6016 23.4922 48.6367 23.0078 48.6758 22.5C48.7148 21.9844 48.7578 21.4688 48.8047 20.9531C48.7656 20.9609 48.7305 20.9688 48.6992 20.9766C48.668 20.9766 48.6328 20.9766 48.5938 20.9766C48.1719 21.0234 47.8633 21.0664 47.668 21.1055C47.4727 21.1367 47.3555 21.1719 47.3164 21.2109C47.2773 21.2422 47.2578 21.2812 47.2578 21.3281C47.2578 21.3672 47.2578 21.4062 47.2578 21.4453C47.25 21.4766 47.2383 21.5078 47.2227 21.5391C47.1992 21.5625 47.1562 21.5742 47.0938 21.5742C47.0547 21.5742 47.0078 21.5664 46.9531 21.5508C46.8906 21.5273 46.832 21.4961 46.7773 21.457C46.7148 21.4102 46.6641 21.3555 46.625 21.293C46.5859 21.2227 46.5664 21.1406 46.5664 21.0469C46.5664 20.9609 46.5859 20.8711 46.625 20.7773C46.6562 20.6836 46.6992 20.5938 46.7539 20.5078C46.8086 20.4141 46.8906 20.3008 47 20.168C47.1016 20.0352 47.2422 19.9023 47.4219 19.7695C47.5938 19.6289 47.8086 19.5 48.0664 19.3828C48.3242 19.2656 48.6289 19.1719 48.9805 19.1016C49.0195 18.7734 49.0586 18.4844 49.0977 18.2344C49.1445 17.9766 49.1914 17.75 49.2383 17.5547C49.2852 17.3516 49.3281 17.1719 49.3672 17.0156C49.4141 16.8516 49.4609 16.7031 49.5078 16.5703C49.6016 16.2656 49.7188 16.0352 49.8594 15.8789C50 15.7148 50.1602 15.543 50.3398 15.3633C50.5352 15.168 50.6992 15.0391 50.832 14.9766C50.9727 14.9062 51.0781 14.8672 51.1484 14.8594C51.2188 14.8594 51.2812 14.8828 51.3359 14.9297C51.3984 14.9688 51.4297 15.043 51.4297 15.1523C51.4297 15.2148 51.4258 15.2695 51.418 15.3164C51.4102 15.3555 51.4023 15.3906 51.3945 15.4219C51.3711 15.5078 51.332 15.6602 51.2773 15.8789C51.2305 16.0977 51.1719 16.3672 51.1016 16.6875C51.0391 17 50.9727 17.3555 50.9023 17.7539C50.832 18.1445 50.7695 18.5625 50.7148 19.0078C51.1367 19.0391 51.4883 19.0938 51.7695 19.1719C52.0586 19.2422 52.2344 19.2852 52.2969 19.3008C52.4297 19.3477 52.5195 19.3906 52.5664 19.4297C52.6133 19.4688 52.6562 19.5352 52.6953 19.6289C52.7266 19.6914 52.7617 19.7422 52.8008 19.7812C52.8477 19.8203 52.8906 19.8555 52.9297 19.8867C52.9766 19.918 53.0156 19.9531 53.0469 19.9922C53.0781 20.0312 53.0938 20.0859 53.0938 20.1562C53.0938 20.2188 53.0781 20.2812 53.0469 20.3438C53.0156 20.3984 52.9805 20.4336 52.9414 20.4492C52.8867 20.4805 52.7852 20.5117 52.6367 20.543C52.4883 20.5664 52.3086 20.5938 52.0977 20.625C51.8867 20.6484 51.6445 20.6758 51.3711 20.707C51.1055 20.7305 50.8281 20.7578 50.5391 20.7891C50.4453 21.7578 50.3516 22.6914 50.2578 23.5898C50.1719 24.4883 50.1289 25.2891 50.1289 25.9922C50.1289 26.3516 50.1484 26.6797 50.1875 26.9766C50.2344 27.2734 50.3008 27.5312 50.3867 27.75C50.4727 27.9609 50.5742 28.125 50.6914 28.2422C50.8164 28.3594 50.957 28.418 51.1133 28.418C51.2539 28.418 51.3828 28.3555 51.5 28.2305C51.6172 28.0977 51.7344 27.918 51.8516 27.6914C51.9688 27.4648 52.0859 27.1953 52.2031 26.8828C52.3281 26.5703 52.4609 26.2266 52.6016 25.8516C52.6719 25.6562 52.7734 25.5586 52.9062 25.5586C53.0312 25.5586 53.0938 25.6289 53.0938 25.7695C53.0938 25.793 53.0898 25.8203 53.082 25.8516C53.0742 25.8828 53.0664 25.9062 53.0586 25.9219Z" fill="url(#paint1_linear_7871_8684)"/>
<defs>
<linearGradient id="paint0_linear_7871_8684" x1="2.75004e-09" y1="9.3479" x2="39.9909" y2="10.1236" gradientUnits="userSpaceOnUse">
<stop offset="0.252859" stop-color="#E20000"/>
<stop offset="0.824"/>
</linearGradient>
<linearGradient id="paint1_linear_7871_8684" x1="20" y1="18.8879" x2="58.9801" y2="19.8885" gradientUnits="userSpaceOnUse">
<stop offset="0.252859" stop-color="#E20000"/>
<stop offset="0.824"/>
</linearGradient>
</defs>
</svg>
