<svg width="72" height="20" viewBox="0 0 72 20" fill="none" xmlns="http://www.w3.org/2000/svg">
<path d="M16.918 3.26953C16.9727 3.42578 17 3.53906 17 3.60938C17 3.69531 16.9766 3.75781 16.9297 3.79688C16.8906 3.83594 16.8477 3.90625 16.8008 4.00781C16.7617 4.09375 16.7109 4.15625 16.6484 4.19531C16.5938 4.22656 16.5352 4.25781 16.4727 4.28906C16.418 4.32031 16.3633 4.35547 16.3086 4.39453C16.2539 4.42578 16.2109 4.48047 16.1797 4.55859C16.125 4.69141 16.043 4.78906 15.9336 4.85156C15.832 4.91406 15.7188 4.94531 15.5938 4.94531C15.4688 4.94531 15.3438 4.91406 15.2188 4.85156C15.1016 4.78125 14.9688 4.69531 14.8203 4.59375C14.6797 4.49219 14.5156 4.38281 14.3281 4.26562C14.1484 4.14062 13.9258 4.02734 13.6602 3.92578C13.3945 3.82422 13.082 3.74219 12.7227 3.67969C12.3633 3.60938 11.9414 3.57422 11.457 3.57422C10.7539 3.57422 10.1211 3.67578 9.55859 3.87891C9.00391 4.07422 8.49219 4.42187 8.02344 4.92188C7.71094 5.25781 7.48047 5.60547 7.33203 5.96484C7.18359 6.31641 7.10938 6.65625 7.10938 6.98438C7.10938 7.28125 7.17578 7.54688 7.30859 7.78125C7.44922 8.01562 7.63672 8.23047 7.87109 8.42578C8.10547 8.61328 8.37891 8.78906 8.69141 8.95312C9.01172 9.10938 9.35156 9.26562 9.71094 9.42188C10.0781 9.57031 10.457 9.71875 10.8477 9.86719C11.2461 10.0156 11.6406 10.1758 12.0312 10.3477C12.6094 10.6055 13.1289 10.8906 13.5898 11.2031C14.0508 11.5078 14.4414 11.8477 14.7617 12.2227C15.082 12.5977 15.3281 13.0039 15.5 13.4414C15.6719 13.8789 15.7578 14.3516 15.7578 14.8594C15.7578 15.5078 15.6445 16.1211 15.418 16.6992C15.1914 17.2695 14.8438 17.7695 14.375 18.1992C13.9062 18.6289 13.3164 18.9688 12.6055 19.2188C11.9023 19.4766 11.0703 19.6055 10.1094 19.6055C9.4375 19.6055 8.84766 19.5234 8.33984 19.3594C7.83203 19.1953 7.40234 19 7.05078 18.7734C6.70703 18.5547 6.43359 18.332 6.23047 18.1055C6.03516 17.8867 5.91016 17.7148 5.85547 17.5898C5.81641 17.5039 5.78906 17.4336 5.77344 17.3789C5.76562 17.3164 5.76172 17.2656 5.76172 17.2266C5.76172 17.1406 5.77734 17.0781 5.80859 17.0391C5.84766 17 5.91016 16.9141 5.99609 16.7812C6.02734 16.7266 6.07031 16.6875 6.125 16.6641C6.17969 16.6328 6.23438 16.6055 6.28906 16.582C6.35156 16.5508 6.41016 16.5156 6.46484 16.4766C6.51953 16.4375 6.56641 16.3789 6.60547 16.3008C6.73047 16.043 6.91406 15.9141 7.15625 15.9141C7.28906 15.9141 7.41797 15.9609 7.54297 16.0547C7.67578 16.1406 7.82031 16.25 7.97656 16.3828C8.13281 16.5156 8.30859 16.6641 8.50391 16.8281C8.70703 16.9844 8.94531 17.1289 9.21875 17.2617C9.49219 17.3945 9.80469 17.5078 10.1562 17.6016C10.5156 17.6875 10.9336 17.7305 11.4102 17.7305C12.0039 17.7305 12.5039 17.6719 12.9102 17.5547C13.3164 17.4375 13.6406 17.2773 13.8828 17.0742C14.1328 16.8633 14.3125 16.6172 14.4219 16.3359C14.5312 16.0547 14.5859 15.75 14.5859 15.4219C14.5859 15.0156 14.5078 14.6641 14.3516 14.3672C14.2031 14.0703 13.9922 13.8086 13.7188 13.582C13.4531 13.3555 13.1328 13.1562 12.7578 12.9844C12.3828 12.8047 11.9688 12.6289 11.5156 12.457C11.0703 12.2852 10.5938 12.1094 10.0859 11.9297C9.58594 11.7422 9.07422 11.5273 8.55078 11.2852C8.13672 11.0977 7.75781 10.8906 7.41406 10.6641C7.07031 10.4297 6.77344 10.168 6.52344 9.87891C6.28125 9.58984 6.09375 9.26562 5.96094 8.90625C5.82812 8.53906 5.76172 8.125 5.76172 7.66406C5.76172 7.10938 5.84375 6.56641 6.00781 6.03516C6.17969 5.49609 6.41797 4.99219 6.72266 4.52344C7.02734 4.04687 7.39062 3.60938 7.8125 3.21094C8.24219 2.8125 8.71094 2.46875 9.21875 2.17969C9.72656 1.88281 10.2695 1.65625 10.8477 1.5C11.4258 1.33594 12.0234 1.25391 12.6406 1.25391C13.3203 1.25391 13.918 1.33984 14.4336 1.51172C14.9492 1.67578 15.3828 1.87109 15.7344 2.09766C16.0859 2.31641 16.3594 2.53906 16.5547 2.76562C16.75 2.98438 16.8711 3.15234 16.918 3.26953ZM19.707 17.168C19.8945 17.168 20.0586 17.1055 20.1992 16.9805C20.3398 16.8555 20.457 16.6914 20.5508 16.4883C20.6523 16.2852 20.7344 16.0508 20.7969 15.7852C20.8594 15.5117 20.9062 15.2305 20.9375 14.9414C20.7109 14.7852 20.4883 14.582 20.2695 14.332C20.0586 14.082 19.8672 13.7773 19.6953 13.418C19.5938 13.207 19.5195 12.9922 19.4727 12.7734C19.4258 12.5469 19.4023 12.332 19.4023 12.1289C19.4023 11.8711 19.4375 11.6289 19.5078 11.4023C19.5781 11.1758 19.6797 10.9805 19.8125 10.8164C19.9531 10.6523 20.125 10.5234 20.3281 10.4297C20.5312 10.3281 20.7656 10.2773 21.0312 10.2773C21.3672 10.2773 21.6406 10.3594 21.8516 10.5234C22.0703 10.6797 22.2422 10.8828 22.3672 11.1328C22.4922 11.375 22.5781 11.6406 22.625 11.9297C22.6797 12.2188 22.707 12.4883 22.707 12.7383C22.707 13.0664 22.6836 13.4023 22.6367 13.7461C22.5977 14.0898 22.5312 14.4375 22.4375 14.7891C22.7266 14.7656 22.9844 14.6875 23.2109 14.5547C23.4375 14.4141 23.6289 14.1797 23.7852 13.8516C23.8789 13.6562 23.9766 13.5586 24.0781 13.5586C24.1328 13.5586 24.1797 13.5742 24.2188 13.6055C24.2656 13.6367 24.2891 13.6875 24.2891 13.7578C24.2891 13.8125 24.2773 13.8672 24.2539 13.9219C24.0977 14.3672 23.8359 14.7188 23.4688 14.9766C23.1094 15.2344 22.707 15.3633 22.2617 15.3633C22.1289 15.7461 21.9648 16.1094 21.7695 16.4531C21.582 16.7891 21.3594 17.0859 21.1016 17.3438C20.8438 17.6016 20.5508 17.8047 20.2227 17.9531C19.8945 18.1016 19.5312 18.1758 19.1328 18.1758C18.9219 18.1758 18.6836 18.1445 18.418 18.082C18.1523 18.0195 17.9023 17.8906 17.668 17.6953C17.4336 17.4922 17.2383 17.2109 17.082 16.8516C16.918 16.4844 16.8359 16 16.8359 15.3984C16.8359 14.9062 16.9297 14.3867 17.1172 13.8398C17.2969 13.293 17.6016 12.75 18.0312 12.2109C18.1953 12.0078 18.3438 11.8633 18.4766 11.7773C18.6172 11.6914 18.7305 11.6484 18.8164 11.6484C18.9883 11.6484 19.0742 11.7539 19.0742 11.9648C19.0742 12.0586 19.043 12.1758 18.9805 12.3164C18.918 12.457 18.8516 12.6367 18.7812 12.8555C18.7109 13.0742 18.6445 13.3359 18.582 13.6406C18.5195 13.9375 18.4883 14.2891 18.4883 14.6953C18.4883 15.4766 18.5977 16.0859 18.8164 16.5234C19.043 16.9531 19.3398 17.168 19.707 17.168ZM21.0078 13.7227C21.0078 12.9258 20.9336 12.3555 20.7852 12.0117C20.6367 11.6602 20.4727 11.5195 20.293 11.5898C20.2148 11.6211 20.168 11.6914 20.1523 11.8008C20.1445 11.9102 20.1406 12.0156 20.1406 12.1172C20.1406 12.2891 20.1641 12.4688 20.2109 12.6562C20.2578 12.8438 20.3164 13.0312 20.3867 13.2188C20.4648 13.4062 20.5547 13.5859 20.6562 13.7578C20.7656 13.9219 20.8789 14.0742 20.9961 14.2148C21.0039 14.1289 21.0078 14.0469 21.0078 13.9688C21.0078 13.8906 21.0078 13.8086 21.0078 13.7227ZM28.2266 13.5586C28.2734 13.5586 28.3125 13.5781 28.3438 13.6172C28.3828 13.6484 28.4023 13.6953 28.4023 13.7578C28.4023 13.8125 28.3906 13.8672 28.3672 13.9219C28.2109 14.375 28.0586 14.793 27.9102 15.1758C27.7695 15.5508 27.6289 15.8984 27.4883 16.2188C27.3555 16.5234 27.2266 16.7852 27.1016 17.0039C26.9844 17.2227 26.8672 17.4062 26.75 17.5547C26.6406 17.7031 26.5273 17.8242 26.4102 17.918C26.3008 18.0039 26.1875 18.0664 26.0703 18.1055C25.9531 18.1445 25.8164 18.1641 25.6602 18.1641C25.4883 18.1641 25.3008 18.125 25.0977 18.0469C24.8945 17.9766 24.7031 17.8359 24.5234 17.625C24.3516 17.4141 24.207 17.1211 24.0898 16.7461C23.9727 16.3633 23.9141 15.8672 23.9141 15.2578C23.9141 15.0938 23.9219 14.8164 23.9375 14.4258C23.9609 14.0352 23.9883 13.5664 24.0195 13.0195C24.0586 12.4648 24.1016 11.8398 24.1484 11.1445C24.2031 10.4492 24.2617 9.71484 24.3242 8.94141C24.3633 8.46484 24.4102 7.94531 24.4648 7.38281C24.5273 6.8125 24.5898 6.25781 24.6523 5.71875C24.7148 5.17969 24.7773 4.68359 24.8398 4.23047C24.9023 3.77734 24.957 3.42188 25.0039 3.16406C25.0586 2.89063 25.1641 2.67578 25.3203 2.51953C25.4766 2.36328 25.6523 2.19531 25.8477 2.01562C25.918 1.94531 25.9922 1.87109 26.0703 1.79297C26.1484 1.70703 26.2266 1.62891 26.3047 1.55859C26.3828 1.48828 26.457 1.42969 26.5273 1.38281C26.6055 1.32812 26.6797 1.30078 26.75 1.30078C26.8594 1.30078 26.9141 1.35547 26.9141 1.46484C26.9141 1.55078 26.8945 1.70703 26.8555 1.93359C26.8164 2.16016 26.7617 2.52344 26.6914 3.02344C26.6211 3.52344 26.5352 4.19922 26.4336 5.05078C26.3398 5.89453 26.2383 6.98047 26.1289 8.30859C26.1055 8.57422 26.0781 8.89062 26.0469 9.25781C26.0156 9.625 25.9844 10.0156 25.9531 10.4297C25.9219 10.8359 25.8906 11.2539 25.8594 11.6836C25.8359 12.1055 25.8125 12.5078 25.7891 12.8906C25.7656 13.2656 25.7461 13.6094 25.7305 13.9219C25.7148 14.2344 25.707 14.4844 25.707 14.6719C25.707 15.2109 25.7617 15.6367 25.8711 15.9492C25.9883 16.2539 26.1797 16.4062 26.4453 16.4062C26.5938 16.4062 26.7266 16.3398 26.8438 16.207C26.9609 16.0742 27.0742 15.8945 27.1836 15.668C27.293 15.4336 27.4062 15.1641 27.5234 14.8594C27.6406 14.5469 27.7695 14.2109 27.9102 13.8516C27.9492 13.7578 27.9961 13.6875 28.0508 13.6406C28.1055 13.5859 28.1641 13.5586 28.2266 13.5586ZM35.457 13.5586C35.5039 13.5586 35.543 13.5742 35.5742 13.6055C35.6133 13.6367 35.6328 13.6875 35.6328 13.7578C35.6328 13.7891 35.6211 13.8438 35.5977 13.9219C35.3945 14.5312 35.1992 15.0781 35.0117 15.5625C34.8242 16.0469 34.6406 16.4688 34.4609 16.8281C34.2578 17.2344 34.0312 17.5625 33.7812 17.8125C33.5312 18.0625 33.1992 18.1875 32.7852 18.1875C32.6211 18.1875 32.457 18.1562 32.293 18.0938C32.1367 18.0391 31.9922 17.9375 31.8594 17.7891C31.7266 17.6328 31.6055 17.4219 31.4961 17.1562C31.3867 16.8906 31.3047 16.5547 31.25 16.1484C31.125 16.3984 30.9844 16.6484 30.8281 16.8984C30.6797 17.1484 30.5117 17.3711 30.3242 17.5664C30.1367 17.7617 29.9297 17.918 29.7031 18.0352C29.4766 18.1602 29.2266 18.2227 28.9531 18.2227C28.75 18.2227 28.5586 18.1562 28.3789 18.0234C28.207 17.8984 28.0586 17.7227 27.9336 17.4961C27.8008 17.2617 27.6992 16.9844 27.6289 16.6641C27.5508 16.3438 27.5117 15.9883 27.5117 15.5977C27.5117 15.1836 27.5508 14.7773 27.6289 14.3789C27.6992 13.9805 27.8008 13.6016 27.9336 13.2422C28.0664 12.875 28.2266 12.5391 28.4141 12.2344C28.6094 11.9219 28.8203 11.6523 29.0469 11.4258C29.4375 11.0352 29.8164 10.75 30.1836 10.5703C30.5508 10.3828 30.875 10.2891 31.1562 10.2891C31.1953 10.2891 31.2266 10.2891 31.25 10.2891C31.2734 10.2891 31.3086 10.293 31.3555 10.3008C31.3867 9.91797 31.418 9.51562 31.4492 9.09375C31.4805 8.66406 31.5273 8.20703 31.5898 7.72266C31.668 7.11328 31.7383 6.59766 31.8008 6.17578C31.8633 5.75391 31.9219 5.39453 31.9766 5.09766C32.0391 4.79297 32.1016 4.53516 32.1641 4.32422C32.2344 4.10547 32.3164 3.90234 32.4102 3.71484C32.4648 3.59766 32.5234 3.5 32.5859 3.42188C32.6562 3.34375 32.7266 3.27344 32.7969 3.21094C32.875 3.14844 32.957 3.08203 33.043 3.01172C33.1367 2.93359 33.2383 2.83984 33.3477 2.73047C33.543 2.53516 33.707 2.39844 33.8398 2.32031C33.9805 2.23438 34.0898 2.19141 34.168 2.19141C34.2539 2.19141 34.3242 2.21484 34.3789 2.26172C34.4414 2.30078 34.4727 2.38281 34.4727 2.50781C34.4727 2.54687 34.4688 2.58984 34.4609 2.63672C34.4531 2.68359 34.4414 2.73437 34.4258 2.78906C34.3945 2.89844 34.3438 3.10156 34.2734 3.39844C34.2031 3.69531 34.125 4.05859 34.0391 4.48828C33.9531 4.91016 33.8633 5.39062 33.7695 5.92969C33.6758 6.46094 33.5898 7.01172 33.5117 7.58203C33.4258 8.23828 33.3477 8.89453 33.2773 9.55078C33.2148 10.1992 33.1602 10.8281 33.1133 11.4375C33.0742 12.0391 33.043 12.6055 33.0195 13.1367C32.9961 13.668 32.9844 14.1406 32.9844 14.5547C32.9844 14.8281 32.9922 15.082 33.0078 15.3164C33.0312 15.543 33.0664 15.7422 33.1133 15.9141C33.1602 16.0859 33.2227 16.2188 33.3008 16.3125C33.3867 16.4062 33.4883 16.4531 33.6055 16.4531C33.7383 16.4531 33.8594 16.3984 33.9688 16.2891C34.0859 16.1719 34.2031 16.0039 34.3203 15.7852C34.4375 15.5586 34.5625 15.2852 34.6953 14.9648C34.8281 14.6367 34.9766 14.2656 35.1406 13.8516C35.2109 13.6562 35.3164 13.5586 35.457 13.5586ZM31.25 11.7305C31.25 11.3945 31.1055 11.2266 30.8164 11.2266C30.5898 11.2266 30.375 11.3047 30.1719 11.4609C29.9688 11.6172 29.7891 11.8359 29.6328 12.1172C29.4766 12.3984 29.3516 12.7344 29.2578 13.125C29.1641 13.5156 29.1172 13.9453 29.1172 14.4141C29.1172 14.9219 29.1953 15.3438 29.3516 15.6797C29.5156 16.0078 29.7656 16.1719 30.1016 16.1719C30.2891 16.1719 30.4492 16.1172 30.582 16.0078C30.7148 15.8984 30.8203 15.7578 30.8984 15.5859C30.9844 15.4141 31.0469 15.2305 31.0859 15.0352C31.1328 14.832 31.1641 14.6406 31.1797 14.4609C31.1797 14.1953 31.1797 13.9336 31.1797 13.6758C31.1875 13.4102 31.1953 13.1562 31.2031 12.9141C31.2109 12.6719 31.2188 12.4492 31.2266 12.2461C31.2344 12.043 31.2422 11.8711 31.25 11.7305Z" fill="url(#paint0_linear_7871_8684)"/>
<path d="M53.0625 10.3242C53.0625 11.2695 52.9688 12.1523 52.7812 12.9727C52.6016 13.7852 52.3516 14.5312 52.0312 15.2109C51.7188 15.8906 51.3438 16.4961 50.9062 17.0273C50.4688 17.5508 49.9961 17.9922 49.4883 18.3516C48.9883 18.7188 48.457 18.9961 47.8945 19.1836C47.3398 19.3789 46.7812 19.4766 46.2188 19.4766C45.8047 19.4766 45.3633 19.4102 44.8945 19.2773C44.4336 19.1445 43.9727 18.9375 43.5117 18.6562C43.0586 18.3828 42.625 18.0312 42.2109 17.6016C41.7969 17.1641 41.4297 16.6445 41.1094 16.043C40.7891 15.4414 40.5352 14.75 40.3477 13.9688C40.1602 13.1875 40.0664 12.3086 40.0664 11.332C40.0664 10.3633 40.1523 9.39844 40.3242 8.4375C40.5039 7.47656 40.7812 6.55859 41.1562 5.68359C41.5312 4.80859 42.0117 4 42.5977 3.25781C43.1914 2.50781 43.9023 1.86328 44.7305 1.32422C44.8086 1.27734 44.8867 1.25391 44.9648 1.25391C45.0898 1.25391 45.1523 1.30859 45.1523 1.41797C45.1523 1.48828 45.125 1.55078 45.0703 1.60547C45.0234 1.65234 44.9219 1.75781 44.7656 1.92188C44.6172 2.07812 44.4414 2.30859 44.2383 2.61328C44.0352 2.91016 43.8203 3.28516 43.5938 3.73828C43.3672 4.18359 43.1562 4.72656 42.9609 5.36719C42.7734 6 42.6172 6.73047 42.4922 7.55859C42.3672 8.38672 42.3047 9.32422 42.3047 10.3711C42.3047 11.6602 42.4102 12.7734 42.6211 13.7109C42.8398 14.6406 43.1367 15.4102 43.5117 16.0195C43.8867 16.6289 44.3242 17.082 44.8242 17.3789C45.332 17.668 45.875 17.8125 46.4531 17.8125C46.7109 17.8125 46.9922 17.7578 47.2969 17.6484C47.6094 17.5391 47.918 17.3594 48.2227 17.1094C48.5352 16.8594 48.8359 16.5312 49.125 16.125C49.4141 15.7109 49.668 15.2031 49.8867 14.6016C50.1133 13.9922 50.293 13.2812 50.4258 12.4688C50.5664 11.6562 50.6367 10.7188 50.6367 9.65625C50.6367 8.77344 50.5859 7.99219 50.4844 7.3125C50.3906 6.625 50.2656 6.03125 50.1094 5.53125C49.9531 5.02344 49.7734 4.59766 49.5703 4.25391C49.375 3.91016 49.1719 3.63281 48.9609 3.42188C48.7578 3.21094 48.5547 3.0625 48.3516 2.97656C48.1562 2.88281 47.9844 2.83594 47.8359 2.83594C47.4375 2.83594 47.1172 3.04297 46.875 3.45703C46.6406 3.86328 46.5234 4.49219 46.5234 5.34375C46.5234 5.94531 46.5781 6.61328 46.6875 7.34766C46.8047 8.08203 46.9688 8.82031 47.1797 9.5625C47.3906 10.2969 47.6484 11 47.9531 11.6719C48.2656 12.3359 48.6172 12.8945 49.0078 13.3477C49.0703 13.4258 49.1016 13.4883 49.1016 13.5352C49.1016 13.6602 48.9727 13.7227 48.7148 13.7227C48.5039 13.7227 48.2461 13.6523 47.9414 13.5117C47.6445 13.3633 47.332 13.1523 47.0039 12.8789C46.6836 12.6055 46.3633 12.2695 46.043 11.8711C45.7305 11.4648 45.4453 11.0039 45.1875 10.4883C44.9375 9.97266 44.7344 9.40234 44.5781 8.77734C44.4219 8.15234 44.3438 7.47656 44.3438 6.75C44.3438 5.94531 44.4531 5.22656 44.6719 4.59375C44.8984 3.95312 45.1914 3.41406 45.5508 2.97656C45.9102 2.53125 46.3164 2.19531 46.7695 1.96875C47.2305 1.73438 47.6914 1.61719 48.1523 1.61719C48.4805 1.61719 48.832 1.6875 49.207 1.82812C49.582 1.96094 49.9492 2.17187 50.3086 2.46094C50.6758 2.75 51.0234 3.125 51.3516 3.58594C51.6875 4.03906 51.9805 4.58984 52.2305 5.23828C52.4883 5.87891 52.6914 6.62109 52.8398 7.46484C52.9883 8.30859 53.0625 9.26172 53.0625 10.3242ZM61.7461 13.9219C61.4961 14.6172 61.2695 15.2305 61.0664 15.7617C60.8711 16.2852 60.6719 16.7266 60.4688 17.0859C60.2656 17.4375 60.043 17.7031 59.8008 17.8828C59.5664 18.0625 59.2891 18.1523 58.9688 18.1523C58.6953 18.1523 58.4648 18.0742 58.2773 17.918C58.0898 17.7539 57.9414 17.5508 57.832 17.3086C57.7227 17.0586 57.6445 16.7852 57.5977 16.4883C57.5508 16.1914 57.5273 15.9062 57.5273 15.6328C57.5273 15.4297 57.5273 15.2344 57.5273 15.0469C57.5273 14.8594 57.5352 14.6836 57.5508 14.5195C57.3789 15.2148 57.2031 15.7969 57.0234 16.2656C56.8516 16.7344 56.6758 17.1094 56.4961 17.3906C56.3164 17.6719 56.125 17.875 55.9219 18C55.7266 18.1172 55.5195 18.1758 55.3008 18.1758C55.1367 18.1758 54.9688 18.1328 54.7969 18.0469C54.6328 17.9688 54.4805 17.8125 54.3398 17.5781C54.1992 17.3438 54.082 17.0156 53.9883 16.5938C53.9023 16.1641 53.8594 15.6016 53.8594 14.9062C53.8594 14.7344 53.8633 14.5273 53.8711 14.2852C53.8789 14.0352 53.8945 13.7773 53.918 13.5117C53.9414 13.2383 53.9688 12.9727 54 12.7148C54.0391 12.4492 54.0859 12.2109 54.1406 12C54.1641 11.9062 54.1953 11.793 54.2344 11.6602C54.2734 11.5273 54.3125 11.4414 54.3516 11.4023C54.4375 11.3242 54.5078 11.2539 54.5625 11.1914C54.625 11.1289 54.6758 11.0977 54.7148 11.0977C54.7695 11.0977 54.8125 11.1211 54.8438 11.168C54.8828 11.207 54.9219 11.2266 54.9609 11.2266C54.9844 11.2266 55.0273 11.207 55.0898 11.168C55.1602 11.1289 55.2344 11.0859 55.3125 11.0391C55.3906 10.9922 55.4648 10.9492 55.5352 10.9102C55.6133 10.8711 55.668 10.8516 55.6992 10.8516C55.793 10.8516 55.8398 10.9375 55.8398 11.1094C55.8398 11.1562 55.8359 11.2109 55.8281 11.2734C55.8203 11.3359 55.8086 11.4102 55.793 11.4961C55.7227 11.9961 55.6719 12.4805 55.6406 12.9492C55.6172 13.4102 55.6055 13.9062 55.6055 14.4375C55.6055 14.7344 55.6094 15.0039 55.6172 15.2461C55.625 15.4883 55.6406 15.6992 55.6641 15.8789C55.6953 16.0508 55.7422 16.1875 55.8047 16.2891C55.8672 16.3828 55.9531 16.4297 56.0625 16.4297C56.2188 16.4297 56.3633 16.3281 56.4961 16.125C56.6289 15.9141 56.75 15.6445 56.8594 15.3164C56.9766 14.9883 57.0859 14.625 57.1875 14.2266C57.2891 13.8281 57.3867 13.4414 57.4805 13.0664C57.5742 12.6836 57.668 12.332 57.7617 12.0117C57.8633 11.6914 57.9648 11.4492 58.0664 11.2852C58.168 11.1289 58.3008 11 58.4648 10.8984C58.6367 10.7969 58.7969 10.7461 58.9453 10.7461C59.1172 10.7461 59.2383 10.8125 59.3086 10.9453C59.3867 11.0703 59.4258 11.3164 59.4258 11.6836C59.4258 11.9492 59.418 12.1992 59.4023 12.4336C59.3867 12.668 59.3711 12.9102 59.3555 13.1602C59.3398 13.4102 59.3242 13.6797 59.3086 13.9688C59.293 14.25 59.2852 14.5664 59.2852 14.918C59.2852 15.2383 59.2969 15.5 59.3203 15.7031C59.3516 15.8984 59.3906 16.0508 59.4375 16.1602C59.4844 16.2695 59.5352 16.3438 59.5898 16.3828C59.6445 16.4219 59.6992 16.4414 59.7539 16.4414C59.8867 16.4414 60.0117 16.3828 60.1289 16.2656C60.2461 16.1484 60.3633 15.9805 60.4805 15.7617C60.6055 15.5352 60.7305 15.2617 60.8555 14.9414C60.9883 14.6211 61.1328 14.2578 61.2891 13.8516C61.3281 13.7578 61.375 13.6875 61.4297 13.6406C61.4844 13.5859 61.543 13.5586 61.6055 13.5586C61.6523 13.5586 61.6914 13.5781 61.7227 13.6172C61.7617 13.6484 61.7812 13.6953 61.7812 13.7578C61.7812 13.8125 61.7695 13.8672 61.7461 13.9219ZM66.0586 13.9219C65.8086 14.6406 65.582 15.2656 65.3789 15.7969C65.1836 16.3281 64.9844 16.7734 64.7812 17.1328C64.5781 17.4844 64.3594 17.75 64.125 17.9297C63.8906 18.1016 63.6094 18.1875 63.2812 18.1875C63.0938 18.1875 62.8945 18.1328 62.6836 18.0234C62.4727 17.9219 62.2773 17.7227 62.0977 17.4258C61.918 17.1289 61.7695 16.7148 61.6523 16.1836C61.5352 15.6445 61.4766 14.9453 61.4766 14.0859C61.4766 13.8594 61.4844 13.5625 61.5 13.1953C61.5234 12.8203 61.5469 12.4062 61.5703 11.9531C61.6016 11.4922 61.6367 11.0078 61.6758 10.5C61.7148 9.98438 61.7578 9.46875 61.8047 8.95312C61.7656 8.96094 61.7305 8.96875 61.6992 8.97656C61.668 8.97656 61.6328 8.97656 61.5938 8.97656C61.1719 9.02344 60.8633 9.06641 60.668 9.10547C60.4727 9.13672 60.3555 9.17188 60.3164 9.21094C60.2773 9.24219 60.2578 9.28125 60.2578 9.32812C60.2578 9.36719 60.2578 9.40625 60.2578 9.44531C60.25 9.47656 60.2383 9.50781 60.2227 9.53906C60.1992 9.5625 60.1562 9.57422 60.0938 9.57422C60.0547 9.57422 60.0078 9.56641 59.9531 9.55078C59.8906 9.52734 59.832 9.49609 59.7773 9.45703C59.7148 9.41016 59.6641 9.35547 59.625 9.29297C59.5859 9.22266 59.5664 9.14062 59.5664 9.04688C59.5664 8.96094 59.5859 8.87109 59.625 8.77734C59.6562 8.68359 59.6992 8.59375 59.7539 8.50781C59.8086 8.41406 59.8906 8.30078 60 8.16797C60.1016 8.03516 60.2422 7.90234 60.4219 7.76953C60.5938 7.62891 60.8086 7.5 61.0664 7.38281C61.3242 7.26562 61.6289 7.17188 61.9805 7.10156C62.0195 6.77344 62.0586 6.48438 62.0977 6.23438C62.1445 5.97656 62.1914 5.75 62.2383 5.55469C62.2852 5.35156 62.3281 5.17187 62.3672 5.01562C62.4141 4.85156 62.4609 4.70312 62.5078 4.57031C62.6016 4.26562 62.7188 4.03516 62.8594 3.87891C63 3.71484 63.1602 3.54297 63.3398 3.36328C63.5352 3.16797 63.6992 3.03906 63.832 2.97656C63.9727 2.90625 64.0781 2.86719 64.1484 2.85938C64.2188 2.85938 64.2812 2.88281 64.3359 2.92969C64.3984 2.96875 64.4297 3.04297 64.4297 3.15234C64.4297 3.21484 64.4258 3.26953 64.418 3.31641C64.4102 3.35547 64.4023 3.39062 64.3945 3.42188C64.3711 3.50781 64.332 3.66016 64.2773 3.87891C64.2305 4.09766 64.1719 4.36719 64.1016 4.6875C64.0391 5 63.9727 5.35547 63.9023 5.75391C63.832 6.14453 63.7695 6.5625 63.7148 7.00781C64.1367 7.03906 64.4883 7.09375 64.7695 7.17188C65.0586 7.24219 65.2344 7.28516 65.2969 7.30078C65.4297 7.34766 65.5195 7.39062 65.5664 7.42969C65.6133 7.46875 65.6562 7.53516 65.6953 7.62891C65.7266 7.69141 65.7617 7.74219 65.8008 7.78125C65.8477 7.82031 65.8906 7.85547 65.9297 7.88672C65.9766 7.91797 66.0156 7.95312 66.0469 7.99219C66.0781 8.03125 66.0938 8.08594 66.0938 8.15625C66.0938 8.21875 66.0781 8.28125 66.0469 8.34375C66.0156 8.39844 65.9805 8.43359 65.9414 8.44922C65.8867 8.48047 65.7852 8.51172 65.6367 8.54297C65.4883 8.56641 65.3086 8.59375 65.0977 8.625C64.8867 8.64844 64.6445 8.67578 64.3711 8.70703C64.1055 8.73047 63.8281 8.75781 63.5391 8.78906C63.4453 9.75781 63.3516 10.6914 63.2578 11.5898C63.1719 12.4883 63.1289 13.2891 63.1289 13.9922C63.1289 14.3516 63.1484 14.6797 63.1875 14.9766C63.2344 15.2734 63.3008 15.5312 63.3867 15.75C63.4727 15.9609 63.5742 16.125 63.6914 16.2422C63.8164 16.3594 63.957 16.418 64.1133 16.418C64.2539 16.418 64.3828 16.3555 64.5 16.2305C64.6172 16.0977 64.7344 15.918 64.8516 15.6914C64.9688 15.4648 65.0859 15.1953 65.2031 14.8828C65.3281 14.5703 65.4609 14.2266 65.6016 13.8516C65.6719 13.6562 65.7734 13.5586 65.9062 13.5586C66.0312 13.5586 66.0938 13.6289 66.0938 13.7695C66.0938 13.793 66.0898 13.8203 66.082 13.8516C66.0742 13.8828 66.0664 13.9062 66.0586 13.9219Z" fill="url(#paint1_linear_7871_8684)"/>
<defs>
<linearGradient id="paint0_linear_7871_8684" x1="2.75004e-09" y1="9.3479" x2="39.9909" y2="10.1236" gradientUnits="userSpaceOnUse">
<stop/>
<stop offset="0.584" stop-color="#E20000"/>
</linearGradient>
<linearGradient id="paint1_linear_7871_8684" x1="33" y1="9.8399" x2="71.9932" y2="10.5405" gradientUnits="userSpaceOnUse">
<stop/>
<stop offset="0.584" stop-color="#E20000"/>
</linearGradient>
</defs>
</svg>
