<svg width="29" height="22" viewBox="0 0 29 22" fill="none" xmlns="http://www.w3.org/2000/svg">
<path d="M9.54297 1.95215C9.58398 2.06934 9.60449 2.1543 9.60449 2.20703C9.60449 2.27148 9.58691 2.31836 9.55176 2.34766C9.52246 2.37695 9.49023 2.42969 9.45508 2.50586C9.42578 2.57031 9.3877 2.61719 9.34082 2.64648C9.2998 2.66992 9.25586 2.69336 9.20898 2.7168C9.16797 2.74023 9.12695 2.7666 9.08594 2.7959C9.04492 2.81934 9.0127 2.86035 8.98926 2.91895C8.94824 3.01855 8.88672 3.0918 8.80469 3.13867C8.72852 3.18555 8.64355 3.20898 8.5498 3.20898C8.45605 3.20898 8.3623 3.18555 8.26855 3.13867C8.18066 3.08594 8.08105 3.02148 7.96973 2.94531C7.86426 2.86914 7.74121 2.78711 7.60059 2.69922C7.46582 2.60547 7.29883 2.52051 7.09961 2.44434C6.90039 2.36816 6.66602 2.30664 6.39648 2.25977C6.12695 2.20703 5.81055 2.18066 5.44727 2.18066C4.91992 2.18066 4.44531 2.25684 4.02344 2.40918C3.60742 2.55566 3.22363 2.81641 2.87207 3.19141C2.6377 3.44336 2.46484 3.7041 2.35352 3.97363C2.24219 4.2373 2.18652 4.49219 2.18652 4.73828C2.18652 4.96094 2.23633 5.16016 2.33594 5.33594C2.44141 5.51172 2.58203 5.67285 2.75781 5.81934C2.93359 5.95996 3.13867 6.0918 3.37305 6.21484C3.61328 6.33203 3.86816 6.44922 4.1377 6.56641C4.41309 6.67773 4.69727 6.78906 4.99023 6.90039C5.28906 7.01172 5.58496 7.13184 5.87793 7.26074C6.31152 7.4541 6.70117 7.66797 7.04688 7.90234C7.39258 8.13086 7.68555 8.38574 7.92578 8.66699C8.16602 8.94824 8.35059 9.25293 8.47949 9.58105C8.6084 9.90918 8.67285 10.2637 8.67285 10.6445C8.67285 11.1309 8.58789 11.5908 8.41797 12.0244C8.24805 12.4521 7.9873 12.8271 7.63574 13.1494C7.28418 13.4717 6.8418 13.7266 6.30859 13.9141C5.78125 14.1074 5.15723 14.2041 4.43652 14.2041C3.93262 14.2041 3.49023 14.1426 3.10938 14.0195C2.72852 13.8965 2.40625 13.75 2.14258 13.5801C1.88477 13.416 1.67969 13.249 1.52734 13.0791C1.38086 12.915 1.28711 12.7861 1.24609 12.6924C1.2168 12.6279 1.19629 12.5752 1.18457 12.5342C1.17871 12.4873 1.17578 12.4492 1.17578 12.4199C1.17578 12.3555 1.1875 12.3086 1.21094 12.2793C1.24023 12.25 1.28711 12.1855 1.35156 12.0859C1.375 12.0449 1.40723 12.0156 1.44824 11.998C1.48926 11.9746 1.53027 11.9541 1.57129 11.9365C1.61816 11.9131 1.66211 11.8867 1.70312 11.8574C1.74414 11.8281 1.7793 11.7842 1.80859 11.7256C1.90234 11.5322 2.04004 11.4355 2.22168 11.4355C2.32129 11.4355 2.41797 11.4707 2.51172 11.541C2.61133 11.6055 2.71973 11.6875 2.83691 11.7871C2.9541 11.8867 3.08594 11.998 3.23242 12.1211C3.38477 12.2383 3.56348 12.3467 3.76855 12.4463C3.97363 12.5459 4.20801 12.6309 4.47168 12.7012C4.74121 12.7656 5.05469 12.7979 5.41211 12.7979C5.85742 12.7979 6.23242 12.7539 6.53711 12.666C6.8418 12.5781 7.08496 12.458 7.2666 12.3057C7.4541 12.1475 7.58887 11.9629 7.6709 11.752C7.75293 11.541 7.79395 11.3125 7.79395 11.0664C7.79395 10.7617 7.73535 10.498 7.61816 10.2754C7.50684 10.0527 7.34863 9.85645 7.14355 9.68652C6.94434 9.5166 6.7041 9.36719 6.42285 9.23828C6.1416 9.10352 5.83105 8.97168 5.49121 8.84277C5.15723 8.71387 4.7998 8.58203 4.41895 8.44727C4.04395 8.30664 3.66016 8.14551 3.26758 7.96387C2.95703 7.82324 2.67285 7.66797 2.41504 7.49805C2.15723 7.32227 1.93457 7.12598 1.74707 6.90918C1.56543 6.69238 1.4248 6.44922 1.3252 6.17969C1.22559 5.9043 1.17578 5.59375 1.17578 5.24805C1.17578 4.83203 1.2373 4.4248 1.36035 4.02637C1.48926 3.62207 1.66797 3.24414 1.89648 2.89258C2.125 2.53516 2.39746 2.20703 2.71387 1.9082C3.03613 1.60938 3.3877 1.35156 3.76855 1.13477C4.14941 0.912109 4.55664 0.742187 4.99023 0.625C5.42383 0.501953 5.87207 0.44043 6.33496 0.44043C6.84473 0.44043 7.29297 0.504883 7.67969 0.633789C8.06641 0.756836 8.3916 0.90332 8.65527 1.07324C8.91895 1.2373 9.12402 1.4043 9.27051 1.57422C9.41699 1.73828 9.50781 1.86426 9.54297 1.95215ZM13.2871 9.94141C13.0996 10.4805 12.9297 10.9492 12.7773 11.3477C12.6309 11.7461 12.4814 12.0801 12.3291 12.3496C12.1768 12.6133 12.0127 12.8125 11.8369 12.9473C11.6611 13.0762 11.4502 13.1406 11.2041 13.1406C11.0635 13.1406 10.9141 13.0996 10.7559 13.0176C10.5977 12.9414 10.4512 12.792 10.3164 12.5693C10.1816 12.3467 10.0703 12.0361 9.98242 11.6377C9.89453 11.2334 9.85059 10.709 9.85059 10.0645C9.85059 9.89453 9.85645 9.67188 9.86816 9.39648C9.88574 9.11523 9.90332 8.80469 9.9209 8.46484C9.94434 8.11914 9.9707 7.75586 10 7.375C10.0293 6.98828 10.0615 6.60156 10.0967 6.21484C10.0674 6.2207 10.041 6.22656 10.0176 6.23242C9.99414 6.23242 9.96777 6.23242 9.93848 6.23242C9.62207 6.26758 9.39062 6.2998 9.24414 6.3291C9.09766 6.35254 9.00977 6.37891 8.98047 6.4082C8.95117 6.43164 8.93652 6.46094 8.93652 6.49609C8.93652 6.52539 8.93652 6.55469 8.93652 6.58398C8.93066 6.60742 8.92188 6.63086 8.91016 6.6543C8.89258 6.67188 8.86035 6.68066 8.81348 6.68066C8.78418 6.68066 8.74902 6.6748 8.70801 6.66309C8.66113 6.64551 8.61719 6.62207 8.57617 6.59277C8.5293 6.55762 8.49121 6.5166 8.46191 6.46973C8.43262 6.41699 8.41797 6.35547 8.41797 6.28516C8.41797 6.2207 8.43262 6.15332 8.46191 6.08301C8.48535 6.0127 8.51758 5.94531 8.55859 5.88086C8.59961 5.81055 8.66113 5.72559 8.74316 5.62598C8.81934 5.52637 8.9248 5.42676 9.05957 5.32715C9.18848 5.22168 9.34961 5.125 9.54297 5.03711C9.73633 4.94922 9.96484 4.87891 10.2285 4.82617C10.2578 4.58008 10.2871 4.36328 10.3164 4.17578C10.3516 3.98242 10.3867 3.8125 10.4219 3.66602C10.457 3.51367 10.4893 3.37891 10.5186 3.26172C10.5537 3.13867 10.5889 3.02734 10.624 2.92773C10.6943 2.69922 10.7822 2.52637 10.8877 2.40918C10.9932 2.28613 11.1133 2.15723 11.248 2.02246C11.3945 1.87598 11.5176 1.7793 11.6172 1.73242C11.7227 1.67969 11.8018 1.65039 11.8545 1.64453C11.9072 1.64453 11.9541 1.66211 11.9951 1.69727C12.042 1.72656 12.0654 1.78223 12.0654 1.86426C12.0654 1.91113 12.0625 1.95215 12.0566 1.9873C12.0508 2.0166 12.0449 2.04297 12.0391 2.06641C12.0215 2.13086 11.9922 2.24512 11.9512 2.40918C11.916 2.57324 11.8721 2.77539 11.8193 3.01562C11.7725 3.25 11.7227 3.5166 11.6699 3.81543C11.6172 4.1084 11.5703 4.42188 11.5293 4.75586C11.8457 4.7793 12.1094 4.82031 12.3203 4.87891C12.5371 4.93164 12.6689 4.96387 12.7158 4.97559C12.8154 5.01074 12.8828 5.04297 12.918 5.07227C12.9531 5.10156 12.9854 5.15137 13.0146 5.22168C13.0381 5.26855 13.0645 5.30664 13.0938 5.33594C13.1289 5.36523 13.1611 5.3916 13.1904 5.41504C13.2256 5.43848 13.2549 5.46484 13.2783 5.49414C13.3018 5.52344 13.3135 5.56445 13.3135 5.61719C13.3135 5.66406 13.3018 5.71094 13.2783 5.75781C13.2549 5.79883 13.2285 5.8252 13.1992 5.83691C13.1582 5.86035 13.082 5.88379 12.9707 5.90723C12.8594 5.9248 12.7246 5.94531 12.5664 5.96875C12.4082 5.98633 12.2266 6.00684 12.0215 6.03027C11.8223 6.04785 11.6143 6.06836 11.3975 6.0918C11.3271 6.81836 11.2568 7.51855 11.1865 8.19238C11.1221 8.86621 11.0898 9.4668 11.0898 9.99414C11.0898 10.2637 11.1045 10.5098 11.1338 10.7324C11.1689 10.9551 11.2188 11.1484 11.2832 11.3125C11.3477 11.4707 11.4238 11.5938 11.5117 11.6816C11.6055 11.7695 11.7109 11.8135 11.8281 11.8135C11.9336 11.8135 12.0303 11.7666 12.1182 11.6729C12.2061 11.5732 12.2939 11.4385 12.3818 11.2686C12.4697 11.0986 12.5576 10.8965 12.6455 10.6621C12.7393 10.4277 12.8389 10.1699 12.9443 9.88867C12.9971 9.74219 13.0732 9.66895 13.1729 9.66895C13.2666 9.66895 13.3135 9.72168 13.3135 9.82715C13.3135 9.84473 13.3105 9.86523 13.3047 9.88867C13.2988 9.91211 13.293 9.92969 13.2871 9.94141ZM17.9102 9.94141C17.7344 10.4688 17.5703 10.9316 17.418 11.3301C17.2656 11.7227 17.1133 12.0537 16.9609 12.3232C16.8086 12.5869 16.6445 12.7861 16.4688 12.9209C16.2988 13.0557 16.1084 13.123 15.8975 13.123C15.751 13.123 15.6279 13.0762 15.5283 12.9824C15.4346 12.8887 15.3555 12.7832 15.291 12.666C15.2266 12.5488 15.1768 12.4375 15.1416 12.332C15.1123 12.2207 15.0918 12.1475 15.0801 12.1123C15.0742 12.1006 15.0684 12.083 15.0625 12.0596C15.0566 12.0361 15.0479 12.0244 15.0361 12.0244C15.0244 12.0244 15.0127 12.0332 15.001 12.0508C14.9951 12.0684 14.9863 12.0859 14.9746 12.1035C14.957 12.1445 14.9102 12.2207 14.834 12.332C14.7578 12.4434 14.6611 12.5576 14.5439 12.6748C14.4326 12.792 14.3037 12.8975 14.1572 12.9912C14.0107 13.0791 13.8525 13.123 13.6826 13.123C13.5479 13.123 13.416 13.0791 13.2871 12.9912C13.1641 12.9033 13.0557 12.7861 12.9619 12.6396C12.8682 12.4873 12.7949 12.3086 12.7422 12.1035C12.6836 11.8984 12.6543 11.6787 12.6543 11.4443C12.6543 10.9346 12.7363 10.457 12.9004 10.0117C13.0586 9.56055 13.3193 9.10938 13.6826 8.6582C13.8584 8.44141 14.043 8.24805 14.2363 8.07812C14.4355 7.9082 14.6289 7.76758 14.8164 7.65625C15.0039 7.53906 15.1826 7.45117 15.3525 7.39258C15.5283 7.33398 15.6777 7.30469 15.8008 7.30469C15.8828 7.30469 15.9648 7.31934 16.0469 7.34863C16.1289 7.37793 16.2021 7.42773 16.2666 7.49805C16.3311 7.56836 16.3809 7.66211 16.416 7.7793C16.457 7.89062 16.4775 8.02832 16.4775 8.19238C16.4775 8.36816 16.4482 8.55859 16.3896 8.76367C16.3369 8.96875 16.2549 9.16211 16.1436 9.34375C16.0381 9.51953 15.9062 9.66602 15.748 9.7832C15.5898 9.90039 15.4111 9.95898 15.2119 9.95898C15.0889 9.95898 15.0273 9.91211 15.0273 9.81836C15.0273 9.75391 15.042 9.64844 15.0713 9.50195C15.1064 9.35547 15.124 9.21484 15.124 9.08008C15.124 9.02734 15.1211 8.96582 15.1152 8.89551C15.1094 8.81934 15.0947 8.74609 15.0713 8.67578C15.0479 8.60547 15.0156 8.54688 14.9746 8.5C14.9336 8.45312 14.8779 8.42969 14.8076 8.42969C14.6494 8.42969 14.5117 8.50293 14.3945 8.64941C14.2773 8.7959 14.1777 8.97461 14.0957 9.18555C14.0195 9.39648 13.9609 9.61621 13.9199 9.84473C13.8789 10.0732 13.8584 10.2695 13.8584 10.4336C13.8584 10.6562 13.876 10.8438 13.9111 10.9961C13.9463 11.1426 13.9932 11.2627 14.0518 11.3564C14.1104 11.4443 14.1777 11.5088 14.2539 11.5498C14.3301 11.585 14.4092 11.6025 14.4912 11.6025C14.6846 11.6025 14.8574 11.5381 15.0098 11.4092C15.1621 11.2744 15.2939 11.1279 15.4053 10.9697C15.5166 10.8057 15.6074 10.6592 15.6777 10.5303C15.7539 10.3955 15.8154 10.3281 15.8623 10.3281C15.915 10.3281 15.9502 10.3896 15.9678 10.5127C16.0029 10.7764 16.041 10.9932 16.082 11.1631C16.123 11.333 16.1641 11.4678 16.2051 11.5674C16.2461 11.6611 16.2871 11.7285 16.3281 11.7695C16.375 11.8047 16.4219 11.8223 16.4688 11.8223C16.5566 11.8223 16.6445 11.7725 16.7324 11.6729C16.8203 11.5674 16.9082 11.4268 16.9961 11.251C17.084 11.0752 17.1748 10.8701 17.2686 10.6357C17.3623 10.4014 17.4619 10.1523 17.5674 9.88867C17.6318 9.74219 17.708 9.66895 17.7959 9.66895C17.8838 9.66895 17.9277 9.72168 17.9277 9.82715C17.9277 9.86816 17.9219 9.90625 17.9102 9.94141ZM21.8652 9.94141C21.7305 10.3984 21.5928 10.8203 21.4521 11.207C21.3115 11.5938 21.1621 11.9277 21.0039 12.209C20.8457 12.4902 20.6699 12.71 20.4766 12.8682C20.2891 13.0264 20.0752 13.1055 19.835 13.1055C19.542 13.1055 19.3047 12.959 19.123 12.666C18.9473 12.3672 18.8594 11.9746 18.8594 11.4883C18.8594 11.2773 18.8682 11.0781 18.8857 10.8906C18.9092 10.7031 18.9326 10.5215 18.9561 10.3457C18.9854 10.1699 19.0088 10 19.0264 9.83594C19.0498 9.67188 19.0615 9.51074 19.0615 9.35254C19.0615 9.18262 19.041 9.07129 19 9.01855C18.959 8.96582 18.9062 8.93945 18.8418 8.93945C18.8301 8.93945 18.8184 8.94238 18.8066 8.94824C18.7949 8.94824 18.7715 8.95117 18.7363 8.95703C18.707 8.95703 18.6602 8.96289 18.5957 8.97461C18.5371 8.98047 18.4551 8.98926 18.3496 9.00098C18.2852 9.1416 18.2324 9.26172 18.1914 9.36133C18.1504 9.45508 18.1152 9.53711 18.0859 9.60742C18.0566 9.67773 18.0303 9.73926 18.0068 9.79199C17.9893 9.83887 17.9717 9.88867 17.9541 9.94141C17.9072 10.0527 17.8662 10.123 17.8311 10.1523C17.7959 10.1758 17.7549 10.1875 17.708 10.1875C17.6729 10.1875 17.6436 10.1729 17.6201 10.1436C17.5908 10.1143 17.5762 10.0732 17.5762 10.0205C17.5762 9.98535 17.585 9.94434 17.6025 9.89746C17.6201 9.84473 17.6406 9.78027 17.6641 9.7041C17.6934 9.62207 17.7227 9.51953 17.752 9.39648C17.7871 9.27344 17.8223 9.12109 17.8574 8.93945C17.7402 8.88672 17.6406 8.76367 17.5586 8.57031C17.4707 8.37109 17.4268 8.13965 17.4268 7.87598C17.4268 7.65918 17.4648 7.43945 17.541 7.2168C17.6113 6.99414 17.6992 6.79199 17.8047 6.61035C17.916 6.42285 18.0332 6.27051 18.1562 6.15332C18.2852 6.03613 18.3994 5.97754 18.499 5.97754C18.6279 5.97754 18.7363 6.05664 18.8242 6.21484C18.918 6.36719 18.9648 6.54297 18.9648 6.74219C18.9648 6.84766 18.9531 6.95605 18.9297 7.06738C18.9062 7.17285 18.8799 7.27246 18.8506 7.36621C18.8271 7.4541 18.8037 7.53613 18.7803 7.6123C18.7568 7.68262 18.7451 7.73828 18.7451 7.7793C18.7451 7.83203 18.7656 7.8584 18.8066 7.8584C18.8359 7.8584 18.8887 7.84375 18.9648 7.81445L19.3955 7.62109C19.5537 7.55664 19.6885 7.52441 19.7998 7.52441C19.9873 7.52441 20.1104 7.58301 20.1689 7.7002C20.2334 7.81738 20.2656 7.99023 20.2656 8.21875C20.2656 8.31836 20.2539 8.49414 20.2305 8.74609C20.207 8.99219 20.1807 9.26758 20.1514 9.57227C20.1279 9.87109 20.1045 10.1699 20.0811 10.4688C20.0635 10.7676 20.0547 11.0107 20.0547 11.1982C20.0547 11.4033 20.0752 11.5557 20.1162 11.6553C20.1631 11.749 20.2598 11.7959 20.4062 11.7959C20.5117 11.7959 20.6143 11.7344 20.7139 11.6113C20.8193 11.4883 20.9189 11.333 21.0127 11.1455C21.1064 10.958 21.1943 10.7529 21.2764 10.5303C21.3643 10.3076 21.4434 10.0938 21.5137 9.88867C21.5664 9.74219 21.6426 9.66895 21.7422 9.66895C21.8359 9.66895 21.8828 9.72168 21.8828 9.82715C21.8828 9.84473 21.8799 9.8623 21.874 9.87988C21.874 9.89746 21.8711 9.91797 21.8652 9.94141ZM25.082 9.94141C24.8945 10.4805 24.7246 10.9492 24.5723 11.3477C24.4258 11.7461 24.2764 12.0801 24.124 12.3496C23.9717 12.6133 23.8076 12.8125 23.6318 12.9473C23.4561 13.0762 23.2451 13.1406 22.999 13.1406C22.8584 13.1406 22.709 13.0996 22.5508 13.0176C22.3926 12.9414 22.2461 12.792 22.1113 12.5693C21.9766 12.3467 21.8652 12.0361 21.7773 11.6377C21.6895 11.2334 21.6455 10.709 21.6455 10.0645C21.6455 9.89453 21.6514 9.67188 21.6631 9.39648C21.6807 9.11523 21.6982 8.80469 21.7158 8.46484C21.7393 8.11914 21.7656 7.75586 21.7949 7.375C21.8242 6.98828 21.8564 6.60156 21.8916 6.21484C21.8623 6.2207 21.8359 6.22656 21.8125 6.23242C21.7891 6.23242 21.7627 6.23242 21.7334 6.23242C21.417 6.26758 21.1855 6.2998 21.0391 6.3291C20.8926 6.35254 20.8047 6.37891 20.7754 6.4082C20.7461 6.43164 20.7314 6.46094 20.7314 6.49609C20.7314 6.52539 20.7314 6.55469 20.7314 6.58398C20.7256 6.60742 20.7168 6.63086 20.7051 6.6543C20.6875 6.67188 20.6553 6.68066 20.6084 6.68066C20.5791 6.68066 20.5439 6.6748 20.5029 6.66309C20.4561 6.64551 20.4121 6.62207 20.3711 6.59277C20.3242 6.55762 20.2861 6.5166 20.2568 6.46973C20.2275 6.41699 20.2129 6.35547 20.2129 6.28516C20.2129 6.2207 20.2275 6.15332 20.2568 6.08301C20.2803 6.0127 20.3125 5.94531 20.3535 5.88086C20.3945 5.81055 20.4561 5.72559 20.5381 5.62598C20.6143 5.52637 20.7197 5.42676 20.8545 5.32715C20.9834 5.22168 21.1445 5.125 21.3379 5.03711C21.5312 4.94922 21.7598 4.87891 22.0234 4.82617C22.0527 4.58008 22.082 4.36328 22.1113 4.17578C22.1465 3.98242 22.1816 3.8125 22.2168 3.66602C22.252 3.51367 22.2842 3.37891 22.3135 3.26172C22.3486 3.13867 22.3838 3.02734 22.4189 2.92773C22.4893 2.69922 22.5771 2.52637 22.6826 2.40918C22.7881 2.28613 22.9082 2.15723 23.043 2.02246C23.1895 1.87598 23.3125 1.7793 23.4121 1.73242C23.5176 1.67969 23.5967 1.65039 23.6494 1.64453C23.7021 1.64453 23.749 1.66211 23.79 1.69727C23.8369 1.72656 23.8604 1.78223 23.8604 1.86426C23.8604 1.91113 23.8574 1.95215 23.8516 1.9873C23.8457 2.0166 23.8398 2.04297 23.834 2.06641C23.8164 2.13086 23.7871 2.24512 23.7461 2.40918C23.7109 2.57324 23.667 2.77539 23.6143 3.01562C23.5674 3.25 23.5176 3.5166 23.4648 3.81543C23.4121 4.1084 23.3652 4.42188 23.3242 4.75586C23.6406 4.7793 23.9043 4.82031 24.1152 4.87891C24.332 4.93164 24.4639 4.96387 24.5107 4.97559C24.6104 5.01074 24.6777 5.04297 24.7129 5.07227C24.748 5.10156 24.7803 5.15137 24.8096 5.22168C24.833 5.26855 24.8594 5.30664 24.8887 5.33594C24.9238 5.36523 24.9561 5.3916 24.9854 5.41504C25.0205 5.43848 25.0498 5.46484 25.0732 5.49414C25.0967 5.52344 25.1084 5.56445 25.1084 5.61719C25.1084 5.66406 25.0967 5.71094 25.0732 5.75781C25.0498 5.79883 25.0234 5.8252 24.9941 5.83691C24.9531 5.86035 24.877 5.88379 24.7656 5.90723C24.6543 5.9248 24.5195 5.94531 24.3613 5.96875C24.2031 5.98633 24.0215 6.00684 23.8164 6.03027C23.6172 6.04785 23.4092 6.06836 23.1924 6.0918C23.1221 6.81836 23.0518 7.51855 22.9814 8.19238C22.917 8.86621 22.8848 9.4668 22.8848 9.99414C22.8848 10.2637 22.8994 10.5098 22.9287 10.7324C22.9639 10.9551 23.0137 11.1484 23.0781 11.3125C23.1426 11.4707 23.2188 11.5938 23.3066 11.6816C23.4004 11.7695 23.5059 11.8135 23.623 11.8135C23.7285 11.8135 23.8252 11.7666 23.9131 11.6729C24.001 11.5732 24.0889 11.4385 24.1768 11.2686C24.2646 11.0986 24.3525 10.8965 24.4404 10.6621C24.5342 10.4277 24.6338 10.1699 24.7393 9.88867C24.792 9.74219 24.8682 9.66895 24.9678 9.66895C25.0615 9.66895 25.1084 9.72168 25.1084 9.82715C25.1084 9.84473 25.1055 9.86523 25.0996 9.88867C25.0938 9.91211 25.0879 9.92969 25.082 9.94141ZM27.3936 11.6377L27.5166 11.5322C27.6396 11.4209 27.7949 11.2363 27.9824 10.9785C28.1758 10.7207 28.3662 10.3574 28.5537 9.88867C28.6182 9.74219 28.7002 9.66895 28.7998 9.66895C28.8818 9.66895 28.9229 9.71582 28.9229 9.80957C28.9229 9.84473 28.9141 9.88867 28.8965 9.94141C28.7617 10.3223 28.6152 10.6475 28.457 10.917C28.3047 11.1865 28.1465 11.415 27.9824 11.6025C27.8184 11.79 27.6543 11.9424 27.4902 12.0596C27.332 12.1709 27.1826 12.2559 27.042 12.3145C26.8896 12.543 26.7109 12.7422 26.5059 12.9121C26.3066 13.0762 26.0723 13.1582 25.8027 13.1582C25.627 13.1582 25.4775 13.1201 25.3545 13.0439C25.2314 12.9678 25.1318 12.874 25.0557 12.7627C24.9795 12.6514 24.9238 12.5312 24.8887 12.4023C24.8535 12.2676 24.8359 12.1475 24.8359 12.042C24.8359 11.8428 24.8594 11.6641 24.9062 11.5059C24.959 11.3477 25.0205 11.2129 25.0908 11.1016C25.1611 10.9902 25.2344 10.9082 25.3105 10.8555C25.3926 10.7969 25.46 10.7676 25.5127 10.7676C25.583 10.7676 25.6533 10.8262 25.7236 10.9434C25.7939 11.0605 25.8701 11.2246 25.9521 11.4355C26.0693 11.752 26.1689 11.9805 26.251 12.1211C26.3389 12.1094 26.4238 12.0977 26.5059 12.0859C26.5879 12.0684 26.6699 12.0449 26.752 12.0156C26.793 11.9336 26.8135 11.8604 26.8135 11.7959C26.8135 11.6904 26.7842 11.5674 26.7256 11.4268C26.667 11.2803 26.5908 11.1279 26.4971 10.9697C26.4092 10.8057 26.3096 10.6416 26.1982 10.4775C26.0869 10.3076 25.9756 10.1494 25.8643 10.0029C25.7588 9.85059 25.6592 9.71289 25.5654 9.58984C25.4717 9.46094 25.3984 9.35547 25.3457 9.27344C25.3047 9.4082 25.2695 9.52539 25.2402 9.625C25.2109 9.71875 25.1816 9.80078 25.1523 9.87109C25.1113 9.98828 25.0732 10.0674 25.0381 10.1084C25.0088 10.1436 24.9678 10.1611 24.915 10.1611C24.8213 10.1611 24.7744 10.1055 24.7744 9.99414C24.7744 9.95312 24.7803 9.91504 24.792 9.87988C24.8389 9.72754 24.877 9.59277 24.9062 9.47559C24.9414 9.35254 24.9707 9.25 24.9941 9.16797C25.0176 9.06836 25.0381 8.9834 25.0557 8.91309C24.9561 8.79004 24.8682 8.64941 24.792 8.49121C24.71 8.32715 24.6689 8.11914 24.6689 7.86719C24.6689 7.68555 24.7041 7.48633 24.7744 7.26953C24.8389 7.04688 24.9238 6.8418 25.0293 6.6543C25.1348 6.46094 25.249 6.2998 25.3721 6.1709C25.501 6.04199 25.624 5.97754 25.7412 5.97754C25.8115 5.97754 25.873 6.00098 25.9258 6.04785C25.9844 6.08887 26.0312 6.14453 26.0664 6.21484C26.1074 6.28516 26.1367 6.36719 26.1543 6.46094C26.1777 6.54883 26.1895 6.63672 26.1895 6.72461C26.1895 6.92383 26.1543 7.14941 26.084 7.40137C26.0781 7.4248 26.0693 7.45996 26.0576 7.50684C26.0518 7.54785 26.0488 7.5918 26.0488 7.63867C26.0488 7.80859 26.1602 8.0459 26.3828 8.35059C26.6055 8.65527 26.8838 8.99805 27.2178 9.37891C27.376 9.56055 27.4902 9.75391 27.5605 9.95898C27.6309 10.1582 27.666 10.3896 27.666 10.6533C27.666 10.7354 27.6572 10.8262 27.6396 10.9258C27.6221 11.0195 27.6016 11.0986 27.5781 11.1631L27.3936 11.6377Z" fill="url(#paint0_linear_7080_8515)"/>
<path d="M17.4736 11.5254C17.4736 11.5527 17.4714 11.6188 17.4668 11.7236C17.4622 11.8285 17.4554 11.9515 17.4463 12.0928C17.4417 12.234 17.4349 12.3822 17.4258 12.5371C17.4167 12.6921 17.4098 12.8379 17.4053 12.9746C17.4053 13.0065 17.4007 13.1068 17.3916 13.2754C17.3825 13.4395 17.3711 13.6491 17.3574 13.9043C17.3438 14.1595 17.3278 14.4489 17.3096 14.7725C17.2913 15.096 17.2731 15.4287 17.2549 15.7705C17.2367 16.1123 17.2184 16.4541 17.2002 16.7959C17.182 17.1331 17.1637 17.4453 17.1455 17.7324C17.1318 18.015 17.1182 18.2633 17.1045 18.4775C17.0908 18.6872 17.0794 18.8376 17.0703 18.9287C17.0566 19.1064 17.0156 19.3206 16.9473 19.5713C16.8835 19.8174 16.7809 20.0749 16.6396 20.3438C16.4984 20.6081 16.3115 20.8701 16.0791 21.1299C15.8467 21.3896 15.5527 21.6198 15.1973 21.8203C15.1745 21.834 15.1471 21.8454 15.1152 21.8545C15.0879 21.8682 15.0628 21.875 15.04 21.875C14.9808 21.875 14.9512 21.8499 14.9512 21.7998C14.9512 21.7588 14.9762 21.7109 15.0264 21.6562C15.1859 21.4876 15.318 21.3167 15.4229 21.1436C15.5277 20.9704 15.612 20.779 15.6758 20.5693C15.7396 20.3597 15.7874 20.1204 15.8193 19.8516C15.8512 19.5827 15.8786 19.266 15.9014 18.9014C15.9287 18.5778 15.9583 18.1745 15.9902 17.6914C16.0176 17.2812 16.0495 16.7663 16.0859 16.1465C16.1224 15.5267 16.1611 14.7884 16.2021 13.9316C16.2067 13.8223 16.2113 13.7061 16.2158 13.583C16.2249 13.46 16.2318 13.3438 16.2363 13.2344C16.2409 13.1204 16.2454 13.0202 16.25 12.9336C16.2546 12.847 16.2568 12.7855 16.2568 12.749C16.2568 12.6989 16.2318 12.6738 16.1816 12.6738C16.1087 12.6738 16.0107 12.6852 15.8877 12.708C15.7692 12.7262 15.6393 12.7627 15.498 12.8174C15.3613 12.8675 15.2223 12.9336 15.0811 13.0156C14.9443 13.0977 14.819 13.2025 14.7051 13.3301C14.5911 13.4531 14.4977 13.599 14.4248 13.7676C14.3564 13.9316 14.3223 14.123 14.3223 14.3418C14.3223 14.556 14.3473 14.752 14.3975 14.9297C14.4521 15.1074 14.516 15.2692 14.5889 15.415C14.6663 15.5609 14.7507 15.693 14.8418 15.8115C14.9329 15.9255 15.015 16.0257 15.0879 16.1123C15.1654 16.1943 15.2292 16.265 15.2793 16.3242C15.334 16.3789 15.3613 16.4199 15.3613 16.4473C15.3613 16.4883 15.3385 16.5225 15.293 16.5498C15.2474 16.5771 15.1676 16.5908 15.0537 16.5908C14.8167 16.5908 14.5934 16.5384 14.3838 16.4336C14.1742 16.3288 13.9919 16.1875 13.8369 16.0098C13.682 15.8275 13.5589 15.6178 13.4678 15.3809C13.3766 15.1439 13.3311 14.8955 13.3311 14.6357C13.3311 14.2939 13.3926 13.9727 13.5156 13.6719C13.6432 13.3711 13.8096 13.0954 14.0146 12.8447C14.2243 12.5941 14.4635 12.3708 14.7324 12.1748C15.0013 11.9743 15.277 11.8057 15.5596 11.6689C15.8421 11.5277 16.1201 11.4206 16.3936 11.3477C16.6715 11.2747 16.9245 11.2383 17.1523 11.2383C17.2708 11.2383 17.3529 11.2611 17.3984 11.3066C17.4486 11.3477 17.4736 11.4206 17.4736 11.5254ZM22.9971 18.4092C23.0244 18.4092 23.0472 18.4206 23.0654 18.4434C23.0882 18.4616 23.0996 18.4889 23.0996 18.5254C23.0996 18.5618 23.0928 18.596 23.0791 18.6279C22.9378 19.0335 22.8079 19.3913 22.6895 19.7012C22.571 20.0065 22.4502 20.2617 22.3271 20.4668C22.2087 20.6719 22.0856 20.8268 21.958 20.9316C21.8304 21.0365 21.6891 21.0889 21.5342 21.0889C21.3428 21.0889 21.1878 21.0456 21.0693 20.959C20.9508 20.8678 20.8574 20.7516 20.7891 20.6104C20.7207 20.4691 20.6751 20.3118 20.6523 20.1387C20.6296 19.9609 20.6182 19.7855 20.6182 19.6123C20.6182 19.4893 20.6204 19.3685 20.625 19.25C20.6296 19.127 20.6341 19.0107 20.6387 18.9014C20.6478 18.792 20.6546 18.694 20.6592 18.6074C20.6637 18.5208 20.666 18.4502 20.666 18.3955C20.666 18.3089 20.6501 18.2474 20.6182 18.2109C20.5908 18.1699 20.5589 18.1494 20.5225 18.1494C20.4814 18.1494 20.4473 18.1699 20.4199 18.2109C20.3926 18.2474 20.3698 18.2907 20.3516 18.3408C20.3288 18.3955 20.2946 18.4935 20.249 18.6348C20.2035 18.776 20.151 18.9355 20.0918 19.1133C20.0326 19.291 19.9688 19.4779 19.9004 19.6738C19.8366 19.8652 19.7773 20.0384 19.7227 20.1934C19.6497 20.3939 19.5791 20.5579 19.5107 20.6855C19.4469 20.8086 19.3854 20.9043 19.3262 20.9727C19.2669 21.041 19.2077 21.0866 19.1484 21.1094C19.0938 21.1367 19.0413 21.1504 18.9912 21.1504C18.9456 21.1504 18.8978 21.1413 18.8477 21.123C18.8021 21.1048 18.7588 21.0752 18.7178 21.0342C18.6813 20.9932 18.6494 20.9385 18.6221 20.8701C18.5947 20.7972 18.5811 20.7061 18.5811 20.5967C18.5719 20.3643 18.5651 20.1136 18.5605 19.8447C18.5605 19.5713 18.5605 19.3047 18.5605 19.0449C18.5605 18.9219 18.5605 18.8034 18.5605 18.6895C18.5651 18.5755 18.5674 18.4707 18.5674 18.375C18.5674 18.2428 18.5605 18.1494 18.5469 18.0947C18.5332 18.0355 18.515 18.0059 18.4922 18.0059C18.4421 18.0059 18.3988 18.056 18.3623 18.1562C18.3304 18.252 18.2734 18.4023 18.1914 18.6074C18.1641 18.6758 18.1344 18.7236 18.1025 18.751C18.0752 18.7783 18.0456 18.792 18.0137 18.792C17.9863 18.792 17.9635 18.7829 17.9453 18.7646C17.9225 18.7419 17.9111 18.7054 17.9111 18.6553C17.9111 18.6279 17.9225 18.5801 17.9453 18.5117C17.9681 18.4388 17.9954 18.3613 18.0273 18.2793C18.0638 18.1927 18.098 18.1061 18.1299 18.0195C18.1663 17.9284 18.1982 17.8509 18.2256 17.7871C18.2666 17.6823 18.3145 17.5752 18.3691 17.4658C18.4284 17.3519 18.4922 17.2493 18.5605 17.1582C18.6335 17.0625 18.7109 16.985 18.793 16.9258C18.8796 16.862 18.973 16.8301 19.0732 16.8301C19.2054 16.8301 19.3216 16.903 19.4219 17.0488C19.5267 17.1947 19.5837 17.4157 19.5928 17.7119C19.5973 17.9489 19.5996 18.1745 19.5996 18.3887C19.6042 18.5983 19.6087 18.7829 19.6133 18.9424C19.6178 19.0973 19.6201 19.2227 19.6201 19.3184C19.6247 19.4095 19.6292 19.4551 19.6338 19.4551C19.6429 19.4551 19.6634 19.4141 19.6953 19.332C19.7272 19.25 19.7682 19.1429 19.8184 19.0107C19.8685 18.874 19.9255 18.7214 19.9893 18.5527C20.0531 18.3796 20.1191 18.2064 20.1875 18.0332C20.2604 17.8555 20.3356 17.6868 20.4131 17.5273C20.4906 17.3633 20.568 17.2197 20.6455 17.0967C20.7275 16.9645 20.8141 16.8643 20.9053 16.7959C21.001 16.7275 21.1081 16.6934 21.2266 16.6934C21.3906 16.6934 21.5091 16.7913 21.582 16.9873C21.6549 17.1787 21.6914 17.4385 21.6914 17.7666C21.6914 17.8486 21.6891 17.9489 21.6846 18.0674C21.68 18.1859 21.6732 18.3112 21.6641 18.4434C21.6595 18.5755 21.6549 18.7077 21.6504 18.8398C21.6458 18.972 21.6436 19.0928 21.6436 19.2021C21.6436 19.389 21.6504 19.5417 21.6641 19.6602C21.6823 19.7741 21.7051 19.863 21.7324 19.9268C21.7598 19.9906 21.7894 20.0339 21.8213 20.0566C21.8532 20.0794 21.8851 20.0908 21.917 20.0908C22.0081 20.0908 22.0902 20.0498 22.1631 19.9678C22.2406 19.8857 22.3135 19.7741 22.3818 19.6328C22.4502 19.4915 22.5186 19.332 22.5869 19.1543C22.6553 18.972 22.7305 18.7806 22.8125 18.5801C22.8535 18.4661 22.915 18.4092 22.9971 18.4092Z" fill="url(#paint1_linear_7080_8515)"/>
<defs>
<linearGradient id="paint0_linear_7080_8515" x1="1.99378e-09" y1="7.37992" x2="28.9951" y2="7.89644" gradientUnits="userSpaceOnUse">
<stop offset="0.252859" stop-color="#E20000"/>
<stop offset="0.590884"/>
</linearGradient>
<linearGradient id="paint1_linear_7080_8515" x1="12" y1="16.4119" x2="24.0006" y2="16.5326" gradientUnits="userSpaceOnUse">
<stop offset="0.252859" stop-color="#E20000"/>
<stop offset="0.590884"/>
</linearGradient>
</defs>
</svg>
