<svg width="75" height="81" viewBox="0 0 75 81" fill="none" xmlns="http://www.w3.org/2000/svg">
<path opacity="0.4" d="M36.2059 32.0961L32.1678 29.0493C31.3371 30.1503 30.0096 30.5815 29.2396 30.0004L24.4314 26.3726C23.791 25.8894 22.7387 26.2332 22.0498 27.1462L8.13005 45.5947C3.75354 51.3951 3.49123 58.6141 7.54998 61.6765L12.4126 65.3454C12.7901 65.6302 13.3091 65.6847 13.8557 65.5071C14.4004 65.3281 14.9356 64.9313 15.3409 64.3942C16.8807 62.3533 19.0701 61.5611 20.4036 62.5672C21.7954 63.6173 21.7081 66.0378 20.2256 68.0377C19.3949 69.1387 19.2304 70.4896 20.0192 71.0848L24.8293 74.714C28.8861 77.775 35.739 75.5287 40.0953 69.7552L54.0352 51.2799C54.7241 50.3668 54.7622 49.2577 54.1255 48.7773L50.0667 45.7149C49.2798 45.1212 49.347 43.7391 50.1777 42.6381L46.5359 39.8903C45.7052 40.9913 44.3759 41.421 43.6077 40.8414L36.0949 35.1729C35.3249 34.5919 35.3752 33.1971 36.2059 32.0961Z" fill="#E20000"/>
<path d="M53.8365 18.2594C55.2264 19.308 57.5502 18.5329 59.0481 16.5868C59.8788 15.4858 61.1326 14.9569 61.9027 15.5379L66.7296 19.1799C70.7884 22.2423 70.5294 29.4217 66.1529 35.2221L59.5476 43.9764C58.879 44.8625 57.8027 45.2304 57.1641 44.7486L53.1072 41.6876C52.3184 41.0924 51.0299 41.5109 50.1789 42.6388L46.5371 39.891C47.3881 38.7631 47.4163 37.3937 46.6481 36.8141L39.1354 31.1456C38.3635 30.5632 37.0581 30.9689 36.2071 32.0968L32.1672 29.0485C33.0182 27.9207 33.0482 26.5527 32.2781 25.9717L27.4719 22.3452C26.8314 21.862 26.8916 20.7275 27.5603 19.8413L34.1655 11.087C38.5421 5.28662 45.3747 3.06719 49.4315 6.12818L54.1646 9.69934C54.5402 9.98276 54.7368 10.4683 54.7142 11.0412C54.6935 11.6155 54.4588 12.2391 54.0536 12.7762C52.5542 14.7634 52.4673 17.2263 53.8365 18.2594Z" fill="#E20000"/>
</svg>
