<svg width="163" height="112" viewBox="0 0 163 112" fill="none" xmlns="http://www.w3.org/2000/svg">
<path opacity="0.4" d="M45.3373 39.6606L40.2555 35.8264C39.2098 37.2123 37.539 37.7553 36.5699 37.0241L30.5191 32.4586C29.7131 31.8505 28.3886 32.2835 27.5214 33.4328L9.99914 56.6559C4.48995 63.9575 4.15856 73.044 9.26631 76.8979L15.3857 81.515C15.8608 81.8735 16.5139 81.9419 17.2019 81.7183C17.8875 81.493 18.5612 80.9934 19.0713 80.3173C21.0097 77.7482 23.7654 76.7506 25.4436 78.0168C27.195 79.3383 27.0847 82.3849 25.2186 84.9025C24.1728 86.2884 23.9656 87.9887 24.9583 88.7377L31.0115 93.305C36.1169 97.1571 44.7422 94.3286 50.2259 87.0608L67.7737 63.8038C68.6408 62.6545 68.689 61.2585 67.8877 60.654L62.7799 56.8001C61.7896 56.0528 61.8744 54.3132 62.9202 52.9272L58.3371 49.4693C57.2914 50.8552 55.6182 51.3964 54.6515 50.667L45.1971 43.5335C44.228 42.8023 44.2916 41.0466 45.3373 39.6606Z" fill="black"/>
<path d="M67.5291 22.2415C69.2782 23.5612 72.203 22.5852 74.0886 20.1353C75.1343 18.7494 76.7124 18.0834 77.6815 18.8146L83.756 23.3979C88.8637 27.2518 88.5366 36.2884 83.0274 43.59L74.7126 54.61C73.8709 55.7255 72.5162 56.1887 71.7126 55.5824L66.6072 51.7303C65.6145 50.9812 63.9928 51.5083 62.9216 52.928L58.3385 49.47C59.4098 48.0503 59.4455 46.3266 58.4788 45.5972L49.0243 38.4637C48.0529 37.7307 46.4099 38.2416 45.3387 39.6614L40.2546 35.8253C41.3258 34.4056 41.3639 32.6837 40.3948 31.9525L34.3463 27.3888C33.5403 26.7807 33.6163 25.3527 34.458 24.2372L42.7728 13.2172C48.282 5.91556 56.8818 3.12084 61.9872 6.97296L67.9435 11.4671C68.4162 11.8238 68.6636 12.4348 68.6351 13.156C68.6089 13.8789 68.3134 14.6638 67.8032 15.3399C65.9158 17.8414 65.806 20.9414 67.5291 22.2415Z" fill="black"/>
<path opacity="0.4" d="M115.337 50.6606L110.256 46.8264C109.21 48.2123 107.539 48.7553 106.57 48.0241L100.519 43.4586C99.7131 42.8505 98.3886 43.2835 97.5214 44.4328L79.9991 67.6559C74.4899 74.9575 74.1586 84.044 79.2663 87.8979L85.3857 92.515C85.8608 92.8735 86.5139 92.9419 87.2019 92.7183C87.8875 92.493 88.5612 91.9934 89.0713 91.3173C91.0097 88.7482 93.7654 87.7506 95.4436 89.0168C97.195 90.3383 97.0847 93.3849 95.2186 95.9025C94.1728 97.2884 93.9656 98.9887 94.9583 99.7377L101.011 104.305C106.117 108.157 114.742 105.329 120.226 98.0608L137.774 74.8038C138.641 73.6545 138.689 72.2585 137.888 71.654L132.78 67.8001C131.79 67.0528 131.874 65.3132 132.92 63.9272L128.337 60.4693C127.291 61.8552 125.618 62.3964 124.652 61.667L115.197 54.5335C114.228 53.8023 114.292 52.0466 115.337 50.6606Z" fill="black"/>
<path d="M137.529 33.2415C139.278 34.5612 142.203 33.5852 144.089 31.1353C145.134 29.7494 146.712 29.0834 147.682 29.8146L153.756 34.3979C158.864 38.2518 158.537 47.2884 153.027 54.59L144.713 65.61C143.871 66.7255 142.516 67.1887 141.713 66.5824L136.607 62.7303C135.614 61.9812 133.993 62.5083 132.922 63.928L128.339 60.47C129.41 59.0503 129.445 57.3266 128.479 56.5972L119.024 49.4637C118.053 48.7307 116.41 49.2416 115.339 50.6614L110.255 46.8253C111.326 45.4056 111.364 43.6837 110.395 42.9525L104.346 38.3888C103.54 37.7807 103.616 36.3527 104.458 35.2372L112.773 24.2172C118.282 16.9156 126.882 14.1208 131.987 17.973L137.943 22.4671C138.416 22.8238 138.664 23.4348 138.635 24.156C138.609 24.8789 138.313 25.6638 137.803 26.3399C135.916 28.8414 135.806 31.9414 137.529 33.2415Z" fill="black"/>
</svg>
