<svg width="23" height="22" viewBox="0 0 23 22" fill="none" xmlns="http://www.w3.org/2000/svg">
<path fill-rule="evenodd" clip-rule="evenodd" d="M11.1448 8.18787C10.9059 8.32611 10.5999 8.24441 10.4616 8.00553L9.65325 6.60855C9.51502 6.36966 9.59671 6.06359 9.8356 5.92536C10.0745 5.78713 10.3806 5.86882 10.5188 6.1077L11.3272 7.50468C11.4654 7.74357 11.3837 8.04964 11.1448 8.18787" fill="black"/>
<path fill-rule="evenodd" clip-rule="evenodd" d="M15.5231 15.7546C15.2843 15.8928 14.9782 15.8111 14.84 15.5723L14.1645 14.4049C14.0259 14.1655 14.1079 13.86 14.3468 13.7217C14.5857 13.5835 14.8915 13.6646 15.03 13.9041L15.7055 15.0714C15.8437 15.3103 15.762 15.6164 15.5231 15.7546" fill="black"/>
<path fill-rule="evenodd" clip-rule="evenodd" d="M13.7006 12.605C13.4617 12.7432 13.1556 12.6615 13.0174 12.4226L11.4076 9.64078C11.2694 9.40189 11.3511 9.09582 11.59 8.95759C11.8289 8.81935 12.135 8.90104 12.2732 9.13993L13.8829 11.9218C14.0211 12.1607 13.9394 12.4667 13.7006 12.605" fill="black"/>
<mask id="mask0_3474_6666" style="mask-type:luminance" maskUnits="userSpaceOnUse" x="2" y="2" width="19" height="19">
<path fill-rule="evenodd" clip-rule="evenodd" d="M2.48193 9.98828L14.888 2.8095L20.7311 12.9073L8.32503 20.086L2.48193 9.98828Z" fill="white"/>
</mask>
<g mask="url(#mask0_3474_6666)">
<path fill-rule="evenodd" clip-rule="evenodd" d="M7.20531 16.1544L7.85274 17.2732C8.31419 18.0707 9.34936 18.3382 10.1601 17.8691L17.8945 13.3935C18.7052 12.9244 18.9891 11.8936 18.5277 11.0961L17.8803 9.97729C17.0486 10.2052 16.1363 9.86115 15.6882 9.08678C15.2397 8.31184 15.3959 7.35037 16.0084 6.74249L15.3598 5.62282C14.8983 4.82537 13.8632 4.55786 13.0524 5.02698L5.31915 9.50187C4.50843 9.97099 4.22453 11.0018 4.68597 11.7992L5.3592 12.964C6.19413 12.7204 7.08184 13.0432 7.52558 13.8101C7.97367 14.5845 7.81732 15.5468 7.20531 16.1544M18.3954 14.259L10.6609 18.7346C9.373 19.4799 7.72478 19.0487 6.9872 17.7741L6.12174 16.2784C5.98351 16.0395 6.0652 15.7335 6.30409 15.5952C6.75821 15.3325 6.91782 14.7564 6.66005 14.3109C6.40962 13.8782 5.86635 13.7566 5.39723 14.028C5.2824 14.0945 5.14581 14.1127 5.01794 14.0781C4.88984 14.0444 4.78015 13.9599 4.71403 13.8457L3.82044 12.3001C3.08286 11.0254 3.53039 9.38159 4.81831 8.63633L12.5516 4.16145C13.8395 3.41619 15.4877 3.84732 16.2253 5.12197L17.092 6.61844C17.1581 6.73269 17.1766 6.86986 17.142 6.99772C17.1083 7.12583 17.0245 7.23518 16.9097 7.30163C16.4556 7.56441 16.2959 8.14047 16.5537 8.58594C16.8115 9.0314 17.3905 9.18008 17.8446 8.9173C18.0835 8.77907 18.3895 8.86076 18.5278 9.09964L19.3932 10.5953C20.1308 11.8699 19.6833 13.5138 18.3954 14.259" fill="black"/>
</g>
</svg>
