<svg width="65" height="38" viewBox="0 0 65 38" fill="none" xmlns="http://www.w3.org/2000/svg">
<path opacity="0.4" d="M38.1891 13.7361V9.10724C36.9004 9.10724 35.8317 8.37524 35.8317 7.49253V1.98102C35.8317 1.24686 34.9831 0.667725 33.9144 0.667725H12.3211C5.53191 0.667725 0 4.45474 0 9.10724V14.6812C0 15.1139 0.251451 15.523 0.691489 15.8244C1.13153 16.1237 1.72872 16.2959 2.35735 16.2959C4.74613 16.2959 6.56915 17.4585 6.56915 18.9871C6.56915 20.5824 4.7147 21.8526 2.38878 21.872C1.1001 21.872 0 22.4964 0 23.4006V28.9143C0 33.5646 5.53192 37.3322 12.2897 37.3322H33.9144C34.9831 37.3322 35.8317 36.7488 35.8317 36.0189V31.3665C35.8317 30.4644 36.9004 29.7517 38.1891 29.7517V25.5772C36.9004 25.5772 35.8317 24.8431 35.8317 23.9625V15.3508C35.8317 14.4681 36.9004 13.7361 38.1891 13.7361Z" fill="#E20000"/>
<path d="M58.4312 18.9882C58.4312 20.5814 60.3171 21.8516 62.6116 21.8732C63.9003 21.8732 65.0004 22.4975 65.0004 23.3802V28.9133C65.0004 33.5658 59.4999 37.3334 52.7107 37.3334H42.4641C41.4269 37.3334 40.5468 36.75 40.5468 36.018V31.3676C40.5468 30.4634 39.5096 29.7529 38.1895 29.7529V25.5784C39.5096 25.5784 40.5468 24.8442 40.5468 23.9637V15.3519C40.5468 14.4671 39.5096 13.7372 38.1895 13.7372V9.10626C39.5096 9.10626 40.5468 8.37426 40.5468 7.49156V1.98219C40.5468 1.24804 41.4269 0.666748 42.4641 0.666748H52.7107C59.4999 0.666748 65.0004 4.43439 65.0004 9.08473V14.5101C65.0004 14.9407 64.7489 15.3519 64.3089 15.6512C63.8689 15.9526 63.2717 16.1248 62.643 16.1248C60.3171 16.1248 58.4312 17.4188 58.4312 18.9882Z" fill="#E20000"/>
</svg>
