<svg width="163" height="112" viewBox="0 0 163 112" fill="none" xmlns="http://www.w3.org/2000/svg">
<path opacity="0.4" d="M45.3373 39.6604L40.2555 35.8261C39.2098 37.2121 37.539 37.755 36.5699 37.0239L30.5191 32.4584C29.7131 31.8503 28.3886 32.2832 27.5214 33.4325L9.99914 56.6557C4.48995 63.9573 4.15856 73.0437 9.26631 76.8976L15.3857 81.5148C15.8608 81.8733 16.5139 81.9417 17.2019 81.7181C17.8875 81.4927 18.5612 80.9931 19.0713 80.3171C21.0097 77.748 23.7654 76.7504 25.4436 78.0166C27.195 79.3381 27.0847 82.3847 25.2186 84.9022C24.1728 86.2882 23.9656 87.9885 24.9583 88.7375L31.0115 93.3048C36.1169 97.1569 44.7422 94.3283 50.2259 87.0605L67.7737 63.8036C68.6408 62.6543 68.689 61.2583 67.8877 60.6537L62.7799 56.7998C61.7896 56.0526 61.8744 54.313 62.9202 52.927L58.3371 49.469C57.2914 50.855 55.6182 51.3962 54.6515 50.6668L45.1971 43.5332C44.228 42.802 44.2916 41.0463 45.3373 39.6604Z" fill="#E20000"/>
<path d="M67.5292 22.2415C69.2783 23.5612 72.2032 22.5852 74.0887 20.1353C75.1344 18.7494 76.7126 18.0834 77.6816 18.8146L83.7561 23.3979C88.8639 27.2518 88.5367 36.2884 83.0275 43.59L74.7127 54.61C73.871 55.7255 72.5163 56.1887 71.7127 55.5824L66.6073 51.7303C65.6146 50.9812 63.9929 51.5083 62.9217 52.928L58.3387 49.47C59.4099 48.0503 59.4456 46.3266 58.4789 45.5972L49.0245 38.4637C48.053 37.7307 46.4101 38.2416 45.3388 39.6614L40.2547 35.8253C41.3259 34.4056 41.364 32.6837 40.3949 31.9525L34.3465 27.3888C33.5405 26.7807 33.6164 25.3527 34.4581 24.2372L42.7729 13.2172C48.2821 5.91556 56.8819 3.12084 61.9873 6.97296L67.9436 11.4671C68.4163 11.8238 68.6637 12.4348 68.6352 13.156C68.609 13.8789 68.3135 14.6638 67.8034 15.3399C65.916 17.8414 65.8062 20.9414 67.5292 22.2415Z" fill="#E20000"/>
<path opacity="0.4" d="M115.337 50.6604L110.256 46.8261C109.21 48.2121 107.539 48.755 106.57 48.0239L100.519 43.4584C99.7131 42.8503 98.3886 43.2832 97.5214 44.4325L79.9991 67.6557C74.4899 74.9573 74.1586 84.0437 79.2663 87.8976L85.3857 92.5148C85.8608 92.8733 86.5139 92.9417 87.2019 92.7181C87.8875 92.4927 88.5612 91.9931 89.0713 91.3171C91.0097 88.748 93.7654 87.7504 95.4436 89.0166C97.195 90.3381 97.0847 93.3847 95.2186 95.9022C94.1728 97.2882 93.9656 98.9885 94.9583 99.7375L101.011 104.305C106.117 108.157 114.742 105.328 120.226 98.0605L137.774 74.8036C138.641 73.6543 138.689 72.2583 137.888 71.6537L132.78 67.7998C131.79 67.0526 131.874 65.313 132.92 63.927L128.337 60.469C127.291 61.855 125.618 62.3962 124.652 61.6668L115.197 54.5332C114.228 53.802 114.292 52.0463 115.337 50.6604Z" fill="#E20000"/>
<path d="M137.529 33.2415C139.278 34.5612 142.203 33.5852 144.089 31.1353C145.134 29.7494 146.713 29.0834 147.682 29.8146L153.756 34.3979C158.864 38.2518 158.537 47.2884 153.028 54.59L144.713 65.61C143.871 66.7255 142.516 67.1887 141.713 66.5824L136.607 62.7303C135.615 61.9812 133.993 62.5083 132.922 63.928L128.339 60.47C129.41 59.0503 129.446 57.3266 128.479 56.5972L119.024 49.4637C118.053 48.7307 116.41 49.2416 115.339 50.6614L110.255 46.8253C111.326 45.4056 111.364 43.6837 110.395 42.9525L104.346 38.3888C103.54 37.7807 103.616 36.3527 104.458 35.2372L112.773 24.2172C118.282 16.9156 126.882 14.1208 131.987 17.973L137.944 22.4671C138.416 22.8238 138.664 23.4348 138.635 24.156C138.609 24.8789 138.313 25.6638 137.803 26.3399C135.916 28.8414 135.806 31.9414 137.529 33.2415Z" fill="#E20000"/>
</svg>
