<svg width="93" height="101" viewBox="0 0 93 101" fill="none" xmlns="http://www.w3.org/2000/svg">
<path opacity="0.4" d="M45.3373 39.6604L40.2555 35.8261C39.2098 37.2121 37.539 37.755 36.5699 37.0239L30.5191 32.4584C29.7131 31.8503 28.3886 32.2832 27.5214 33.4325L9.99914 56.6557C4.48995 63.9573 4.15856 73.0437 9.26631 76.8976L15.3857 81.5148C15.8608 81.8733 16.5139 81.9417 17.2019 81.7181C17.8875 81.4927 18.5612 80.9931 19.0713 80.3171C21.0097 77.748 23.7654 76.7504 25.4436 78.0166C27.195 79.3381 27.0847 82.3847 25.2186 84.9022C24.1728 86.2882 23.9656 87.9885 24.9583 88.7375L31.0115 93.3048C36.1169 97.1569 44.7422 94.3283 50.2259 87.0605L67.7737 63.8036C68.6408 62.6543 68.689 61.2583 67.8877 60.6537L62.7799 56.7998C61.7896 56.0526 61.8744 54.313 62.9202 52.927L58.3371 49.469C57.2914 50.855 55.6182 51.3962 54.6515 50.6668L45.1971 43.5332C44.228 42.802 44.2916 41.0463 45.3373 39.6604Z" fill="black"/>
<path d="M67.5292 22.2415C69.2783 23.5612 72.2032 22.5852 74.0887 20.1353C75.1344 18.7494 76.7126 18.0834 77.6816 18.8146L83.7561 23.3979C88.8639 27.2518 88.5367 36.2884 83.0275 43.59L74.7127 54.61C73.871 55.7255 72.5163 56.1887 71.7127 55.5824L66.6073 51.7303C65.6146 50.9812 63.9929 51.5083 62.9217 52.928L58.3387 49.47C59.4099 48.0503 59.4456 46.3266 58.4789 45.5972L49.0245 38.4637C48.053 37.7307 46.4101 38.2416 45.3388 39.6614L40.2547 35.8253C41.3259 34.4056 41.364 32.6837 40.3949 31.9525L34.3465 27.3888C33.5405 26.7807 33.6164 25.3527 34.4581 24.2372L42.7729 13.2172C48.2821 5.91556 56.8819 3.12084 61.9873 6.97296L67.9436 11.4671C68.4163 11.8238 68.6637 12.4348 68.6352 13.156C68.609 13.8789 68.3135 14.6638 67.8034 15.3399C65.916 17.8414 65.8062 20.9414 67.5292 22.2415Z" fill="black"/>
</svg>
