<svg width="649" height="660" viewBox="0 0 649 660" fill="none" xmlns="http://www.w3.org/2000/svg">
<path d="M255.605 39.9451C238.46 -4.66423 153.637 -26.6931 167.634 62.1279C169.929 76.6916 170.16 101.769 167.634 132.293C165.32 160.255 120.021 175.555 106.116 211.685C84.3087 268.347 165.845 307.842 152.87 337.628C135.875 376.641 83.839 393.567 55.0562 414.911C27.9603 435.004 10.7011 467.244 4.07414 500.39C-7.55196 558.541 13.5465 619.481 71.6661 622.513C100.76 624.031 139.132 611.037 187.32 575.918C208.865 560.216 227.863 547.275 244.747 536.812C288.205 509.881 276.521 573.583 328.196 575.918C357.641 577.248 388.393 522.253 411.673 551.588C428.227 572.446 447.223 597.755 474.351 623.774C521.992 669.469 581.556 676.196 589.981 610.981C593.958 580.196 586.54 533.379 561.091 467.061C544.806 424.622 585.314 426.118 589.981 371.733C594.649 317.349 556.483 292.268 584.111 269.76L584.664 269.309C605.723 252.154 628.183 233.858 640.449 198.717C651.015 168.446 650.006 138.465 640.449 115.428C630.222 90.7724 610.205 74.0702 584.111 73.4778C557.929 72.8833 525.629 88.5075 490.961 128.59C468.103 155.017 452.624 93.5252 411.673 99.8111C370.723 106.097 365.032 165.428 340.5 148.22C297.886 118.327 275.685 92.1904 255.605 39.9451Z" stroke="#E20000" stroke-opacity="0.4"/>
<path d="M338.319 283.279C335.71 276.43 323.549 278.228 322.934 285.65C322.233 294.1 326.505 305.112 326.011 313.583C325.058 329.938 319.28 334.593 307.775 343.213C303.652 346.298 301.025 351.247 300.017 356.336C298.247 365.263 301.458 374.618 310.303 375.084C314.731 375.317 320.571 373.322 327.904 367.931C331.183 365.52 334.074 363.534 336.644 361.927C347.83 354.375 358.24 360.293 362.047 364.196C364.567 367.398 367.457 371.283 371.586 375.277C378.836 382.292 389.816 381.373 389.183 373.313C388.29 361.927 368.85 319.426 389.183 312.015C398.628 308.572 398.318 300.774 396.864 297.238C395.307 293.453 392.261 290.889 388.29 290.798C384.305 290.706 377.705 297.238 374.114 299.258C360.858 306.718 349.029 310.573 338.319 283.279Z" stroke="#E20000" stroke-opacity="0.4"/>
<path d="M181.817 81.5608C169.394 0.702806 246.908 20.859 262.627 61.7544C281.872 111.751 303.148 135.183 343.127 161.707C365.611 177.272 371.021 123.098 408.517 117.21C446.013 111.322 460.338 167.123 481.317 143.083C513.222 106.624 542.888 92.6402 566.852 93.5226C590.66 94.2212 608.913 109.673 618.135 132.359C626.747 153.574 627.457 181.105 617.414 208.801C604.307 241.722 585.378 262.213 566.153 278.968C541.044 299.81 575.535 322.832 570.963 372.344C566.392 421.856 529.119 420.358 543.608 458.654C566.387 518.63 572.874 560.875 569.027 588.595C561.188 647.753 506.668 641.41 462.913 599.744C437.823 575.979 420.048 552.99 404.478 534.353C383.062 507.809 354.818 558.023 327.729 557.03C280.377 555.15 290.709 497.359 250.901 521.964C235.272 531.587 217.753 543.4 197.948 557.676C153.299 589.586 118.093 600.564 91.7819 598.378C38.9461 595.39 19.8318 539.719 30.5282 486.608C36.6759 456.247 52.5332 426.734 77.3746 408.313C104.61 388.117 152.482 372.296 168.032 335.326C179.86 307.844 105.586 271.472 125.345 219.48C137.913 186.169 179.048 171.81 181.185 145.988C183.512 117.882 183.592 94.8581 181.817 81.5608Z" stroke="#E20000" stroke-opacity="0.4"/>
<path d="M196.635 101.812C185.805 29.1824 255.897 47.3997 270.167 84.4463C288.548 132.025 308.868 152.676 346.154 175.746C366.558 189.617 371.679 140.779 405.666 135.308C439.652 129.838 452.802 179.765 471.871 158.192C500.966 125.475 527.955 113.177 549.666 114.343C571.154 115.145 587.617 129.295 595.82 149.938C603.473 169.26 603.884 194.25 594.378 219.28C580.555 249.564 565.473 272.164 548.27 288.33C525.716 307.437 556.481 328.323 552.012 372.801C547.543 417.28 513.561 415.783 526.231 449.811C546.308 503.25 551.854 540.784 548.141 565.349C540.9 618.256 491.505 612.32 451.7 574.819C428.684 553.386 412.156 532.791 397.592 516.437C378.071 492.77 352.377 538.039 327.683 537.387C284.725 535.965 293.688 484.275 257.589 506.474C243.238 515.225 227.223 525.872 209.187 538.674C168.141 567.271 136.153 576.198 112.664 573.352C65.1892 570.418 48.087 520.199 57.8381 472.304C63.4977 444.828 77.9298 418.138 100.48 401.451C126.128 382.469 169.766 367.808 183.848 333.005C194.513 307.917 127.61 274.787 145.29 227.638C156.504 197.256 193.415 183.885 195.372 160.29C197.496 134.694 197.887 113.8 196.635 101.812Z" stroke="#E20000" stroke-opacity="0.4"/>
<path d="M210.814 121.246C201.56 56.5796 264.338 72.9241 277.18 106.257C294.727 151.586 314.123 169.532 348.774 189.233C367.129 201.461 371.969 157.781 402.499 152.708C433.029 147.635 445.024 191.872 462.213 172.686C488.543 143.592 512.897 132.934 532.388 134.389C551.589 135.297 566.286 148.196 573.482 166.87C580.19 184.368 580.302 206.908 571.318 229.364C556.757 257.119 545.499 281.902 530.291 297.536C510.258 314.977 537.345 333.803 532.971 373.409C528.597 413.015 497.854 411.517 508.724 441.4C526.129 488.499 530.742 521.46 527.159 542.96C520.504 589.81 476.157 584.259 440.241 550.787C419.264 531.608 403.957 513.332 390.376 499.199C372.721 478.323 349.537 518.812 327.2 518.496C288.568 517.529 296.177 471.75 263.73 491.624C250.635 499.534 236.099 509.054 219.805 520.429C182.299 545.817 153.48 552.729 132.776 549.214C90.5891 546.324 75.4728 501.375 84.2936 458.52C89.4738 433.83 102.503 409.865 122.798 394.852C146.899 377.017 186.37 363.463 199.006 330.702C208.523 307.919 148.888 277.912 164.518 235.433C174.393 207.87 207.137 195.441 208.918 173.985C210.841 150.808 211.545 131.967 210.814 121.246Z" stroke="#E20000" stroke-opacity="0.4"/>
<path d="M225.626 140.679C217.965 83.9782 273.318 98.4496 284.709 128.067C301.391 171.151 319.829 186.39 351.784 202.72C368.057 213.305 372.608 174.784 399.627 170.109C426.646 165.433 437.465 203.977 452.743 187.179C476.262 161.709 497.937 152.693 515.174 154.436C532.053 155.451 544.959 167.099 551.136 183.804C556.886 199.479 556.698 219.568 548.253 239.449C532.979 264.676 525.565 291.649 512.38 306.753C494.903 322.528 518.264 339.295 513.993 374.027C509.722 408.76 482.271 407.258 491.322 432.996C506.025 473.751 509.697 502.138 506.248 520.571C500.191 561.361 460.972 556.195 429.009 526.752C410.107 509.828 396.048 493.873 383.474 481.963C367.716 463.878 347.083 499.585 327.143 499.608C292.906 499.095 299.147 459.229 270.411 476.777C258.594 483.847 245.564 492.239 231.04 502.187C197.14 524.364 171.54 529.258 153.658 525.074C116.835 522.227 103.732 482.549 111.606 444.735C116.298 422.831 127.902 401.594 145.904 388.254C168.416 371.565 203.65 359.117 214.818 328.397C223.17 307.919 170.909 281.034 184.461 243.227C192.98 218.483 221.499 206.994 223.1 187.679C224.82 166.92 225.835 150.133 225.626 140.679Z" stroke="#E20000" stroke-opacity="0.4"/>
<path d="M240.431 161.027C234.363 112.418 282.288 124.984 292.229 150.821C308.042 191.561 325.52 204.06 354.775 216.983C368.966 225.9 373.227 192.624 396.734 188.357C420.241 184.091 429.883 216.856 443.25 202.483C463.957 180.694 482.951 173.339 497.934 175.367C512.491 176.485 523.606 186.857 528.764 201.555C533.556 215.372 533.069 232.966 525.163 250.227C509.181 272.869 505.608 301.97 494.445 316.51C479.525 330.582 499.159 345.252 494.992 375.033C490.825 404.815 466.668 403.314 473.901 424.849C485.901 459.169 488.633 482.918 485.321 498.243C479.863 532.883 445.771 528.114 417.762 502.767C400.938 488.135 388.128 474.535 376.562 464.875C362.702 449.622 344.621 480.468 327.078 480.828C297.238 480.77 302.112 446.907 277.087 462.089C266.55 468.303 255.026 475.549 242.273 484.048C211.982 502.965 189.602 505.831 174.542 500.986C143.082 498.19 131.992 463.871 138.92 431.183C143.123 412.114 153.3 393.652 169.01 382.014C189.929 366.51 220.925 355.196 230.624 326.587C237.811 308.458 192.925 284.756 204.398 251.705C211.563 229.837 235.856 219.314 237.277 202.183C238.794 183.889 240.118 169.193 240.431 161.027Z" stroke="#E20000" stroke-opacity="0.4"/>
<path d="M254.595 180.46C250.107 139.821 290.705 150.513 299.216 172.634C314.194 211.132 330.747 220.922 357.364 230.471C369.503 237.744 373.482 209.629 393.526 205.76C413.57 201.89 422.055 228.959 433.54 216.977C451.476 198.814 467.831 193.101 480.59 195.418C492.856 196.644 502.202 205.765 506.351 218.493C510.195 230.486 509.408 245.628 502.025 260.313C485.302 280.428 485.563 311.728 476.399 325.739C464.004 338.146 479.953 350.755 475.881 375.66C471.809 400.566 450.896 399.062 456.326 416.448C465.649 444.421 467.446 463.592 464.262 475.848C459.391 504.424 430.357 500.04 406.244 478.725C391.462 466.349 379.875 455.071 369.293 447.635C357.302 435.175 341.736 461.237 326.553 461.936C301.047 462.333 304.564 434.388 283.198 447.243C273.919 452.615 263.877 458.733 252.868 465.804C226.123 481.51 206.917 482.355 194.648 476.838C168.486 474.084 159.385 445.038 165.382 417.395C169.104 401.113 177.876 385.378 191.326 375.415C210.696 361.056 237.519 350.847 245.769 324.277C251.806 308.453 214.202 287.875 223.62 259.497C229.444 240.448 249.562 230.865 250.806 215.876C252.123 200 253.761 187.359 254.595 180.46Z" stroke="#E20000" stroke-opacity="0.4"/>
<path d="M269.384 199.892C266.486 167.229 299.65 176.046 306.709 194.449C320.811 230.713 336.395 237.791 360.302 243.96C370.356 249.586 374.043 226.637 390.571 223.165C407.099 219.693 414.405 241.06 423.976 231.469C439.095 216.935 452.766 212.867 463.268 215.475C473.21 216.808 480.763 224.678 483.893 235.437C486.779 245.606 485.695 258.295 478.855 270.402C461.436 287.99 465.527 321.507 458.386 334.993C448.549 345.733 460.772 356.282 456.806 376.307C452.84 396.332 435.226 394.825 438.839 408.058C445.46 429.676 446.318 444.264 443.272 453.448C439.002 475.956 415.102 471.955 394.948 454.675C382.247 444.556 371.914 435.601 362.345 430.394C352.254 420.73 339.244 442.005 326.462 443.044C305.358 443.897 307.509 421.874 289.859 432.4C281.862 436.932 273.328 441.921 264.094 447.563C240.965 460.054 224.984 458.873 215.538 452.68C194.743 449.969 187.655 426.2 192.704 403.604C195.937 390.11 203.28 377.105 214.434 368.816C232.203 355.6 254.781 346.496 261.561 321.961C266.432 308.442 236.209 290.988 243.548 267.285C248.016 251.057 263.906 242.413 264.97 229.564C266.083 216.108 268.029 205.523 269.384 199.892Z" stroke="#E20000" stroke-opacity="0.4"/>
<path d="M283.756 219.322C282.437 194.646 308.345 201.586 313.989 216.268C327.299 250.309 342.004 254.67 363.338 257.451C371.362 261.428 374.778 243.649 387.88 240.574C400.982 237.498 407.149 253.156 414.858 245.959C427.244 235.059 438.306 232.64 446.607 235.541C454.279 236.983 460.079 243.602 462.206 252.389C464.149 260.733 462.76 270.969 456.423 280.496C438.202 295.556 446.159 331.315 441.004 344.283C433.673 353.356 442.231 361.842 438.348 376.981C434.464 392.12 420.053 390.608 421.865 399.681C425.818 414.934 425.74 424.931 422.813 431.037C419.119 447.466 400.224 443.849 383.919 430.608C373.229 422.749 364.091 416.121 355.48 413.147C347.234 406.284 336.708 422.766 326.258 424.146C309.44 425.458 310.235 409.367 296.204 417.562L295.814 417.775C289.173 421.4 282.229 425.192 274.862 429.322C255.221 438.593 242.377 435.379 235.705 428.505C220.167 425.834 215.055 407.347 219.184 389.804C221.945 379.101 227.9 368.828 236.82 362.215C253.09 350.139 271.547 342.14 276.893 319.633C280.625 308.42 257.62 294.091 262.919 275.067C266.054 261.661 277.8 253.954 278.689 243.248C279.605 232.212 281.872 223.684 283.756 219.322Z" stroke="#E20000" stroke-opacity="0.4"/>
<path d="M298.508 239.695C298.779 223.113 317.23 228.146 321.416 239.042C333.833 270.707 347.549 272.332 366.148 271.713C372.079 274.024 375.199 261.494 384.773 258.829C394.347 256.164 399.328 266.044 405.116 261.273C414.672 254.055 423.04 253.294 429.076 256.476C434.417 258.019 438.419 263.358 439.526 270.135C440.51 276.617 438.825 284.353 433.039 291.257C414.151 303.723 425.92 341.561 422.791 353.95C418.024 361.317 422.85 367.702 419.078 377.889C415.306 388.075 404.209 386.566 404.205 391.439C405.456 400.26 404.44 405.623 401.655 408.624C398.565 418.903 384.822 415.686 372.493 406.542C363.895 400.978 356.022 396.706 348.434 395.977C342.097 391.944 334.137 403.562 326.098 405.277C313.698 407.041 313.129 396.952 302.826 402.779C297.358 405.611 291.802 408.323 286.071 411.085C270.068 417.096 260.461 411.864 256.617 404.34C246.457 401.723 243.363 388.599 246.54 376.186C248.808 368.322 253.328 360.826 259.944 355.918C274.593 345.037 288.786 338.178 292.658 317.801C295.22 308.944 279.616 297.805 282.831 283.544C284.609 273.018 292.118 266.285 292.826 257.767C293.537 249.201 296.108 242.768 298.508 239.695Z" stroke="#E20000" stroke-opacity="0.4"/>
<path d="M313.479 259.152C315.333 250.607 326.384 253.749 329.125 260.892C340.668 290.252 353.418 289.152 369.318 285.144C373.174 285.797 376.003 278.476 382.078 276.214C388.153 273.953 391.96 278.092 395.843 275.731C402.595 272.168 408.292 273.06 412.081 276.527C415.11 278.175 417.328 282.249 417.42 287.035C417.452 291.673 415.471 296.933 410.226 301.237C390.649 311.142 406.226 351.129 405.111 362.967C402.889 368.647 404.007 372.951 400.341 378.221C396.676 383.49 388.862 381.98 387.05 382.676C385.614 385.104 383.664 385.857 381.017 385.768C378.524 389.938 369.891 387.112 361.503 382.035C354.977 378.747 348.352 376.815 341.774 378.323C337.328 377.105 331.912 383.896 326.263 385.948C318.244 388.167 316.316 384.04 309.711 387.52C305.519 389.502 301.465 391.076 297.5 392.398C285.098 395.171 278.7 387.917 277.665 379.73C272.846 377.16 271.755 369.357 273.989 362.033C275.768 356.983 278.867 352.241 283.198 349.023C296.252 339.311 306.22 333.574 308.628 315.28C310.03 308.753 301.77 300.771 302.917 291.23C303.345 283.556 306.648 277.778 307.176 271.426C307.684 265.304 310.562 260.946 313.479 259.152Z" stroke="#E20000" stroke-opacity="0.4"/>
</svg>
