<svg width="88" height="75" viewBox="0 0 88 75" fill="none" xmlns="http://www.w3.org/2000/svg">
<path d="M46.0742 18.3679L46.1657 18.3947L46.1689 18.391C46.7063 18.4978 47.2475 18.1859 47.4068 17.6583C48.8878 12.7788 53.5544 9.36749 58.757 9.36749C59.3463 9.36749 59.8293 8.89804 59.8293 8.31309C59.8293 7.72812 59.3462 7.25869 58.757 7.25869C52.4064 7.25869 47.067 11.405 45.3522 17.0557C45.1816 17.6167 45.5084 18.2025 46.0742 18.3679Z" fill="#E20000" stroke="#F9FFF9" stroke-width="0.3"/>
<path d="M71.6691 52.6286H66.1354C65.6262 52.6286 65.2132 52.2236 65.2132 51.7242C65.2132 51.2249 65.6262 50.8198 66.1354 50.8198H71.6691C79.297 50.8198 85.5034 44.7339 85.5034 37.254C85.5034 29.7741 79.297 23.6882 71.6691 23.6882H71.536C71.2686 23.6882 71.0143 23.5745 70.839 23.3762C70.6638 23.1779 70.5848 22.9149 70.623 22.6553C70.7053 22.092 70.7468 21.5261 70.7468 20.975C70.7468 14.4925 65.3678 9.21793 58.757 9.21793C56.1851 9.21793 53.7325 10.006 51.6639 11.4976C51.2093 11.8251 50.5637 11.6798 50.3009 11.1895C44.4424 0.250299 29.1407 -1.21872 21.2075 8.29741C17.8656 12.3064 16.5525 17.5215 17.6047 22.6043C17.7207 23.1656 17.2826 23.6889 16.7009 23.6889H16.3313C8.7034 23.6889 2.49701 29.7748 2.49701 37.2547C2.49701 44.7346 8.7034 50.8205 16.3313 50.8205H21.865C22.3742 50.8205 22.7873 51.2256 22.7873 51.7249C22.7873 52.2243 22.3742 52.6293 21.865 52.6293H16.3313C7.68612 52.6293 0.652344 45.7321 0.652344 37.2546C0.652344 29.015 7.29671 22.2683 15.6073 21.8962C14.8267 16.6229 16.3195 11.3038 19.7793 7.15272C28.2729 -3.03648 44.5502 -1.89441 51.431 9.4673C53.6261 8.11781 56.138 7.40988 58.7567 7.40988C66.7661 7.40988 73.1128 14.0946 72.5575 21.9046C80.7915 22.3574 87.3477 29.0686 87.3477 37.254C87.3477 45.7321 80.3139 52.6287 71.6687 52.6287L71.6691 52.6286Z" fill="#E20000"/>
<path d="M20.6693 51.2132C20.6693 63.7661 31.0829 73.9732 43.8768 73.9732C56.6708 73.9732 67.0842 63.7659 67.0842 51.2132C67.0842 38.6604 56.6708 28.4533 43.8768 28.4533C31.0828 28.4533 20.6693 38.6606 20.6693 51.2132ZM22.8143 51.2132C22.8143 39.8295 32.2603 30.5625 43.8768 30.5625C55.4931 30.5625 64.9392 39.8293 64.9392 51.2132C64.9392 62.597 55.4931 71.864 43.8768 71.864C32.2605 71.864 22.8143 62.5972 22.8143 51.2132Z" fill="#E20000" stroke="#F9FFF9" stroke-width="0.3"/>
<path d="M43.474 60.3155C43.474 60.7667 43.8464 61.1276 44.2992 61.1276C44.7521 61.1276 45.1245 60.7672 45.1245 60.3155V43.1003C45.1245 42.6492 44.7521 42.2882 44.2992 42.2882C43.8464 42.2882 43.474 42.6492 43.474 43.1003V60.3155Z" fill="#E20000" stroke="#E20000" stroke-width="0.3"/>
<path d="M49.118 48.9741C49.2791 49.1321 49.4906 49.2109 49.7004 49.2109H49.7005C49.9101 49.2109 50.1218 49.1327 50.2831 48.9739C50.6067 48.6564 50.6066 48.1409 50.2829 47.8235L44.8812 42.5266C44.5592 42.2108 44.038 42.2106 43.7162 42.5266C43.7162 42.5266 43.7162 42.5267 43.7161 42.5267L38.3145 47.8235C37.9907 48.141 37.9907 48.6566 38.3145 48.9741C38.6366 49.2899 39.1579 49.2901 39.4796 48.974L44.2987 44.2484L49.118 48.9741Z" fill="#E20000" stroke="#E20000" stroke-width="0.3"/>
</svg>
