<svg width="30" height="30" viewBox="0 0 30 30" fill="none" xmlns="http://www.w3.org/2000/svg">
<rect width="30" height="30" rx="15" fill="#19235B"/>
<path d="M5.90137 23.7249L7.18753 19.0544C6.39237 17.6835 5.97523 16.131 5.97958 14.5439C5.97958 9.57076 10.0466 5.52734 15.0392 5.52734C17.4638 5.52734 19.7407 6.46576 21.4483 8.16962C23.1603 9.87348 24.1032 12.1395 24.0989 14.5483C24.0989 19.5215 20.0318 23.5649 15.0349 23.5649H15.0305C13.5141 23.5649 12.0237 23.1843 10.6984 22.4665L5.90137 23.7249ZM10.9287 20.8361L11.2025 21.0004C12.3583 21.6837 13.6835 22.0427 15.0349 22.047H15.0392C19.1889 22.047 22.5694 18.6868 22.5694 14.5526C22.5694 12.5503 21.7873 10.6692 20.3664 9.25075C18.9455 7.83231 17.051 7.0539 15.0392 7.0539C10.8896 7.04957 7.50908 10.4097 7.50908 14.5439C7.50908 15.9581 7.90449 17.3376 8.66054 18.5311L8.83869 18.8166L8.07829 21.5799L10.9287 20.8361Z" fill="white"/>
<path d="M6.21875 23.4089L7.46147 18.8985C6.69237 17.5795 6.28827 16.0789 6.28827 14.548C6.29262 9.74781 10.2163 5.84277 15.0394 5.84277C17.3815 5.84277 19.5758 6.75092 21.2269 8.39424C22.8781 10.0375 23.7862 12.2258 23.7862 14.5523C23.7862 19.3525 19.8582 23.2576 15.0394 23.2576H15.0351C13.5708 23.2576 12.1325 22.89 10.855 22.1981L6.21875 23.4089Z" fill="#19235B"/>
<path d="M5.90137 23.7249L7.18753 19.0544C6.39237 17.6835 5.97523 16.131 5.97958 14.5439C5.97958 9.57076 10.0466 5.52734 15.0392 5.52734C17.4638 5.52734 19.7407 6.46576 21.4483 8.16962C23.1603 9.87348 24.1032 12.1395 24.0989 14.5483C24.0989 19.5215 20.0318 23.5649 15.0349 23.5649H15.0305C13.5141 23.5649 12.0237 23.1843 10.6984 22.4665L5.90137 23.7249ZM10.9287 20.8361L11.2025 21.0004C12.3583 21.6837 13.6835 22.0427 15.0349 22.047H15.0392C19.1889 22.047 22.5694 18.6868 22.5694 14.5526C22.5694 12.5503 21.7873 10.6692 20.3664 9.25075C18.9455 7.83231 17.051 7.0539 15.0392 7.0539C10.8896 7.04957 7.50908 10.4097 7.50908 14.5439C7.50908 15.9581 7.90449 17.3376 8.66054 18.5311L8.83869 18.8166L8.07829 21.5799L10.9287 20.8361Z" fill="white"/>
<path fill-rule="evenodd" clip-rule="evenodd" d="M12.7752 10.7734C12.6057 10.3972 12.4276 10.3885 12.2668 10.3842C12.1365 10.3799 11.9844 10.3799 11.8323 10.3799C11.6802 10.3799 11.4369 10.4361 11.2283 10.661C11.0198 10.8859 10.4375 11.4307 10.4375 12.5421C10.4375 13.6492 11.25 14.7217 11.363 14.873C11.476 15.0244 12.9316 17.3726 15.2302 18.2764C17.1421 19.0289 17.5331 18.8775 17.9459 18.8386C18.3587 18.7997 19.2842 18.2937 19.4754 17.7661C19.6623 17.2386 19.6623 16.7888 19.6058 16.6937C19.5493 16.5985 19.3972 16.5423 19.1713 16.4299C18.9453 16.3174 17.833 15.7725 17.6244 15.6947C17.4158 15.6212 17.2637 15.5823 17.116 15.8071C16.9639 16.032 16.5294 16.538 16.3991 16.6893C16.2687 16.8407 16.134 16.858 15.9081 16.7456C15.6821 16.6331 14.9521 16.3953 14.0874 15.6255C13.4139 15.0287 12.9577 14.2892 12.8273 14.0644C12.697 13.8395 12.8143 13.7184 12.9273 13.606C13.0272 13.5065 13.1532 13.3422 13.2662 13.2124C13.3792 13.0827 13.4183 12.9876 13.4921 12.8362C13.566 12.6848 13.5313 12.5551 13.4748 12.4427C13.4183 12.3346 12.9751 11.2188 12.7752 10.7734Z" fill="white"/>
</svg>
