<svg width="55" height="56" viewBox="0 0 55 56" fill="none" xmlns="http://www.w3.org/2000/svg">
<g id="Iconly/Bulk/Work">
<g id="Work">
<path id="Fill 1" opacity="0.4" d="M4.58374 25.8877C4.69832 31.2456 5.01916 40.41 5.06499 41.4206C5.2277 43.5817 6.05499 45.7656 7.34291 47.3056C9.13499 49.4667 11.3419 50.4314 14.4196 50.4314C18.6729 50.4544 23.3617 50.4544 27.9152 50.4544C32.4871 50.4544 36.9237 50.4544 40.6706 50.4314C43.7048 50.4314 45.9804 49.4414 47.7496 47.3056C49.0375 45.7656 49.8648 43.5587 49.9817 41.4206C50.0275 40.5704 50.2567 30.6223 50.3942 25.8877H4.58374Z" fill="#E20000"/>
<path id="Fill 4" d="M25.7708 35.7549V38.7203C25.7708 39.669 26.5408 40.439 27.4895 40.439C28.4383 40.439 29.2083 39.669 29.2083 38.7203V35.7549C29.2083 34.8061 28.4383 34.0361 27.4895 34.0361C26.5408 34.0361 25.7708 34.8061 25.7708 35.7549" fill="#E20000"/>
<path id="Fill 6" fill-rule="evenodd" clip-rule="evenodd" d="M23.4009 33.8582C23.1717 34.69 22.3719 35.2217 21.5057 35.1071C15.6596 34.2913 10.0725 32.2173 5.35628 29.1029C4.87273 28.7867 4.58398 28.2459 4.58398 27.6684V19.7254C4.58398 14.9129 8.50732 10.9988 13.3313 10.9988H17.839C18.2698 7.67128 21.0886 5.08398 24.5307 5.08398H30.4477C33.8875 5.08398 36.7086 7.67128 37.1394 10.9988H41.67C46.4802 10.9988 50.3944 14.9129 50.3944 19.7254V27.6684C50.3944 28.2459 50.1034 28.7844 49.6244 29.1029C44.899 32.2311 39.289 34.3142 33.404 35.1277C33.3238 35.1392 33.2459 35.1438 33.1679 35.1438C32.3911 35.1438 31.6967 34.619 31.5019 33.849C31.039 32.0248 29.3821 30.7484 27.4777 30.7484C25.5482 30.7484 23.9096 31.9973 23.4009 33.8582ZM30.4477 8.52148H24.5307C22.9884 8.52148 21.7004 9.57565 21.3154 10.9988H33.6607C33.2757 9.57565 31.9877 8.52148 30.4477 8.52148Z" fill="#E20000"/>
</g>
</g>
</svg>
